<svg xmlns="http://www.w3.org/2000/svg" viewBox="0 0 130.05 84.89"><defs><style>.a{fill:#595757;}</style></defs><path class="a" d="M251.49,323.6c.14.23.37.44.39.67a5.13,5.13,0,0,0,2.27,3.37,5.84,5.84,0,0,0,3.71,1.3,6,6,0,0,0,3.28-1.08,8.31,8.31,0,0,0,3.39-4.62c.15-.52.16-1.13.81-1.54.11.32.32.61.29.89a5.21,5.21,0,0,1-.35,1.62,8.89,8.89,0,0,1-5.91,5.48,6,6,0,0,1-4.08-.32,9.08,9.08,0,0,1-3-2.08c-.21-.22-.48-.41-.77-.66-1.75,5.67-5.65,8.57-11.43,9.35a13.38,13.38,0,0,1-2.66,3,11.76,11.76,0,0,1-11.1,2.46,7.9,7.9,0,0,1-1.53-.65,1.28,1.28,0,0,1-.44-.48c0-.07,0-.2,0-.43a28.27,28.27,0,0,0,3.14.87,21.73,21.73,0,0,0,3.33.15,6.72,6.72,0,0,0,3.05-.76,15.53,15.53,0,0,0,2.8-1.8,7.13,7.13,0,0,0,2.17-2.62c-.39-.14-.72-.27-1.06-.38a5,5,0,0,1-2-1.24,2.18,2.18,0,0,1-.38-2.75,3,3,0,0,1,1.77-1.44,2.54,2.54,0,0,1,3.1,1.33,3.82,3.82,0,0,1,.57,2.56c0,.26-.06.52-.1.91a7.08,7.08,0,0,0,1.22-.09,11.13,11.13,0,0,0,8.17-7.18,16,16,0,0,0,.57-2.6c.11-.62.08-.62.77-1.29m-12,11a2.36,2.36,0,0,0,.27-2,2.42,2.42,0,0,0-.89-1.36c-.89-.65-1.6-.38-2.31.41a1.38,1.38,0,0,0,.27,2.05,3.65,3.65,0,0,0,2.66.91" transform="translate(-220 -316.22)"/><path class="a" d="M298,325.3a12,12,0,0,1-4.2,1.69,8.72,8.72,0,0,1-8.26-2.51,7,7,0,0,1-1.95-4.16,3.06,3.06,0,0,1,.36-1.92c0-.07.19-.07.41-.13a3.07,3.07,0,0,1,.1.58,7,7,0,0,0,4.8,6.9,9.08,9.08,0,0,0,7.71-.9,1.31,1.31,0,0,0,.24-.23,2.72,2.72,0,0,0,.24-.36c-.2-.56-.44-1.18-.65-1.8a5.08,5.08,0,0,1,0-3.44,4.47,4.47,0,0,1,2.59-2.66,1.77,1.77,0,0,1,2.44,1.48,6.54,6.54,0,0,1-.26,2.64,9.63,9.63,0,0,1-1.87,3.33c-.21.24-.39.52-.61.8a4.84,4.84,0,0,0,3.77,2,7.79,7.79,0,0,0,3.12-.47,10.14,10.14,0,0,0,4.77-3.22c.42-.57.95-1,1.7-.53.15.54-.2.87-.53,1.14A2.46,2.46,0,0,0,311,326a3.3,3.3,0,0,0,1.92,2.56,4.73,4.73,0,0,0,2.92.46c.71-.13,1.43-.24,2.14-.35.33,0,.66-.06,1.21-.1-.25.35-.34.63-.53.72a6.55,6.55,0,0,1-6.68,0,4.05,4.05,0,0,1-1.76-2.36c-.15-.48-.25-1-.41-1.56a11.33,11.33,0,0,0-2,1,9.45,9.45,0,0,1-4.31,1.16,6,6,0,0,1-4.31-1.44,11,11,0,0,0-1.1-.77m.46-1.68a8.17,8.17,0,0,0,2.35-4.39,4.18,4.18,0,0,0,0-1.32.74.74,0,0,0-1-.59,3.07,3.07,0,0,0-1.67,1.28c-1.05,1.67-.58,3.23.35,5" transform="translate(-220 -316.22)"/><path class="a" d="M350.05,350.93a1.84,1.84,0,0,1-1.5,1.11,6.4,6.4,0,0,1-6.34-1.57,5.09,5.09,0,0,1-1.41-5.21c.08-.38.22-.75.36-1.24a6,6,0,0,0-1.13-.12,10.7,10.7,0,0,1-4.41-.77,5.28,5.28,0,0,1-2.86-2.2,6,6,0,0,1-.25-5.75c.08-.2.37-.31.77-.61,0,.51-.06.77-.09,1-.09.88-.25,1.76-.27,2.64a3.87,3.87,0,0,0,2.16,3.53,8.11,8.11,0,0,0,6.74.82c.21-.06.41-.17.63-.23s.66.35.53.65a9.06,9.06,0,0,1-.55,1c-2,3.29.1,6.84,3.69,7.26a5.19,5.19,0,0,0,2.31-.18,9.6,9.6,0,0,1,1.62-.18" transform="translate(-220 -316.22)"/><path class="a" d="M281.05,318.78c0,.25.1.57,0,.76a6.75,6.75,0,0,1-1.16,1.61c-3.19,2.86-8.6,3.27-11.9.71a1.83,1.83,0,0,1-.47-.45.53.53,0,0,1,0-.46.48.48,0,0,1,.42-.19,3,3,0,0,1,.71.41,8.58,8.58,0,0,0,11.3-1.62c.25-.34.43-.82,1.1-.77" transform="translate(-220 -316.22)"/><path class="a" d="M327,325.22a33.22,33.22,0,0,1-3.56,4.67c-.59.65-1.23,1.26-1.86,1.88a.32.32,0,0,1-.3,0,.68.68,0,0,1-.15-.42,2.46,2.46,0,0,1,.37-.54c.59-.74,1.2-1.46,1.78-2.2.88-1.13,1.75-2.28,2.63-3.42.28-.37.59-.48,1.09,0" transform="translate(-220 -316.22)"/><path class="a" d="M226.56,346.22a1,1,0,0,1-1.4.08c-1.16-.78-2.32-1.54-3.48-2.31-.51-.34-1-.64-1.53-1a.43.43,0,0,1,.42-.75,4.63,4.63,0,0,1,1.05.51q2,1.31,4,2.65a9.05,9.05,0,0,1,.9.83" transform="translate(-220 -316.22)"/><path class="a" d="M331,329.3c-.14.32-.17.57-.31.7-1.22,1.05-2.45,2.07-3.69,3.1a.22.22,0,0,1-.15.06,1.46,1.46,0,0,1-.43-.15.28.28,0,0,1-.06-.29,4.58,4.58,0,0,1,.72-.91c1-.85,2-1.69,3.09-2.49.15-.12.47,0,.83,0" transform="translate(-220 -316.22)"/><path class="a" d="M263.48,317.26c.22,0,.47,0,.52.09a7,7,0,0,1,.8,3.3.31.31,0,0,1-.22.21c-.14,0-.38,0-.42-.11a5.67,5.67,0,0,1-.68-3.49" transform="translate(-220 -316.22)"/><path class="a" d="M312.24,321.42a7.06,7.06,0,0,1,2.1-2.48c.1-.09.41,0,.58.06s.1.33,0,.44a5.74,5.74,0,0,1-2,2c-.15.09-.4,0-.73,0" transform="translate(-220 -316.22)"/><path class="a" d="M251.06,322.11c-.23-.18-.5-.3-.61-.5a2.53,2.53,0,0,1-.26-.94.65.65,0,0,1,.26-.53c.31-.19.5.08.6.34a1.42,1.42,0,0,1,0,1.63" transform="translate(-220 -316.22)"/><path class="a" d="M259.33,350.79v2.56c.44.81,1.49.29,1.89,1.12-.18.13-.33.32-.51.36a2.93,2.93,0,0,1-1,0c-1.21-.19-1.47-.5-1.41-1.76a18.54,18.54,0,0,1,.22-2c0-.29.29-.45.79-.32" transform="translate(-220 -316.22)"/><path class="a" d="M262.73,356a3.51,3.51,0,0,1-.4.86,3.45,3.45,0,0,1-4.4.09.57.57,0,0,1-.14-.44c0-.27.29-.29.51-.24s.41.15.62.21a2.73,2.73,0,0,0,2.94-.41c.14-.13.48-.05.87-.07" transform="translate(-220 -316.22)"/><path class="a" d="M263.63,344.94c.35,0,.62-.09.73,0,.64.6,1.24,1.23,1.83,1.87a.41.41,0,0,1-.06.42.47.47,0,0,1-.43.08c-.58-.51-1.14-1-1.67-1.58a3.27,3.27,0,0,1-.4-.8" transform="translate(-220 -316.22)"/><path class="a" d="M303.42,360.05c1.19.37,2.19.66,3.17,1,.69.23.8.74.29,1.25a2,2,0,0,1-2.92,0,2.52,2.52,0,0,1-.78-1.59c0-.19.14-.39.24-.67" transform="translate(-220 -316.22)"/><path class="a" d="M241.93,360.64a5.48,5.48,0,0,0,.79.17,1.92,1.92,0,0,0,1.79-.58c.18-.22.53-.32.69,0a.83.83,0,0,1-.1.73,2.35,2.35,0,0,1-2.35.85,3,3,0,0,1-.9-.36c-.1-.05-.14-.28-.12-.42a1.08,1.08,0,0,1,.2-.37" transform="translate(-220 -316.22)"/><path class="a" d="M225.63,365.21c.11.13.24.24.36.36a26.84,26.84,0,0,0,4.2,3.29,15.65,15.65,0,0,0,7.32,2.58l1.05.11c0,2,.06,4,.14,5.91s.25,4,.38,6a3,3,0,0,1-.61,0l-3.67-1.09c-1.54-.47-3.07-1-4.62-1.43a3.22,3.22,0,0,0-2-.14c-.86,1.92-1.68,3.74-2.48,5.57s-1.56,3.69-2.38,5.52a2.93,2.93,0,0,0,.13,2.87c.23.38.43.78.63,1.18.64,1.29,1.27,2.59,1.94,3.94-.33.44-.65.84-1,1.25H329a.14.14,0,0,1,0-.06c1.29-3.12,2.58-6.26,3.88-9.39.64-1.55,1.31-3.08,1.92-4.64.38-1,.22-1.33-.67-2a3.38,3.38,0,0,0-.7-.43c-1.12-.49-2.26-.94-3.37-1.44a13.22,13.22,0,0,1-2.64-1.36c.25-.6.45-1.11.66-1.62a17.07,17.07,0,0,0,.75-1.85,3.21,3.21,0,0,0,0-1.31.78.78,0,0,0-.41-.47,1.41,1.41,0,0,0-2,.63,11.26,11.26,0,0,0-.51,1.05c-.69,1.52-1.39,3-2.06,4.57-1.19,2.69-2.39,5.39-3.55,8.1a8.55,8.55,0,0,1-1.1,2c-2.32-.21-2.76-.32-3.92-1,.05-.2.1-.41.17-.61q.83-2.44,1.64-4.9a1.23,1.23,0,0,0-.63-1.69,2.83,2.83,0,0,0-.77-.28c-1.41-.29-2.83-.57-4.25-.83a3.75,3.75,0,0,1-1.51-.42,67,67,0,0,1,4.41-8.66c1.95-.67,3.75-1.26,5.52-1.91a20.73,20.73,0,0,0,7.27-4.64,14.67,14.67,0,0,0,3.69-5.5,7.51,7.51,0,0,0,.39-1.62,1.43,1.43,0,0,0-.23-.75,3.68,3.68,0,0,0-.45-.59c.21-.33.36-.56.5-.8a3.27,3.27,0,0,1,2.1-1.77,3.54,3.54,0,0,0,1-.56,2.66,2.66,0,0,0,1.33-3.26,5,5,0,0,0-3.75-3.67,5.46,5.46,0,0,0-5.24,1.48,3.14,3.14,0,0,0-.31,4.13c.22.31.47.6.73.94a8.43,8.43,0,0,1-.48.73,1.77,1.77,0,0,1-.6.56,7.28,7.28,0,0,0-2.25,1.95,8.8,8.8,0,0,1-1.13,1,20.64,20.64,0,0,1-5,2.66,13.07,13.07,0,0,1-5.74.86c-.49,0-1,0-1.28-.56,0-.06.06-.13.1-.14a7,7,0,0,1,.79-.2,6.51,6.51,0,0,0,3.79-2,2.61,2.61,0,0,0,.17-3.61,7.81,7.81,0,0,0-.81-.59,4.7,4.7,0,0,0,2.15-4.35,4.31,4.31,0,0,1,.3-1.62c.74-1.92,1.52-3.83,2.31-5.73a2.3,2.3,0,0,1,.64-.72c.21-.19.48-.29.69-.47a4,4,0,0,0,1.59-3.5,3.43,3.43,0,0,0-3.16-3.16,16.11,16.11,0,0,0-2.2,0c-2.44-2.51-4.08-2.8-6.47-1.06L309,335.2a6.4,6.4,0,0,0-8.11,1.62,2.79,2.79,0,0,0-.44,3,21.43,21.43,0,0,0,1.26,2.26c-.15,1.27-.33,2.81-.52,4.39a3.12,3.12,0,0,0-2.58,2.6,4.26,4.26,0,0,1-.74,1.65,1.74,1.74,0,0,0-.09,2c.15.28.51.46.39.91a3.71,3.71,0,0,0-1.33,3c.14,1.27,1.12,2,2,2.84a2,2,0,0,1-.63.07,9.75,9.75,0,0,1-6.07-4.38,12.7,12.7,0,0,1-1.63-6.21,1.66,1.66,0,0,0-.13-.37l-1.22-.49c0-.47,0-.9.07-1.17a19,19,0,0,0,2-1.74,3.67,3.67,0,0,0,.66-4.2,3.92,3.92,0,0,0-3.15-2.23,6.12,6.12,0,0,0-5.63,1.9,3.72,3.72,0,0,0,.49,5.82,4.39,4.39,0,0,1,.82.56c.14.17.11.48.17.77l-1.49.32c-.92,1.22-.74,2.7-1.19,4-4.66-.69-7.26.82-8.57,4.12-1.4.16-2,1.31-2.74,2.45-.81-.35-1.56-.72-2.33-1s-1.56-.49-2.59-.81c.55-.48.92-.81,1.31-1.12s.56-.35.83-.53c1.45-.9,2.83-1.85,2.93-3.76.58-.21,1.12-.35,1.62-.58a5,5,0,0,0,2.91-3.25,2,2,0,0,0-2.58-2.5,4.29,4.29,0,0,0-1.63.8,5,5,0,0,1-.81.58c-.27.15-.44.55-.94.34-.06-.26-.16-.57-.21-.89a7.79,7.79,0,0,0-1.84-3.88,9.07,9.07,0,0,0-12-1.54,8.37,8.37,0,0,0-3.94,8.3,4.43,4.43,0,0,1-.43,2.55,3.07,3.07,0,0,0,.66,4,5.22,5.22,0,0,0,1.38.9c.44.22.92.35,1.33.51.22.56,0,.79-.46.92a13.08,13.08,0,0,0-3.73,1.83,4.63,4.63,0,0,1-.8.33,19.74,19.74,0,0,1,.19-2.48,4.56,4.56,0,0,0-.86-3.62,15.59,15.59,0,0,0-2.84-3.24c-3.69-3.17-9.3-.56-10.36,2.91a9.94,9.94,0,0,0,.18,6.55,8,8,0,0,0,4,4.52c.34.17.67.36,1,.55-.7.83-.72.87-1.51,1a8.87,8.87,0,0,1-4.57-.72,12.25,12.25,0,0,1-4.65-3.95,1.9,1.9,0,0,1-.44-2.11,6.74,6.74,0,0,0,.23-2.47,3.37,3.37,0,0,0-.42-1.42,1.06,1.06,0,0,0-2-.15c-.31.44-.56.92-.83,1.36a11.84,11.84,0,0,0-1.37-.5,3.68,3.68,0,0,0-2.76.22,1.89,1.89,0,0,0-.72.65,3.91,3.91,0,0,0,.69,4.62,27.13,27.13,0,0,1,3.39,3.64m4.45,27c-.42-.69-.34-.94.39-1.18.42-.13.84-.27,1.27-.36.79-.17,1,0,1.15,1.25l-2.44.87-.37-.58m1.56,4c-.16-.48-.28-.88-.44-1.36a11.85,11.85,0,0,1,2.57-.95l.51,1.42a6.78,6.78,0,0,1-2.64.89m2.35-6.12a4.1,4.1,0,0,1,2.18-.9.93.93,0,0,1,1.17.56.49.49,0,0,1-.35.64l-1.55.52c-.87.3-.87.3-1.45-.82m4.66,3.57a3.67,3.67,0,0,1-.86.49c-.52.2-1,.36-1.73.59a7,7,0,0,1-.47-.81,3.25,3.25,0,0,1-.13-.65,5.48,5.48,0,0,1,2.32-1.3.92.92,0,0,1,1.16.35,1,1,0,0,1-.29,1.33m88.76-8.2c.75.15,1.5.3,2.25.48a2.76,2.76,0,0,1,.91.34,4.55,4.55,0,0,1,.68,1.05c-.86-.15-1.29-.21-1.71-.31-.8-.17-1.6-.38-2.4-.56-.33-.07-.64-.18-.65-.59s.42-.5.92-.41m-.81,2.18a26.71,26.71,0,0,1,3.07.56,5,5,0,0,1,1.22.8,3.57,3.57,0,0,1-.75.42,1.32,1.32,0,0,1-.65-.05c-1-.3-2-.61-3-.94a4.45,4.45,0,0,1-.7-.4c.36-.19.59-.42.79-.39m-1.25,2.3a2.77,2.77,0,0,1,.89-.1c1.08.22,2.14.49,3.21.77a.67.67,0,0,1,.39.29.72.72,0,0,1,.07.46c0,.08-.15.14-.24.2a.32.32,0,0,1-.17,0,5.25,5.25,0,0,1-1-.1c-.91-.25-1.81-.54-2.7-.84a2,2,0,0,1-.52-.37l.05-.33m-58.27.4c-1.36.61-2.75-.17-4.18.42a63.27,63.27,0,0,1-1.36-7.45c0-.19.12-.41.2-.64.9-.33,1.78,0,2.64,0l2.52-.23a3,3,0,0,1,.21.65q.08,3.33.12,6.65a3.11,3.11,0,0,1-.15.64m1.08-9.86c-.22,0-.52.08-.61.22-.51.91-1.4.78-2.21.85a13.23,13.23,0,0,1-4.06-.09,3.83,3.83,0,0,1-.27-.72A1.76,1.76,0,0,0,259.1,379a9.19,9.19,0,0,0-1.48,0c-1.37.2-2.73.48-4.1.71l-3.71.61c0-.48,0-.85.06-1.21s.11-.65.19-1.07a32.86,32.86,0,0,0,7.34-2.17c2.13.52,4.12,1,6.13,1.48a17.61,17.61,0,0,0,7.08.45,5.53,5.53,0,0,1,.44,2.13,2.62,2.62,0,0,1-1.42.36,10.33,10.33,0,0,0-1.47.16m7.39,7.61c-.83,0-1.65.1-2.48.09s-1.43-.1-2.14-.18c-.08,0-.22-.16-.21-.22s.1-.34.21-.38a2.69,2.69,0,0,1,.8-.14c.61,0,1.22,0,1.83,0v-.1h2c.31,0,.59.15.58.46a.55.55,0,0,1-.58.48M270,386.41c.28-.31.38-.55.52-.58,1-.16,2-.3,3-.41.66-.08,1.32-.1,2-.14.31,0,.59.07.58.41a.58.58,0,0,1-.37.43,27.4,27.4,0,0,1-5.67.29m6.43-2.83a.86.86,0,0,1-.45.15c-1.71.12-3.42.23-5.13.31a2.92,2.92,0,0,1-.74-.17c0-.11,0-.23,0-.34a4.14,4.14,0,0,1,1-.4c1.42-.17,2.84-.28,4.27-.39a3.2,3.2,0,0,1,1,.08c.12,0,.26.22.28.36a.52.52,0,0,1-.2.4m8.29-7.16c-.5,0-1,0-1.5,0h-1.57c-1.38.95-.47,2.38-1,3.53a37,37,0,0,1-8,.31,1.55,1.55,0,0,1-.28-.39c-.21-.62-.4-1.26-.62-2a7.23,7.23,0,0,1,1.07-.45,4.94,4.94,0,0,0,3.69-3.71,20.86,20.86,0,0,0,.41-2.63c0-.22.07-.43.12-.84a6.64,6.64,0,0,1,.81.11,8.7,8.7,0,0,0,4.61-.24,2.25,2.25,0,0,1,1.76.1,8.72,8.72,0,0,0,3.94.59,30,30,0,0,1-1.74,5.75c-.6-.06-1.13-.14-1.67-.17m.5-9a8.91,8.91,0,0,1-2,1.4,7.17,7.17,0,0,1-5.32.56,1.36,1.36,0,0,1-1.14-1.23,22.52,22.52,0,0,0-.58-2.25,2.92,2.92,0,0,1,0-.71,5.24,5.24,0,0,0,4.31-2.27c1.26.08,2.55.25,3.53-.95.67,1,1.26,1.76,1.79,2.6a2.23,2.23,0,0,1-.57,2.85m1.9-1.48c1.64,1.32,1.76,1.82,1.11,3.82a4.47,4.47,0,0,1-3.5-.48c1-1,2.1-1.73,2.39-3.34m14.49,20.79c-.15.48-.3,1-.48,1.42a1.36,1.36,0,0,1-1.43.92,11.11,11.11,0,0,1-1.16-.1c-1.36-.21-2.71-.44-4.25-.69a9.58,9.58,0,0,1,1-4.39,3,3,0,0,1,.66,0c1.42.19,2.85.37,4.27.62,1.63.28,1.84.68,1.36,2.25m25.72-35.14a4.53,4.53,0,0,1,4.5-1.09,4,4,0,0,1,2.78,3.28,1.6,1.6,0,0,1-.82,1.7,7.41,7.41,0,0,1-1.79.87,2.08,2.08,0,0,0-1.26,1c-.29.53-.65,1-1.06,1.66l-2.36-1.37c.06-.75.82-1.26.6-2.14a9.37,9.37,0,0,1-.82-.89,2.16,2.16,0,0,1,.23-3m-12.42,7.83a2.52,2.52,0,0,1-1.12,1.4,3,3,0,0,1-2.24.86l1.48-3.88a3.54,3.54,0,0,1,.58-.11c1.2.06,1.62.62,1.3,1.73M301.2,338.93a1.61,1.61,0,0,1,.41-1.4c1.9-2.31,4.87-3,7.53-1a3,3,0,0,1,1.21,2.44c0,.67.22.94.5.86.48-.15.48-.58.53-1a2.54,2.54,0,0,0-.1-.81c-.08-.38-.19-.75-.3-1.14a2.05,2.05,0,0,1,1.65-1,3.13,3.13,0,0,1,1.9.48,3.24,3.24,0,0,1,1.62,3.84,2.32,2.32,0,0,0-.11.64c0,.09.1.25.17.26s.41,0,.45-.06a7,7,0,0,0,.59-1.52,8,8,0,0,0,0-1.56,3.25,3.25,0,0,1,3,.67,2.57,2.57,0,0,1,.26,3.74,6.09,6.09,0,0,1-1.37,1.2,2.56,2.56,0,0,0-1,1.29c-.71,1.87-1.51,3.7-2.28,5.55a3.81,3.81,0,0,1-.33.55,24.86,24.86,0,0,0-13.25-2.71c-.41-.24-.31-.52-.28-.79.16-1.66.35-3.32.49-5,.06-.65.2-1.37-.64-1.7a18.14,18.14,0,0,1-.72-1.85m-2.76,18.88a2,2,0,0,1-.18-2.74,8.57,8.57,0,0,1,.86-.83c.67.27,1.43.23,1.74,1.1a.65.65,0,0,0,1,.24c.44-.31.85-.66,1.31-1a4.41,4.41,0,0,0,2.21.82c.78,0,1.56,0,2.41,0a4.7,4.7,0,0,0,3.82,1.74,1.21,1.21,0,0,1,.11,1.35c-.45,1.07-.87,2.16-1.41,3.19a4.11,4.11,0,0,1-2.47,2.11,2.52,2.52,0,0,0-.61.25,4.45,4.45,0,0,1-6.14-1.86,7.64,7.64,0,0,1-.95-2.48,1.52,1.52,0,0,0-1-1.38,2,2,0,0,1-.66-.49m7.41,7.89a4.9,4.9,0,0,1-2.08,2,1.3,1.3,0,0,1-1.76-.44,3.91,3.91,0,0,1-.75-2.88,18.7,18.7,0,0,0,2.27,1,16.64,16.64,0,0,0,2.32.36m-22.68-21.14a2.52,2.52,0,0,1,.08-2.41,4.76,4.76,0,0,1,6.63-1.79,2.65,2.65,0,0,1,.86,3.77,5.39,5.39,0,0,1-1.83,1.66l-.77.53v1.82a3.79,3.79,0,0,1-2.5-.16c-.06-.62-.11-1.21-.17-1.83-.12-.08-.26-.24-.39-.24a2,2,0,0,1-1.91-1.35m.27,5a3.39,3.39,0,0,1,.22-.48,7,7,0,0,1,1.18-.09c1.49.12,3,.27,4.53.42l.16,1c.1.61.21,1.21.32,1.82a10.28,10.28,0,0,0,6.09,7.66,20.68,20.68,0,0,0,3.4,1,6.27,6.27,0,0,1,.77,3,22.47,22.47,0,0,0,.38,2.46,3.68,3.68,0,0,0,.61,1.35,2.34,2.34,0,0,0,3.63.58,16.48,16.48,0,0,0,2.51-2.43,4.71,4.71,0,0,1,2.19-1.58,13,13,0,0,0,8.92-.59c2.82-1.21,5.54-2.63,7.39-5.38a10.17,10.17,0,0,1,4.09,2.07,1,1,0,0,1,.26,1.22,12,12,0,0,1-1.72,3.42,18.38,18.38,0,0,1-8.63,6.6,25.16,25.16,0,0,1-5.24,1.66,1.81,1.81,0,0,0-1.32,1.16q-2,4-4.07,8.05c-.09.19-.23.37-.33.54a2.83,2.83,0,0,1-3.32-1.32c-1-1.43-2.21-2.78-3.31-4.17a1.45,1.45,0,0,0-1.89-.55c-3,1.19-6,2.22-9,3.52a1.33,1.33,0,0,0-.76,1c-.24,1.08-.48,2.17-.69,3.27-.37,1.85-.71,3.7-1.05,5.48-.63.59-1.26.07-1.85.3a2.44,2.44,0,0,1-.25-.69c-.07-2.31-.11-4.62-.16-6.93,0-.11,0-.22,0-.33a9.86,9.86,0,0,1,1.13-6.12,39.82,39.82,0,0,0,2-8.27,2.43,2.43,0,0,0-.91-2.36,15.17,15.17,0,0,1-5-7.69,15.61,15.61,0,0,1-.18-8.57m-10,7.7a1.33,1.33,0,0,0,1-.95c.81-2.83,4-3.81,6.49-3.3a5.9,5.9,0,0,1,.79.29c.2,1.44.28,2.73.56,4s.75,2.43,1.14,3.64c-.8,1.45-2,1-3.08.74-.71.3-.92.85-1.27,1.27a3.41,3.41,0,0,1-2.45,1.24,1.46,1.46,0,0,1-1.54-.76,12.22,12.22,0,0,0-3.48-3.88,2.3,2.3,0,0,1,1.8-2.25m-6.85.83a13.34,13.34,0,0,1,7.22,5.12,12.94,12.94,0,0,1,1.95,5.63,15.06,15.06,0,0,1,.09,2.51,10.31,10.31,0,0,1-.36,2.13,4.29,4.29,0,0,1-3.67,3.21,18.35,18.35,0,0,1-6.81,0c-1.47-.29-2.94-.62-4.4-.95-.43-.09-.83-.26-1.39-.43a3.26,3.26,0,0,1,.6-.48,82.55,82.55,0,0,0,7.95-3.49,4.86,4.86,0,0,1,.79-.25c.69-.22.82-.47.55-1.08a7.31,7.31,0,0,0-4.71-4,2.76,2.76,0,0,0-1.64-.08,11.61,11.61,0,0,1-1.85.18,43.22,43.22,0,0,1-.25-5.85c1-.59,1.92-1.07,2.76-1.69a3.35,3.35,0,0,1,3.17-.49m3.52-10.26a23.89,23.89,0,0,1,2-1.47,2.76,2.76,0,0,1,1.1-.33.88.88,0,0,1,1,.84,2.33,2.33,0,0,1-.39,1.57,5.93,5.93,0,0,1-2.19,1.76,1.34,1.34,0,0,1-1.8-.33c-.17-.21-.36-.41-.56-.63a1.8,1.8,0,0,1,.8-1.41m-15.34-5.59a8.24,8.24,0,0,1,9.14-1.46,7.34,7.34,0,0,1,4.11,8l-.8.38a7.93,7.93,0,0,0-3.34-1.67,12.49,12.49,0,0,0-9.75,1.58c-.45.29-.82.75-1.43.7-1-2.34-.13-5.51,2.07-7.55m-2.63,12.26a2.16,2.16,0,0,1-.59-1.32,4.67,4.67,0,0,1,.42-1.74c.1-.25.47-.38.9-.69.46,1.73.68,3.19,1,4.63-.95.22-1.32-.44-1.73-.88m1.82-3.86a4.37,4.37,0,0,1,2.15-1.58,12.64,12.64,0,0,1,7.37-.68,5.13,5.13,0,0,1,2.78,1.44c.33.35.75.6,1.18.31.7-.46,1.18-.09,1.62.34a1.61,1.61,0,0,1,.42,1.7,3,3,0,0,1-1.3,1.69c-1.82,1.11-3.32,2.62-5.07,3.79-.51.34-1.06.63-1.55,1a2.19,2.19,0,0,1-2.35.26c-1.07-.47-2.16-.9-3.21-1.4a1.29,1.29,0,0,1-.63-.71,30.39,30.39,0,0,1-1.41-6.16m-3.79,10a14.16,14.16,0,0,1,4.3-2.17,1.72,1.72,0,0,1,1.3,0l3.9,1.69v6.09c-.32.37-.64.12-.94.05a19.67,19.67,0,0,0-6-.62,5.32,5.32,0,0,0-3.36,1.29c-.12.11-.26.21-.37.33a2.59,2.59,0,0,0-.61,3.22c.52.3,1,.06,1.56-.11,2.81-.87,5.62-1.76,8.46-2.57,1.44-.42,2.92-.68,4.39-1a2.49,2.49,0,0,1,1.15,0,6.19,6.19,0,0,1,4.13,3.27,2.54,2.54,0,0,1-.43.27c-2.55,1.1-5.12,2.15-7.66,3.29a52.81,52.81,0,0,1-7.82,2.88,7.55,7.55,0,0,1-8-2,3.77,3.77,0,0,1-1-2.73,8.31,8.31,0,0,1,.89-3.54,20.59,20.59,0,0,1,6.07-7.65m6.5,6.53a.27.27,0,0,1-.1.13l-7.49,2.39a2.07,2.07,0,0,1,.76-1.78,7.37,7.37,0,0,1,1.73-1,9.63,9.63,0,0,1,5.07.11s0,.08,0,.12M237,360.72c.33-.63.69-1.25,1-1.92s.46-1.36.72-2.16c1.16.55,2.15,1.23,3.3,1a11,11,0,0,1,3.75.09,11.58,11.58,0,0,0,2.47-.19,7.32,7.32,0,0,1-1.35,4.79c-1.23,1.8-2.95,2-4.84,1.85a6.57,6.57,0,0,1-5-3.46m-13.26-3.83a2.77,2.77,0,0,1,2.25.89,4.74,4.74,0,0,0,.74.58c1-.58.5-1.89,1.48-2.46a2.4,2.4,0,0,1,.33.56,5.35,5.35,0,0,1-.11,2.81,2.45,2.45,0,0,0,.29,2.23c2.15,3.32,5.08,5.39,9.14,5.61a5.7,5.7,0,0,0,3.18-.83c.34-.19.52-.66.84-1.09h2.49a4,4,0,0,1-.22.79,21,21,0,0,0-1.9,4.44,4.81,4.81,0,0,0,.39,3.71,5.85,5.85,0,0,0,3.25,2.95c.93.34,1.91.57,2.94.87a20.41,20.41,0,0,1-.19,2.28c-1.08.79-2.55.44-3.6,1.32a2,2,0,0,0-.12,1.42l1.2,7.07c.13.77.28,1.53.38,2.3a.45.45,0,0,1-.28.34.5.5,0,0,1-.45-.06,3.77,3.77,0,0,1-.51-.84c-.54-1.22-1.06-2.44-1.59-3.66-.34-.76-.67-1.52-1.05-2.27a2.75,2.75,0,0,0-1.33-1.44,1.61,1.61,0,0,1-1-1.56c-.18-3-.43-5.88-.62-8.83a20,20,0,0,1,0-2.32c0-.41,0-.41-.39-1.25a4.13,4.13,0,0,0-.63-.05,12.46,12.46,0,0,1-6.85-1.75,22,22,0,0,1-6.78-5.58,8.64,8.64,0,0,0-1.74-1.78,3.48,3.48,0,0,1-1.38-2.21,1.69,1.69,0,0,1,1.8-2.19" transform="translate(-220 -316.22)"/></svg>