<svg xmlns="http://www.w3.org/2000/svg" viewBox="0 0 393 393"><defs><style>.a{fill:none;}.b{fill:#FC0;}</style></defs><rect class="a" width="393" height="393"/><path class="b" d="M7281.29-7114.89a8.18,8.18,0,0,1-5.8-2.41l-148.31-148.31a8.2,8.2,0,0,1,0-11.61,8.21,8.21,0,0,1,11.6,0L7287.1-7128.9a8.21,8.21,0,0,1,0,11.6A8.19,8.19,0,0,1,7281.29-7114.89Z" transform="translate(-7003.5 7396.5)"/><path class="b" d="M7133-7114.89a8.15,8.15,0,0,1-5.8-2.41,8.19,8.19,0,0,1,0-11.6l148.31-148.32a8.22,8.22,0,0,1,11.61,0,8.22,8.22,0,0,1,0,11.61L7138.78-7117.3A8.15,8.15,0,0,1,7133-7114.89Z" transform="translate(-7003.5 7396.5)"/></svg>