<svg xmlns="http://www.w3.org/2000/svg" viewBox="0 0 6.3 8.45"><defs><style>.a{fill:#e40000;}</style></defs><path class="a" d="M141.24,380.9c0,.22-.25.22-.25.44s.25.22.25.44-.25.22-.25.44.25.22.25.44c0,1.13-2,1.73-2,1.73H137s-2-.6-2-1.73c0-.22.25-.22.25-.44s-.25-.22-.25-.44.25-.22.25-.44-.25-.22-.25-.44.25-.22.25-.44-.25-.22-.25-.44.25-.22.25-.45-.25-.22-.25-.44c0-1.13,2-1.72,2-1.72h2.24s2,.59,2,1.72c0,.22-.25.22-.25.44s.25.23.25.45-.25.22-.25.44S141.24,380.68,141.24,380.9Z" transform="translate(-134.94 -376.69)"/><path d="M136.58,376.69h3a.21.21,0,0,1,.21.21v.78a7.5,7.5,0,0,0-3.44,0v-.78A.21.21,0,0,1,136.58,376.69Z" transform="translate(-134.94 -376.69)"/><path d="M139.6,385.14h-3a.21.21,0,0,1-.21-.21v-.79a7.5,7.5,0,0,0,3.44,0v.79A.21.21,0,0,1,139.6,385.14Z" transform="translate(-134.94 -376.69)"/></svg>