<svg xmlns="http://www.w3.org/2000/svg" viewBox="0 0 570.64 174.89"><defs><style>.a{fill:#595757;}.b{fill:#fff9a7;}.c{fill:#fc0;}</style></defs><path class="a" d="M275.33,101.5a2.27,2.27,0,0,0-2.77.13,1.52,1.52,0,0,1-.86.2c-1.63,0-3.25,0-4.88-.07-.78,0-3.25-.08-4.73-.12V97c2.4,0,7.24.12,8.39.1s2,0,3,0a2.73,2.73,0,0,0,1-.28c.69-.33.79-1,.8-1.72l.15-19a4.18,4.18,0,0,0,0-1,2.08,2.08,0,0,0-.43-.63,5.67,5.67,0,0,0-1.07-.23H262.09V71.34h9.79a6.6,6.6,0,0,0,1.08-.19,5,5,0,0,0,2.93-5.3,2.44,2.44,0,0,0-2.35-2.28,3,3,0,0,0-1.7.54H262.1V57.88c.86-.17,2-.3,2.19-.39a9,9,0,0,0,1.63-.76c2-1.34,4.14-2.64,6.1-4.12a4.67,4.67,0,0,1,3.5-1.16,3.19,3.19,0,0,0,2.13-.61,1.76,1.76,0,0,0,.61-2.41,1.62,1.62,0,0,0-.42-.48c-1.8-1.55-3.61-3.08-5.41-4.62s-3.55-3-5.34-4.52c-.71-.59-1.41-.64-1.94,0a3.07,3.07,0,0,0-.9,3.17c.23.68.47,1.34.73,2.08a30.3,30.3,0,0,1-8.27,5.77,29.89,29.89,0,0,1-9.5,3.16,32.28,32.28,0,0,1-9.86.25,3.93,3.93,0,0,0,1.23,4.6,9.56,9.56,0,0,0,5.23,1.83l2.06.23L250,60h2.08v4.25h-8.47a4.56,4.56,0,0,1-3.25-.71,1.53,1.53,0,0,0-.75-.26c-.89-.16-1.19,0-1.7,1l-.11.29v1.15a.36.36,0,0,0,.07.26,7.47,7.47,0,0,0,1.77,4.18,3,3,0,0,0,2.22.93c1.38.17,4.9.22,5.26.22H252v2.91H241.15a5.67,5.67,0,0,0-1.07.23h0a2.1,2.1,0,0,0-1,2v1.9h0V94.67a2.19,2.19,0,0,0,1.07,2.21,8,8,0,0,0,1.19.21h10.71v4.57l-10.5-.1-.23-.11c-.29-.18-.57-.39-.87-.55a1.57,1.57,0,0,0-1.9.21,3.1,3.1,0,0,0-1.18,2.23,7.74,7.74,0,0,0,1.87,5.16,7.92,7.92,0,0,0,1.2.21h11.63v6a15.18,15.18,0,0,1-3,.36,35.89,35.89,0,0,1-7.18,0c-1.41-.15-2.42,0-3,1.83a6.15,6.15,0,0,0-.26,1.41c-.07.92-.13,1.85-.13,2.78,0,1.33,0,2.66.11,4a1.33,1.33,0,0,0,.91,1.37l3.15.22a14.08,14.08,0,0,1,2.05.1h.06l1.34-.06h1.59l2.72-.35.17,0,.36,0a3.87,3.87,0,0,1,.59-.13,4.59,4.59,0,0,1,.51-.1h0a4,4,0,0,1,.48-.08l3.14-.66.68-.25,1.17-.2h.19l.69-.25,5.92-2.21a19.73,19.73,0,0,0,8.62-6,7.25,7.25,0,0,0,.7-1.32l.07-.28a13.35,13.35,0,0,0,0-2c-.13-.78-.35-.81-1.09-.89s-1.56.51-2.35.69c-1.82.4-3.65.72-5.47,1.07a26.83,26.83,0,0,1-2.68.32v-5.22h11.16a6.77,6.77,0,0,0,1.09-.21h0c.13-.07.31-.1.39-.21a8.8,8.8,0,0,0,1.59-3.7A3.15,3.15,0,0,0,275.33,101.5ZM262.09,81.24h7.17V83.9h-7.17Zm0,6.31h7.17v3.06h-7.17Zm-10,3.07h-6.91V87.55h6.88Zm0-6.73h-6.91V81.07h6.88Z" transform="translate(-0.04 0.01)"/><path class="a" d="M300.06,65.49a5.62,5.62,0,0,0-1.62.77,7.65,7.65,0,0,0-.9.69H293l-3.46.14c-2.2,0-4.4,0-6.59.07a2.34,2.34,0,0,1-2.29-.93,2.23,2.23,0,0,0-.93-.67,1.54,1.54,0,0,0-1.89.34,4.31,4.31,0,0,0-1,2.36,25.6,25.6,0,0,0,0,2.77,3.54,3.54,0,0,0,2,3.44,7.76,7.76,0,0,0,1.07.2,12.65,12.65,0,0,0,3.18-1v41.69H283a1.57,1.57,0,0,1-.43-.09,9.2,9.2,0,0,0-4.39-.82,3,3,0,0,0-3,1.92,1.13,1.13,0,0,0,.34,1.56l.13.07,4.17,2.64a2.55,2.55,0,0,1,1.14,1.42c1.09,3.32,3.46,5.77,7.19,5.75,3.15-.31,5.61-1.22,7.23-3.1,1.47-1.7.92-5.95.92-5.95v-45a19.46,19.46,0,0,0,3.3.65c1.13.14,1.62-.69,2.09-1.51a4.51,4.51,0,0,0,.47-1.47,10.16,10.16,0,0,0,0-4.39A1.88,1.88,0,0,0,300.06,65.49Z" transform="translate(-0.04 0.01)"/><path class="a" d="M234,120.23a4.16,4.16,0,0,1-.39-1.47q0-18.26-.05-36.5a1.89,1.89,0,0,1,.55-1.51,18.85,18.85,0,0,0,3.47-4.88,3.81,3.81,0,0,0-.66-4.91c-1.59-1.43-3-3-4.56-4.56a1.09,1.09,0,0,0-1.44-.22c-.87.48-1.24,1.27-1,2.7a3,3,0,0,1-.43,2A44.13,44.13,0,0,1,222,80a42.38,42.38,0,0,1-12.34,8.71,1.53,1.53,0,0,0-1.12,1.85,1.56,1.56,0,0,0,.36.67,24.34,24.34,0,0,0,2.24,2.72,2.48,2.48,0,0,0,2.81.77c1.5-.52,3-1.09,4.47-1.7,1-.41,2-.91,3.1-1.44,0,.52.08.94.08,1.37v25.83a1.93,1.93,0,0,1-.22,1c-.6.92-1.33,1.75-1.89,2.7a11.38,11.38,0,0,0-.86,2,1.43,1.43,0,0,0-.09.27,2.65,2.65,0,0,0,0,1.05,1.31,1.31,0,0,0,1.26,1.17h14.41a1.32,1.32,0,0,0,1.27-1.36V125a10.13,10.13,0,0,0-.25-1.74C234.89,122.28,234.41,121.27,234,120.23Z" transform="translate(-0.04 0.01)"/><path class="a" d="M212.57,77.55c.13.07.35,0,.52,0a19.64,19.64,0,0,0,5.44-2.31,41.83,41.83,0,0,0,10.57-9.09A33,33,0,0,0,235,56.59a24.5,24.5,0,0,0,.73-2.8,5.68,5.68,0,0,0-1.22-2.91c-.41-.42-.82-.84-1.24-1.25-1.14-1.13-2.26-2.26-3.42-3.36-.69-.65-1.37-.62-1.81.17a3.63,3.63,0,0,0-.56,1.89,4.52,4.52,0,0,1-.46,2.2c-.33.73-.66,1.45-1,2.16a50.93,50.93,0,0,1-7.42,10.53A54.8,54.8,0,0,1,209.34,72c-1.45,1.06-1.52,1.76-.35,3.15A12.33,12.33,0,0,0,212.57,77.55Z" transform="translate(-0.04 0.01)"/><path class="a" d="M277.81,56c-.15,2.21,1,3.65,2.61,4.83h0c.17.07.34.21.51.21h16.78l1.81-.21a6.36,6.36,0,0,0,1.8-5.78c-.22-1.56-1.57-2.74-3.15-1.48a2.53,2.53,0,0,0-.42.31c-1.82,0-15.71-.07-15.79-.12s-.5-.4-.66-.5a1.8,1.8,0,0,0-2.54.08,1.7,1.7,0,0,0-.39.64A5.69,5.69,0,0,0,277.81,56Z" transform="translate(-0.04 0.01)"/><path class="a" d="M326.43,85.54c-.13.11-2.73,1.43-2.87,1.56s-.27.28-.4.43a1.69,1.69,0,0,0,.16,2.38,1.51,1.51,0,0,0,.56.33,8.72,8.72,0,0,0,3.67.69,54.87,54.87,0,0,0,6.28-.26,19.14,19.14,0,0,0,3.93-1.11A2.63,2.63,0,0,0,339.34,88a1.47,1.47,0,0,0-.49-2l-.15-.08c-1.1-.38-3-1.08-2.82-1.93h12.45a4.1,4.1,0,0,0,.91-.19A4.45,4.45,0,0,0,351.65,81l.06-.23a8.63,8.63,0,0,0,.16-1.23,1.69,1.69,0,0,0-1.17-1.78h-1.76a2,2,0,0,0-.65.27,3.26,3.26,0,0,1-2.46.69h-10V77c.32,0,2.56-.06,2.89-.05,3.12,0,6.25.06,9.37.07a8.23,8.23,0,0,0,1.39-.23,1.25,1.25,0,0,0,1-1.4V72.65q.09-6.27.2-12.53c0-.58-.8-1.44-2.25-1.4H335.85V57.34h13.7a8,8,0,0,0,1.37-.23,3.77,3.77,0,0,0,1.78-3.21c.07-1.56-.21-2.19-1.52-2.85a1.66,1.66,0,0,0-1.79,0l-1.64,1c-2.8,0-5.61,0-8.41,0-.38,0-2.67-.13-3-.2,1.29-.7,4.31-1.58,4.93-2.9.38-.81.48-1.23,0-1.79l-.29-.21H322.41c-.73,0-1,.33-1,1a3,3,0,0,0,.17.89,3.84,3.84,0,0,0,1.52,2.14c1,.81,3.44.83,3.68,1H314.85c-.39-.33-.76-.69-1.18-1a2.76,2.76,0,0,0-3.51.75c-1,1.73-.22,4.92,1.9,5.35a2,2,0,0,0,1.68.21l3.07,0h10v1.37h-13.4a6.73,6.73,0,0,0-1.25.24c-.65.24-.71.74-.7,1.32V75.15a1.93,1.93,0,0,0,.69,1.64,9.09,9.09,0,0,0,1.27.21h13.42v1.63H315.31a4.14,4.14,0,0,1-2.41-.54,2.26,2.26,0,0,0-3.45,1.47,4,4,0,0,0,1.73,4.16,9.35,9.35,0,0,0,1.39.22c3.84,0,10.13,0,14,0A5.93,5.93,0,0,0,326.43,85.54Zm9.38-22.2h6.74v2.32h-6.74Zm0,6.52h6.79v2.48h-6.79Zm-9.1,2.72h-7V70c.4-.06,5.92,0,7.06,0,0,.88,0,1.72,0,2.55Zm0-6.92c-.06.06-5.35,0-7.06,0v-2.1h7v2.08Z" transform="translate(-0.04 0.01)"/><path class="a" d="M396.14,83.11c0-.46-.32-.62-.65-.73-.77-.27-1.57-.49-2.35-.73-2.41-.74-4.84-1.45-7.23-2.25-1.52-.5-3-1.14-4.63-1.78l1.15-1a50.91,50.91,0,0,0,6.88-7.35,1.46,1.46,0,0,0,.36-1.13c-.17-.48,0-1.24-.86-1.35a7.56,7.56,0,0,0-1.16-.18H356.94a7.83,7.83,0,0,0-1.17.16c-1.23.41-1.36.59-1.2,1.76a4.31,4.31,0,0,0,1,2.44c1.38,1.47,2.71,3,4.16,4.39,1,1,2.19,1.83,3.36,2.79A41.26,41.26,0,0,1,353.81,81a4.62,4.62,0,0,0-1.68.82c-.22.15-.22.59-.31.87A11.18,11.18,0,0,1,356.18,87c.21.38.51.7.73,1.07a1.58,1.58,0,0,0,1.73.81,24.57,24.57,0,0,0,2.94-.56,49.35,49.35,0,0,0,9.77-4.12,2.49,2.49,0,0,1,2.41-.11c1.78.83,3.58,1.64,5.41,2.39s3.45,1.31,5.18,2a3.61,3.61,0,0,0,2.74,0h0a13.7,13.7,0,0,0,2.51-1.11,30.9,30.9,0,0,1,5.91-3.44C395.87,83.72,396.13,83.55,396.14,83.11Zm-24.7-9c-1.24-.53-6.71-3.47-6.71-3.47.34-.07,13,0,13.42,0-.89.7-5.25,2.61-6.71,3.43Z" transform="translate(-0.04 0.01)"/><path class="a" d="M355.54,64.72a1.18,1.18,0,0,0,.43.19l5.68-.2a27.32,27.32,0,0,0,3.29-1.16A6.07,6.07,0,0,0,368.28,59c.19-1,.47-2,.71-3.08h3.69l1.23.09c0,.84-.06,1.65,0,2.45.15,1.8.5,3.56,2.31,4.59a12.84,12.84,0,0,0,5.44,1.77,2.23,2.23,0,0,0,.67.19h6.15a3.06,3.06,0,0,0,.79-.2h0a5.25,5.25,0,0,0,2.93-1.53,7.92,7.92,0,0,0,2-3,19.19,19.19,0,0,0,.69-3c.17-1.24.08-1.29-1.11-1.85-1-.48-2-.95-3-1.45a4.66,4.66,0,0,0-2.69-.54l-.27.21a10.82,10.82,0,0,1-.14,1.61,5.53,5.53,0,0,1-.34,1.33,1,1,0,0,1-1.29.58h0a1.22,1.22,0,0,1-1.11-1.06,5.47,5.47,0,0,1,0-.81v-5c0-1.45-.35-1.89-1.68-2.27a3.7,3.7,0,0,0-.8-.18H370.69a7.86,7.86,0,0,0-1.17.17h-7.44a2.52,2.52,0,0,0-2.78,2.23c0,.12,0,.23,0,.34a29.47,29.47,0,0,1-.5,6c-.38,2-1.12,3.71-3.23,4.58-.41.17-.83.29-1.24.44a1.08,1.08,0,0,0-.6,1.82A3.3,3.3,0,0,0,355.54,64.72Z" transform="translate(-0.04 0.01)"/><path class="a" d="M385.65,105.87a2.36,2.36,0,0,0,2.26-.61,5.49,5.49,0,0,0,1.09-4.57c-.19-1-.88-1.31-1.93-1.38-.36,0-1.22,1.33-1.43,1.33H360V97.7c1,0,5.17-.14,6.32-.21h.22l3.93-.2c1.06-.09,5.82-.29,6.8-.3l2.72-.18h0l2-.21a.25.25,0,0,0,.19-.09l.19-.18v-.06l.12-.17.15-.23.08-.23a4.54,4.54,0,0,0,0-1.56,8.88,8.88,0,0,0-2.95-4.23l-.47-.26h0a1,1,0,0,0-1.31,0l-1.16.06h-.73l-1.25.19a10.7,10.7,0,0,0-1.7.09l-9,.86-1.51.16-6.8.53-1,.14-7.53.56-1,.14-1.48,0-2,.19h-.46l-2.23.21-3.87.27-2,.18h-.45l-2,.18-4.09.3-2,.18h-.45l-2,.19-4.09.29-1.77.16c-.68,0-1.2.2-1.37.87s.27.92.68,1.24a1.91,1.91,0,0,0,.67.46c1.49.27,7.89.88,9.36,1,.48,0,3.1.13,3.93.19s8.55.25,11.23.26h.71v2H314.42a.92.92,0,0,0-1,.82v3.54a.92.92,0,0,0,1,.88h28.21v1.59H315.18c-.56.06-.6.39-.65.88a6,6,0,0,0,.33,3.12l.76,1.32a2,2,0,0,1,.25.14h26.72v3h-.73l-3.74.17h-8.91a1.57,1.57,0,0,0-1.06.34,1.34,1.34,0,0,0,.25,1.88,1.29,1.29,0,0,0,.5.24,8.19,8.19,0,0,0,1.29.35,18.73,18.73,0,0,1,9.27,4.84,14.64,14.64,0,0,0,7.76,4l.2,0h.63a4.53,4.53,0,0,0,.64.13c3.42.33,7.33-1.09,9.26-3.77a9.46,9.46,0,0,0,1.48-3.68,16.29,16.29,0,0,0,.35-3.94,1,1,0,0,0,0-.24v-3.4h27.28s1.07-2.33,1.51-3.26l.09-.27a3.51,3.51,0,0,0,0-1.12c-.5-1.51-1.91-1.82-3.41-.81H359.73v-1.5h25.92Z" transform="translate(-0.04 0.01)"/><path class="a" d="M404.69,75.84c-4.67,3-3.88,19,.09,19.33,8.52-3.41,57.91-5,71.61-.63,4.85,1.2,3.17-4.16,3.5-9.1C479.38,60.44,471.26,90.05,404.69,75.84Z" transform="translate(-0.04 0.01)"/><path class="a" d="M550.81,44.26c-2.85-.94-4.29,1.69-6.1,3.53,0,0-13.14,2-17.53,2s-17.49-2-17.49-2c-16.29-4.85-9.68-5-10.76,29.74v.11h0A1.32,1.32,0,0,0,499,78c.31,2.36,3.22,4.22,6.81,4.22A7.65,7.65,0,0,0,512,79.66c4.35.21,9.55.39,14.75.39,5.67,0,11.63-.19,16.63-.41.91,1.84,3.46,3.17,6.49,3.17,3.8,0,6.87-2.07,6.87-4.62V78c-.42-7,0-13.72-.28-20.74C561.52,53,555.44,46.65,550.81,44.26ZM527.19,71.73a106.91,106.91,0,0,1-16.09-1.22V56.34a163.17,163.17,0,0,0,16.48,1.17,126.8,126.8,0,0,0,15.7-1v14H542A134.11,134.11,0,0,1,527.19,71.73Z" transform="translate(-0.04 0.01)"/><path class="a" d="M522.43,95.53c1.34-2.81,2.82-4.28,2.3-6.86-.82-4.11-5.49-2.85-7.51-1.1,0,0-2.73,1.34-12,1.39C495.79,89,494,87.57,494,87.57c-2-1.64-7.65-5.4-7.53-2.29.42,10.4.77,18.4.28,30.47-.58,3.54-2,7.18,1.52,8,27.75-6.66,35.26,6.7,35.87-5.58.07-1.41-.8-3-1.71-5V95.53Zm-23.94,18.41V96.82a28.79,28.79,0,0,0,6.74.56,32.28,32.28,0,0,0,6.36-.47v17c-.84-.07-3.07-.24-6.36-.25A60.67,60.67,0,0,0,498.49,113.94Z" transform="translate(-0.04 0.01)"/><path class="a" d="M568.28,95.53c1.34-2.81,2.82-4.28,2.3-6.86-.82-4.11-5.49-2.85-7.51-1.1,0,0-2.73,1.34-12,1.39-9.43.05-11.25-1.39-11.25-1.39-2-1.64-7.65-5.4-7.53-2.29.42,10.4.77,18.4.28,30.47-.58,3.54-2,7.18,1.52,8,27.75-6.66,35.26,6.7,35.87-5.58.07-1.41-.8-3-1.71-5V95.53Zm-23.93,18.41V96.82a28.79,28.79,0,0,0,6.74.56,32.28,32.28,0,0,0,6.36-.47v17c-.84-.07-3.07-.24-6.36-.25A60.67,60.67,0,0,0,544.35,113.94Z" transform="translate(-0.04 0.01)"/><path class="b" d="M168.24,111.7c3.68,7.07-3.81,12.39-8.49,17.89-3.57,4.18-7.71,8.19-9.3,13.49-.79,2.64-.6,5.22-2.52,7.16-.07.07,3.95,4.85,3.84,5a6.43,6.43,0,0,1-2.68,2.1s-5.62-4.72-5.9-4.58c-2.27,1.16-3,2.09-5.31,3.25a23.64,23.64,0,0,1-6.26,2.48c-2.14.4-4.37.21-6.47.81-1.52.44-2.9,1.28-4.43,1.68-2.55.67-5.34.08-7.83,1-2.08.74-3.71,2.44-5.72,3.36a4.7,4.7,0,0,1-2.85-.05l-1.46,9.59H99.32s-.58-9.76-.84-9.79c-5.76-.71-11-1.51-16.43-3.7-1.77-.72-3.94-1.44-5.43-.24-.49.39-.83,1-1.35,1.31-3,2.12-13.63-6.22-16.06-8.1-.54-.42.74-.63.21-1.07-.13-.11-6.39,4.12-6.39,4.12l-2.64-2.25s4.89-4.56,4.79-4.65a58.33,58.33,0,0,1-8.62-9.94,56.65,56.65,0,0,1-7.24-17.39c-.7-3-3.86-2.27-4.18-5.24-.46-4.19,5-8.87,7.91-10.46,1.21-.68,1.44-2,2.4-2.79A10.6,10.6,0,0,1,48,103.55c1.84-.92,3.65-2.17,3.77-4.47.19-3.88-2.87-7.62-4.94-10.59-1.83-2.62-9.43-3.5-9.46-7,0-3.09,5.54-4.81,7.89-6.36s3.49-3.46,5.07-6c2.77-4.48,4.56-9.79,8.29-13.51,14.11-14,27.35-18.22,49.76-13.5C129,46.49,131.68,44.49,146.56,55c2.42,1.7-1.22,9.38,3.41,14.31,1.66,1.76,3.69,2.21,5.62,3.46,3.56,2.3,9,5.19,8.11,9.65-1.08,5.69-7.61,13-7.91,18.59a5.77,5.77,0,0,0,.51,3.12c.94,1.71,3.66,1.83,5.15,2.88S167.66,110.59,168.24,111.7Z" transform="translate(-0.04 0.01)"/><path class="c" d="M106,38.1c17.84,1.15,33.46,7.5,46.54,19.73a42.3,42.3,0,0,1,2.64-5.2,27.87,27.87,0,0,1,4.41-5.16c3.87-3.43,5.72-7.92,7.27-12.65.83-2.54,1.87-5,2.83-7.53,1.21-3.15,2.39-6.31,3.66-9.44a16.18,16.18,0,0,1,1.78-3.46,2.3,2.3,0,0,1,1.94-.82,2.07,2.07,0,0,1,.89,1.83,60.64,60.64,0,0,1-2.06,6c-1.43,3.78-2.75,7.62-4.41,11.3C169.26,37.54,168,42.84,164.31,47a80.55,80.55,0,0,0-5.71,6.77,39.4,39.4,0,0,0-2.66,4.91c-1.08,2-.48,3.61.82,5.27a36.9,36.9,0,0,1,2.41,4c.65-2.36,1.33-4.86,2-7.37a1.68,1.68,0,0,1,.52-1,5.85,5.85,0,0,1,1.48-.43,4.29,4.29,0,0,1,.26,1.28c-.32,2.82-.84,5.63-1,8.46a8.86,8.86,0,0,0,.93,3.53c1.38,3.53,3.08,6.95,4.17,10.56.47,1.55,0,3.53-.5,5.18a30.1,30.1,0,0,0-1.43,11,13,13,0,0,0,4,8.13,1.31,1.31,0,0,0,.35.27c2.49,1.38,3.24.94,3.78-1.64a66.1,66.1,0,0,0,1.51-9.48c.24-4,1.61-7.63,2.6-11.35.69-2.59,1.49-5.15,2-7.81a1.27,1.27,0,0,1,.86-.75c.2-.05.71.38.75.64a13.3,13.3,0,0,1,.36,4.17c-.58,3-1.62,5.87-2.27,8.84-.72,3.3-1.24,6.64-1.81,10-.42,2.5-.67,5-1.22,7.49a4.79,4.79,0,0,1-3.35,3.91,1.2,1.2,0,0,0-.7.68c-.53,1.58-.92,3.21-1.49,4.76q-2.46,6.66-5.06,13.26c-.54,1.37-.33,1.74,1.13,1.81,2.15.11,3.12-1.51,4.23-2.85,2.12-2.59,2.77-5.87,4-8.86a41.12,41.12,0,0,1,3.54-6.85c2.38-3.57,5.1-6.91,7.55-10.43a9.24,9.24,0,0,0,1.32-3.31c.86-4.06,1.63-8.15,2.36-12.24a31.72,31.72,0,0,0,.33-3.9c.11-1.84.24-3.68.28-5.52a19.63,19.63,0,0,0-2-8.88c-1.69-3.62-3-7.42-4.61-11.09a5.38,5.38,0,0,1,.24-4.65,80.23,80.23,0,0,1,5.13-9.92c2.9-4.47,6.2-8.67,9.34-13a5.45,5.45,0,0,1,.79-.87c.75-.68,1.45-1.62,2.63-1,.71.36.61,2.14-.17,3.22-1.14,1.58-2.26,3.19-3.5,4.69a69.11,69.11,0,0,0-10.07,16.21,7.9,7.9,0,0,0,.12,7.12c1.91,3.86,3.15,8,4.83,12,1.23,2.92.92,5.84.57,8.83-.31,2.64-.25,5.33-.66,8-.43,2.78-1.19,5.52-1.83,8.27a31.84,31.84,0,0,1-1.09,4.19,17.54,17.54,0,0,1-2.19,4.5A89.87,89.87,0,0,0,179,119.13a46.69,46.69,0,0,0-2.46,6.11,20,20,0,0,1-4.74,7.74c-2,2.07-4.52,2.31-7.17,1.73a1.49,1.49,0,0,0-1.88.81A62.74,62.74,0,0,1,149.68,151c-.33.27-.68.52-1.16.87a37.18,37.18,0,0,1-2.29-4.09,33.55,33.55,0,0,1-2.28-6.61,29.35,29.35,0,0,1-.36-7.37,16.54,16.54,0,0,1,3.8-9.5,14.21,14.21,0,0,1,8.68-5c3.35-.63,6.61,0,10.17.46l1.34-3.71a35.88,35.88,0,0,1-14.64-6.39A13.5,13.5,0,0,1,147.15,99c-.06-4.84,1.39-9.14,6.1-11.76A34.82,34.82,0,0,1,163,83.34a1.28,1.28,0,0,0,.68-1.06c-.48-2.24-1.82-2.83-4-2.09a24.72,24.72,0,0,1-13.54,1.15c-3.34-.76-5.46-3.3-7-6.24a15.63,15.63,0,0,1-1.35-10.68c.57-2.84,2-5.23,3.09-7.81.35-.83.83-1.61,1.32-2.55l-2.73-1.57c-1.55,2.25-3.05,4.4-4.53,6.57-2.3,3.35-5.73,4.71-9.54,5.24a28.31,28.31,0,0,1-5.82.3,15.78,15.78,0,0,1-13.08-8,26.78,26.78,0,0,1-3.25-13.14V41.19H99.45v2A30.29,30.29,0,0,1,97.81,53a15.15,15.15,0,0,1-6,8.51,16.67,16.67,0,0,1-9.14,3.1A21.34,21.34,0,0,1,72.48,62.9,14,14,0,0,1,67,57.83c-1.17-1.73-2.27-3.5-3.48-5.38L60.71,54c1,2.17,2,4.21,2.91,6.27,2.15,4.78,2.6,9.63.2,14.43a15.4,15.4,0,0,1-3.29,4.51,10.2,10.2,0,0,1-5.67,2.55,28.93,28.93,0,0,1-8.15-.4c-.7-.1-1.37-.39-2.06-.55-1.59-.37-3.19-.7-5-1.1l-1.24,3.15a52.73,52.73,0,0,1,5.76,1.82,43,43,0,0,1,7,3.72c3,2.08,4,5.24,4.16,8.87a16.42,16.42,0,0,1-.5,5.54,14.18,14.18,0,0,1-5.2,7.08c-4.14,3.11-9,4.78-14.18,6.16a25.86,25.86,0,0,0,.52,3.15,1.4,1.4,0,0,0,1.21.57,22.16,22.16,0,0,1,9.17-.42,13.93,13.93,0,0,1,11.58,9.6,24.16,24.16,0,0,1-1.43,18.4c-.48,1-1,2.06-1.39,3.12s-1,1.11-1.83.37A65,65,0,0,1,40.2,135.34c-.65-1.08-1.16-1.5-2.49-.9-3.67,1.63-7.83-1.56-9.71-4.91s-2.73-6.72-4.24-10A63.85,63.85,0,0,0,18.49,111c-1.71-2.55-3.62-5-5.33-7.5a10.43,10.43,0,0,1-1.08-2.74A70,70,0,0,1,8.81,85.92c-.29-3-.7-6-.8-9a11.5,11.5,0,0,1,.82-4.34c1.43-3.86,3-7.66,4.56-11.48.33-.83.63-1.67,1-2.5,1-2.39.3-4.66-.64-6.81-2.86-6.54-7-12.28-11.5-17.78a13.41,13.41,0,0,1-2-3A2.64,2.64,0,0,1,.4,28.67a1.53,1.53,0,0,1,2.15.23,1.27,1.27,0,0,1,.13.19c2.66,3.44,5.59,6.7,7.93,10.35,2.78,4.34,5.07,9,7.54,13.55,1.33,2.46.61,4.89-.34,7.24-1.22,3-2.6,6-3.89,8.93a28.69,28.69,0,0,0-1.48,3.69c-1.15,4.15-.69,8.35-.23,12.54.27,2.5.67,5,1.14,7.47s1.06,5,1.75,7.54a9.3,9.3,0,0,0,1.48,2.8c2.14,3,4.35,6,6.53,9A40.29,40.29,0,0,1,28.61,124a16.92,16.92,0,0,0,5.2,7.53,2.5,2.5,0,0,0,1.86.19,8.7,8.7,0,0,0,2-1c-2.93-6.2-5.41-12.48-6.08-19.28-3.9-.3-5.48-2-5.92-6.07-.25-2.29-.75-4.55-1.15-6.82-.58-3.26-1.07-6.55-1.78-9.78a67.78,67.78,0,0,0-2.07-7.14,7.17,7.17,0,0,1,.44-4.91,1.18,1.18,0,0,1,.87-.59c.21,0,.54.45.62.75q1.59,6.18,3.1,12.38c.7,2.9,1.42,5.79,2,8.72.44,2.29.64,4.63,1,6.94a10.56,10.56,0,0,0,.57,2.36c.37,1,1.54,1.07,3,.24a7.42,7.42,0,0,0,3.47-3.91A18,18,0,0,0,36.87,95a54.9,54.9,0,0,0-1.74-8.32,9.25,9.25,0,0,1,.77-6.55c1.15-2.63,2.33-5.25,3.35-7.93a8.6,8.6,0,0,0,.56-3.37c-.16-2.94-.53-5.87-.76-8.8a3.56,3.56,0,0,1,.43-1.26c.47.2,1.26.29,1.37.61A43.93,43.93,0,0,1,42.5,65.1a22.57,22.57,0,0,1,0,4.11c.39-.61.72-1.11,1-1.62a40.34,40.34,0,0,1,2.61-4A3.69,3.69,0,0,0,47,60a21.7,21.7,0,0,0-6.46-10.5c-3.12-2.94-5.12-6.69-6.83-10.58-.88-2-1.78-4-2.57-6-1.33-3.43-2.56-6.9-3.86-10.35-.81-2.15-1.64-4.29-2.49-6.44-.4-1-.47-1.94.62-2.48a2,2,0,0,1,2.56,1.2.36.36,0,0,1,0,.11c1.77,4.34,3.58,8.67,5.3,13,1.16,3,2.31,5.93,3.24,9a22.33,22.33,0,0,0,6.67,10.54,22.37,22.37,0,0,1,6.88,11.17c13.37-12.57,29.1-19.45,47.36-20.43C100.21,38.1,103.08,38.1,106,38.1Z" transform="translate(-0.04 0.01)"/><path class="c" d="M103.68,168.34c.48-2.23.86-4.39,1.41-6.51a29.85,29.85,0,0,1,6.15-12c4.3-5.06,9.8-6.86,16.3-5.85a28.89,28.89,0,0,1,9.62,3.65,30.76,30.76,0,0,1,7.25,5.53c1,1,.67,1.5-.27,2.14a74.61,74.61,0,0,1-17.85,9,76.64,76.64,0,0,1-15.48,3.51c-1.72.21-3.48.2-5.22.31C105.08,168.16,104.57,168.24,103.68,168.34Z" transform="translate(-0.04 0.01)"/><path class="c" d="M98.81,168.21C83.49,168,70,162.87,57.56,154.27a27.36,27.36,0,0,1,10.32-7.88,23.15,23.15,0,0,1,9.69-2.71c7.51-.09,12.84,3.4,16.64,9.68,2.53,4.19,3.71,8.8,4.6,13.53A9.69,9.69,0,0,1,98.81,168.21Z" transform="translate(-0.04 0.01)"/><path class="c" d="M106,38.1Z" transform="translate(-0.04 0.01)"/><path class="a" d="M60.31,9.24l.21.41c.19.37.39.72.6,1.06s.43.66.65,1l-.85.61a2.28,2.28,0,0,0-1.4-1.12,2.69,2.69,0,0,0-1.88.34,2.44,2.44,0,0,0-1.07.94,1.08,1.08,0,0,0,0,1.07c.25.49,1.1.54,2.54.14l.24-.06a6,6,0,0,1,2.89-.23,2.47,2.47,0,0,1,1.61,1.38,3.24,3.24,0,0,1,0,3,6,6,0,0,1-2.77,2.59,9.28,9.28,0,0,1-1.7.68,7.12,7.12,0,0,1-1.65.28.21.21,0,0,0-.08-.19l-.14-.28a12.47,12.47,0,0,0-.68-1.18A12.75,12.75,0,0,0,56,18.56l.91-.67a3.55,3.55,0,0,0,1.75,1.37,2.74,2.74,0,0,0,2-.31,2.57,2.57,0,0,0,1.14-1,1.07,1.07,0,0,0,.06-1.09c-.27-.53-1.06-.64-2.36-.33l-.58.13a6,6,0,0,1-2.85.15,2.5,2.5,0,0,1-1.52-1.36,3.14,3.14,0,0,1,0-2.89,5.5,5.5,0,0,1,2.58-2.44,9,9,0,0,1,1.61-.65A6.32,6.32,0,0,1,60.31,9.24Z" transform="translate(-0.04 0.01)"/><path class="a" d="M62.88,7.56l1.57-.43c.39-.11.71-.21.94-.29s.72-.26,1.15-.44l1.51-.64.29.83-.17.06c-.42.15-.67.34-.75.58a3.2,3.2,0,0,0,.31,1.58l.06.18.42,1.2,1-.28,1-.32c.56-.2,1.15-.42,1.76-.66l.29-.12h0l-.53-1.56A2.68,2.68,0,0,0,71,6a1.1,1.1,0,0,0-.94,0L69.9,6l-.29-.83,1.58-.43c.44-.13.83-.25,1.16-.37l1-.37,1.5-.63.29.83H75l-.17.06a.8.8,0,0,0-.61.68,7.55,7.55,0,0,0,.54,2.2l.2.57.18.5.29.83.27.81c.11.34.19.57.24.7a10.43,10.43,0,0,0,.46,1.2,1.58,1.58,0,0,0,.35.53.56.56,0,0,0,.41.15,1.73,1.73,0,0,0,.6-.11l.12,0,.13-.05.29.84c-.67.18-1.21.32-1.63.45l-1,.31c-.32.11-.7.25-1.13.43L73,15l-.29-.84h.12l.19-.06c.39-.14.63-.32.7-.56A3.26,3.26,0,0,0,73.38,12l-.09-.27h0l-.48-1.38-1,.32-1,.35-1.56.58-.42.15.5,1.43.07.25a2.92,2.92,0,0,0,.72,1.38,1,1,0,0,0,.91,0l.2-.07h.11l.29.84c-.66.17-1.22.33-1.67.46s-.84.26-1.16.37l-.93.36c-.39.16-.92.38-1.58.67L66,16.56l.2-.07a1.73,1.73,0,0,0,.56-.28.57.57,0,0,0,.2-.36A11,11,0,0,0,66.2,13c-.07-.2-.13-.36-.16-.47l-.29-.83-.35-1-.28-.86a3.42,3.42,0,0,0-.7-1.35.89.89,0,0,0-.89-.07l-.17.06-.11,0Z" transform="translate(-0.04 0.01)"/><path class="a" d="M78,7.94a5,5,0,0,1,1-4.17,6.48,6.48,0,0,1,4.12-2.34,6.07,6.07,0,0,1,4.48.75,5.17,5.17,0,0,1,2.35,3.59,5,5,0,0,1-1,4.13,6.45,6.45,0,0,1-4.08,2.3,6.24,6.24,0,0,1-4.57-.68A5.11,5.11,0,0,1,78,7.94Zm5.33-5a2.43,2.43,0,0,0-1.86,1.35,4.68,4.68,0,0,0-.21,2.91A5.05,5.05,0,0,0,82.5,10a2.45,2.45,0,0,0,2.28.63,2.28,2.28,0,0,0,1.78-1.29,4.7,4.7,0,0,0,.18-2.87A5.38,5.38,0,0,0,85.5,3.65a2.33,2.33,0,0,0-2.18-.73Z" transform="translate(-0.04 0.01)"/><path class="a" d="M96.81.21v.9h-.28a1.08,1.08,0,0,0-.9.34,2.72,2.72,0,0,0-.18,1.44,16.2,16.2,0,0,0,.06,1.67,4.76,4.76,0,0,1,0,1,4.53,4.53,0,0,0,.72,2.7A2.41,2.41,0,0,0,98.3,9a3.16,3.16,0,0,0,1.5-.39,1.88,1.88,0,0,0,.84-1,3.8,3.8,0,0,0,.18-1.16V2.36a1.85,1.85,0,0,0-.27-1.08,1.13,1.13,0,0,0-.9-.25h-.24V.13c.48,0,.9.06,1.24.07h.88l1-.06A9,9,0,0,0,103.7,0v.9h-.28c-.67,0-1,.87-.94,2.54V4.48a11.85,11.85,0,0,1-.29,3.8,3.48,3.48,0,0,1-1.6,1.8,5.85,5.85,0,0,1-2.77.74,7.48,7.48,0,0,1-2.21-.21A4,4,0,0,1,94,9.82a3.47,3.47,0,0,1-1-1.36,6.57,6.57,0,0,1-.36-2.16V3a3.23,3.23,0,0,0-.26-1.47,1,1,0,0,0-.83-.27h-.26V.38l1.48.06H94A6.92,6.92,0,0,0,95.18.37Z" transform="translate(-0.04 0.01)"/><path class="a" d="M116.09,1.57c-.06.51-.09,1-.11,1.52s0,1,0,1.49l-1,.08a2.59,2.59,0,0,0-.78-1.73,3.15,3.15,0,0,0-1.86-.79,3.45,3.45,0,0,0-2.74.66,4.13,4.13,0,0,0-1.22,2.74,4.55,4.55,0,0,0,.53,3,2.86,2.86,0,0,0,2.21,1.34,3.75,3.75,0,0,0,.67,0,4.83,4.83,0,0,0,.76-.13l.13-1.13a2.69,2.69,0,0,0-.06-1.38,1,1,0,0,0-.8-.39h-.48l.1-.91c.6.12,1.09.22,1.46.28l1,.15,1.2.11,1.75.1-.1.89h-.2a.94.94,0,0,0-.78.16,2.11,2.11,0,0,0-.32,1.12v1c0,.28-.06.56-.08.82s0,.51,0,.75c-1,.11-1.86.17-2.66.19a16.64,16.64,0,0,1-2-.06,6.6,6.6,0,0,1-4.27-1.95,4.82,4.82,0,0,1-1.23-4,5,5,0,0,1,2.28-3.84,7.37,7.37,0,0,1,5-1A13.93,13.93,0,0,1,114.4,1,12.52,12.52,0,0,1,116.09,1.57Z" transform="translate(-0.04 0.01)"/><path class="a" d="M119.57,1.91c.76.24,1.49.47,2.19.67s1.33.38,1.91.52,1.44.36,2.23.54l2.69.59c-.11.44-.21.89-.29,1.35s-.14.93-.19,1.41l-.87-.08a1.73,1.73,0,0,0-.35-1.37,3.74,3.74,0,0,0-1.74-.79l-.9-.22-.87-.18c-.06.18-.11.37-.17.58l-.23.88-.19.76-.19.73.39.1.77.2.63.17a2.69,2.69,0,0,0,1.32.12,1,1,0,0,0,.5-.69l.77.3c-.15.44-.27.8-.35,1.06s-.15.49-.2.69-.11.46-.21.93a1.13,1.13,0,0,1-.08.35l-.83-.11V10.3a1,1,0,0,0-.1-.9,3.08,3.08,0,0,0-1.33-.56l-.62-.15-.74-.18-.25-.06-.19.75-.27,1.06-.15.6c0,.21-.1.43-.16.67l1,.32c.29.09.56.17.82.23a4.62,4.62,0,0,0,2.3.2,2.74,2.74,0,0,0,1.3-1.17l.81.49c-.29.47-.56.92-.8,1.36s-.46.86-.66,1.27l-3.4-1-2-.54c-.49-.12-1.05-.26-1.7-.39l-2.24-.46.22-.86h.28a1.76,1.76,0,0,0,.56.07.73.73,0,0,0,.38-.14,1.29,1.29,0,0,0,.36-.53,14,14,0,0,0,.46-1.56l.1-.4.18-.71.25-1c.08-.33.18-.68.28-1V5.56a3.5,3.5,0,0,1,.17-.65l.15-.54a1.87,1.87,0,0,0,.06-1.19,1.18,1.18,0,0,0-.78-.48h-.28Z" transform="translate(-0.04 0.01)"/><path class="a" d="M131.29,5l1.4.69,1,.45L135,6.6c.45.16.92.31,1.41.46l-.33.82-.19-.08a1,1,0,0,0-.94,0A4.16,4.16,0,0,0,134,9.37v.11l-1.66,4.09a3.36,3.36,0,0,0-.39,1.55c.06.25.29.45.68.61l.19.07.13,0-.33.8L131,15.88c-.38-.18-.71-.32-1-.43l-1-.37-1.74-.58.33-.82.13.06.12.06a1.11,1.11,0,0,0,.94.07,2.17,2.17,0,0,0,.66-1l.36-.87.55-1.29.41-1,.26-.63.27-.65.23-.55a2.69,2.69,0,0,0,.31-1.36c-.06-.25-.29-.45-.69-.62L131,5.81Zm6.41,2.6c.64.32,1.12.56,1.43.7s.57.27.79.35l.79.29,1.46.47-.33.82h-.08l-.13-.05a2,2,0,0,0-1-.11,9.18,9.18,0,0,0-1.84.59l-2.55,1L137.75,16c.06.16.14.4.23.69.31,1,.69,1.54,1.13,1.72l.14.05h.09l-.33.82c-.57-.27-1-.48-1.34-.62l-.84-.36-.68-.26-1.36-.47.05-.06v-.1c.13-.32-.16-1.47-.85-3.46-.36-1-.65-1.85-.86-2.48L136.39,10a10.45,10.45,0,0,0,1.17-.56.93.93,0,0,0,.36-.35.38.38,0,0,0-.06-.38,1.28,1.28,0,0,0-.53-.33Z" transform="translate(-0.04 0.01)"/><path class="a" d="M144,10.45l1.44.91c.41.25.78.47,1.11.64l1,.48,1.57.73-.42.77-.17-.09a1.69,1.69,0,0,0-.69-.25.66.66,0,0,0-.46.19,4.19,4.19,0,0,0-.58.8c-.26.42-.64,1.1-1.15,2l-.42.77-.49.89c-.2.36-.34.61-.41.75a9.18,9.18,0,0,0-.48,1,1.43,1.43,0,0,0-.13.54.64.64,0,0,0,.18.41,2.35,2.35,0,0,0,.64.44l.17.09-.42.78c-.5-.33-1-.62-1.42-.9s-.85-.5-1.2-.69l-1-.52c-.4-.2-1-.46-1.64-.76l.42-.78.21.11a3.82,3.82,0,0,0,.72.31.56.56,0,0,0,.42-.07,11.79,11.79,0,0,0,1.61-2.51l.24-.44.42-.77.45-.82.39-.7a8.66,8.66,0,0,0,.52-1.06,1.65,1.65,0,0,0,.14-.58.59.59,0,0,0-.16-.4,2.07,2.07,0,0,0-.62-.38l-.23-.12Z" transform="translate(-0.04 0.01)"/><path class="a" d="M73.81,23.19l1.67-.31c.47-.09.89-.19,1.25-.28l1-.3,1.65-.53.22.85-.18.05a1.53,1.53,0,0,0-.68.29.66.66,0,0,0-.21.45,4.21,4.21,0,0,0,.12,1c.1.48.28,1.24.55,2.29l.22.85c.07.26.15.59.25,1s.17.68.2.83a8.88,8.88,0,0,0,.31,1,1.52,1.52,0,0,0,.27.48.64.64,0,0,0,.41.18,2.52,2.52,0,0,0,.77-.11h.19l.22.86c-.59.1-1.14.2-1.65.31s-1,.21-1.35.31l-1.1.31-1.72.55L76,32.41l.23-.06a2.73,2.73,0,0,0,.74-.27.56.56,0,0,0,.26-.34,11.71,11.71,0,0,0-.52-2.94q-.08-.32-.12-.48l-.22-.85c-.06-.23-.13-.53-.22-.9s-.15-.63-.19-.78a9.15,9.15,0,0,0-.34-1.13,1.48,1.48,0,0,0-.29-.52.58.58,0,0,0-.39-.19,2.1,2.1,0,0,0-.66.08l-.25.06Z" transform="translate(-0.04 0.01)"/><path class="a" d="M84.43,30.24h.37a1,1,0,0,0,.81-.39,1.77,1.77,0,0,0,.1-1.09l-.29-2.31L85,23a1.71,1.71,0,0,0-.38-1,1.17,1.17,0,0,0-.94-.17h-.24l-.11-.87,1.59-.09.72-.06a10.34,10.34,0,0,0,1.78-.33c.78-.17,1.31-.27,1.64-.31a5.43,5.43,0,0,1,3.3.42,2.65,2.65,0,0,1,1.47,2.08,2.88,2.88,0,0,1-.89,2.6,5.57,5.57,0,0,1-3.23,1.3l-.61.06h-.69l.15,1.25A3.16,3.16,0,0,0,89,29.33a1,1,0,0,0,.93.21h.28l.11.85-1.81.14-1.13.12-1,.17-1.71.33Zm3.76-4.78H89a2.29,2.29,0,0,0,1.53-.73,1.92,1.92,0,0,0,.38-1.55,1.69,1.69,0,0,0-.7-1.25,2.07,2.07,0,0,0-1.51-.3l-.48.08a2,2,0,0,0-.5.13,13.86,13.86,0,0,0,.17,1.52C88,23.88,88.07,24.54,88.19,25.46Z" transform="translate(-0.04 0.01)"/><path class="a" d="M96.05,28.83h.37a1,1,0,0,0,.85-.28,1.79,1.79,0,0,0,.25-1.06V25.16l.06-3.5a1.63,1.63,0,0,0-.23-1.08,1.22,1.22,0,0,0-.91-.3H96.2V19.4l1.59.14h.72a16.9,16.9,0,0,0,1.81-.08,15.51,15.51,0,0,1,1.67-.08,5.43,5.43,0,0,1,3.21.88,2.69,2.69,0,0,1,1.12,2.31A2.91,2.91,0,0,1,105.07,25a5.54,5.54,0,0,1-3.39.83h-.61l-.69-.07V27a3,3,0,0,0,.21,1.51,1,1,0,0,0,.89.34h.33v.86L100,29.63H97.8l-1.74.08Zm4.4-4.21h.82a2.37,2.37,0,0,0,1.62-.5,1.91,1.91,0,0,0,.6-1.48A1.73,1.73,0,0,0,103,21.3a2.08,2.08,0,0,0-1.45-.51H101l-.51.06v1.53C100.52,22.91,100.46,23.7,100.45,24.62Z" transform="translate(-0.04 0.01)"/><path class="a" d="M109,19.81l1.68.3c.48.08.9.14,1.27.18l1.07.09,1.73.09-.1.88h-.19a1.84,1.84,0,0,0-.74,0,.59.59,0,0,0-.35.34,4.29,4.29,0,0,0-.24,1c-.08.48-.18,1.26-.31,2.33l-.1.87a8.09,8.09,0,0,1-.13,1c-.06.4-.09.7-.11.85a9.45,9.45,0,0,0-.08,1.07,1.47,1.47,0,0,0,.08.55.61.61,0,0,0,.32.31,2.8,2.8,0,0,0,.76.17h.19l-.1.88q-.87-.18-1.65-.3l-1.37-.2c-.3,0-.68-.07-1.14-.1s-1.07-.07-1.8-.1l.1-.88H108a3.39,3.39,0,0,0,.78,0,.55.55,0,0,0,.36-.22,11.68,11.68,0,0,0,.56-2.93,1.1,1.1,0,0,1,.06-.49l.1-.87c0-.23.07-.54.11-.92s.08-.65.1-.8a11.71,11.71,0,0,0,.09-1.18,1.49,1.49,0,0,0-.09-.59.67.67,0,0,0-.3-.32,2.14,2.14,0,0,0-.65-.16h-.26Z" transform="translate(-0.04 0.01)"/><path class="a" d="M117.2,20.71l1.44.47.84.24,1,.21c.38.07.8.13,1.24.19a2.42,2.42,0,0,0,.13.65c.08.23.25.61.5,1.13l2.92,5.83c.11-.45.22-.87.32-1.27l.28-1.14a4.32,4.32,0,0,1,.18-.71c.07-.29.13-.49.15-.6a3.41,3.41,0,0,0,.14-1.52,1,1,0,0,0-.76-.54h-.31l.21-.86c.33.13.66.25,1,.35s.69.21,1.08.3.73.17,1.08.23.71.11,1.07.15l-.21.86a2.6,2.6,0,0,0-.88-.11.66.66,0,0,0-.41.3,5,5,0,0,0-.32.84c-.13.42-.36,1.28-.68,2.58l-.24.93c-.18.71-.36,1.38-.51,2l-.4,1.59a1.7,1.7,0,0,0-.06.31,1.1,1.1,0,0,1-.07.45L123.59,33a4.42,4.42,0,0,0-.15-.48c-.07-.18-.2-.44-.37-.79l-3.6-7.09c-.11.4-.21.81-.32,1.2l-.34,1.4-.33,1.33a4.15,4.15,0,0,0-.2,1.75.94.94,0,0,0,.75.57l.31.06h.06l-.21.86-1.31-.43a9.61,9.61,0,0,0-1-.27c-.3-.06-.53-.12-.9-.18s-.82-.14-1.33-.21l.21-.86.17.05h.14a1.56,1.56,0,0,0,.68.05.78.78,0,0,0,.44-.31,13.27,13.27,0,0,0,.85-2.61c.08-.29.14-.51.19-.67l.24-.86.21-.8c.08-.3.2-.79.36-1.48a1.69,1.69,0,0,0,0-1.13,1.26,1.26,0,0,0-.86-.5l-.21-.05h-.15Z" transform="translate(-0.04 0.01)"/><path d="M223.83,166.74a9.11,9.11,0,0,0-.56-1.72,6.76,6.76,0,0,0-1-1.69,8.63,8.63,0,0,0,4.85-1.83,4.74,4.74,0,0,0,1.52-3.61,3.68,3.68,0,0,0-1.75-3.25,29.9,29.9,0,0,1-2.19,3.36,22.47,22.47,0,0,1-2.46,2.79c.09.29.19.58.3.88s.23.59.36.86a9.12,9.12,0,0,0-1.2.44c-.46.2-.89.41-1.3.62a9,9,0,0,0-1,.58c-.07-.14-.14-.29-.2-.43s-.13-.3-.18-.44a11.54,11.54,0,0,1-2.79,1.19,6.74,6.74,0,0,1-2.7.17,3.12,3.12,0,0,1-1.91-1.09,4,4,0,0,1-.88-2.81,8.11,8.11,0,0,1,.85-3.7A10,10,0,0,1,214,154a13.09,13.09,0,0,1,3.41-2.19c0-1,0-1.94.08-2.89-1,.07-1.94.11-2.82.11a18.62,18.62,0,0,1-2.18-.11l-.25-3.64a22.94,22.94,0,0,0,2.49.18c1,0,2,0,3.06,0,.09-.6.18-1.18.26-1.74s.17-1.09.26-1.59l3.71.68c-.07.38-.15.77-.23,1.16s-.15.79-.2,1.19c1.29-.15,2.54-.34,3.75-.58a18.92,18.92,0,0,0,3.1-.84l.33,3.49a26.65,26.65,0,0,1-3.39.81c-1.34.25-2.75.44-4.2.59l-.06,1.05c0,.35,0,.71,0,1.08.38-.06.77-.1,1.17-.14s.8-.05,1.2-.05a12.12,12.12,0,0,1,1.48.08c.13-.35.25-.69.37-1s.23-.7.34-1.06l3.66,1a19.46,19.46,0,0,1-.82,2.05,7.59,7.59,0,0,1,3.2,2.59,6.52,6.52,0,0,1,1.14,3.77,8.35,8.35,0,0,1-1.09,4.32,8.15,8.15,0,0,1-3.09,3A12.82,12.82,0,0,1,223.83,166.74ZM215.55,161a6.92,6.92,0,0,0,2.52-1.26,34.36,34.36,0,0,1-.58-4.32,7.46,7.46,0,0,0-2.17,2.08,4.39,4.39,0,0,0-.81,2.49,1.24,1.24,0,0,0,.25.9A.92.92,0,0,0,215.55,161Zm5.77-4.38a15,15,0,0,0,1.05-1.35c.34-.48.66-1,1-1.51a10.9,10.9,0,0,0-1.16,0c-.38,0-.74.09-1.11.16C221.13,154.85,221.21,155.73,221.32,156.6Z" transform="translate(-0.04 0.01)"/><path d="M253.86,165.46a5.52,5.52,0,0,0-.48-1.27,14.27,14.27,0,0,0-.85-1.44,5.54,5.54,0,0,0-1-1.12,10.53,10.53,0,0,0,5.71-2.35,5.93,5.93,0,0,0,2-4.2,6.2,6.2,0,0,0-.66-3.31,6.63,6.63,0,0,0-2.06-2.36,6.82,6.82,0,0,0-2.83-1.17,37,37,0,0,1-.8,5,26.73,26.73,0,0,1-1.63,4.89,14.41,14.41,0,0,1-2.57,3.95,4.43,4.43,0,0,1-2.43,1.57,4.62,4.62,0,0,1-2.43-.34,5.56,5.56,0,0,1-2.19-1.66,7.82,7.82,0,0,1-1.4-2.67,9.54,9.54,0,0,1-.4-3.27,11.56,11.56,0,0,1,4.1-8.35,12.48,12.48,0,0,1,4.14-2.29,13.44,13.44,0,0,1,5-.64,11.16,11.16,0,0,1,4.13,1,10.9,10.9,0,0,1,3.35,2.33,10.45,10.45,0,0,1,2.2,3.42,9.74,9.74,0,0,1,.62,4.21,9.57,9.57,0,0,1-2.73,6.54A13.39,13.39,0,0,1,253.86,165.46Zm-8-6.31a8.54,8.54,0,0,0,1.7-2.56,22.45,22.45,0,0,0,1.33-3.8,27,27,0,0,0,.74-4.3,8.29,8.29,0,0,0-3,1.57,7.83,7.83,0,0,0-2,2.58,8.66,8.66,0,0,0-.85,3.31,4.9,4.9,0,0,0,.23,1.86,3.4,3.4,0,0,0,.84,1.31A.66.66,0,0,0,245.91,159.15Z" transform="translate(-0.04 0.01)"/><path d="M271.83,166.9a11,11,0,0,0-1.17-.54c-.46-.18-.9-.35-1.33-.49a7,7,0,0,0-1.08-.3,15.69,15.69,0,0,0,1.64-4.73,33.49,33.49,0,0,0,.52-6.31v-9.81h9.32v-2.87h4.32v2.87h9.56v3.61h-8.77v2.29h7.81V154h-7.81v2.43h6.64v10.47H275.6V156.41h4.92v-8.08h-6.17v6.25a34.64,34.64,0,0,1-.66,7.22A17.22,17.22,0,0,1,271.83,166.9Zm7.71-3.38h8V159.8h-8Z" transform="translate(-0.04 0.01)"/><path d="M313.42,165.46a5.52,5.52,0,0,0-.48-1.27,14.27,14.27,0,0,0-.85-1.44,5.54,5.54,0,0,0-1-1.12,10.53,10.53,0,0,0,5.71-2.35,6,6,0,0,0,2-4.2,6.2,6.2,0,0,0-.66-3.31,6.63,6.63,0,0,0-2.06-2.36,6.82,6.82,0,0,0-2.83-1.17,37,37,0,0,1-.8,5,26.73,26.73,0,0,1-1.63,4.89,14.41,14.41,0,0,1-2.57,3.95,4.46,4.46,0,0,1-2.43,1.57,4.59,4.59,0,0,1-2.43-.34,5.56,5.56,0,0,1-2.19-1.66,7.65,7.65,0,0,1-1.4-2.67,9.31,9.31,0,0,1-.4-3.27,11.64,11.64,0,0,1,1.22-4.7,11.4,11.4,0,0,1,2.88-3.65,12.48,12.48,0,0,1,4.14-2.29,13.41,13.41,0,0,1,5-.64,11.16,11.16,0,0,1,4.13,1,10.74,10.74,0,0,1,3.34,2.33,10.29,10.29,0,0,1,2.2,3.42,10.58,10.58,0,0,1-2.1,10.75A13.39,13.39,0,0,1,313.42,165.46Zm-8-6.31a8.37,8.37,0,0,0,1.71-2.56,22.45,22.45,0,0,0,1.33-3.8,27,27,0,0,0,.74-4.3,8.29,8.29,0,0,0-3,1.57,7.83,7.83,0,0,0-2,2.58,8.66,8.66,0,0,0-.85,3.31,4.71,4.71,0,0,0,.23,1.86,3.4,3.4,0,0,0,.84,1.31A.65.65,0,0,0,305.46,159.15Z" transform="translate(-0.04 0.01)"/><path d="M353.06,166.74a9.11,9.11,0,0,0-.56-1.72,7.44,7.44,0,0,0-1-1.69,8.63,8.63,0,0,0,4.85-1.83,4.73,4.73,0,0,0,1.51-3.61,3.66,3.66,0,0,0-1.75-3.25A29.84,29.84,0,0,1,354,158a23.32,23.32,0,0,1-2.46,2.79c.09.29.19.58.3.88s.23.59.36.86A9.75,9.75,0,0,0,351,163c-.45.2-.88.41-1.29.62a8.13,8.13,0,0,0-1,.58c-.08-.14-.14-.29-.21-.43s-.12-.3-.17-.44a11.54,11.54,0,0,1-2.79,1.19,6.78,6.78,0,0,1-2.71.17,3.14,3.14,0,0,1-1.91-1.09,4,4,0,0,1-.87-2.81,8.24,8.24,0,0,1,.84-3.7,10.24,10.24,0,0,1,2.34-3.05,13,13,0,0,1,3.4-2.19c0-1,0-1.94.08-2.89-1,.07-1.94.11-2.81.11a18.94,18.94,0,0,1-2.19-.11l-.24-3.64a22.93,22.93,0,0,0,2.48.18c1,0,2,0,3.06,0,.1-.6.18-1.18.26-1.74s.17-1.09.26-1.59l3.72.68c-.07.38-.15.77-.23,1.16s-.15.79-.21,1.19c1.29-.15,2.55-.34,3.76-.58a19.2,19.2,0,0,0,3.1-.84l.33,3.49a26.65,26.65,0,0,1-3.39.81c-1.35.25-2.75.44-4.21.59,0,.34,0,.69-.05,1.05s0,.71-.06,1.08c.38-.06.78-.1,1.18-.14s.8-.05,1.2-.05a12.07,12.07,0,0,1,1.47.08c.13-.35.26-.69.37-1s.24-.7.35-1.06l3.66,1a19.46,19.46,0,0,1-.82,2.05,7.56,7.56,0,0,1,3.19,2.59,6.46,6.46,0,0,1,1.15,3.77,8.35,8.35,0,0,1-1.09,4.32,8.15,8.15,0,0,1-3.09,3A12.82,12.82,0,0,1,353.06,166.74ZM344.78,161a6.89,6.89,0,0,0,2.51-1.26,36.33,36.33,0,0,1-.57-4.32,7.34,7.34,0,0,0-2.17,2.08,4.39,4.39,0,0,0-.81,2.49,1.2,1.2,0,0,0,.25.9A.92.92,0,0,0,344.78,161Zm5.76-4.38a13.46,13.46,0,0,0,1.06-1.35c.33-.48.65-1,1-1.51a11.09,11.09,0,0,0-1.17,0c-.37,0-.74.09-1.1.16C350.35,154.85,350.43,155.73,350.54,156.6Z" transform="translate(-0.04 0.01)"/><path d="M383.08,165.46a4.73,4.73,0,0,0-.48-1.27,12.51,12.51,0,0,0-.84-1.44,5.54,5.54,0,0,0-1-1.12,10.53,10.53,0,0,0,5.71-2.35,5.92,5.92,0,0,0,2-4.2,6.1,6.1,0,0,0-.65-3.31,6.63,6.63,0,0,0-2.06-2.36,6.82,6.82,0,0,0-2.83-1.17,38.75,38.75,0,0,1-.81,5,26,26,0,0,1-1.62,4.89,14.65,14.65,0,0,1-2.57,3.95,4.5,4.5,0,0,1-2.43,1.57,4.59,4.59,0,0,1-2.43-.34,5.56,5.56,0,0,1-2.19-1.66,7.83,7.83,0,0,1-1.41-2.67,9.3,9.3,0,0,1-.39-3.27,11.63,11.63,0,0,1,1.21-4.7,11.43,11.43,0,0,1,2.89-3.65,12.54,12.54,0,0,1,4.13-2.29,13.47,13.47,0,0,1,5-.64,11.16,11.16,0,0,1,4.13,1,10.74,10.74,0,0,1,3.34,2.33,10.29,10.29,0,0,1,2.2,3.42,10.58,10.58,0,0,1-2.1,10.75A13.42,13.42,0,0,1,383.08,165.46Zm-7.95-6.31a8.37,8.37,0,0,0,1.71-2.56,21.62,21.62,0,0,0,1.32-3.8,26,26,0,0,0,.74-4.3,8.24,8.24,0,0,0-3,1.57,7.7,7.7,0,0,0-2,2.58A8.48,8.48,0,0,0,373,156a4.71,4.71,0,0,0,.23,1.86,3.38,3.38,0,0,0,.83,1.31A.66.66,0,0,0,375.13,159.15Z" transform="translate(-0.04 0.01)"/><path d="M411.82,167v-7.87a29.47,29.47,0,0,1-2.65,2.44c-.94.78-1.88,1.48-2.81,2.11a24.82,24.82,0,0,1-2.57,1.54,7.91,7.91,0,0,0-.68-1.05,12.42,12.42,0,0,0-.93-1.11,5.68,5.68,0,0,0-1-.82,17.61,17.61,0,0,0,2.39-1.23c.85-.51,1.71-1.07,2.57-1.69a28.3,28.3,0,0,0,2.43-1.94,20.14,20.14,0,0,0,2-2h-3.91v3.5h-8.31v-14h8.31v6.89h5.16v-2.6h-4.37v-3.5h4.37v-3.9h3.91v3.9h5.44v3.5h-5.44v2.6H423v3.6h-6.47a17.57,17.57,0,0,0,1.68,1.89c.65.64,1.33,1.25,2.06,1.84s1.44,1.13,2.13,1.6a18.85,18.85,0,0,0,1.89,1.15,10.69,10.69,0,0,0-2.79,3,22,22,0,0,1-2.95-2.29,27,27,0,0,1-2.84-3V167Zm-10-11.72h1.4v-6.75h-1.4Z" transform="translate(-0.04 0.01)"/><path d="M442.56,166.58a18.09,18.09,0,0,1-4.3-.47,6.66,6.66,0,0,1-3-1.5,3.57,3.57,0,0,1-1.12-2.76,4.21,4.21,0,0,1,.79-2.49,8,8,0,0,1,2.2-2,20,20,0,0,1,3.24-1.68v-.14a1.35,1.35,0,0,0-.45-1.09,1.93,1.93,0,0,0-1.11-.44,4.15,4.15,0,0,0-2.06.22,6.3,6.3,0,0,0-2,1.48l-.93.87-1.22,1.15-1,.93-2.9-2.9a16.23,16.23,0,0,0,3.5-2.94,24.86,24.86,0,0,0,2.92-3.89c-1.93.09-3.33.12-4.21.08l-.16-3.82c.64.05,1.5.08,2.58.08s2.25,0,3.48-.08a12.19,12.19,0,0,0,.66-3.12l4,.22c0,.44-.09.88-.17,1.31a9.93,9.93,0,0,1-.3,1.31c1.3-.09,2.49-.21,3.6-.35a18.65,18.65,0,0,0,2.52-.47l.22,3.69c-.51.09-1.17.19-2,.29s-1.72.2-2.69.29l-3,.27a12.9,12.9,0,0,1-.6,1.17c-.22.39-.45.76-.69,1.12a7.53,7.53,0,0,1,1.48-.16,5.23,5.23,0,0,1,2.85.78,3.81,3.81,0,0,1,1.6,2.75c1-.31,2-.6,3-.87l3.1-.77,1.15,3.71c-1.31.15-2.57.34-3.78.59s-2.34.51-3.38.8v3.5h-4v-2a7.53,7.53,0,0,0-1.72,1.11,1.5,1.5,0,0,0-.63,1.05q0,.84,1,1.11a14.8,14.8,0,0,0,3.3.25,21.33,21.33,0,0,0,2.23-.13c.85-.09,1.68-.21,2.51-.34a19.79,19.79,0,0,0,2.09-.45c-.05.32-.1.76-.15,1.29s-.07,1.07-.09,1.59,0,.93,0,1.24a25.76,25.76,0,0,1-3.08.48A32.14,32.14,0,0,1,442.56,166.58Z" transform="translate(-0.04 0.01)"/><path d="M476.33,165.92a9,9,0,0,1-3.8-.23,5.08,5.08,0,0,1-2.49-1.61,4.15,4.15,0,0,1-.87-2.64,6.19,6.19,0,0,1,1.57-3.93,11.56,11.56,0,0,1,4.41-3.2v-3.5c-1,.08-1.94.13-2.87.15s-1.79,0-2.59,0l-.17-3.85a20.41,20.41,0,0,0,2.48.07q1.49,0,3.15-.15v-4h3.72v3.58a18.63,18.63,0,0,0,4.23-1l.36,3.67a24.65,24.65,0,0,1-4.59,1.09v2.84c.58-.09,1.17-.16,1.77-.22s1.23-.08,1.89-.08a11.17,11.17,0,0,1,4.68.87,6.7,6.7,0,0,1,2.87,2.33,5.58,5.58,0,0,1,1,3.19,5.9,5.9,0,0,1-1.62,4.36,6.14,6.14,0,0,1-4.52,1.63,6,6,0,0,1-3.65-1.08,5.85,5.85,0,0,1-2.12-3.16,16.85,16.85,0,0,0,1.87-.7,9.07,9.07,0,0,0,1.77-1q.6,1.89,2.1,1.89a1.62,1.62,0,0,0,1.45-.64,2.58,2.58,0,0,0-.52-3.43,4.93,4.93,0,0,0-3.28-.85,16.6,16.6,0,0,0-1.9.11,12.18,12.18,0,0,0-1.76.33v6.58a2.6,2.6,0,0,1-.56,1.81A3.2,3.2,0,0,1,476.33,165.92ZM474,162.34c.76.08,1.14-.14,1.14-.65v-3.31a6.34,6.34,0,0,0-1.53,1.39,2.49,2.49,0,0,0-.54,1.45,1.32,1.32,0,0,0,.2.75A.91.91,0,0,0,474,162.34Zm16.14-9.21a13.87,13.87,0,0,0-1.3-1.06c-.52-.38-1.07-.77-1.66-1.15s-1.18-.73-1.75-1a10.55,10.55,0,0,0-1.52-.72l2.11-3a21.83,21.83,0,0,1,2.22,1.06,25.44,25.44,0,0,1,2.3,1.38,15,15,0,0,1,1.9,1.47,9.63,9.63,0,0,0-.86,1c-.32.41-.61.81-.88,1.2S490.26,152.92,490.15,153.13Z" transform="translate(-0.04 0.01)"/><path d="M507,167.21a11,11,0,0,0-.15-1.19c-.09-.47-.18-.93-.28-1.38a5.36,5.36,0,0,0-.34-1.1h1.67a3,3,0,0,0,1.66-.41,1.71,1.71,0,0,0,.66-1.58v-.14a.25.25,0,0,0,0-.13,21,21,0,0,1-2.42,1.4c-.92.47-1.89.91-2.9,1.34s-2,.81-3.05,1.15-2,.61-2.88.83a11.94,11.94,0,0,0-.7-1.69,7.44,7.44,0,0,0-.92-1.45,34.19,34.19,0,0,0,4.2-1.15,39.57,39.57,0,0,0,4.29-1.72,21.88,21.88,0,0,0,3.67-2.13,4.29,4.29,0,0,0-.13-.44c-.06-.14-.11-.28-.17-.41a18.53,18.53,0,0,1-3,1.79,34.85,34.85,0,0,1-3.58,1.56c-1.24.47-2.4.84-3.49,1.14a8.61,8.61,0,0,0-.7-1.66,5.24,5.24,0,0,0-.94-1.32,31.88,31.88,0,0,0,3.48-1,33.62,33.62,0,0,0,3.65-1.42,20.38,20.38,0,0,0,3.08-1.68l-.19-.26a1.37,1.37,0,0,0-.19-.23c-1.24.62-2.55,1.2-3.95,1.74a36.85,36.85,0,0,1-4.11,1.32,7.36,7.36,0,0,0-.67-1.57,8.64,8.64,0,0,0-1-1.43,26.09,26.09,0,0,0,3.61-1,36.09,36.09,0,0,0,3.77-1.5h-2.43v-3.14h14.89v3.14h-6.31l-.51.38-.56.41a12.29,12.29,0,0,1,2.4,3.11,26.66,26.66,0,0,0,3.16-2.06,20.83,20.83,0,0,0,2.47-2.12l2.54,2.68a26.06,26.06,0,0,1-2.63,1.91,30.11,30.11,0,0,1-2.83,1.62,15.69,15.69,0,0,0,2.55,2,24.66,24.66,0,0,0,2.93,1.6,27.29,27.29,0,0,0,2.77,1.12,8.67,8.67,0,0,0-1.3,1.54,15.73,15.73,0,0,0-1.08,1.82,24.16,24.16,0,0,1-2.4-1.24,22.37,22.37,0,0,1-2.51-1.72,18.64,18.64,0,0,1-2.24-2.09c0,.12,0,.27,0,.42v.45a5.94,5.94,0,0,1-1.42,4.32,5.38,5.38,0,0,1-4,1.45Zm-9.18-17.05V144h10.19v-2.07h4.15V144h10.13v6h-4v-2.76H501.74v2.9Z" transform="translate(-0.04 0.01)"/><path d="M546.16,166.25a13.08,13.08,0,0,1-5.23-1.71,9.58,9.58,0,0,1-3.51-3.56,10.11,10.11,0,0,1-1.26-5.09,9.11,9.11,0,0,1,.83-3.75,11.73,11.73,0,0,1,2.37-3.4c-1.41.23-2.78.48-4.12.72s-2.54.48-3.6.7-1.91.42-2.53.6l-.87-4.35c.58,0,1.41-.08,2.5-.19s2.31-.26,3.7-.45,2.82-.4,4.3-.63,2.92-.46,4.3-.71,2.63-.48,3.72-.72,1.94-.45,2.54-.63l1.09,4.07c-.31,0-.68.06-1.13.12l-1.49.21a8.35,8.35,0,0,0-2.73.83,9.06,9.06,0,0,0-2.42,1.78,8.37,8.37,0,0,0-1.71,2.57,8.05,8.05,0,0,0-.62,3.23,5.12,5.12,0,0,0,1,3.31,6.63,6.63,0,0,0,2.87,2,16.54,16.54,0,0,0,4.18,1,7.76,7.76,0,0,0-1,1.28,10.62,10.62,0,0,0-.8,1.52A6.44,6.44,0,0,0,546.16,166.25Zm2.29-10.82a13.42,13.42,0,0,0-1.29-1.78q-.78-.9-1.41-1.5l1.75-1.42q.38.33.93.93c.36.4.72.81,1.06,1.23s.62.77.82,1.06Zm2.63-2.13a13.44,13.44,0,0,0-1.32-1.76,16.26,16.26,0,0,0-1.42-1.49l1.78-1.42a11.5,11.5,0,0,1,.93.93c.36.4.72.81,1.06,1.23a11.76,11.76,0,0,1,.8,1.06Z" transform="translate(-0.04 0.01)"/><path d="M561.62,166.63a4,4,0,0,1-2.07-.56,4.17,4.17,0,0,1-2.08-3.65,4.06,4.06,0,0,1,.56-2.09,4.31,4.31,0,0,1,1.5-1.5,4.24,4.24,0,0,1,4.21,0,4.31,4.31,0,0,1,1.5,1.5,4,4,0,0,1,.56,2.09,4,4,0,0,1-.56,2.13,4.13,4.13,0,0,1-3.62,2.08Zm0-1.77a2.28,2.28,0,0,0,1.71-.73,2.36,2.36,0,0,0,.7-1.68,2.42,2.42,0,0,0-.69-1.71,2.26,2.26,0,0,0-1.72-.72,2.29,2.29,0,0,0-1.7.71,2.44,2.44,0,0,0,0,3.42A2.29,2.29,0,0,0,561.62,164.86Z" transform="translate(-0.04 0.01)"/></svg>