<svg xmlns="http://www.w3.org/2000/svg" viewBox="0 0 537 537.19"><defs><style>.a{fill:#040000;}.b{fill:none;}</style></defs><path class="a" d="M7219-7451.19V-7334l-46.6-47.1a15.3,15.3,0,0,0-21.64.17,15.31,15.31,0,0,0-.12,21.34l72.78,73.58a15.29,15.29,0,0,0,21.62.12l.13-.12,72.77-73.58a15.3,15.3,0,0,0-.12-21.63,15.29,15.29,0,0,0-21.63.12h0l-46.6,47.11v-117.23a15.31,15.31,0,0,0-14.91-15.69A15.29,15.29,0,0,0,7219-7452C7219-7451.72,7219-7451.45,7219-7451.19Z" transform="translate(-6965.88 7466.88)"/><path class="a" d="M7403.13-7248.9a20.21,20.21,0,0,0-15.65-7.42H7124l-9-30.81h0a39.42,39.42,0,0,0-29.5-27.24l-32.2-6.9a10.1,10.1,0,0,0-12,7.75,10.1,10.1,0,0,0,7.76,12l32.21,6.9a19.24,19.24,0,0,1,14.38,13.28l58.85,202.18c-1.32.62-2.61,1.3-3.85,2a40.81,40.81,0,0,0-14.85,15.29,42,42,0,0,0-5.15,19.44h0v1.05h0a41.82,41.82,0,0,0,41.82,40.8h189.3a10.1,10.1,0,0,0,10.1-10.1,10.1,10.1,0,0,0-10.1-10.1H7172.52a21.33,21.33,0,0,1-8.42-1.7,21.68,21.68,0,0,1-9.53-7.85,20.55,20.55,0,0,1,.94-24.7,20.56,20.56,0,0,1,5.56-4.78,25.27,25.27,0,0,1,7.83-3l190.28-31a30.33,30.33,0,0,0,24.83-23.87l23.26-114.39h0a21.53,21.53,0,0,0,.4-4A20.23,20.23,0,0,0,7403.13-7248.9Zm-38.92,127.21a10.13,10.13,0,0,1-8.28,8l-181.79,29.56-44.24-151.94h257.59Z" transform="translate(-6965.88 7466.88)"/><path class="a" d="M7195.9-6984.14a27.92,27.92,0,0,0-38.76,7.47,27.91,27.91,0,0,0,7.48,38.76,27.9,27.9,0,0,0,38.75-7.48,27.84,27.84,0,0,0,4.8-15.68,27.68,27.68,0,0,0-2.19-10.85A28,28,0,0,0,7195.9-6984.14Zm-5.24,27.49a11.34,11.34,0,0,1-4.07,4.94,11.3,11.3,0,0,1-10.66,1,11.4,11.4,0,0,1-5-4.08,11.26,11.26,0,0,1-1-10.65,11.27,11.27,0,0,1,4.08-5,11.06,11.06,0,0,1,6.21-1.88,11.38,11.38,0,0,1,4.38.88,11.19,11.19,0,0,1,4.94,4.09,11.19,11.19,0,0,1,1.92,6.27A11.35,11.35,0,0,1,7190.66-6956.65Z" transform="translate(-6965.88 7466.88)"/><path class="a" d="M7348.76-6984.14a27.82,27.82,0,0,0-38.63,7.53,27.83,27.83,0,0,0,7.53,38.63,27.84,27.84,0,0,0,38.63-7.53,27.85,27.85,0,0,0,2.56-26.37A27.9,27.9,0,0,0,7348.76-6984.14Zm-5.24,27.49a11.29,11.29,0,0,1-4.08,4.94,11.26,11.26,0,0,1-10.64,1,11.34,11.34,0,0,1-5-4.08,11.34,11.34,0,0,1-1-10.65,11.27,11.27,0,0,1,4.08-5,11.07,11.07,0,0,1,6.28-1.92,11.33,11.33,0,0,1,4.37.88,11.29,11.29,0,0,1,5,4.09,11.28,11.28,0,0,1,1,10.65Z" transform="translate(-6965.88 7466.88)"/><rect class="b" y="0.19" width="537" height="537"/></svg>