<svg xmlns="http://www.w3.org/2000/svg" viewBox="0 0 537 537"><defs><style>.a{fill:none;}</style></defs><rect class="a" width="537" height="537"/><path d="M7341.56-7262.4l-84.75-84.75a10,10,0,0,0-14.14-.06l-.06.06L7073-7177.58h0a10.39,10.39,0,0,0-.87,1l-.18.25a9.2,9.2,0,0,0-.68,1.07,0,0,0,0,0,0,.05,8.92,8.92,0,0,0-.55,1.22l-.09.25a10.84,10.84,0,0,0-.34,1.24v.11l-21.11,105.89a10,10,0,0,0,2.74,9.06,10.07,10.07,0,0,0,7.1,2.94,10.34,10.34,0,0,0,2-.19l105.89-21.2h.27l.75-.19.34-.12c.2-.07.39-.13.58-.21l.43-.2.46-.22c.17-.09.33-.19.49-.29l.35-.21c.19-.13.37-.27.55-.41l.24-.18q.35-.28.66-.6l.08-.07h0a9.59,9.59,0,0,0,.68-.75c.09-.11.16-.23.25-.34a4.86,4.86,0,0,0,.32-.45c.1-.16.24-.38.35-.58a1.28,1.28,0,0,0,.15-.25c.1-.19.19-.38.28-.58s.1-.2.14-.31l.19-.51c.06-.17.1-.28.14-.42s.07-.28.11-.42a5.29,5.29,0,0,0,.13-.54v-.32c0-.11.07-.43.09-.65a1.06,1.06,0,0,0,0-.27v-1.67c0-.33-.09-.66-.15-1h0v-.15c-.06-.27-.12-.54-.2-.81l-.12-.32c-.07-.2-.13-.41-.22-.61s-.12-.27-.19-.4a5.24,5.24,0,0,0-.23-.48c-.08-.16-.18-.31-.27-.47l-.23-.37c-.12-.18-.25-.35-.38-.52l-.21-.27a7,7,0,0,0-.52-.57l-.14-.16h0l-77.68-77.61,155.37-155.38,28.22,28.22-132.5,132.42a10,10,0,0,0-.06,14.14l.06.06a10,10,0,0,0,7.1,2.94,10,10,0,0,0,7.09-2.94l132.5-132.43,28.21,28.21L7189.57-7122a10,10,0,0,0,.08,14.14l.06.06a10,10,0,0,0,14.14-.08l0-.05,137.73-140.35A10,10,0,0,0,7341.56-7262.4Zm-255.24,112.28,58.28,58.23-72.8,14.57Z" transform="translate(-6931.5 7468.5)"/></svg>