<svg xmlns="http://www.w3.org/2000/svg" viewBox="0 0 537 537"><defs><style>.a{fill:none;}.b{fill:#FC0;}</style></defs><rect class="a" width="537" height="537"/><path class="b" d="M398.39,306.53h0a179.45,179.45,0,0,0-69.19-43,114,114,0,1,0-116.3,0,179.45,179.45,0,0,0-69.19,43h0A180.18,180.18,0,0,0,90.29,434.71a12.8,12.8,0,0,0,25.59,0c0-85.57,69.61-155.18,155.18-155.18s155.18,69.61,155.18,155.18a12.8,12.8,0,0,0,25.59,0A180.2,180.2,0,0,0,398.39,306.53Zm-215.75-141a88.53,88.53,0,0,1,88.42-88.42h0a88.41,88.41,0,1,1-88.42,88.4h0Z" transform="translate(0 0)"/></svg>