<svg xmlns="http://www.w3.org/2000/svg" viewBox="0 0 139.61 88.67"><defs><style>.a{fill:#595757;}</style></defs><path class="a" d="M354.53,435.39a29.51,29.51,0,0,1,7.06,3.27,3.23,3.23,0,0,0,1.28.38,5.11,5.11,0,0,1,4.33,4.14,11.66,11.66,0,0,1,.45,4.59,5.21,5.21,0,0,1-1.89,3.47,10.13,10.13,0,0,1-4.25,2.23,4,4,0,0,0-1.87.88,12.7,12.7,0,0,1-4.63,2.32,20.84,20.84,0,0,1-6.16.79,9.2,9.2,0,0,1-1,1.09,6.68,6.68,0,0,1-1.18.64,1.19,1.19,0,0,0-.18.33c-.3,1.9-1.64,2.73-3.33,3a17.18,17.18,0,0,1-4.05.2,17.81,17.81,0,0,1-8.74-2.83c-1-.69-1.91-1.52-3-2.38a9.07,9.07,0,0,1-4.39-.67,52.4,52.4,0,0,1-13.1-6.57,29,29,0,0,1-4.1-2.87,1.74,1.74,0,0,0-1.06-.37c-2.11-.17-4.24-.27-6.35-.44A2.3,2.3,0,0,0,297,447c-.79.44-1.54.94-2.36,1.31a11.36,11.36,0,0,1-6.07.81c-.39,0-.77-.09-1.15-.16a6.71,6.71,0,0,0-5,1,39,39,0,0,0-4.15,2.78c.27.43.52.81.74,1.2,0,.1,0,.25,0,.5a12.64,12.64,0,0,1-3.13,2.08q-4.25,2.12-8.54,4.12c-2.45,1.15-5,2.19-7.39,3.38a8.86,8.86,0,0,1-5.84.63,22.22,22.22,0,0,1-6.41-2.65,56,56,0,0,1-9-6.38A53.92,53.92,0,0,1,229,445.15c-.32-.47-.6-1-.88-1.45a46,46,0,0,1,11.12-18.89,24.37,24.37,0,0,1,6.75-5.14,14.72,14.72,0,0,1,3.08-1.11,6.65,6.65,0,0,1,4.83.91c.32.19.63.4,1,.64a23.81,23.81,0,0,0,2.79-3.84,7.94,7.94,0,0,1-.9-4.23c-.18-.1-.27-.2-.39-.22-2.15-.38-2.78-1.05-3-3.14a9.45,9.45,0,0,1,1.21-5.21c.81-1.53,1.77-3,2.78-4.68-.11-.58-.23-1.41-.44-2.21a1.62,1.62,0,0,0-1.27-1.32,11.43,11.43,0,0,1-1.48-.45c-3.35-1.23-4.66-3.16-4.19-6.66a13.06,13.06,0,0,1,3.82-7.46,8.43,8.43,0,0,1,3.44-2.1,4.22,4.22,0,0,1,3.8.2c.75-.55,1.44-1.14,2.21-1.6a9.46,9.46,0,0,1,1.94-.81,3.79,3.79,0,0,1,3.62.79c.3.23.54.52.85.81.7-.31,1.34-.61,2-.87a5.5,5.5,0,0,1,4.14-.18,4.93,4.93,0,0,1,3.11,4.71,8.41,8.41,0,0,1-1.79,6,69.2,69.2,0,0,0,2.66,10,3.54,3.54,0,0,0,.38.24c2.82,1.21,3.45,3.64,3.48,6.35a2.65,2.65,0,0,1-2,2.64c-.22,1.22-.43,2.43-.63,3.64-.07.38-.12.77-.16,1.15a3.76,3.76,0,0,0,2.06,4,7.84,7.84,0,0,1,1.42,1c.77.69.68,1.39-.21,1.85-.45.23-1,.4-1.42.6l-1.41.63a2.65,2.65,0,0,0-1.45,1.68,17.09,17.09,0,0,1-2.84,5.26,8.77,8.77,0,0,1-1.33,1.39c-2,1.54-3.79,1.79-6,.06a37.08,37.08,0,0,1-3.15-3.12c-.23-.23-.42-.48-.72-.82-.38.54-.72,1-1,1.45s-.53,1-.84,1.6l1.43.25a5.92,5.92,0,0,1,5.37,6.07,12,12,0,0,1-.27,2.87,28.12,28.12,0,0,1-2.71,7c-.65,1.25-1.35,2.48-2,3.71.3.43.62.18.9.1,2.1-.59,4.21-1.21,6.31-1.81A12.57,12.57,0,0,1,275,445c.72-.09,1.46-.08,1.73,1,.82-.53,1.51-1,2.21-1.43a2.91,2.91,0,0,0,1.4-2,11.73,11.73,0,0,1,.72-1.83c-.34-.4-.68-.78-1-1.18a5.49,5.49,0,0,1-.66-.94,2.59,2.59,0,0,1,.84-3.58,8.61,8.61,0,0,1,2.25-1.07,22.93,22.93,0,0,1,8-.85c1.61.06,3.21.21,4.89.32,1.89-2.65,4.76-3.21,7.84-3.36a7.73,7.73,0,0,1,3.68-3.39,25.28,25.28,0,0,0-1.44-6,7.09,7.09,0,0,0-3.15-3.8,2.23,2.23,0,0,0-2-.2,4.91,4.91,0,0,1-2.25.42,6,6,0,0,1-4.25-2c-.26-.28-.56-.52-.88-.83a23.25,23.25,0,0,0-1.77,1.58,2.35,2.35,0,0,1-2.65.65,6.55,6.55,0,0,1-3-1.63,2.31,2.31,0,0,1-.48-.61c-.16-.33-.4-.68-.05-1.06s.59-.2.94.31a4.35,4.35,0,0,0,2.89,1.76,1.8,1.8,0,0,0,1.78-.45c.6-.58,1.25-1.12,1.89-1.66a4.15,4.15,0,0,1,.57-.37c.84.14,1.07.82,1.49,1.28a4.89,4.89,0,0,0,2.48,1.74,4.49,4.49,0,0,0,3.86-.75,13.53,13.53,0,0,0,1.44-1.29c1.17-1.2,2.32-2.42,3.47-3.65a10,10,0,0,0,.62-.81l-.68-.71a3.21,3.21,0,0,1-.85-2.86,10.39,10.39,0,0,1,1.54-4.14c.85-1.34,1.79-2.63,2.71-4-.05-.31-.34-.31-.58-.36a22.14,22.14,0,0,0-6-.57,1.72,1.72,0,0,0-1.06.33c-1.13,1.12-2.2,2.31-3.31,3.48.61.82,1.58.64,2.36,1.19.4-.49.75-.93,1.12-1.36a5.37,5.37,0,0,1,1.87-1.64,1,1,0,0,1,1.6.78,3.75,3.75,0,0,1,.14.94,8,8,0,0,1-2,5.12,3.31,3.31,0,0,1-2,1.06,1.09,1.09,0,0,1-1.4-1.16,7.71,7.71,0,0,1,.08-1.35c0-.37.13-.75.2-1.15-.94-.86-2.21-.79-3.23-1.43-.69.39-1.34.81-2,1.13-1.57.75-3.16,1.48-4.76,2.17a5,5,0,0,1-1.5.32.77.77,0,0,1-.64-.3c-.17-.37.16-.56.46-.69,1.61-.66,3.26-1.25,4.82-2a20.92,20.92,0,0,0,5.63-4.07c.27-.27.48-.58.86-1a4.21,4.21,0,0,0-1-.17c-4.33.46-8.55,1.28-12.4,3.45a2.59,2.59,0,0,1-.89.29c-.11,0-.25-.22-.4-.38a6.88,6.88,0,0,1,3.05-2,32.88,32.88,0,0,1,7.63-2.07,40.57,40.57,0,0,1,8.08-.54c1.42.08,2.83.27,4.24.42l1.55.18a6.63,6.63,0,0,0-.09-4.23,11.41,11.41,0,0,0-6.65-7.38c-6.72-2.83-13-1.87-18.78,2.51a12.9,12.9,0,0,0-3.5,4.35c-.24.47-.57.68-1.2.33a5.17,5.17,0,0,1,.31-1.2,14.12,14.12,0,0,1,4.91-5.38,18.74,18.74,0,0,1,14-3.05,17.51,17.51,0,0,1,5.33,1.67,13.82,13.82,0,0,1,5.4,4.86c.4.64.79,1.29,1.19,1.94l2.71-1A13.9,13.9,0,0,1,317,384a17.79,17.79,0,0,1,11.84-5,13.87,13.87,0,0,1,10.74,4.49,17.68,17.68,0,0,1,4.32,7.68,5.83,5.83,0,0,1-.24,4.52c-.32.61-.37,1.37-.65,2a31.58,31.58,0,0,0-1.86,7.08c-.26,1.46-.72,2.88-1.07,4.33-.11.43-.16.87-.23,1.28,5.08,2.92,8.31,7.35,10.75,12.41a42.41,42.41,0,0,1,3.75,11.95,5.1,5.1,0,0,0,.22.7m-99.4-14.05c-.54-.3-1-.53-1.42-.8a6,6,0,0,0-5.2-.64,12.7,12.7,0,0,0-1.45.55,22.69,22.69,0,0,0-6.13,4.35A44.16,44.16,0,0,0,230,442a3.24,3.24,0,0,0,.52,3.38,62,62,0,0,0,7.77,8.34,56.25,56.25,0,0,0,8,6.1,30.4,30.4,0,0,0,7.47,3.58,6.75,6.75,0,0,0,4.88-.3c2.23-1,4.5-1.94,6.72-2.95,3.17-1.44,6.33-2.92,9.48-4.4a8.9,8.9,0,0,0,1.33-.78c.41-.27.94-.41,1.15-.9-1.6-2.71-1.78-3.37-2.21-7.89-1.87.53-3.71,1.09-5.56,1.58a28.71,28.71,0,0,1-5.91,1.44,7.06,7.06,0,0,1,.39-1.22c.64-1.2,1.28-2.39,2-3.54a30.65,30.65,0,0,0,3.36-8,11.9,11.9,0,0,0,.3-2.68,4.9,4.9,0,0,0-4.18-5c-.64-.07-1.28-.16-1.91-.28-1-.17-1.26-.68-.81-1.5.76-1.42,1.55-2.83,2.39-4.2.16-.27.6-.38,1.13-.7.18.4.28.71.44,1a17.54,17.54,0,0,0,4,4.4,2.9,2.9,0,0,0,3.89,0,11.56,11.56,0,0,0,1.65-1.63,14.94,14.94,0,0,0,2.71-5.29,1.73,1.73,0,0,1,.87-1.2c.39-.21.82-.37,1.2-.6a12.33,12.33,0,0,0,2.38-1.28c-.58-.35-1-.6-1.45-.89a4.87,4.87,0,0,1-2.22-5.19c.19-1.08.43-2.15.62-3.23.08-.43.09-.87.13-1.35a10,10,0,0,0-2.26-.88,21.45,21.45,0,0,1-.78,2.45,2.45,2.45,0,0,1-2.57,1.35,5.58,5.58,0,0,1-1.79-.64,8.32,8.32,0,0,1-1-.61c-.31.65-.53,1.18-.81,1.69a10.35,10.35,0,0,1-3.94,4.15,3.49,3.49,0,0,1-3.31.32l-.7-.28c-.7.74-1.31,1.48-2,2.13a3.24,3.24,0,0,1-2.79.65c-1.19,1.42-1.83,3.12-3.46,4.28m59.64-15.91c-.44.45-.88.91-1.33,1.36a4.2,4.2,0,0,1-4,1.3c-2.08-.39-2.59-1.25-1.6-3.08.63-1.17,1.43-2.25,2.17-3.41-.31-.27-.65-.57-1-.85a2.7,2.7,0,0,0-.48-.25c-1.47,2-2.81,4.1-2.27,6.89.33.2.66.39,1,.61.61.41.77.86.4,1.48a11.69,11.69,0,0,1-1.39,1.84c-1.22,1.33-2.49,2.61-3.75,3.93a2.41,2.41,0,0,0,.41.46c2.53,1.47,3.7,3.86,4.4,6.55.34,1.29.6,2.61.9,3.95,1-.18,1.93-.42,2.88-.52a29.33,29.33,0,0,1,12.74,1.53A20.08,20.08,0,0,1,333,433c.07.07.22.08.35.12l.49-.83c1.07-1.84,2.13-3.68,3.22-5.5a8.52,8.52,0,0,1,.94-1.23.56.56,0,0,1,.85-.08.76.76,0,0,1,.07.69c-.32.62-.72,1.19-1.1,1.79a13.48,13.48,0,0,1,2.73,5.93c2.19.05,4.25,0,6.29.15s4,.49,6.16.76a10,10,0,0,0-.12-1.29,41.55,41.55,0,0,0-6.49-15.4,27.69,27.69,0,0,0-4.85-5.23,4.47,4.47,0,0,0-2.26-1.21,20.14,20.14,0,0,0-1,2.72,2.4,2.4,0,0,1-2.24,2c-.69.12-1.37.28-2,.41a9.79,9.79,0,0,1-7,5.19c-.27.77-.52,1.5-.78,2.23s-.58,1.71-.95,2.53c-.16.36-.52.59-.95.14-.11-1.75,1.15-3.22,1.23-5a5.08,5.08,0,0,0-.87-.44,6.24,6.24,0,0,1-3.15-2.15,14.58,14.58,0,0,1-3.47-7c-.27-1.51-.37-3.06-.55-4.57l-2.83-2.3m-54.6-25.9c-.38-.14-.57-.27-.73-.25a7.75,7.75,0,0,0-4.63,2.2,12.3,12.3,0,0,0-3.57,7.12,4.36,4.36,0,0,0,2.55,4.73,22.06,22.06,0,0,0,2.38.78,2.52,2.52,0,0,1,2,1.92,13.52,13.52,0,0,1,.58,2.84,19.68,19.68,0,0,0,1,4.51c.08.33.42.6.71,1,2.09-.6,4.12-1.22,6.18-1.75s4.24-1.09,6.38-1.52,4.19-.53,6.29-1.15a6.64,6.64,0,0,0-.17-.85,83.22,83.22,0,0,1-2.75-9.67,4.28,4.28,0,0,1,.51-3.45,6.48,6.48,0,0,0,.25-6.64,2.68,2.68,0,0,0-1.59-1.32,3.33,3.33,0,0,0-2.09-.09,19.59,19.59,0,0,0-2.86,1.14,10.81,10.81,0,0,0-3.25,2.7,3.79,3.79,0,0,1-1.76,1.37c0-.46,0-.81.09-1a9.92,9.92,0,0,1,1.25-1.7c.59-.65,1.28-1.22,2-1.94-.22-.2-.36-.33-.51-.45a3.33,3.33,0,0,0-3.82-.2,12.05,12.05,0,0,0-5.26,5.24,3.26,3.26,0,0,0-.23,3,.7.7,0,0,1-.14,1,3.16,3.16,0,0,1-.84-.56,2.42,2.42,0,0,1-.48-1.81,6.23,6.23,0,0,1,.86-2.55c.54-.8,1.06-1.6,1.69-2.56M314.05,391a1.75,1.75,0,0,1-.47.11c-2.13-.16-2.65.35-2.58,2.45a11.62,11.62,0,0,1-.17,3.07,16.71,16.71,0,0,1-1.25,2.85,9.81,9.81,0,0,0,.93.87c1.6,1.19,1.59,1.16.13,2.58a6.49,6.49,0,0,0-2,3.59c1.31.65,2.19.71,3.15.06,1.42-1,2.51-2.07,2.36-4.09a4.74,4.74,0,0,1,2.89-4.65,3.33,3.33,0,0,1,3.32-.11A21.3,21.3,0,0,0,334,400.11a11.56,11.56,0,0,0,8.37-5,2.68,2.68,0,0,0,.58-1.59,9,9,0,0,0-.21-1.72,16.59,16.59,0,0,0-3.82-7.29,12.1,12.1,0,0,0-8.55-4.37,16.73,16.73,0,0,0-12.4,4.46,11.79,11.79,0,0,0-3.94,6.4m-8.44,44.75a6.75,6.75,0,0,0,.76.37,23.15,23.15,0,0,1,6.32,3.27,3,3,0,0,0,.86.41,29.25,29.25,0,0,0,10.8,1.78,14.36,14.36,0,0,0,6.35-1.4,4.11,4.11,0,0,0,1.59-6.07,7.09,7.09,0,0,0-.86-1,17.63,17.63,0,0,0-6.6-4.26,29.7,29.7,0,0,0-10.16-2.16,18.5,18.5,0,0,0-5.54.57,7.4,7.4,0,0,0-3.87,2.06,3.66,3.66,0,0,0-.41,1,12.39,12.39,0,0,1,1.25.37c1.06.45,2.13.9,3.16,1.41a2.52,2.52,0,0,1,1.25,1.41,1.16,1.16,0,0,1-.89,1.62,11,11,0,0,1-1.91.06c-.52,0-1-.13-1.54-.13-.33,0-.6.22-.56.75m29,1.29-1.12,2.85a1.45,1.45,0,0,0,.3,1.61,10.68,10.68,0,0,0,2.81,2.32,32,32,0,0,0,15.64,3.69,23.1,23.1,0,0,0,7.42-1.06,7.15,7.15,0,0,0,2.74-1.73,2.12,2.12,0,0,0,.59-2.47,5.58,5.58,0,0,0-.85-1.48,12.22,12.22,0,0,0-3.56-2.61A27.3,27.3,0,0,0,352,436a33.21,33.21,0,0,0-11.33-.72,13,13,0,0,0-6.07,1.85m6.63-38.61a10.27,10.27,0,0,0-.93.5,14.28,14.28,0,0,1-3.29,1.59,19.51,19.51,0,0,1-8.4.86,7.48,7.48,0,0,0-3.91.59l-.91.35c-1.72.7-1.85.66-2.67-1-.27-.52-.47-1.07-.77-1.57a2.21,2.21,0,0,0-2.26-1.15,3.91,3.91,0,0,0-1.74,6.29,4,4,0,0,0,2,1.43,2.51,2.51,0,0,1,1.66,1.48c.74,1.43,1.51,2.85,2.36,4.21a44,44,0,0,0,2.57,3.63,1.56,1.56,0,0,0,2.26.52c.14-.49.27-1.05.47-1.59a.52.52,0,0,1,.44-.26.56.56,0,0,1,.36.37c.07.31,0,.64.09,1,0,.1.13.19.24.33l1.27-.24c.07-.39.11-.71.18-1s.16-.68.57-.59c.19,0,.38.3.47.51a7,7,0,0,1,.28,1c1.28,0,1.28,0,1.54-.9,0-.06,0-.15,0-.18s.35-.44.52-.44.43.23.55.42a5.15,5.15,0,0,1,.33.89c.43-.05.74-.11,1.06-.13a1.62,1.62,0,0,0,1.51-1.29c.69-2.21,1.45-4.41,2-6.65.75-2.92,1.35-5.87,2.06-9m-59.17,41.35c2.13-.81,4.23-1,6-2.11a1.08,1.08,0,0,1,1.51.46,2,2,0,0,1,.28,1.66,2.78,2.78,0,0,1-1.05,1.57c-.43.35-1,.52-1.2,1.22a32.48,32.48,0,0,0,5.52,1.76,44,44,0,0,0,13.61,1.4,29.56,29.56,0,0,0,4.36-.71,4.37,4.37,0,0,0,1.7-.87c1.05-.82,1.09-1.58.27-2.66a8.33,8.33,0,0,0-2.7-2.17,35,35,0,0,0-10.09-3.81,54.61,54.61,0,0,0-9.78-1.3,25.36,25.36,0,0,0-6.73.5,10.84,10.84,0,0,0-2.67,1.08,1.65,1.65,0,0,0-.46,2.52,13.36,13.36,0,0,0,1.4,1.46m44.61,16.76c-.06-.78-.42-1.4-.19-2.13a15.46,15.46,0,0,1,3.85-6.37c.29-.29.87-.31.89-.86-.09-.13-.14-.27-.23-.33-2-1.23-4.07-2.47-6.14-3.66a3.09,3.09,0,0,0-1.45-.42,34.64,34.64,0,0,1-6.88-.87c-.55-.11-1.11-.18-1.75-.28,0,.47.07.78.08,1.1a2.7,2.7,0,0,1-1.44,2.55c-.28.16-.57.3-.86.44a13.8,13.8,0,0,1-4.09,1.07,7.5,7.5,0,0,0-1.17.37c6.07,4.17,12.17,7.77,19.38,9.39m4.85-7.78a12.81,12.81,0,0,0-3.69,5.35,1.83,1.83,0,0,0,.47,2.11,33.26,33.26,0,0,0,2.88,2.57A16.08,16.08,0,0,0,342,461.49a7.6,7.6,0,0,0,1.7-.31,1.81,1.81,0,0,0,1.46-1.81,6.33,6.33,0,0,1,.15-.94l1.84-.85c-.11-.32-.18-.56-.27-.79s-.2-.45-.26-.59a4.24,4.24,0,0,0-2.55-.41c-.31,0-.63,0-.94,0-1.59.07-3-.65-4.46-1.12a20.92,20.92,0,0,1-3.1-1.56,2.74,2.74,0,0,1-.57-.51.54.54,0,0,1,.22-.8,6.54,6.54,0,0,1,.75-.13c1.16-.11,2.32-.16,3.46-.35a9.18,9.18,0,0,0,2-.68c.3-.12.57-.4.43-.75a.9.9,0,0,0-.55-.48,13.52,13.52,0,0,0-2.1-.34c-2.57-.13-5.14-.21-7.69-.3m-53.82,2.69c.28-.15.57-.28.83-.45,1.14-.72,2.29-1.45,3.42-2.2a7.64,7.64,0,0,1,5.38-1c.32,0,.64.12,1,.16a11.06,11.06,0,0,0,6.73-1.18,3.66,3.66,0,0,0,.58-.53c-1.9-.52-3.64-1-5.35-1.49-1.23-.37-2.43-.8-3.63-1.26-.46-.18-1.12-.19-1.23-.8s.58-.9,1-1.22c.63-.45,1.3-.84,1.9-1.32a.73.73,0,0,0,.15-1.13l-4.64,1.46a3.34,3.34,0,0,0-2.45,2.48,3.69,3.69,0,0,1-1.8,2.39l-3.13,2.08c.15.83.28,1.65.45,2.46a5.16,5.16,0,0,0,.36,1.09c.07.17.25.27.44.46m41.41-42.33a7.16,7.16,0,0,0-.09,1.41,15.88,15.88,0,0,0,2.91,7.27,7.73,7.73,0,0,0,2.95,2.43,4.34,4.34,0,0,0,2.81.35,7.39,7.39,0,0,0,4.19-2.6,4.27,4.27,0,0,0,.42-.94,6.66,6.66,0,0,0-1.09-.07c-1.15.13-2.3.25-3.43.48a3.79,3.79,0,0,1-4.46-1.83c-1.13-1.88-2.33-3.71-3.51-5.56-.16-.25-.35-.48-.7-.94M304,435.3a2.94,2.94,0,0,1,3.55-1.32,2.88,2.88,0,0,0,.76.13,6.58,6.58,0,0,0,.95-.24,7.54,7.54,0,0,0-4.29-2.31,9.37,9.37,0,0,0-5.87.42,3.54,3.54,0,0,0-2.14,1.69l7,1.63m58,16.57a4.08,4.08,0,0,0,2.38-1,4.87,4.87,0,0,0,2.18-4.29,10.14,10.14,0,0,0-1-4.3,6.45,6.45,0,0,0-.89-1.25.53.53,0,0,0-.85-.11,3.92,3.92,0,0,1,.44,3.14,13.93,13.93,0,0,0-.2,1.72,12.45,12.45,0,0,1-1.53,4.94c-.16.26-.27.56-.54,1.11m-24.89-22.68c-1.36,1.58-2,3.56-3.09,5.33.12.33.24.69.37,1.07l4.91-1.46c-.42-2.54-.89-3.6-2.19-4.94m-10.46,13.62c.41.28.7.53,1,.72,1.27.75,2.56,1.47,3.83,2.23,1,.59,1,.61,1.32,2l.91-.17a11,11,0,0,1-1.91-6.11c0-.09-.16-.17-.2-.21l-5,1.58M303.9,400c-1.08.27-1.43,1.17-1.89,1.86a4.88,4.88,0,0,0-.93,3.57,5.86,5.86,0,0,0,1.22-.79,6.79,6.79,0,0,0,1.5-2.67,3.11,3.11,0,0,0,.1-2" transform="translate(-228.12 -376.2)"/></svg>