<svg xmlns="http://www.w3.org/2000/svg" viewBox="0 0 537 537"><defs><style>.a{fill:none;}</style></defs><rect class="a" width="537" height="537"/><path d="M7196.67-7162H7013a14.5,14.5,0,0,1-14.5-14.5A14.5,14.5,0,0,1,7013-7191h148.66l-52.58-52.58a14.5,14.5,0,0,1,0-20.5,14.49,14.49,0,0,1,20.51,0l77.33,77.33a14.48,14.48,0,0,1,3.14,15.8A14.49,14.49,0,0,1,7196.67-7162Z" transform="translate(-6931.5 7468.5)"/><path d="M7332-7007.29H7177.33a14.5,14.5,0,0,1-14.5-14.5v-58a14.5,14.5,0,0,1,14.5-14.5,14.5,14.5,0,0,1,14.5,14.5v43.5H7317.5v-319H7191.83v43.5a14.5,14.5,0,0,1-14.5,14.5,14.5,14.5,0,0,1-14.5-14.5v-58a14.5,14.5,0,0,1,14.5-14.5H7332a14.5,14.5,0,0,1,14.5,14.5v348A14.5,14.5,0,0,1,7332-7007.29Z" transform="translate(-6931.5 7468.5)"/></svg>