<svg xmlns="http://www.w3.org/2000/svg" viewBox="0 0 309.65 155.77"><defs><style>.a{fill:#f5c620;}.b{fill:#addbda;}.c{fill:#649595;}.d{fill:#49bbb0;}.e{fill:#040000;}</style></defs><path class="a" d="M203.19,435.77a71.19,71.19,0,1,1,68.87-89.64h0a71.29,71.29,0,0,1-68.87,89.64Zm.23-139.39a68.17,68.17,0,1,0,17.53,134,68.17,68.17,0,0,0-17.53-134Z" transform="translate(-132.12 -280)"/><path class="a" d="M203.32,427.42A62.86,62.86,0,1,1,264,348.29h0a62.87,62.87,0,0,1-60.69,79.13Zm.09-124.22A61.41,61.41,0,1,0,234,311.44,61.51,61.51,0,0,0,203.41,303.2Z" transform="translate(-132.12 -280)"/><rect class="a" x="140.58" y="336.94" width="111.06" height="1.51" transform="translate(-212.84 -217.74) rotate(-15)"/><rect class="a" x="154.85" y="390.16" width="111.06" height="1.51" transform="translate(-226.13 -212.23) rotate(-15)"/><path class="a" d="M403.47,329.34c-10,0-15-4.58-19.84-9s-9.29-8.49-18.47-8.49-13.7,4.12-18.48,8.49-9.86,9-19.83,9-15-4.58-19.84-9-9.28-8.49-18.47-8.49-13.7,4.12-18.47,8.49-9.87,9-19.84,9-15-4.58-19.83-9-9.29-8.49-18.48-8.49v-2c10,0,15,4.59,19.84,9s9.29,8.48,18.47,8.48,13.7-4.12,18.48-8.48,9.86-9,19.83-9,15,4.59,19.84,9,9.28,8.48,18.47,8.48,13.7-4.12,18.47-8.48,9.87-9,19.84-9,15,4.59,19.83,9,9.29,8.48,18.48,8.48,13.69-4.12,18.47-8.48,9.87-9,19.84-9v2c-9.19,0-13.7,4.12-18.48,8.49S413.44,329.34,403.47,329.34Z" transform="translate(-132.12 -280)"/><path class="a" d="M403.47,350.1c-10,0-15-4.59-19.84-9s-9.29-8.49-18.47-8.49-13.7,4.13-18.48,8.49-9.86,9-19.83,9-15-4.59-19.84-9-9.28-8.49-18.47-8.49-13.7,4.13-18.47,8.49-9.87,9-19.84,9-15-4.59-19.83-9-9.29-8.49-18.48-8.49v-2c10,0,15,4.58,19.84,9s9.29,8.49,18.47,8.49,13.7-4.13,18.48-8.49,9.86-9,19.83-9,15,4.58,19.84,9,9.28,8.49,18.47,8.49,13.7-4.13,18.47-8.49,9.87-9,19.84-9,15,4.58,19.83,9,9.29,8.49,18.48,8.49,13.69-4.13,18.47-8.49,9.87-9,19.84-9v2c-9.19,0-13.7,4.13-18.48,8.49S413.44,350.1,403.47,350.1Z" transform="translate(-132.12 -280)"/><path class="a" d="M403.47,370.85c-10,0-15-4.58-19.84-9s-9.29-8.48-18.47-8.48-13.7,4.12-18.48,8.48-9.86,9-19.83,9-15-4.58-19.84-9-9.28-8.48-18.47-8.48-13.7,4.12-18.47,8.48-9.87,9-19.84,9-15-4.58-19.83-9-9.29-8.48-18.48-8.48v-2c10,0,15,4.58,19.84,9s9.29,8.49,18.47,8.49,13.7-4.12,18.48-8.49,9.86-9,19.83-9,15,4.58,19.84,9,9.28,8.49,18.47,8.49,13.7-4.12,18.47-8.49,9.87-9,19.84-9,15,4.58,19.83,9,9.29,8.49,18.48,8.49,13.69-4.12,18.47-8.49,9.87-9,19.84-9v2c-9.19,0-13.7,4.12-18.48,8.48S413.44,370.85,403.47,370.85Z" transform="translate(-132.12 -280)"/><path class="a" d="M403.47,391.6c-10,0-15-4.58-19.84-9s-9.29-8.49-18.47-8.49-13.7,4.12-18.48,8.49-9.86,9-19.83,9-15-4.58-19.84-9-9.28-8.49-18.47-8.49-13.7,4.12-18.47,8.49-9.87,9-19.84,9-15-4.58-19.83-9-9.29-8.49-18.48-8.49v-2c10,0,15,4.58,19.84,9s9.29,8.48,18.47,8.48,13.7-4.12,18.48-8.48,9.86-9,19.83-9,15,4.58,19.84,9,9.28,8.48,18.47,8.48,13.7-4.12,18.47-8.48,9.87-9,19.84-9,15,4.58,19.83,9,9.29,8.48,18.48,8.48,13.69-4.12,18.47-8.48,9.87-9,19.84-9v2c-9.19,0-13.7,4.12-18.48,8.49S413.44,391.6,403.47,391.6Z" transform="translate(-132.12 -280)"/><path class="a" d="M403.47,412.35c-10,0-15-4.58-19.84-9s-9.29-8.49-18.47-8.49-13.7,4.12-18.48,8.49-9.86,9-19.83,9-15-4.58-19.84-9-9.28-8.49-18.47-8.49-13.7,4.12-18.47,8.49-9.87,9-19.84,9-15-4.58-19.83-9-9.29-8.49-18.48-8.49v-2c10,0,15,4.59,19.84,9s9.29,8.48,18.47,8.48,13.7-4.12,18.48-8.48,9.86-9,19.83-9,15,4.59,19.84,9,9.28,8.48,18.47,8.48,13.7-4.12,18.47-8.48,9.87-9,19.84-9,15,4.59,19.83,9,9.29,8.48,18.48,8.48,13.69-4.12,18.47-8.48,9.87-9,19.84-9v2c-9.19,0-13.7,4.12-18.48,8.49S413.44,412.35,403.47,412.35Z" transform="translate(-132.12 -280)"/><path class="b" d="M242.42,312.11a3.93,3.93,0,0,1,1.24.38c.43.28.5.09,1.2-.06s1.28-.56.72-.77-1.27-.83-1.62-.75-.77-.2-1.75-.16-1.3.34-1.36.75S242.05,312,242.42,312.11Z" transform="translate(-132.12 -280)"/><path class="b" d="M196.16,394.28a3,3,0,0,1,1.56.07,4.3,4.3,0,0,0,2.27-.24c.42-.26.67-.36,1-.58a6.2,6.2,0,0,1,1.84-.39,2,2,0,0,1,1.26.49c.31.36.64.84,1,.62s.17-.49.57-.74,1.14,0,1.46-.27.42-.74.72-.9.09.15.3-.16-.1-.73.2-1,.68-.36.88-.11.26.7.55.69.4-.32.41-.61-.55-.39-.55-.39-.32-.41.33-.64.41-.38.76-.39.61.47.86.33.85-.8,1.17-1a2.63,2.63,0,0,1,1.17-.36c.24,0,.18.26.28.49s0,.49.3.66a1.37,1.37,0,0,0,1.21.32c.71-.11.94.07,1.28-.09s.24-.49,1.06-.56a3.33,3.33,0,0,1,1.83.32c.61.26.37.53.94.6s1.19.1,1.39.31.14.57.4.5,2-.49,2.39-.56.36-.38.26-.67-.82-.3-.37-.79.29-.75.67-1.22.74-.46,1.24-.91a8.45,8.45,0,0,0,1-1c.15-.22-.37-.54.36-.36s1.06.79,1.47.9.37.58,1,.28.63-.48,1.3-.3a5.57,5.57,0,0,0,1.48.28c.59,0,1,.53,1.63.77s.26.38,1.05.43,1.23-.39,1.81-.55a8.24,8.24,0,0,1,3.16.31c.54.26.71.71,1,.86s.33-.13.75.12.28.54.7.6a4.43,4.43,0,0,0,1.53-.22c.21-.06.88-.16,1.47-.25a1.94,1.94,0,0,1,.2-1.6c.49-.71.37-1.08,0-.85s-1.29.45-1.36.9,0,.81-.18,1-.92.44-1.11.25-.52.12-.65,0-.43-.12-.24-.58.11-.7-.32-.82-.57.63-.92.44-.89-.45-.76-.77a11.93,11.93,0,0,1,.34-1.15c.29-.74.68-1.17.4-1.28s-.63.23-.71.57a1.91,1.91,0,0,1-.77,1c-.24.07-.52.11-.63.39s-.59-.28-.84-.44.4-.74.16-.94-.48.13-.83.2-1-.65-1.13-.92-.53-.42-.63-.3a.62.62,0,0,1-.91,0,2,2,0,0,1-.39-1.16c0-.33.31-.52.48-.56a5.05,5.05,0,0,0,1.31-.76c.33-.3,1.1-.48,1.23-.27s.7.92.88.72.44-.83.63-.92,1.12-.14,1.67-.3-.72-.6-1-.78-.4-.74-1-.57-1,.37-1.28.14-.38,0-.49-.52-.51-.46-.95-.42-1.13-.24-1.75.11-.65.17-.8,0,.65-.7.28-.85-2-.09-2-.82,1-.76,1.09-1.17.2-1.31.58-1.32.87.35,1.05.15.62-1.56.78-1.83a14.27,14.27,0,0,1,3.19-1.08c.76-.18,1.79-.36,1.59-.65s-.38-.26,0-.65,1.86-1.34,1.85-1.72-.24-.74.23-1.13,1,0,1.22-.11.73-.78,1.24-1.12,1.3-.6,1-.78a3.59,3.59,0,0,0-1.62-.47c-.78,0-1.58,0-1.76.26s-.39.6-.47.4a1.78,1.78,0,0,1-.25-.57c-.05-.29-.39-.11-.86-.13a21.3,21.3,0,0,1-2.45-.27c-.79-.15-2.08-.12-2.37-.19s-1.13-.12-1.21-.31-.54-.11-.55-.64.17-.31,0-.54-.43.15-.43.15a.57.57,0,0,0-.39-.63c-.49-.25-1-.56-1.14-.23s-.6-.08-.6-.08a2.12,2.12,0,0,0-.27-.53c-.15-.17-.1.12-.36-.2s-.2-.55-.36-.83-.39-1.17-.73-1.25-.42-.69-.68-.85-.56-.33-.78,0-.56.74-.63.39.3-1.05.29-1.43-.44-.49-.44-.49-.33.14-.4.32-.19.62-.42.53-.09-.57-.28-.64-.53-.27-.58,0-.16,1.22-.34,1.15-.25-1-.25-1a10.42,10.42,0,0,0-1.75-.69,16.81,16.81,0,0,0-1.65-.54c-.56-.07-1,0-1.26.35a1.28,1.28,0,0,1-.89.5,3.69,3.69,0,0,1-2.28-.41c-.82-.49-2.39-1.79-3-2.23a7.52,7.52,0,0,1-1.62-2.24c-.15-.43.64-2.46.54-2.87a19.94,19.94,0,0,1,.46-3.6c.14-.64.55-2.08,1.57-2.37a3.58,3.58,0,0,1,2.57-.05c.45.34.41,2.08,1,2.49s2.46.91,3,1.29,1,0,1.16-.51.61-1.68,1.07-1.5a25.62,25.62,0,0,0,2.71,1c.49.09,1.68.45,1.54-.67s.3-2.12,0-2.7.14-.9.69-.95,2.56,1.06,2.4,1.48-.26.53,0,.64a3.3,3.3,0,0,1,1,.71c.18.23,1.35.64,1.63.33a2.82,2.82,0,0,0,.52-1.18,1.43,1.43,0,0,1,1-.85,3.51,3.51,0,0,0,2.09-1.79c.48-1.09,1.1-1,1.28-1.36a14.33,14.33,0,0,0,1-2.64c.11-.7.37-1.77.79-2a6.66,6.66,0,0,0,1.83-2.75,10.27,10.27,0,0,0,.85-3.12,2.4,2.4,0,0,0-.17-1.45,6.47,6.47,0,0,1-1.12-3c.08-1.14.74-3.22.42-3.35s-.84-.17-1-.45a5.08,5.08,0,0,1-.51-2.49c.18-.72-.31-1-.6-1.19s-.49.29-.65.17a.66.66,0,0,1-.35-.72c.09-.39.15-1.49-.29-1.71s-.44,1.1-.77.87-.09-.46-.24-.74-.19-.61-.41-.58-.26.37-.53.11-.17-.5-.33-.77-.89-.72-1.41-1.3a.74.74,0,0,0-1.32.12c-.25.49-.56,1-.83.89s-.15-1.12-.27-1.22-.27,0-.66.06a7.29,7.29,0,0,1-1.83-.34c-.14-.06-.41-.59-.55-.65s-.13.33-.1.81-.61.19-.82.05a6,6,0,0,0-.82-.37,1.08,1.08,0,0,0-.91.18c-.41.21-.72.73-.59.94s-.06.29-.3.36a8.4,8.4,0,0,0-1.48.37,5.3,5.3,0,0,0-1.33,1,9.33,9.33,0,0,0-1.09,1.28c-.09.23-.64.12-.82-.22s-1.35.59-2.62.84-2,1.16-2,1.53.48.94.44,1.19-.3.63-.52.49.1-.92-.29-1a9.38,9.38,0,0,1-2.42-1.16,7.71,7.71,0,0,0-2.34-1.08c-.62-.19-1,0-1.44-.14s-1-.56-1-1-1.68-1.14-2.39-1.37-.78,0-1.21-.15a2,2,0,0,1-1.09-.91,5.36,5.36,0,0,1-.36-1.1,3.24,3.24,0,0,0-.34-.77,1.79,1.79,0,0,0-.56-.86c-.38-.26-1.38-.44-1.73-.63a3.68,3.68,0,0,1-1.45-1.58,2.82,2.82,0,0,0-.94-1.17c-.74.43-1.57.89-2.1,1.24-1,.63-.88,2-1,2.73s.33,1.73-.31,2.59a6,6,0,0,1-2.3,1.5c-.64.35-.06,1.69-.3,2.3s-.9.25-1.44-.17-2.42-.24-2.8-.8a5.58,5.58,0,0,0-1.45-1.17,8.41,8.41,0,0,0-2-.66,13.74,13.74,0,0,1-2.56-1.41c-.48-.29-.8-1-1-1.21a2,2,0,0,0-1.42,0,11,11,0,0,1-3.22-.76c-.61-.24-1.3,0-2.62.28a13.69,13.69,0,0,0-3.72,1.55,11.52,11.52,0,0,1-2.25,1.12,9.82,9.82,0,0,0-2.2,1.25c-.71.52-1,1.9-1.37,2.47a12.71,12.71,0,0,0-1.29,2.51,12.8,12.8,0,0,1-2,3.74c-.69.74-1.4.25-1.84.08s-.88.46-.82,1.59a7.92,7.92,0,0,1-.82,3.09c-.27.7-1.42.55-1.59,1s1,1.5.83,1.73-1.15-.15-1.51,0-1-.29-1.58-.32-.69.73-.86,1.67.61.74,1,1.08a12.83,12.83,0,0,0,1.08.83c.23.19-.47.42-1.06.39a1.36,1.36,0,0,0-1.38,1c-.28.7,1.33,2.23,1.66,2.67s1.05.91,1,1.67-.53.6-.92.55-.46,1.42-.54,1.9-.67.43-1.12,1.06a3.65,3.65,0,0,1-1.16,1.15c-.4.25-.67.94-1,1.43s-.92.54-1.59.48a7.92,7.92,0,0,0-1.06,0l.5.37s-.84.87,0,1.09a11.94,11.94,0,0,1,2.51,1.29c.49.29.6,1.54.78,2.11s.48,1.6.88,1.85-.26.91.44,1.18,1.65.15,2.26.89.74,1.19.53,1.71a2.21,2.21,0,0,0,.29,1.82,2.23,2.23,0,0,0,2.38.34,5,5,0,0,0,2.88-2.49c.26-.9.17-1.44.77-1.7s1,.08.95-1.13-1.53-3-1.3-3.83.35-.67.42-1.34-1-.59-.49-1.3.56-1.69,1.13-2.37,1.62-1.57,2-1.43.72,1,1.22,1a5.61,5.61,0,0,0,2-.31c.4-.25.24-.61.81-.28s2.3.8,3.24,2,2.89,1.34,2.65,1.95a1.9,1.9,0,0,0,.06,1.63c.23.19.38.85.53,1.21s1.65,3,1.57,3.43-.41,1.55-.51,2.31a12.68,12.68,0,0,1-.62,2.37c-.21.52-.1,1.77.3,2s1.06.12,1.1.54a18.27,18.27,0,0,0,.47,2.89,5.25,5.25,0,0,1-.18,2.24c-.12.56-.28,2,.14,2.47a1.9,1.9,0,0,1,.32,1.73,3.69,3.69,0,0,0,.22,2c.21.48.79,1.31.27,1.61s-1.34.08-1.56.39a2.53,2.53,0,0,0-.63,1.36,9.9,9.9,0,0,1-.46,1.93,20.3,20.3,0,0,1-1,3.7c-.45.63.36.85.82,1.23s.28.81.29,1.32,1.34,1.93,1.71,2.28-.72,1.59-1.33,2.71c2.21.8,3,.39,3.46.73s-.64,3.26.66,3.61,3.42.23,3.92.59,1.36,1,2.13.67,1.26-.78,1.87-.7l2.9.34.13.28A30.34,30.34,0,0,1,196.16,394.28Z" transform="translate(-132.12 -280)"/><path class="c" d="M226.54,420.82c-.38,0-.41.37-.51.75s.39.64.57.18A1.19,1.19,0,0,0,226.54,420.82Z" transform="translate(-132.12 -280)"/><path class="c" d="M228.06,416.41c.1-.39.33-.56.08-.61s-1.1-.32-1.1-.32-.15.52,0,.64S228,416.8,228.06,416.41Z" transform="translate(-132.12 -280)"/><path class="d" d="M194.71,400.32c-.4.64-1.15,1.31-1,1.83a4.11,4.11,0,0,0,2.14,3.08c1.83,1,1.94.76,2.74.76s1.68-.62,2.65-.24,4.4,2.21,5.51,2.64,3.26.65,3.7.34a9.19,9.19,0,0,1,2.14-1.39c1.16-.51.87-2.22,2-2.72s4.39.61,4.45,1.27a1.8,1.8,0,0,0,1.28,1.62c.75.13,1.21-.64,1.77.38s1.42,1.67,2,1.28.39.63-.38,1.77-1.47,2.13-2,3.19-1.58,3.21-1,3.42c.36.15,1.07-.06,2,.07l.07-.05s1.4-.73,1.56-1.14.16-1.22.43-1.91.28.11.28-.69,1.12-.84,1.12-.84-.71,1.8,0,1.74,1.24-1.35,1.7-1.08a8.68,8.68,0,0,0,2.44,1.11,4,4,0,0,0,2-.64l.26,1.38s.69,1.07,1,.24,0-1.6,1.12-1.64,3.45-.24,3.11-1a10.93,10.93,0,0,0-1.31-1.95c-.3-.44-1-.25-.93.75s-.24.28-.77.33l-1,.09.48-2s1.57-.35,1.84-1-.56-1,.27-.69a2.18,2.18,0,0,0,2.1-.46,2.59,2.59,0,0,0,.87-1.41c-.85-.66-1.07-.1-.61-1.68s1.42-2,1.29-1.25-.07,2.21.42,1.77a5.41,5.41,0,0,0,.93-1.56s2.73-.84,2.79-.18-.63,1.19.12,1.33,1.4-.73,1.4-.73,1.25,1.29,1.94.76.51-2.51,1.11-3.23-1.46.07-1.73.76-.8,0-1.41-.08-.69-.27-1.41-.07a3.72,3.72,0,0,1-2.68-.1c-.77-.46.1-1.07.27-1.49s-.14-.05-1.24.31-1.77.43-1.47-.73,1.43-1.2.65-1.66-.5-1.16-1,.22-.76.56-.94.49.1-.92-.17-1.19-.38-.25-.58,0-.61-.08-.66-.37.22-.55,0-.64-.17-.12-.44,0,0,.74-1,.78.32-.41.65-1,.21-.82.73-1.2,1-1.07,1.41-1.15.81-.43.66-.6-.54-.1-.37-.41,1.34-.7,1.14-1-.79-.31-1.42-.45-.48.13-.42.53.22.78-.1.92a2.77,2.77,0,0,0-.91.55c-.26.26-.13.21-.43.57s.1.14-.3.36a1,1,0,0,1-1.15-.34c-.06-.24.08-.61.57-1.06s1.1-.74,1.11-1.05.14-.64.14-.9,0-.36.42-.53.86-.14,1.31-.34.5-.07.69-.69.1-.92.33-1.09a1.8,1.8,0,0,1,1.07-.43,2.71,2.71,0,0,1,1.28.66c.23.25,1.23,1.23,1.83,1.2s1.19-.07,1.35-.32.85-.15,1.61.09,1.12.13,1.15-.08-.58-.43-.65-1.05c0-.12,0-.24-.07-.37-.59.09-1.26.19-1.47.25a4.43,4.43,0,0,1-1.53.22c-.42-.06-.29-.35-.7-.6s-.44,0-.75-.12-.48-.6-1-.86a8.24,8.24,0,0,0-3.16-.31c-.58.16-1,.61-1.81.55s-.44-.19-1.05-.43-1-.75-1.63-.77a5.57,5.57,0,0,1-1.48-.28c-.67-.18-.69,0-1.3.3s-.58-.16-1-.28-.75-.72-1.47-.9-.21.14-.36.36a8.45,8.45,0,0,1-1,1c-.5.45-.86.43-1.24.91s-.22.73-.67,1.22.28.49.37.79.11.6-.26.67-2.13.49-2.39.56-.21-.29-.4-.5-.82-.23-1.39-.31-.33-.34-.94-.6a3.33,3.33,0,0,0-1.83-.32c-.82.07-.71.39-1.06.56s-.57,0-1.28.09a1.37,1.37,0,0,1-1.21-.32c-.25-.17-.2-.42-.3-.66s0-.44-.28-.49a2.63,2.63,0,0,0-1.17.36c-.32.17-.93.83-1.17,1s-.51-.35-.86-.33-.1.15-.76.39-.33.64-.33.64.56.09.55.39-.12.59-.41.61-.34-.44-.55-.69-.57-.18-.88.11,0,.71-.2,1,0,0-.3.16-.39.62-.72.9-1.06,0-1.46.27-.25.52-.57.74-.65-.26-1-.62a2,2,0,0,0-1.26-.49,6.2,6.2,0,0,0-1.84.39c-.32.22-.57.32-1,.58a4.3,4.3,0,0,1-2.27.24,3,3,0,0,0-1.56-.07,30.34,30.34,0,0,0-3.17,1.28,23.83,23.83,0,0,0,1.58,3.11C195.1,399.35,195.13,399.68,194.71,400.32Z" transform="translate(-132.12 -280)"/><circle class="e" cx="90.6" cy="119.01" r="2.39"/><circle class="e" cx="68.22" cy="74.98" r="2.39"/><path class="e" d="M211.92,410.26a.23.23,0,0,1-.17-.08.25.25,0,0,1,0-.36l10.8-10.8a.26.26,0,0,1,.35,0,.25.25,0,0,1,0,.36l-10.8,10.8A.25.25,0,0,1,211.92,410.26Z" transform="translate(-132.12 -280)"/><path class="e" d="M200.34,355.24a.27.27,0,0,1-.18-.08l-19.35-19.35a.25.25,0,0,1,.36-.36l19.35,19.35a.25.25,0,0,1,0,.36A.25.25,0,0,1,200.34,355.24Z" transform="translate(-132.12 -280)"/><path class="e" d="M161.9,331.36a2.27,2.27,0,0,1-1-.94,2.77,2.77,0,0,1-.34-1.4v-3.71a2.78,2.78,0,0,1,.34-1.39,2.39,2.39,0,0,1,1-.94,3.22,3.22,0,0,1,2.84,0,2.35,2.35,0,0,1,1,.94,2.78,2.78,0,0,1,.34,1.39V329a2.77,2.77,0,0,1-.34,1.4,2.23,2.23,0,0,1-1,.94,3.14,3.14,0,0,1-2.84,0Zm2.52-1.15a1.59,1.59,0,0,0,.41-1.14v-3.78a1.63,1.63,0,0,0-.41-1.15,1.47,1.47,0,0,0-1.1-.44,1.45,1.45,0,0,0-1.09.44,1.63,1.63,0,0,0-.41,1.15v3.78a1.58,1.58,0,0,0,.41,1.13,1.45,1.45,0,0,0,1.09.44A1.46,1.46,0,0,0,164.42,330.21Z" transform="translate(-132.12 -280)"/><path class="e" d="M167.66,331.46v-8.58c0-.09,0-.13.13-.13h1c.08,0,.12,0,.12.13v8.58c0,.08,0,.13-.12.13h-1A.12.12,0,0,1,167.66,331.46Z" transform="translate(-132.12 -280)"/><path class="e" d="M175.75,322.88v.81c0,.08,0,.12-.13.12h-2a0,0,0,0,0-.05.05v7.6c0,.08,0,.13-.12.13h-1a.12.12,0,0,1-.13-.13v-7.6a0,0,0,0,0-.05-.05h-1.94c-.09,0-.13,0-.13-.12v-.81c0-.09,0-.13.13-.13h5.28C175.71,322.75,175.75,322.79,175.75,322.88Z" transform="translate(-132.12 -280)"/><path class="e" d="M181.37,331.47,181,330s0,0-.07,0h-2.79s-.06,0-.06,0l-.36,1.46a.13.13,0,0,1-.14.12h-1a.13.13,0,0,1-.09,0,.12.12,0,0,1,0-.1l2.33-8.59a.14.14,0,0,1,.14-.11h1.19a.14.14,0,0,1,.14.11l2.35,8.59v0c0,.07,0,.11-.13.11h-1A.12.12,0,0,1,181.37,331.47Zm-3-2.48,0,0h2.28l.05,0a0,0,0,0,0,0,0l-1.17-4.57s0,0,0,0l0,0L178.34,329A0,0,0,0,0,178.34,329Z" transform="translate(-132.12 -280)"/><path class="e" d="M185.1,420.77a2.31,2.31,0,0,1-.94-.83,2.22,2.22,0,0,1-.34-1.24v-.34c0-.08,0-.12.13-.12h.93c.09,0,.13,0,.13.12v.28a1.3,1.3,0,0,0,.42,1,1.65,1.65,0,0,0,1.14.38,1.45,1.45,0,0,0,1-.35,1.19,1.19,0,0,0,.37-.92,1.08,1.08,0,0,0-.19-.65,1.84,1.84,0,0,0-.55-.52c-.24-.16-.58-.36-1-.61a10.09,10.09,0,0,1-1.23-.72,2.6,2.6,0,0,1-.76-.79,2.15,2.15,0,0,1-.3-1.16,2.11,2.11,0,0,1,.69-1.67,2.72,2.72,0,0,1,1.84-.6,3.1,3.1,0,0,1,1.4.3,2.22,2.22,0,0,1,.94.85,2.34,2.34,0,0,1,.34,1.27v.29a.12.12,0,0,1-.13.13H188a.12.12,0,0,1-.13-.13v-.26a1.36,1.36,0,0,0-.4-1,1.53,1.53,0,0,0-1.1-.4,1.38,1.38,0,0,0-1,.32,1.16,1.16,0,0,0-.35.9,1.12,1.12,0,0,0,.18.64,1.67,1.67,0,0,0,.52.5c.23.15.58.35,1.05.59a13.42,13.42,0,0,1,1.31.8,2.71,2.71,0,0,1,.74.77,2,2,0,0,1,.28,1.1,2.24,2.24,0,0,1-.71,1.73,2.78,2.78,0,0,1-1.93.64A3.33,3.33,0,0,1,185.1,420.77Z" transform="translate(-132.12 -280)"/><path class="e" d="M194.88,420.85l-.38-1.47a.06.06,0,0,0-.06,0h-2.79c-.05,0-.07,0-.07,0l-.36,1.47a.13.13,0,0,1-.14.11h-1a.1.1,0,0,1-.09,0,.1.1,0,0,1,0-.1l2.34-8.58a.12.12,0,0,1,.13-.11h1.19a.13.13,0,0,1,.14.11l2.35,8.58v0c0,.07,0,.1-.13.1h-1A.13.13,0,0,1,194.88,420.85Zm-3-2.48,0,0h2.28l0,0a0,0,0,0,0,0,0l-1.17-4.57,0,0,0,0-1.16,4.57S191.84,418.36,191.86,418.37Z" transform="translate(-132.12 -280)"/><path class="e" d="M197.33,420.84v-8.59a.11.11,0,0,1,.12-.12h1c.09,0,.13,0,.13.12v8.59c0,.08,0,.12-.13.12h-1A.11.11,0,0,1,197.33,420.84Z" transform="translate(-132.12 -280)"/><path class="e" d="M200.35,420.84v-8.59c0-.08.05-.12.13-.12h1c.08,0,.13,0,.13.12v3.92s0,0,0,0,0,0,0,0l2.89-4a.16.16,0,0,1,.15-.07h1.05a.14.14,0,0,1,.11.05.08.08,0,0,1,0,.1l-2.46,3.52a.11.11,0,0,0,0,.08l2.66,4.93a.13.13,0,0,1,0,.06.09.09,0,0,1,0,.07l-.08,0h-1.08a.16.16,0,0,1-.15-.09l-2.18-4s0-.06-.06,0l-.85,1.11a.08.08,0,0,0,0,.07v2.84c0,.08,0,.12-.13.12h-1C200.4,421,200.35,420.92,200.35,420.84Z" transform="translate(-132.12 -280)"/><path class="e" d="M207.18,420.84v-8.59c0-.08,0-.12.13-.12h1a.11.11,0,0,1,.12.12v8.59a.11.11,0,0,1-.12.12h-1C207.22,421,207.18,420.92,207.18,420.84Z" transform="translate(-132.12 -280)"/><path class="e" d="M296.11,327.45c-.24-.33-.55-.71-.94-1.15s-.78-.84-1.18-1.23a7.75,7.75,0,0,0-1.07-.88,23.42,23.42,0,0,0,6.06-4.71,20.18,20.18,0,0,0,3.84-6,16.19,16.19,0,0,0,1.26-6.56l-12.69,2.13-.65-3.9L303.59,303l-1.4-8.37,4.27-.72,1.41,8.38,12.88-2.16.65,3.9-12.68,2.12a16.63,16.63,0,0,0,3.44,5.72,21,21,0,0,0,5.63,4.41,23.5,23.5,0,0,0,7.09,2.47,13.71,13.71,0,0,0-.78,1.28c-.27.51-.52,1-.74,1.57a10.66,10.66,0,0,0-.49,1.36,31.3,31.3,0,0,1-6-2.3,27,27,0,0,1-5.42-3.59,20.1,20.1,0,0,1-4.15-4.83A20.18,20.18,0,0,1,305,318.2a27,27,0,0,1-4,5.16A33.33,33.33,0,0,1,296.11,327.45Z" transform="translate(-132.12 -280)"/><path class="e" d="M335,320.53a10.51,10.51,0,0,0-1.16-1.6,7.48,7.48,0,0,0-1.59-1.49,13.74,13.74,0,0,0,6.17-5.2,12.23,12.23,0,0,0,1.77-7.12l-5.12.86-.5-3c-.61.8-1.24,1.55-1.88,2.25a24.65,24.65,0,0,1-1.92,1.91,14.49,14.49,0,0,0-1.58-1.41,18.5,18.5,0,0,0-1.91-1.32,21.56,21.56,0,0,0,3.42-3.41,27.63,27.63,0,0,0,2.92-4.41,19.07,19.07,0,0,0,1.78-4.66l4.19,1.29a24.13,24.13,0,0,1-1.7,4.43,30,30,0,0,1-2.51,4.19l16.52-2.77a21.92,21.92,0,0,1-3.84-3.26,15.11,15.11,0,0,1-2.72-4l-5.59.93-.65-3.83,8.92-1.49a13,13,0,0,0,4.39,6.42,22.22,22.22,0,0,0,8.07,4.07,11.85,11.85,0,0,0-.84,1.3c-.3.51-.57,1-.82,1.54a13.84,13.84,0,0,0-.59,1.38c-.76-.25-1.52-.53-2.25-.85s-1.48-.67-2.22-1.05c.22,1.42.4,2.93.57,4.52s.27,3.09.33,4.51a21.14,21.14,0,0,1-.06,3.48,5.23,5.23,0,0,1-1.6,3.67,8.29,8.29,0,0,1-4,1.59l-2.71.45c-.11-.38-.25-.82-.43-1.34s-.38-1-.59-1.51a9,9,0,0,0-.59-1.17l3-.5a3.87,3.87,0,0,0,1.92-.74,2.88,2.88,0,0,0,.74-1.73,14.64,14.64,0,0,0,.08-2.33c0-1-.1-1.95-.2-3s-.21-1.88-.34-2.61l-5.62.95a15.88,15.88,0,0,1-9.3,16.09Z" transform="translate(-132.12 -280)"/><path class="e" d="M372.54,313.8a8.69,8.69,0,0,0-.91-.89c-.41-.35-.83-.68-1.27-1a9,9,0,0,0-1.11-.7,14.6,14.6,0,0,0,1.8-1.42c.64-.57,1.27-1.18,1.9-1.82a24,24,0,0,0,1.68-1.92,12,12,0,0,0,1.14-1.69l3.5,1.93a22.37,22.37,0,0,1-1.79,2.55,33.11,33.11,0,0,1-2.45,2.74A22.52,22.52,0,0,1,372.54,313.8Zm9.68-.92-1.58-9.46-12,2-3.27-19.5,3.87-.64,2.7,16.14,25.37-4.26.56,3.36-13.09,2.2,1.59,9.46Zm-7.74-13.55-2.72-16.21L390.34,280l2.72,16.21Zm2.1-12.21,10.51-1.76-.31-1.87-10.51,1.77Zm.72,4.31,10.51-1.77-.31-1.86L377,289.56Zm.74,4.4,10.51-1.76-.33-2-10.51,1.76Zm17.7,14.09a25.06,25.06,0,0,1-3.07-1.28,33,33,0,0,1-3.2-1.8A23.06,23.06,0,0,1,387,305l2.64-3a12.7,12.7,0,0,0,1.63,1.23,23.12,23.12,0,0,0,2.22,1.27c.8.4,1.6.76,2.4,1.09a17.24,17.24,0,0,0,2.18.75,10,10,0,0,0-.84,1,14,14,0,0,0-.87,1.35A11.66,11.66,0,0,0,395.74,309.92Z" transform="translate(-132.12 -280)"/><path class="e" d="M304.42,366.41l-2.67-15.94c-.2.48-.41.93-.64,1.37s-.46.85-.7,1.26a11.19,11.19,0,0,0-1.77-.89c-.68-.28-1.31-.51-1.87-.69a23.38,23.38,0,0,0,1.88-3.75,41.24,41.24,0,0,0,1.48-4.48c.41-1.56.74-3.05,1-4.47a21.45,21.45,0,0,0,.35-3.67l4.16.1a48.18,48.18,0,0,1-1.21,7.32L307,357.76a19.85,19.85,0,0,0,3.67-6.35,27.64,27.64,0,0,0,1.54-7.7l-5.9,1-.63-3.77,6.57-1.1a40.54,40.54,0,0,0-.69-6l4.14-.69a52,52,0,0,1,.59,6l11.12-1.87.63,3.76-11.73,2c-.05.82-.12,1.63-.21,2.41s-.21,1.56-.36,2.32l11.57-1.93.64,3.86-6,1,1.29,7.66,7.32-1.23.61,3.67L312,364l-.61-3.66,7.73-1.29-1.28-7.67-3.19.54a26.83,26.83,0,0,1-5,8.89,9,9,0,0,0-1.14-.93,12.86,12.86,0,0,0-1.4-.88l1.14,6.78Z" transform="translate(-132.12 -280)"/><path class="e" d="M342.08,360l-2.67-15.93c-.27.62-.54,1.2-.83,1.74s-.56,1-.83,1.46a8.08,8.08,0,0,0-1.62-.94,10.77,10.77,0,0,0-1.9-.7,24.33,24.33,0,0,0,1.93-3.67,44.85,44.85,0,0,0,1.68-4.55c.5-1.61.9-3.16,1.22-4.67a25.84,25.84,0,0,0,.57-4l4,.31c-.12,1.09-.3,2.27-.55,3.54s-.58,2.56-1,3.86l3.83,22.89Zm7.06-2.16-4.08-24.34,5.46-.92c.09-.59.18-1.24.27-1.94s.16-1.38.21-2,.08-1.2.08-1.62l4.71-.4q-.06,1.08-.27,2.55c-.14,1-.28,1.87-.42,2.69l7.8-1.31L367,354.85Zm1.93-14.92,9.26-1.56-1.08-6.44L350,336.46Zm1.76,10.51,9.26-1.56L361,345.08l-9.26,1.56Z" transform="translate(-132.12 -280)"/><path class="e" d="M388.62,352.33l-2.69-16.07-5.76,1,2.23,13.36-4.13.69-2.89-17.23,9.9-1.66-.5-3-13.32,2.23-.64-3.76,13.33-2.23-.7-4.21,4.17-.7.7,4.21,13.33-2.24.63,3.77L389,328.71l.5,3L399.69,330l2.25,13.39a3.35,3.35,0,0,1-.64,2.95,5.39,5.39,0,0,1-3.16,1.42l-2.65.44a9.12,9.12,0,0,0-.41-1.32c-.19-.5-.38-1-.58-1.49a7.64,7.64,0,0,0-.58-1.18l2.41-.4a1.84,1.84,0,0,0,1-.39,1.11,1.11,0,0,0,.15-1l-1.32-7.87-6,1,2.69,16.07Z" transform="translate(-132.12 -280)"/><rect class="e" x="299.41" y="368.08" width="118.47" height="1.01" transform="matrix(0.99, -0.15, 0.15, 0.99, -184.86, -220.04)"/><rect class="e" x="356.4" y="349.12" width="1.01" height="118.47" transform="translate(-233.91 417.72) rotate(-81.09)"/><path class="e" d="M310.36,393.49a2.24,2.24,0,0,0-.23-.61,6.71,6.71,0,0,0-.4-.68,2.6,2.6,0,0,0-.47-.54,5.08,5.08,0,0,0,2.74-1.13,2.87,2.87,0,0,0,.94-2,2.94,2.94,0,0,0-.32-1.58,3.19,3.19,0,0,0-1-1.14,3.29,3.29,0,0,0-1.36-.55,19.83,19.83,0,0,1-.38,2.4,12.85,12.85,0,0,1-.78,2.34,6.71,6.71,0,0,1-1.23,1.89,2.07,2.07,0,0,1-1.17.75,2.1,2.1,0,0,1-1.16-.16,2.66,2.66,0,0,1-1.05-.79,3.81,3.81,0,0,1-.67-1.28,4.32,4.32,0,0,1-.19-1.57,5.59,5.59,0,0,1,.58-2.25,5.46,5.46,0,0,1,1.38-1.74,6,6,0,0,1,2-1.1,6.5,6.5,0,0,1,2.39-.31,5.42,5.42,0,0,1,2,.46,5.31,5.31,0,0,1,1.6,1.12,4.8,4.8,0,0,1,1.05,1.64,4.48,4.48,0,0,1,.3,2,4.63,4.63,0,0,1-1.3,3.14A6.46,6.46,0,0,1,310.36,393.49Zm-3.81-3a4,4,0,0,0,.82-1.22,11.37,11.37,0,0,0,.64-1.82,13.24,13.24,0,0,0,.35-2.06,3.7,3.7,0,0,0-1.43.75,3.66,3.66,0,0,0-1,1.23,4.14,4.14,0,0,0-.4,1.59,2.27,2.27,0,0,0,.11.89,1.58,1.58,0,0,0,.4.63A.31.31,0,0,0,306.55,390.47Z" transform="translate(-132.12 -280)"/><path class="e" d="M322.29,394.22v-3.76a13,13,0,0,1-1.27,1.17c-.45.37-.9.7-1.34,1a12.91,12.91,0,0,1-1.23.74,5.27,5.27,0,0,0-.33-.5,5.72,5.72,0,0,0-.45-.53,2.19,2.19,0,0,0-.45-.39,9.63,9.63,0,0,0,1.14-.59q.61-.37,1.23-.81c.42-.3.8-.61,1.17-.93a10.21,10.21,0,0,0,.93-.94h-1.87v1.67h-4v-6.7h4V387h2.47v-1.24H320.2V384h2.09v-1.87h1.87V384h2.61v1.68h-2.61V387h3.5v1.73h-3.1a8.94,8.94,0,0,0,.8.9c.31.3.64.6,1,.88s.69.54,1,.77a10,10,0,0,0,.9.55,5,5,0,0,0-1.33,1.44,10.73,10.73,0,0,1-1.42-1.1,15.43,15.43,0,0,1-1.36-1.44v3.54Zm-4.79-5.61h.67v-3.23h-.67Z" transform="translate(-132.12 -280)"/><path class="e" d="M335.18,394a8.59,8.59,0,0,1-2.06-.23,3.14,3.14,0,0,1-1.45-.71,1.77,1.77,0,0,1-.53-1.33,2,2,0,0,1,.38-1.19,3.81,3.81,0,0,1,1.05-1,10.66,10.66,0,0,1,1.55-.81v-.06a.62.62,0,0,0-.22-.52.81.81,0,0,0-.53-.21,2,2,0,0,0-1,.1,2.86,2.86,0,0,0-1,.71q-.17.13-.45.42l-.58.55-.48.44-1.39-1.39a7.44,7.44,0,0,0,1.68-1.4,11.54,11.54,0,0,0,1.4-1.87c-.93.05-1.6.06-2,0l-.08-1.83c.31,0,.72,0,1.24,0s1.08,0,1.67,0a5.92,5.92,0,0,0,.31-1.49l1.91.1c0,.21,0,.42-.07.63s-.09.42-.15.63c.62,0,1.19-.1,1.72-.17a11,11,0,0,0,1.21-.22l.11,1.76c-.25.05-.57.09-1,.14l-1.29.14-1.44.13c-.09.19-.19.38-.29.56s-.21.36-.33.54a3.43,3.43,0,0,1,.71-.08,2.54,2.54,0,0,1,1.37.37,1.86,1.86,0,0,1,.76,1.32c.47-.15.95-.29,1.45-.42l1.48-.37.55,1.78c-.63.07-1.23.16-1.81.28s-1.12.25-1.62.39v1.67h-1.91v-1a4.67,4.67,0,0,0-.82.53.73.73,0,0,0-.3.51.53.53,0,0,0,.47.53,7.17,7.17,0,0,0,1.58.12c.31,0,.66,0,1.07-.06s.81-.1,1.2-.17a7.47,7.47,0,0,0,1-.21c0,.15-.05.36-.07.62s0,.51,0,.76a5.71,5.71,0,0,0,0,.59,10.28,10.28,0,0,1-1.48.23A14.71,14.71,0,0,1,335.18,394Z" transform="translate(-132.12 -280)"/><path class="e" d="M343.16,394a8.22,8.22,0,0,0-.67-.93c-.27-.31-.55-.62-.85-.91a7,7,0,0,0-.89-.73l1.22-1.1a7.2,7.2,0,0,1,.66.5c.24.2.49.42.73.65s.48.45.69.67a7.3,7.3,0,0,1,.51.58Z" transform="translate(-132.12 -280)"/><path class="e" d="M350.57,393.71a4.27,4.27,0,0,1-1.82-.11,2.36,2.36,0,0,1-1.19-.77,2,2,0,0,1-.42-1.26,3,3,0,0,1,.75-1.89,5.54,5.54,0,0,1,2.11-1.53v-1.67c-.47,0-.93.06-1.37.07s-.86,0-1.24,0l-.08-1.84a10.44,10.44,0,0,0,1.18,0c.48,0,1,0,1.51-.07v-1.92h1.78v1.71a9.14,9.14,0,0,0,2-.47l.17,1.75a12.05,12.05,0,0,1-2.2.53v1.36c.28-.05.57-.08.85-.11s.59,0,.91,0a5.33,5.33,0,0,1,2.24.42,3.21,3.21,0,0,1,1.37,1.11,2.73,2.73,0,0,1,.47,1.53,2.81,2.81,0,0,1-.78,2.09,2.93,2.93,0,0,1-2.17.78,2.85,2.85,0,0,1-1.74-.52,2.76,2.76,0,0,1-1-1.51,9.46,9.46,0,0,0,.9-.33,4.05,4.05,0,0,0,.84-.47c.2.61.53.91,1,.91a.79.79,0,0,0,.69-.31,1.23,1.23,0,0,0-.24-1.64,2.38,2.38,0,0,0-1.57-.41,8.76,8.76,0,0,0-.91.05,7.12,7.12,0,0,0-.85.16v3.15a1.23,1.23,0,0,1-.27.87A1.47,1.47,0,0,1,350.57,393.71ZM349.45,392c.37,0,.55-.07.55-.31V390.1a2.81,2.81,0,0,0-.73.67,1.21,1.21,0,0,0-.26.69.61.61,0,0,0,.1.36A.44.44,0,0,0,349.45,392Zm7.74-4.41a6.27,6.27,0,0,0-.63-.51c-.24-.18-.51-.37-.79-.55s-.57-.35-.84-.5a5.18,5.18,0,0,0-.73-.35l1-1.45a11,11,0,0,1,1.07.5c.38.21.74.43,1.1.66a8,8,0,0,1,.91.71,4.47,4.47,0,0,0-.42.48q-.22.29-.42.57C357.33,387.34,357.24,387.49,357.19,387.59Z" transform="translate(-132.12 -280)"/><path class="e" d="M369,393.49a20.79,20.79,0,0,1-2.51.29,15.29,15.29,0,0,1-2.27,0,6.37,6.37,0,0,1-1.83-.46,3,3,0,0,1-1.23-.94,2.43,2.43,0,0,1-.44-1.5,2.81,2.81,0,0,1,.76-2,6.41,6.41,0,0,1,2.11-1.4,10.46,10.46,0,0,1-.34-1.43,13.63,13.63,0,0,1-.2-1.78,14,14,0,0,1,0-1.83h2.08a8.84,8.84,0,0,0-.06,1.48c0,.53.05,1.05.11,1.56s.13,1,.21,1.33c.43-.14.89-.27,1.38-.4l1.51-.38.34,2a15.59,15.59,0,0,0-2.17.36,11.05,11.05,0,0,0-1.89.6,4.45,4.45,0,0,0-1.34.82,1.25,1.25,0,0,0-.5.94.89.89,0,0,0,.51.78,3.42,3.42,0,0,0,1.43.41,9.75,9.75,0,0,0,2.09,0,15.46,15.46,0,0,0,2.51-.47,5.41,5.41,0,0,0-.16.64c0,.26-.07.51-.09.76A5.26,5.26,0,0,0,369,393.49Z" transform="translate(-132.12 -280)"/><path class="e" d="M376.44,394.22a5.66,5.66,0,0,0-.65-.84,4.76,4.76,0,0,0-.81-.73,5.57,5.57,0,0,0,2.81-2,5.68,5.68,0,0,0,1-3.39,2.39,2.39,0,0,0-.4-1.57,1.15,1.15,0,0,0-1-.44,1.22,1.22,0,0,0-.85.5,3.08,3.08,0,0,0-.53,1.42,8.36,8.36,0,0,0,.08,2.4c-.16,0-.36,0-.6.08a6.78,6.78,0,0,0-.68.15,5.08,5.08,0,0,0-.5.14c-.06-.32-.11-.74-.16-1.24s-.09-1.06-.11-1.66-.05-1.19-.05-1.79,0-1.14,0-1.64,0-.9.07-1.19l2,.17c-.07.3-.13.69-.19,1.15s-.09.94-.11,1.4a3.11,3.11,0,0,1,.87-1.18,1.9,1.9,0,0,1,1.23-.44,2.71,2.71,0,0,1,1.53.43,3,3,0,0,1,1,1.28,4.94,4.94,0,0,1,.37,2,8.53,8.53,0,0,1-.51,3.08,6.43,6.43,0,0,1-1.48,2.27A8.73,8.73,0,0,1,376.44,394.22Z" transform="translate(-132.12 -280)"/><path class="e" d="M387.68,394a3,3,0,0,1-2-.71,2.14,2.14,0,0,1-.72-1.64,1.87,1.87,0,0,1,.42-1.2,2.68,2.68,0,0,1,1.15-.82,3.85,3.85,0,0,1,1.66-.25l.31,0,.29,0c0-.57,0-1.18-.09-1.82s-.07-1.28-.1-1.91,0-1.23-.08-1.78,0-1,0-1.39h2c0,.27,0,.63,0,1.07s0,.93,0,1.46l1.17-.15,1.22-.23c.39-.09.72-.18,1-.26,0,.14,0,.33.05.56s.05.46.08.69.07.41.11.55a7.22,7.22,0,0,1-1,.24c-.41.07-.84.13-1.28.18l-1.24.12c0,.55.05,1.08.08,1.61s.05,1,.08,1.44a13.18,13.18,0,0,1,2.08.79c.64.31,1.24.62,1.79.95a3.21,3.21,0,0,0-.48.49c-.17.21-.32.43-.46.64a4,4,0,0,0-.3.55,13.72,13.72,0,0,0-1.22-.83,9.72,9.72,0,0,0-1.32-.68,2.49,2.49,0,0,1-.37,1.21,2.13,2.13,0,0,1-1,.81A3.93,3.93,0,0,1,387.68,394Zm.07-1.83a1.16,1.16,0,0,0,.84-.15.65.65,0,0,0,.27-.56,1,1,0,0,0,0-.17v-.18a4.44,4.44,0,0,0-.49-.07l-.45,0c-.75,0-1.12.19-1.12.57a.41.41,0,0,0,.24.4A1.87,1.87,0,0,0,387.75,392.13Z" transform="translate(-132.12 -280)"/><path class="e" d="M402.25,393.47a6.84,6.84,0,0,1-1.94-.22,1.57,1.57,0,0,1-.95-.73,3.18,3.18,0,0,1-.27-1.44v-3.25c-.53.06-1,.12-1.47.2s-.83.15-1.16.23l-.15-1.89,1.19-.14,1.59-.16v-2.73h1.84v2.58l1.25-.1,1.24-.09V383h1.88v2.66c.56,0,1.08-.06,1.55-.07l1.14,0v1.91c-.68-.05-1.58-.07-2.69,0v.76a2.42,2.42,0,0,1-.55,1.72,3,3,0,0,1-1.94.67,5.13,5.13,0,0,0-.25-.92,2.62,2.62,0,0,0-.44-.8,2.44,2.44,0,0,0,1-.15.53.53,0,0,0,.31-.52v-.68l-1.24.07-1.25.11v3.16a.74.74,0,0,0,.27.66,2.51,2.51,0,0,0,1.14.17q.53,0,1.23-.06c.47,0,.94-.09,1.4-.15a10.77,10.77,0,0,0,1.18-.23,3.8,3.8,0,0,0-.15.64,4.86,4.86,0,0,0-.1.74,4.26,4.26,0,0,0,0,.59c-.53.1-1.12.17-1.77.23S402.84,393.47,402.25,393.47Z" transform="translate(-132.12 -280)"/><path class="e" d="M414.61,394.12a1.28,1.28,0,0,1-.9-2.19,1.32,1.32,0,0,1,1.81,0,1.29,1.29,0,0,1-.91,2.19Zm-.76-3.39c0-.35-.07-.75-.1-1.22s-.07-.94-.11-1.44-.06-1-.1-1.47-.05-.9-.07-1.29,0-.68,0-.9V382.5h2.33v1.91q0,.33,0,.9c0,.39,0,.82-.07,1.29s-.07,1-.1,1.47-.07,1-.11,1.44-.07.87-.1,1.22Z" transform="translate(-132.12 -280)"/></svg>