<svg id="レイヤー_1" data-name="レイヤー 1" xmlns="http://www.w3.org/2000/svg" viewBox="0 0 570.7 174.85"><defs><style>.cls-1{fill:#070001;}.cls-2{fill:#f3eda4;}.cls-3{fill:#e9c22b;}</style></defs><path class="cls-1" d="M98.52,412.16a2.27,2.27,0,0,0-2.77.13,1.59,1.59,0,0,1-.86.2c-1.63,0-3.25-.05-4.88-.07-.78,0-3.25-.08-4.73-.12v-4.69c2.4,0,7.24.12,8.39.1s2,0,3,0a2.73,2.73,0,0,0,1.05-.28c.69-.33.79-1,.8-1.72l.15-19a3.82,3.82,0,0,0,0-1,2.14,2.14,0,0,0-.43-.63,5.12,5.12,0,0,0-1.07-.23H85.28V382c2.85,0,7.39,0,9.79,0a6.79,6.79,0,0,0,1.08-.19,5,5,0,0,0,2.93-5.3,2.43,2.43,0,0,0-2.35-2.28,3,3,0,0,0-1.7.54H85.29v-6.23c.86-.17,2-.3,2.19-.39a9,9,0,0,0,1.63-.76c2-1.34,4.14-2.64,6.1-4.12a4.64,4.64,0,0,1,3.5-1.16,3.22,3.22,0,0,0,2.13-.61,1.76,1.76,0,0,0,.19-2.89c-1.8-1.55-3.61-3.08-5.41-4.62s-3.55-3-5.34-4.52c-.71-.59-1.41-.64-1.94,0a3.08,3.08,0,0,0-.9,3.17c.23.68.47,1.34.73,2.08a30.19,30.19,0,0,1-8.27,5.77,29.72,29.72,0,0,1-9.5,3.16,32.31,32.31,0,0,1-9.86.25,3.92,3.92,0,0,0,1.23,4.6A9.56,9.56,0,0,0,67,370.33l2.06.23,4.1.09h2.08v4.25c-2.09,0-6.71,0-8.47,0a4.58,4.58,0,0,1-3.25-.71,1.6,1.6,0,0,0-.75-.26c-.89-.16-1.19,0-1.7,1l-.11.29c0,.38,0,.77,0,1.15,0,.09,0,.18.07.26a7.5,7.5,0,0,0,1.77,4.18,3,3,0,0,0,2.22.93c1.38.17,4.9.22,5.26.22,1.09,0,3.39,0,4.9,0v2.91c-3.27,0-7.8,0-10.84,0a5.12,5.12,0,0,0-1.07.23h0a2.1,2.1,0,0,0-1,2V389h0v16.33a2.19,2.19,0,0,0,1.07,2.21,7.07,7.07,0,0,0,1.19.21c3,0,7.48,0,10.71,0v4.57l-10.5-.1-.23-.11c-.29-.18-.57-.39-.87-.55a1.57,1.57,0,0,0-1.9.21A3.13,3.13,0,0,0,60.56,414a7.75,7.75,0,0,0,1.87,5.16,7.19,7.19,0,0,0,1.2.21H75.26v6a15.89,15.89,0,0,1-3,.36,35.89,35.89,0,0,1-7.18-.05c-1.41-.15-2.42,0-3,1.83a6.05,6.05,0,0,0-.26,1.41c-.07.92-.13,1.85-.13,2.78,0,1.33,0,2.66.11,4a1.33,1.33,0,0,0,.91,1.37l3.15.22c.68,0,1.37,0,2.05.1l.06,0,1.34-.06h1.59l2.72-.35.17-.05.36-.05a3.87,3.87,0,0,1,.59-.13,4.59,4.59,0,0,1,.51-.1h0a4,4,0,0,1,.48-.08l3.14-.66.68-.25,1.17-.2.19,0,.69-.25L87.52,433A19.71,19.71,0,0,0,96.14,427a7.21,7.21,0,0,0,.7-1.32l.07-.28a13.46,13.46,0,0,0,0-2c-.13-.78-.35-.81-1.09-.89s-1.56.51-2.35.69c-1.82.4-3.65.72-5.47,1.07a25.06,25.06,0,0,1-2.68.32v-5.22H96.48a6.16,6.16,0,0,0,1.09-.21h0c.13-.07.31-.1.39-.21a8.86,8.86,0,0,0,1.59-3.7A3.15,3.15,0,0,0,98.52,412.16ZM85.28,391.9h7.17v2.66H85.28Zm0,6.31h7.17v3.06H85.28Zm-10,3.07H68.37v-3.07h6.88Zm0-6.73H68.37v-2.82h6.88Z" transform="translate(176.81 -310.66)"/><path class="cls-1" d="M123.25,376.15a5.46,5.46,0,0,0-1.62.77,8.28,8.28,0,0,0-.9.69H116.2l-3.46.14c-2.2,0-4.4,0-6.59.07a2.33,2.33,0,0,1-2.29-.93,2.17,2.17,0,0,0-.93-.67,1.55,1.55,0,0,0-1.89.34,4.3,4.3,0,0,0-1,2.36,25.57,25.57,0,0,0,0,2.77,3.55,3.55,0,0,0,2,3.44,8,8,0,0,0,1.07.2,12.68,12.68,0,0,0,3.18-1v41.69l-.13,0a1.57,1.57,0,0,1-.43-.09,9.15,9.15,0,0,0-4.39-.82,3,3,0,0,0-3,1.92,1.13,1.13,0,0,0,.47,1.63l4.17,2.64a2.54,2.54,0,0,1,1.14,1.42c1.09,3.32,3.46,5.77,7.19,5.75,3.15-.31,5.61-1.22,7.23-3.1,1.47-1.7.92-5.95.92-5.95V405.67c0-.49,0-1,0-1.48,0-.12,0-.23,0-.35V384.46a19.18,19.18,0,0,0,3.3.65c1.13.14,1.62-.69,2.09-1.51a4.44,4.44,0,0,0,.47-1.47,10.16,10.16,0,0,0,0-4.39C125,376.67,124.28,376,123.25,376.15Z" transform="translate(176.81 -310.66)"/><path class="cls-1" d="M57.2,430.89a4.34,4.34,0,0,1-.39-1.47q0-18.26-.05-36.5a1.92,1.92,0,0,1,.55-1.51,19.05,19.05,0,0,0,3.47-4.88,3.8,3.8,0,0,0-.66-4.91c-1.59-1.43-3-3-4.56-4.56a1.08,1.08,0,0,0-1.44-.22c-.87.48-1.24,1.27-1,2.7a3,3,0,0,1-.43,2,44.41,44.41,0,0,1-7.49,9.08,42.5,42.5,0,0,1-12.34,8.71,1.53,1.53,0,0,0-.76,2.52,23.28,23.28,0,0,0,2.24,2.72,2.49,2.49,0,0,0,2.81.77c1.5-.52,3-1.09,4.47-1.7,1-.41,2-.91,3.1-1.44,0,.52.08.94.08,1.37,0,2.71,0,5.42,0,8.12q0,8.85,0,17.71a1.94,1.94,0,0,1-.22,1c-.6.92-1.33,1.75-1.89,2.7a11.58,11.58,0,0,0-.86,2,1.43,1.43,0,0,0-.09.27,2.51,2.51,0,0,0,0,1.05,1.3,1.3,0,0,0,1.26,1.17H57.41a1.32,1.32,0,0,0,1.27-1.36v-.55a10.07,10.07,0,0,0-.25-1.74C58.08,432.94,57.6,431.93,57.2,430.89Z" transform="translate(176.81 -310.66)"/><path class="cls-1" d="M35.76,388.21c.13.07.35,0,.52,0a19.6,19.6,0,0,0,5.44-2.31,41.8,41.8,0,0,0,10.57-9.09,33.07,33.07,0,0,0,5.86-9.56,25.14,25.14,0,0,0,.73-2.8,5.67,5.67,0,0,0-1.22-2.91c-.41-.42-.82-.84-1.24-1.25-1.14-1.13-2.26-2.26-3.42-3.36-.69-.65-1.37-.62-1.81.17a3.64,3.64,0,0,0-.56,1.89,4.51,4.51,0,0,1-.46,2.2q-.49,1.1-1,2.16a51.38,51.38,0,0,1-7.42,10.53,55.13,55.13,0,0,1-9.22,8.79c-1.45,1.06-1.52,1.76-.35,3.15A12.26,12.26,0,0,0,35.76,388.21Z" transform="translate(176.81 -310.66)"/><path class="cls-1" d="M101,366.69c-.15,2.21,1,3.65,2.61,4.83h0c.17.07.34.21.51.21,2.18,0,4.37,0,6.55,0h10.23l1.81-.21a6.36,6.36,0,0,0,1.8-5.78c-.22-1.56-1.57-2.74-3.15-1.48a2.26,2.26,0,0,0-.42.31c-1.82,0-15.71-.07-15.79-.12s-.5-.4-.66-.5a1.8,1.8,0,0,0-2.93.72A5.69,5.69,0,0,0,101,366.69Z" transform="translate(176.81 -310.66)"/><path class="cls-1" d="M149.62,396.2c-.13.11-2.73,1.43-2.87,1.56a5.36,5.36,0,0,0-.4.43,1.69,1.69,0,0,0,.72,2.71,8.72,8.72,0,0,0,3.67.69,54.68,54.68,0,0,0,6.28-.26,19,19,0,0,0,3.93-1.11,2.63,2.63,0,0,0,1.58-1.53,1.47,1.47,0,0,0-.64-2.1c-1.1-.38-3-1.08-2.82-1.93,3.51,0,8.94,0,12.45,0a4.22,4.22,0,0,0,.91-.19,4.46,4.46,0,0,0,2.41-2.83l.06-.23a8.63,8.63,0,0,0,.16-1.23,1.68,1.68,0,0,0-1.17-1.78h-1.76a2.12,2.12,0,0,0-.65.27,3.26,3.26,0,0,1-2.46.69c-2.34,0-4.68,0-7,0l-3,0V387.7c.32,0,2.56-.06,2.89-.05,3.12,0,6.25.06,9.37.07a8.4,8.4,0,0,0,1.39-.23,1.25,1.25,0,0,0,1-1.4c0-.93,0-1.86,0-2.78q.09-6.27.2-12.53c0-.58-.8-1.44-2.25-1.4h-4.78c-1.58,0-3.16,0-4.73,0-.39,0-2.67,0-3.07,0,0-.38,0-1,0-1.38,3.93,0,9.77,0,13.7,0a8,8,0,0,0,1.37-.23,3.77,3.77,0,0,0,1.78-3.21c.07-1.56-.21-2.19-1.52-2.85a1.64,1.64,0,0,0-1.79,0l-1.64,1c-2.8,0-5.61,0-8.41-.05-.38,0-2.67-.13-3.05-.2,1.29-.7,4.31-1.58,4.93-2.9.38-.81.48-1.23,0-1.79l-.29-.21H153.27c-1.51,0-3,0-4.52,0-1.05,0-2.1,0-3.15,0-.73,0-1,.33-1,1a3,3,0,0,0,.17.89,3.82,3.82,0,0,0,1.52,2.14c1,.81,3.44.83,3.68,1l-11.93,0c-.39-.33-.76-.69-1.18-1a2.75,2.75,0,0,0-3.51.75c-1,1.73-.22,4.92,1.9,5.35a2,2,0,0,0,1.68.21l3.07.05c2.5,0,7.46,0,10,0,0,.46,0,.91,0,1.37-3.65,0-9.75,0-13.4,0a6,6,0,0,0-1.25.24c-.65.24-.71.74-.7,1.32,0,5,0,10,0,14.93a1.92,1.92,0,0,0,.69,1.64,9.34,9.34,0,0,0,1.27.21c3.65,0,9.76,0,13.42,0v1.63h-3.73c-2.6,0-5.2,0-7.8,0a4.19,4.19,0,0,1-2.41-.54,2.26,2.26,0,0,0-3.45,1.47,4,4,0,0,0,1.73,4.16,9.56,9.56,0,0,0,1.39.22c3.84,0,10.13,0,14,.05C149.62,395.59,149.62,395.29,149.62,396.2ZM159,374h6.74l0,2.32h0l-4.87,0H159C159,375.52,159,374.76,159,374Zm0,6.52c.63,0,5.8,0,6.79,0V383l0,0H159Zm-9.1,2.72-7,0v-2.55c.4-.06,5.92,0,7.06,0C149.92,381.57,149.92,382.41,149.91,383.24Zm0-6.92c-.06.06-5.35,0-7.06,0v-2.1h7v2.08Z" transform="translate(176.81 -310.66)"/><path class="cls-1" d="M219.33,393.77c0-.46-.32-.62-.65-.73-.77-.27-1.57-.49-2.35-.73-2.41-.74-4.84-1.45-7.23-2.25-1.52-.5-3-1.14-4.63-1.78l1.15-1a50.84,50.84,0,0,0,6.88-7.35,1.46,1.46,0,0,0,.36-1.13c-.17-.48,0-1.24-.86-1.35a8,8,0,0,0-1.16-.18H180.13a7.83,7.83,0,0,0-1.17.16c-1.23.41-1.36.59-1.2,1.76a4.29,4.29,0,0,0,1,2.44c1.38,1.47,2.71,3,4.16,4.39,1,1,2.19,1.83,3.36,2.79a41.39,41.39,0,0,1-9.28,2.88,4.61,4.61,0,0,0-1.68.82c-.22.15-.22.59-.31.87a11.13,11.13,0,0,1,4.36,4.27c.21.38.51.7.73,1.07a1.58,1.58,0,0,0,1.73.81,24.2,24.2,0,0,0,2.94-.56,49.19,49.19,0,0,0,9.77-4.12,2.49,2.49,0,0,1,2.41-.11c1.78.83,3.58,1.64,5.41,2.39s3.45,1.31,5.18,2a3.57,3.57,0,0,0,2.74,0h0a13.55,13.55,0,0,0,2.51-1.11,30.81,30.81,0,0,1,5.91-3.44C219.06,394.38,219.32,394.21,219.33,393.77Zm-24.7-9c-1.24-.53-6.71-3.47-6.71-3.47.34-.07,13,0,13.42,0C200.45,382,196.09,383.91,194.63,384.73Z" transform="translate(176.81 -310.66)"/><path class="cls-1" d="M178.73,375.38a1.16,1.16,0,0,0,.43.19l5.68-.2a27.83,27.83,0,0,0,3.29-1.16,6.07,6.07,0,0,0,3.34-4.57c.19-1,.47-2.05.71-3.08l3.69,0,1.23.09c0,.84-.06,1.65,0,2.45.15,1.8.5,3.56,2.31,4.59a12.8,12.8,0,0,0,5.44,1.77,2.41,2.41,0,0,0,.67.19q3.08,0,6.15,0a3.27,3.27,0,0,0,.79-.2h0a5.28,5.28,0,0,0,2.93-1.53,8,8,0,0,0,2-3,18.35,18.35,0,0,0,.69-3c.17-1.24.08-1.29-1.11-1.85-1-.48-2-.95-3-1.45a4.66,4.66,0,0,0-2.69-.54l-.27.21c0,.54-.06,1.08-.14,1.61a5.53,5.53,0,0,1-.34,1.33,1,1,0,0,1-1.3.58,1.22,1.22,0,0,1-1.11-1.06,5.48,5.48,0,0,1,0-.81c0-1.66,0-3.33,0-5,0-1.45-.35-1.89-1.68-2.27a3.84,3.84,0,0,0-.8-.18c-2.67,0-5.34,0-8,0-1.25,0-2.5,0-3.76,0a7.86,7.86,0,0,0-1.17.17l-7.44,0a2.52,2.52,0,0,0-2.79,2.57,29.74,29.74,0,0,1-.5,6c-.38,2-1.12,3.71-3.23,4.58-.41.17-.83.29-1.24.44a1.08,1.08,0,0,0-.6,1.82A3.3,3.3,0,0,0,178.73,375.38Z" transform="translate(176.81 -310.66)"/><path class="cls-1" d="M208.84,416.53a2.35,2.35,0,0,0,2.26-.61,5.5,5.5,0,0,0,1.09-4.57c-.19-1-.88-1.31-1.93-1.38-.36,0-1.22,1.33-1.43,1.33H183.17c0-1,0-2.34,0-2.94,1,0,5.17-.14,6.32-.21l.11,0h.11l3.93-.2c1.06-.09,5.82-.29,6.8-.3l2.72-.18,0,0,2-.21a.23.23,0,0,0,.19-.09l.19-.18,0-.06.12-.17.15-.23.08-.23a4.51,4.51,0,0,0,0-1.56,8.86,8.86,0,0,0-2.95-4.23l-.47-.26h0a1,1,0,0,0-1.31,0l-1.16.06-.73,0-1.25.19c-.57,0-1.14,0-1.7.09l-9,.86-1.51.16-6.8.53-1,.14-7.53.56-1,.14L168,403l-2,.19-.46,0-2.23.21-3.87.27-2,.18-.45,0-2,.18-4.09.3-2,.18-.45,0-2,.19-4.09.29-1.77.16c-.68,0-1.2.2-1.37.87s.27.92.68,1.24a1.83,1.83,0,0,0,.67.46c1.49.27,7.89.88,9.36,1,.48,0,3.1.13,3.93.19s8.55.25,11.23.26l.71,0v2H137.61a.91.91,0,0,0-1,.88v3.48a.92.92,0,0,0,1,.88h28.17V418H141.14l-2.77,0c-.56.06-.6.39-.65.88a6,6,0,0,0,.33,3.12l.76,1.32a1.48,1.48,0,0,1,.25.14h26.72v3l-.73,0-3.74.17h-3.54c-1.79,0-3.58,0-5.37,0a1.59,1.59,0,0,0-1.06.34,1.34,1.34,0,0,0,.75,2.12,8.19,8.19,0,0,0,1.29.35,18.75,18.75,0,0,1,9.27,4.84,14.65,14.65,0,0,0,7.76,4l.2.05h.63a4,4,0,0,0,.64.13c3.42.33,7.33-1.09,9.26-3.77a9.43,9.43,0,0,0,1.48-3.68,16.29,16.29,0,0,0,.35-3.94,1,1,0,0,0,0-.24v-3.4h27.28s1.07-2.33,1.51-3.26l.09-.27a3.8,3.8,0,0,0,0-1.12c-.5-1.51-1.91-1.82-3.41-.81H182.92v-1.5h25.92Z" transform="translate(176.81 -310.66)"/><path class="cls-1" d="M227.88,386.5c-4.67,3-3.88,19,.09,19.33,8.52-3.41,57.91-5,71.61-.63,4.85,1.2,3.17-4.16,3.5-9.1C302.57,371.1,294.45,400.71,227.88,386.5Z" transform="translate(176.81 -310.66)"/><path class="cls-1" d="M374,354.92c-2.85-.94-4.29,1.69-6.1,3.53,0,0-13.14,2-17.53,2s-17.49-2-17.49-2c-16.29-4.85-9.68-5-10.76,29.74v.11h0a1.37,1.37,0,0,0,.06.39c.31,2.36,3.22,4.22,6.81,4.22a7.64,7.64,0,0,0,6.15-2.59c4.35.21,9.55.39,14.75.39,5.67,0,11.63-.19,16.63-.41.91,1.84,3.46,3.17,6.49,3.17,3.8,0,6.87-2.07,6.87-4.62,0-.05,0-.09,0-.14s0,0,0-.05c-.42-7,0-13.72-.28-20.74C384.71,363.66,378.63,357.31,374,354.92Zm-23.62,27.47a107,107,0,0,1-16.09-1.22V367c.27,0,8.57,1.12,16.48,1.17a127.79,127.79,0,0,0,15.7-1v14h-1.24A132.62,132.62,0,0,1,350.38,382.39Z" transform="translate(176.81 -310.66)"/><path class="cls-1" d="M345.62,406.19c1.34-2.81,2.82-4.28,2.3-6.86-.82-4.11-5.49-2.85-7.51-1.1,0,0-2.73,1.34-12,1.39-9.43.05-11.25-1.39-11.25-1.39-2-1.64-7.65-5.4-7.53-2.29.42,10.4.77,18.4.28,30.47-.58,3.54-2,7.18,1.52,8,27.75-6.66,35.26,6.7,35.87-5.58.07-1.41-.8-3-1.71-5V406.19ZM321.68,424.6V407.48a29,29,0,0,0,6.74.56,32.42,32.42,0,0,0,6.36-.47v17c-.84-.07-3.07-.24-6.36-.25A61.56,61.56,0,0,0,321.68,424.6Z" transform="translate(176.81 -310.66)"/><path class="cls-1" d="M391.47,406.19c1.34-2.81,2.82-4.28,2.3-6.86-.82-4.11-5.49-2.85-7.51-1.1,0,0-2.73,1.34-12,1.39-9.43.05-11.25-1.39-11.25-1.39-2-1.64-7.65-5.4-7.53-2.29.42,10.4.77,18.4.28,30.47-.58,3.54-2,7.18,1.52,8,27.75-6.66,35.26,6.7,35.87-5.58.07-1.41-.8-3-1.71-5V406.19ZM367.54,424.6V407.48a29,29,0,0,0,6.74.56,32.42,32.42,0,0,0,6.36-.47v17c-.84-.07-3.07-.24-6.36-.25A61.56,61.56,0,0,0,367.54,424.6Z" transform="translate(176.81 -310.66)"/><path class="cls-2" d="M-8.57,422.36c3.68,7.07-3.81,12.39-8.49,17.89-3.57,4.18-7.71,8.19-9.3,13.49-.79,2.64-.6,5.22-2.52,7.16-.07.07,3.95,4.85,3.84,5A6.45,6.45,0,0,1-27.72,468s-5.62-4.72-5.9-4.58c-2.27,1.16-3,2.09-5.31,3.25a23.7,23.7,0,0,1-6.26,2.48c-2.14.4-4.37.21-6.47.81-1.52.44-2.9,1.28-4.43,1.68-2.55.67-5.34.08-7.83,1-2.08.74-3.71,2.44-5.72,3.36a4.7,4.7,0,0,1-2.85-.05l-1.46,9.59-3.54,0s-.58-9.76-.84-9.79c-5.76-.71-11-1.51-16.43-3.7-1.77-.72-3.94-1.44-5.43-.24-.49.39-.83,1-1.35,1.31-3,2.12-13.63-6.22-16.06-8.1-.54-.42.74-.63.21-1.07-.13-.11-6.39,4.12-6.39,4.12l-2.64-2.25s4.89-4.56,4.79-4.65a58.71,58.71,0,0,1-8.62-9.94,56.7,56.7,0,0,1-7.24-17.39c-.7-3-3.86-2.27-4.18-5.24-.46-4.19,5-8.87,7.91-10.46,1.21-.68,1.44-2,2.4-2.79a10.63,10.63,0,0,1,2.52-1.14c1.84-.92,3.65-2.17,3.77-4.47.19-3.88-2.87-7.62-4.94-10.59-1.83-2.62-9.43-3.5-9.46-7,0-3.09,5.54-4.81,7.89-6.36s3.49-3.46,5.07-6c2.77-4.48,4.56-9.79,8.29-13.51,14.11-14.05,27.35-18.22,49.76-13.5,20.69,4.37,23.33,2.37,38.21,12.84,2.42,1.7-1.22,9.38,3.41,14.31,1.66,1.76,3.69,2.21,5.62,3.46,3.56,2.3,9,5.19,8.11,9.65-1.08,5.69-7.61,13-7.91,18.59a5.8,5.8,0,0,0,.51,3.12c.94,1.71,3.66,1.83,5.15,2.88S-9.15,421.25-8.57,422.36Z" transform="translate(176.81 -310.66)"/><path class="cls-3" d="M-70.86,348.76c17.84,1.15,33.46,7.5,46.54,19.73a42.28,42.28,0,0,1,2.64-5.2,27.92,27.92,0,0,1,4.41-5.16c3.87-3.43,5.72-7.92,7.27-12.65.83-2.54,1.87-5,2.83-7.53,1.21-3.15,2.39-6.31,3.66-9.44a16.17,16.17,0,0,1,1.78-3.46,2.29,2.29,0,0,1,1.94-.82,2.08,2.08,0,0,1,.89,1.83,61.55,61.55,0,0,1-2.06,6c-1.43,3.78-2.75,7.62-4.41,11.3-2.18,4.84-3.46,10.14-7.13,14.25-2,2.2-4,4.41-5.71,6.77a39.9,39.9,0,0,0-2.66,4.91c-1.08,2-.48,3.61.82,5.27a36.43,36.43,0,0,1,2.41,4c.65-2.36,1.33-4.86,2-7.37a1.7,1.7,0,0,1,.52-1,5.9,5.9,0,0,1,1.48-.43,4.29,4.29,0,0,1,.26,1.28c-.32,2.82-.84,5.63-1,8.46a8.79,8.79,0,0,0,.93,3.53c1.38,3.53,3.08,6.95,4.17,10.56.47,1.55,0,3.53-.5,5.18a30.21,30.21,0,0,0-1.43,10.95,13,13,0,0,0,4,8.13,1.56,1.56,0,0,0,.35.27c2.49,1.38,3.24.94,3.78-1.64A65.53,65.53,0,0,0-1.57,407c.24-4,1.61-7.63,2.6-11.35.69-2.59,1.49-5.15,2-7.81a1.28,1.28,0,0,1,.86-.75c.2-.05.71.38.75.64A13.36,13.36,0,0,1,5,391.9c-.58,3-1.62,5.87-2.27,8.84-.72,3.3-1.24,6.64-1.81,10-.42,2.5-.67,5-1.22,7.49a4.79,4.79,0,0,1-3.35,3.91,1.2,1.2,0,0,0-.7.68c-.53,1.58-.92,3.21-1.49,4.76q-2.46,6.66-5.06,13.26c-.54,1.37-.33,1.74,1.13,1.81,2.15.11,3.12-1.51,4.23-2.85,2.12-2.59,2.77-5.87,4-8.86A40.58,40.58,0,0,1,2,424.09c2.38-3.57,5.1-6.91,7.55-10.43a9.39,9.39,0,0,0,1.32-3.31c.86-4.06,1.63-8.15,2.36-12.24a33.81,33.81,0,0,0,.33-3.9c.11-1.84.24-3.68.28-5.52a19.67,19.67,0,0,0-2-8.88c-1.69-3.62-3-7.42-4.61-11.09a5.41,5.41,0,0,1,.24-4.65,79.48,79.48,0,0,1,5.13-9.92c2.9-4.47,6.2-8.67,9.34-13a5.91,5.91,0,0,1,.79-.87c.75-.68,1.45-1.62,2.63-1,.71.36.61,2.14-.17,3.22-1.14,1.58-2.26,3.19-3.5,4.69a68.78,68.78,0,0,0-10.07,16.21,7.91,7.91,0,0,0,.12,7.12c1.91,3.86,3.15,8.05,4.83,12,1.23,2.92.92,5.84.57,8.83-.31,2.64-.25,5.33-.66,7.95-.43,2.78-1.19,5.52-1.83,8.27a32.61,32.61,0,0,1-1.09,4.19,17.72,17.72,0,0,1-2.19,4.5,90.13,90.13,0,0,0-9.17,13.53A46.22,46.22,0,0,0-.26,435.9,20.1,20.1,0,0,1-5,443.64c-2,2.07-4.52,2.31-7.17,1.73a1.49,1.49,0,0,0-1.88.81,62.53,62.53,0,0,1-13.08,15.5c-.33.27-.68.52-1.16.87a37.62,37.62,0,0,1-2.29-4.09,33.8,33.8,0,0,1-2.28-6.61,29.33,29.33,0,0,1-.36-7.37,16.54,16.54,0,0,1,3.8-9.5,14.19,14.19,0,0,1,8.68-5c3.35-.63,6.61,0,10.17.46l1.34-3.71a35.88,35.88,0,0,1-14.64-6.39,13.5,13.5,0,0,1-5.79-10.7c-.06-4.84,1.39-9.14,6.1-11.76A34.67,34.67,0,0,1-13.79,394a1.29,1.29,0,0,0,.68-1.06c-.48-2.24-1.82-2.83-4-2.09A24.75,24.75,0,0,1-30.65,392c-3.34-.76-5.46-3.3-7-6.24A15.58,15.58,0,0,1-39,375.08c.57-2.84,2-5.23,3.09-7.81.35-.83.83-1.61,1.32-2.55l-2.73-1.57c-1.55,2.25-3.05,4.4-4.53,6.57-2.3,3.35-5.73,4.71-9.54,5.24a27.72,27.72,0,0,1-5.82.3,15.77,15.77,0,0,1-13.08-8,26.75,26.75,0,0,1-3.25-13.14c0-.73,0-1.46,0-2.27h-3.82c0,.68,0,1.35,0,2A30.34,30.34,0,0,1-79,363.7a15.17,15.17,0,0,1-6,8.51,16.67,16.67,0,0,1-9.14,3.1,21.36,21.36,0,0,1-10.19-1.75,13.94,13.94,0,0,1-5.53-5.07c-1.17-1.73-2.27-3.5-3.48-5.38l-2.76,1.54c1,2.17,2,4.21,2.91,6.27,2.15,4.78,2.6,9.63.2,14.43a15.37,15.37,0,0,1-3.29,4.51,10.22,10.22,0,0,1-5.67,2.55,28.84,28.84,0,0,1-8.15-.4c-.7-.1-1.37-.39-2.06-.55-1.59-.37-3.19-.7-5-1.1l-1.24,3.15a53,53,0,0,1,5.76,1.82,43.19,43.19,0,0,1,7,3.72c3,2.08,4,5.24,4.16,8.87a16.37,16.37,0,0,1-.5,5.54,14.14,14.14,0,0,1-5.2,7.08c-4.14,3.11-9,4.78-14.18,6.16a26.78,26.78,0,0,0,.52,3.15,1.4,1.4,0,0,0,1.21.57,22.21,22.21,0,0,1,9.17-.42,13.94,13.94,0,0,1,11.58,9.6,24.14,24.14,0,0,1-1.43,18.4c-.48,1-1,2.06-1.39,3.12s-1,1.11-1.83.37A65,65,0,0,1-136.61,446c-.65-1.08-1.16-1.5-2.49-.9-3.67,1.63-7.83-1.56-9.71-4.91-1.79-3.2-2.73-6.72-4.24-10a64.35,64.35,0,0,0-5.27-8.52c-1.71-2.55-3.62-5-5.33-7.5a10.44,10.44,0,0,1-1.08-2.74A69.94,69.94,0,0,1-168,396.58c-.29-3-.7-6-.8-9a11.65,11.65,0,0,1,.82-4.34c1.43-3.86,3-7.66,4.56-11.48.33-.83.63-1.67,1-2.5,1-2.39.3-4.66-.64-6.81-2.86-6.54-7-12.28-11.5-17.78a13.42,13.42,0,0,1-2-3,2.63,2.63,0,0,1,.15-2.34,1.53,1.53,0,0,1,2.28.42c2.66,3.44,5.59,6.7,7.93,10.35,2.78,4.34,5.07,9,7.54,13.55,1.33,2.46.61,4.89-.34,7.24-1.22,3-2.6,5.95-3.89,8.93a28.41,28.41,0,0,0-1.48,3.69c-1.15,4.15-.69,8.35-.23,12.54.27,2.5.67,5,1.14,7.47s1.06,5,1.75,7.54a9.31,9.31,0,0,0,1.48,2.8c2.14,3,4.35,6,6.53,9a40.29,40.29,0,0,1,5.5,11.81A16.86,16.86,0,0,0-143,442.2a2.47,2.47,0,0,0,1.86.19,9,9,0,0,0,2-1c-2.93-6.2-5.41-12.48-6.08-19.28-3.9-.3-5.48-2-5.92-6.07-.25-2.29-.75-4.55-1.15-6.82-.58-3.26-1.07-6.55-1.78-9.78a68.48,68.48,0,0,0-2.07-7.14,7.14,7.14,0,0,1,.44-4.91,1.16,1.16,0,0,1,.87-.59c.21,0,.54.45.62.75q1.59,6.18,3.1,12.38c.7,2.9,1.42,5.79,2,8.72.44,2.29.64,4.63,1,6.94a11.13,11.13,0,0,0,.57,2.36c.37,1,1.54,1.07,3,.24a7.42,7.42,0,0,0,3.47-3.91,18,18,0,0,0,1.13-8.62,54.9,54.9,0,0,0-1.74-8.32,9.26,9.26,0,0,1,.77-6.55c1.15-2.63,2.33-5.25,3.35-7.93a8.48,8.48,0,0,0,.56-3.37c-.16-2.94-.53-5.87-.76-8.8a3.56,3.56,0,0,1,.43-1.26c.47.2,1.26.29,1.37.61a42.42,42.42,0,0,1,1.65,5.72,23.12,23.12,0,0,1,.05,4.11c.39-.61.72-1.11,1-1.62a39.41,39.41,0,0,1,2.61-4,3.69,3.69,0,0,0,.79-3.62,21.67,21.67,0,0,0-6.46-10.5c-3.12-2.94-5.12-6.69-6.83-10.58-.88-2-1.78-4-2.57-6-1.33-3.43-2.56-6.9-3.86-10.35q-1.22-3.22-2.49-6.44c-.4-1-.47-1.94.62-2.48a2,2,0,0,1,2.6,1.31c1.77,4.34,3.58,8.67,5.3,13,1.16,3,2.31,5.93,3.24,9a22.31,22.31,0,0,0,6.67,10.54,22.41,22.41,0,0,1,6.88,11.17c13.37-12.57,29.1-19.45,47.36-20.43C-76.6,348.76-73.73,348.76-70.86,348.76Z" transform="translate(176.81 -310.66)"/><path class="cls-3" d="M-73.13,479c.48-2.23.86-4.39,1.41-6.51a29.85,29.85,0,0,1,6.15-12c4.3-5.06,9.8-6.86,16.3-5.85a29,29,0,0,1,9.62,3.65,30.89,30.89,0,0,1,7.25,5.53c1,1,.67,1.5-.27,2.14a74.55,74.55,0,0,1-17.85,9A76.66,76.66,0,0,1-66,478.47c-1.72.21-3.48.2-5.22.31C-71.73,478.82-72.24,478.9-73.13,479Z" transform="translate(176.81 -310.66)"/><path class="cls-3" d="M-78,478.87c-15.32-.2-28.82-5.34-41.25-13.94a27.35,27.35,0,0,1,10.32-7.88,23.09,23.09,0,0,1,9.69-2.71c7.51-.09,12.84,3.4,16.64,9.68,2.53,4.19,3.71,8.8,4.6,13.53A9.55,9.55,0,0,1-78,478.87Z" transform="translate(176.81 -310.66)"/><path class="cls-3" d="M-70.86,348.76h0Z" transform="translate(176.81 -310.66)"/><path class="cls-1" d="M-116.5,319.9l.21.41c.19.37.39.72.6,1.06s.43.66.65,1l-.85.61a2.28,2.28,0,0,0-1.4-1.12,2.73,2.73,0,0,0-1.88.34,2.39,2.39,0,0,0-1.07.94,1.08,1.08,0,0,0,0,1.07c.25.49,1.1.54,2.54.14l.24-.06a6,6,0,0,1,2.89-.23,2.48,2.48,0,0,1,1.61,1.38,3.23,3.23,0,0,1,0,3,5.91,5.91,0,0,1-2.77,2.59,9.57,9.57,0,0,1-1.7.68,7,7,0,0,1-1.65.28c0-.06,0-.12-.08-.19l-.14-.28a12.8,12.8,0,0,0-.68-1.18,12.75,12.75,0,0,0-.81-1.12l.91-.67a3.53,3.53,0,0,0,1.75,1.37,2.74,2.74,0,0,0,2-.31,2.62,2.62,0,0,0,1.14-1,1.07,1.07,0,0,0,.06-1.09c-.27-.53-1.06-.64-2.36-.33l-.58.13a6,6,0,0,1-2.85.15,2.49,2.49,0,0,1-1.52-1.36,3.14,3.14,0,0,1,0-2.89,5.49,5.49,0,0,1,2.58-2.44,9.2,9.2,0,0,1,1.61-.65A6.55,6.55,0,0,1-116.5,319.9Z" transform="translate(176.81 -310.66)"/><path class="cls-1" d="M-113.93,318.22l1.57-.43c.39-.11.71-.21.94-.29s.72-.26,1.15-.44l1.51-.64.29.83-.17.06c-.42.15-.67.34-.75.58a3.17,3.17,0,0,0,.31,1.58l.06.18.42,1.2.95-.28,1-.32c.56-.2,1.15-.42,1.76-.66l.29-.12,0,0-.53-1.56a2.68,2.68,0,0,0-.68-1.26,1.09,1.09,0,0,0-.94,0l-.16.05-.29-.83,1.58-.43c.44-.13.83-.25,1.16-.37s.56-.21,1-.37l1.5-.63.29.83-.13,0-.17.06a.8.8,0,0,0-.61.68,7.46,7.46,0,0,0,.54,2.2l.2.57.18.5.29.83.27.81c.11.34.19.57.24.7.19.55.35,1,.46,1.2a1.72,1.72,0,0,0,.35.53.56.56,0,0,0,.41.15,1.63,1.63,0,0,0,.6-.11l.12-.05.13-.05.29.84c-.67.18-1.21.32-1.63.45l-1,.31c-.32.11-.7.25-1.13.43l-1.6.67-.29-.84.12,0,.19-.06c.39-.14.63-.32.7-.56a3.15,3.15,0,0,0-.29-1.54l-.09-.27v0l-.48-1.38-1,.32-1,.35-1.56.58-.42.15.5,1.43.07.25a3,3,0,0,0,.72,1.38,1,1,0,0,0,.91,0l.2-.07.11,0,.29.84c-.66.17-1.22.33-1.67.46s-.84.26-1.16.37l-.93.36c-.39.16-.92.38-1.58.67l-.29-.84.2-.07a1.69,1.69,0,0,0,.56-.28.55.55,0,0,0,.2-.36,11,11,0,0,0-.76-2.87c-.07-.2-.13-.36-.16-.47l-.29-.83-.35-1c-.14-.42-.23-.71-.28-.86a3.31,3.31,0,0,0-.7-1.35.88.88,0,0,0-.89-.07l-.17.06-.11.05Z" transform="translate(176.81 -310.66)"/><path class="cls-1" d="M-98.82,318.6a5,5,0,0,1,1-4.17,6.5,6.5,0,0,1,4.12-2.34,6.06,6.06,0,0,1,4.48.75,5.17,5.17,0,0,1,2.35,3.59,5,5,0,0,1-1,4.13,6.46,6.46,0,0,1-4.08,2.3,6.25,6.25,0,0,1-4.57-.68A5.1,5.1,0,0,1-98.82,318.6Zm5.33-5a2.42,2.42,0,0,0-1.86,1.35,4.7,4.7,0,0,0-.21,2.91,5.08,5.08,0,0,0,1.25,2.8,2.46,2.46,0,0,0,2.28.63A2.29,2.29,0,0,0-90.25,320a4.74,4.74,0,0,0,.18-2.87,5.36,5.36,0,0,0-1.24-2.82A2.31,2.31,0,0,0-93.49,313.58Z" transform="translate(176.81 -310.66)"/><path class="cls-1" d="M-80,310.87l0,.9h-.28a1.08,1.08,0,0,0-.9.34,2.71,2.71,0,0,0-.18,1.44c0,.52,0,1.08.06,1.67s0,.92,0,1a4.55,4.55,0,0,0,.72,2.7,2.41,2.41,0,0,0,2.07.77,3.14,3.14,0,0,0,1.5-.39,1.87,1.87,0,0,0,.84-1,3.74,3.74,0,0,0,.18-1.16q0-.78,0-2.88l0-1.24a1.86,1.86,0,0,0-.27-1.08,1.12,1.12,0,0,0-.9-.25h-.24l0-.9c.48,0,.9.06,1.24.07h.88l.95-.06c.35,0,.76-.08,1.22-.15l0,.9h-.28c-.67,0-1,.87-.94,2.54,0,.21,0,.37,0,.48s0,.32,0,.57a11.91,11.91,0,0,1-.29,3.8,3.48,3.48,0,0,1-1.6,1.8,5.81,5.81,0,0,1-2.77.74,7.55,7.55,0,0,1-2.21-.21,4,4,0,0,1-1.59-.79,3.49,3.49,0,0,1-1-1.36,6.42,6.42,0,0,1-.36-2.16q0-.52,0-1.62c0-.73,0-1.29,0-1.66a3.11,3.11,0,0,0-.26-1.47,1,1,0,0,0-.83-.27h-.26l0-.9,1.48.06c.46,0,.88,0,1.24,0s.69,0,1.15-.07Z" transform="translate(176.81 -310.66)"/><path class="cls-1" d="M-60.72,312.23c-.06.51-.09,1-.11,1.52s0,1,0,1.49l-1,.08a2.61,2.61,0,0,0-.78-1.73,3.12,3.12,0,0,0-1.86-.79,3.46,3.46,0,0,0-2.74.66,4.11,4.11,0,0,0-1.22,2.74,4.54,4.54,0,0,0,.53,3,2.87,2.87,0,0,0,2.21,1.34,3.74,3.74,0,0,0,.67,0,4.66,4.66,0,0,0,.76-.13l.13-1.13a2.71,2.71,0,0,0-.06-1.38,1,1,0,0,0-.8-.39l-.48,0,.1-.91c.6.12,1.09.22,1.46.28l1,.15,1.2.11,1.75.1-.1.89-.2,0a.94.94,0,0,0-.78.16,2.14,2.14,0,0,0-.32,1.12l0,.37,0,.6c0,.28-.06.56-.08.82s0,.51,0,.75c-1,.11-1.86.17-2.66.19a15.69,15.69,0,0,1-2-.06,6.6,6.6,0,0,1-4.27-1.95,4.84,4.84,0,0,1-1.23-4,5,5,0,0,1,2.28-3.84,7.34,7.34,0,0,1,5-1,14.34,14.34,0,0,1,1.91.35A12.32,12.32,0,0,1-60.72,312.23Z" transform="translate(176.81 -310.66)"/><path class="cls-1" d="M-57.24,312.57c.76.24,1.49.47,2.19.67s1.33.38,1.91.52,1.44.36,2.23.54l2.69.59c-.11.44-.21.89-.29,1.35s-.14.93-.19,1.41l-.87-.08a1.73,1.73,0,0,0-.35-1.37,3.7,3.7,0,0,0-1.74-.79l-.9-.22-.87-.18c-.06.18-.11.37-.17.58l-.23.88-.19.76-.19.73.39.1.77.2.63.17a2.65,2.65,0,0,0,1.32.12,1,1,0,0,0,.5-.69l.77.3c-.15.44-.27.8-.35,1.06s-.15.49-.2.69-.11.46-.21.93c0,.16-.06.27-.08.35l-.83-.11,0-.12a1,1,0,0,0-.1-.9,3,3,0,0,0-1.33-.56l-.62-.15-.74-.18-.25-.06-.19.75-.27,1.06-.15.6c-.05.21-.1.43-.16.67l1,.32c.29.09.56.17.82.23a4.62,4.62,0,0,0,2.3.2,2.72,2.72,0,0,0,1.3-1.17l.81.49c-.29.47-.56.92-.8,1.36s-.46.86-.66,1.27l-3.4-1-2-.54c-.49-.12-1.05-.26-1.7-.39l-2.24-.46.22-.86.15,0,.13,0a1.8,1.8,0,0,0,.56.07.7.7,0,0,0,.38-.14,1.28,1.28,0,0,0,.36-.53,13.68,13.68,0,0,0,.46-1.56l.1-.4.18-.71.25-1c.08-.33.18-.68.28-1a1.27,1.27,0,0,1,0-.15c0-.17.1-.38.17-.65l.15-.54a1.9,1.9,0,0,0,.06-1.19,1.17,1.17,0,0,0-.78-.48l-.13,0-.15,0Z" transform="translate(176.81 -310.66)"/><path class="cls-1" d="M-45.52,315.64l1.4.69,1,.45c.4.16.83.32,1.28.48s.92.31,1.41.46l-.33.82-.19-.08a1,1,0,0,0-.94,0,4.08,4.08,0,0,0-.89,1.57l0,.11-1.66,4.09a3.37,3.37,0,0,0-.39,1.55c.06.25.29.45.68.61l.19.07.13.05-.33.8-1.62-.77c-.38-.18-.71-.32-1-.43l-1-.37-1.74-.58.33-.82.13.06.12.06a1.1,1.1,0,0,0,.94.07,2.18,2.18,0,0,0,.66-1l.36-.87.55-1.29.41-1,.26-.63.27-.65.23-.55a2.68,2.68,0,0,0,.31-1.36c-.06-.25-.29-.45-.69-.62l-.21-.09Zm6.41,2.6c.64.32,1.12.56,1.43.7s.57.27.79.35.47.18.79.29l1.46.47-.33.82-.08,0-.13-.05a2,2,0,0,0-1-.11,9.41,9.41,0,0,0-1.84.59l-2.55,1.05,1.51,4.27c.06.16.14.4.23.69.31,1,.69,1.54,1.13,1.72l.14.05.09,0-.33.82c-.57-.27-1-.48-1.34-.62l-.84-.36-.68-.26-1.36-.47.05-.06,0-.1c.13-.32-.16-1.47-.85-3.46-.36-1-.65-1.85-.86-2.48l3.26-1.41a10.37,10.37,0,0,0,1.17-.56.92.92,0,0,0,.36-.35.38.38,0,0,0-.06-.38,1.27,1.27,0,0,0-.53-.33Z" transform="translate(176.81 -310.66)"/><path class="cls-1" d="M-32.79,321.11l1.44.91c.41.25.78.47,1.11.64l1,.48,1.57.73-.42.77-.17-.09a1.7,1.7,0,0,0-.69-.25.64.64,0,0,0-.46.19,4.34,4.34,0,0,0-.58.8c-.26.42-.64,1.1-1.15,2l-.42.77-.49.89c-.2.36-.34.61-.41.75a10.33,10.33,0,0,0-.48,1,1.48,1.48,0,0,0-.13.54.61.61,0,0,0,.18.41,2.37,2.37,0,0,0,.64.44l.17.09-.42.78c-.5-.33-1-.62-1.42-.9s-.85-.5-1.2-.69-.6-.32-1-.52-1-.46-1.64-.76l.42-.78.21.11a3.53,3.53,0,0,0,.72.31.55.55,0,0,0,.42-.07,11.69,11.69,0,0,0,1.61-2.51c.1-.19.18-.34.24-.44l.42-.77.45-.82.39-.7a8.77,8.77,0,0,0,.52-1.06,1.77,1.77,0,0,0,.14-.58.61.61,0,0,0-.16-.4A2.22,2.22,0,0,0-33,322l-.23-.12Z" transform="translate(176.81 -310.66)"/><path class="cls-1" d="M-103,333.85l1.67-.31c.47-.09.89-.19,1.25-.28l1-.3,1.65-.53.22.85-.18.05a1.62,1.62,0,0,0-.68.29.66.66,0,0,0-.21.45,4.29,4.29,0,0,0,.12,1c.1.48.28,1.24.55,2.29l.22.85c.07.26.15.59.25,1s.17.68.2.83a8.64,8.64,0,0,0,.31,1,1.7,1.7,0,0,0,.27.48.65.65,0,0,0,.41.18,2.58,2.58,0,0,0,.77-.11l.19,0,.22.86c-.59.1-1.14.2-1.65.31s-1,.21-1.35.31-.66.18-1.1.31l-1.72.55-.22-.86.23-.06a2.79,2.79,0,0,0,.74-.27.54.54,0,0,0,.26-.34,11.66,11.66,0,0,0-.52-2.94q-.07-.32-.12-.48l-.22-.85c-.06-.23-.13-.53-.22-.9s-.15-.63-.19-.78a8.2,8.2,0,0,0-.34-1.13,1.62,1.62,0,0,0-.29-.52.61.61,0,0,0-.39-.19,1.94,1.94,0,0,0-.66.08l-.25.06Z" transform="translate(176.81 -310.66)"/><path class="cls-1" d="M-92.38,340.9h.14l.23,0a1,1,0,0,0,.81-.39,1.81,1.81,0,0,0,.1-1.09l-.29-2.31-.44-3.47a1.71,1.71,0,0,0-.38-1,1.19,1.19,0,0,0-.94-.17l-.24,0-.11-.87,1.59-.09.72-.06c.43,0,1-.16,1.78-.33s1.31-.27,1.64-.31a5.47,5.47,0,0,1,3.3.42A2.66,2.66,0,0,1-83,333.31a2.88,2.88,0,0,1-.89,2.6,5.56,5.56,0,0,1-3.23,1.3l-.61.06q-.33,0-.69,0l.15,1.25a3.12,3.12,0,0,0,.42,1.47,1,1,0,0,0,.93.21l.13,0,.15,0,.11.85-1.81.14-1.13.12-1,.17-1.71.33Zm3.76-4.78.46,0,.37,0a2.27,2.27,0,0,0,1.53-.73,1.92,1.92,0,0,0,.38-1.55,1.71,1.71,0,0,0-.7-1.25,2.07,2.07,0,0,0-1.51-.3l-.48.08c-.16,0-.33.08-.5.13,0,.49.11,1,.17,1.52S-88.74,335.2-88.62,336.12Z" transform="translate(176.81 -310.66)"/><path class="cls-1" d="M-80.76,339.49h.37a1,1,0,0,0,.85-.28,1.76,1.76,0,0,0,.25-1.06l0-2.33.06-3.5a1.69,1.69,0,0,0-.23-1.08,1.19,1.19,0,0,0-.91-.3h-.24v-.88l1.59.14.72,0c.43,0,1,0,1.81-.08s1.33-.08,1.67-.08a5.47,5.47,0,0,1,3.21.88,2.7,2.7,0,0,1,1.12,2.31,2.9,2.9,0,0,1-1.25,2.45,5.54,5.54,0,0,1-3.39.83l-.61,0-.69-.07,0,1.26a3.09,3.09,0,0,0,.21,1.51,1,1,0,0,0,.89.34H-75v.86l-1.81-.12c-.44,0-.82,0-1.13,0s-.6,0-1.07,0l-1.74.08Zm4.4-4.21.45,0,.37,0a2.33,2.33,0,0,0,1.62-.5,1.92,1.92,0,0,0,.6-1.48,1.7,1.7,0,0,0-.52-1.34,2.09,2.09,0,0,0-1.45-.51h-.49l-.51.06c0,.49,0,1,0,1.53S-76.35,334.36-76.36,335.28Z" transform="translate(176.81 -310.66)"/><path class="cls-1" d="M-67.85,330.47l1.68.3c.48.08.9.14,1.27.18l1.07.09,1.73.09-.1.88-.19,0a1.87,1.87,0,0,0-.74,0,.61.61,0,0,0-.35.34,4,4,0,0,0-.24,1c-.08.48-.18,1.26-.31,2.33l-.1.87c0,.26-.07.6-.13,1s-.09.7-.11.85a9,9,0,0,0-.08,1.07,1.56,1.56,0,0,0,.08.55.57.57,0,0,0,.32.31,2.79,2.79,0,0,0,.76.17l.19,0-.1.88q-.87-.18-1.65-.3l-1.37-.2c-.3,0-.68-.07-1.14-.1s-1.07-.07-1.8-.1l.1-.88.24,0a3,3,0,0,0,.78,0,.56.56,0,0,0,.36-.22,11.5,11.5,0,0,0,.56-2.93c0-.22,0-.38.06-.49l.1-.87c0-.23.07-.54.11-.92s.08-.65.1-.8a11.53,11.53,0,0,0,.09-1.18,1.55,1.55,0,0,0-.09-.59.66.66,0,0,0-.3-.32,2,2,0,0,0-.65-.16l-.26,0Z" transform="translate(176.81 -310.66)"/><path class="cls-1" d="M-59.61,331.37l1.44.47.84.24,1,.21c.38.07.8.13,1.24.19a2.34,2.34,0,0,0,.13.65c.08.23.25.61.5,1.13l2.92,5.83c.11-.45.22-.87.32-1.27l.28-1.14c0-.18.11-.42.18-.71s.13-.49.15-.6a3.3,3.3,0,0,0,.14-1.52,1,1,0,0,0-.76-.54l-.18,0-.13,0,.21-.86c.33.13.66.25,1,.35s.69.21,1.08.3.73.17,1.08.23.71.11,1.07.15l-.21.86a2.56,2.56,0,0,0-.88-.11.61.61,0,0,0-.41.3,4.82,4.82,0,0,0-.32.84c-.13.42-.36,1.28-.68,2.58l-.24.93c-.18.71-.36,1.38-.51,2l-.4,1.59a2.43,2.43,0,0,0-.06.31c0,.13,0,.28-.07.45l-2.34-.57a3.2,3.2,0,0,0-.15-.48c-.07-.18-.2-.44-.37-.79l-3.6-7.09c-.11.4-.21.81-.32,1.2L-58,337.9l-.33,1.33a4.23,4.23,0,0,0-.2,1.75.93.93,0,0,0,.75.57l.31.06h.06l-.21.86-1.31-.43c-.38-.12-.7-.21-1-.27s-.53-.12-.9-.18-.82-.14-1.33-.21l.21-.86.17.05.14,0a1.53,1.53,0,0,0,.68.05.77.77,0,0,0,.44-.31,13.31,13.31,0,0,0,.85-2.61c.08-.29.14-.51.19-.67l.24-.86.21-.8c.08-.3.2-.79.36-1.48a1.72,1.72,0,0,0,0-1.13,1.25,1.25,0,0,0-.86-.5l-.21-.05-.15,0Z" transform="translate(176.81 -310.66)"/><path class="cls-1" d="M46,476.29a8.07,8.07,0,0,0-.51-1.58,6.31,6.31,0,0,0-.89-1.55,7.81,7.81,0,0,0,4.44-1.68,4.32,4.32,0,0,0,1.39-3.3,3.36,3.36,0,0,0-1.6-3,27.18,27.18,0,0,1-2,3.08,21.76,21.76,0,0,1-2.25,2.55c.08.27.18.54.28.81a8.14,8.14,0,0,0,.33.79,7.6,7.6,0,0,0-1.1.4c-.42.18-.81.37-1.19.56a6.24,6.24,0,0,0-.91.54c-.07-.13-.13-.27-.19-.4s-.11-.27-.16-.4a10.36,10.36,0,0,1-2.55,1.09,6,6,0,0,1-2.48.16,2.88,2.88,0,0,1-1.75-1,3.71,3.71,0,0,1-.8-2.58,7.47,7.47,0,0,1,.78-3.39A9.38,9.38,0,0,1,37,464.62a11.83,11.83,0,0,1,3.11-2c0-.9,0-1.78.08-2.65-.92.07-1.78.1-2.58.1a15.88,15.88,0,0,1-2-.1l-.23-3.33a22.17,22.17,0,0,0,2.28.16c.88,0,1.82,0,2.8,0q.12-.82.24-1.59c.08-.51.15-1,.24-1.46l3.4.62-.21,1.06c-.07.35-.14.72-.19,1.09,1.18-.13,2.33-.31,3.44-.53a17.79,17.79,0,0,0,2.84-.78l.3,3.2a25.51,25.51,0,0,1-3.1.74c-1.23.23-2.52.4-3.85.54,0,.32,0,.64,0,1s0,.65-.05,1l1.08-.13c.37,0,.73-.05,1.1-.05a12.22,12.22,0,0,1,1.35.08c.12-.32.23-.63.34-.95s.21-.64.31-1l3.35.9a18.4,18.4,0,0,1-.75,1.88,7,7,0,0,1,2.93,2.38,6,6,0,0,1,1,3.45,7.33,7.33,0,0,1-3.83,6.69A11.41,11.41,0,0,1,46,476.29ZM38.44,471a6.28,6.28,0,0,0,2.3-1.15,34.84,34.84,0,0,1-.53-3.95,6.72,6.72,0,0,0-2,1.9,4,4,0,0,0-.74,2.28,1.13,1.13,0,0,0,.23.83A.92.92,0,0,0,38.44,471Zm5.28-4a15.61,15.61,0,0,0,1-1.24c.31-.44.6-.9.89-1.39-.37,0-.72,0-1.06.05a8.48,8.48,0,0,0-1,.15C43.54,465.4,43.62,466.21,43.72,467Z" transform="translate(176.81 -310.66)"/><path class="cls-1" d="M73.51,475.12a4.62,4.62,0,0,0-.44-1.16,11.88,11.88,0,0,0-.78-1.31,4.93,4.93,0,0,0-.89-1,9.71,9.71,0,0,0,5.23-2.15,5.48,5.48,0,0,0,1.8-3.85,5.62,5.62,0,0,0-.6-3,6.17,6.17,0,0,0-4.48-3.22,34.15,34.15,0,0,1-.74,4.59,24,24,0,0,1-1.49,4.48,13.09,13.09,0,0,1-2.35,3.61,4.1,4.1,0,0,1-2.23,1.44,4.25,4.25,0,0,1-2.23-.31,5.11,5.11,0,0,1-2-1.51A7.08,7.08,0,0,1,61,469.22a8.68,8.68,0,0,1-.36-3,10.52,10.52,0,0,1,3.75-7.64,11.41,11.41,0,0,1,3.79-2.1,12.29,12.29,0,0,1,4.56-.59,10.37,10.37,0,0,1,3.78.89,9.87,9.87,0,0,1,3.06,2.14,9.1,9.1,0,0,1,2.59,7,8.83,8.83,0,0,1-2.5,6A12.33,12.33,0,0,1,73.51,475.12Zm-7.28-5.78A7.31,7.31,0,0,0,67.79,467,19.65,19.65,0,0,0,69,463.52a23.85,23.85,0,0,0,.67-3.94A7.5,7.5,0,0,0,66.93,461a7.21,7.21,0,0,0-1.86,2.36,7.93,7.93,0,0,0-.78,3,4.48,4.48,0,0,0,.21,1.7,3.09,3.09,0,0,0,.76,1.2A.62.62,0,0,0,66.23,469.34Z" transform="translate(176.81 -310.66)"/><path class="cls-1" d="M101.42,476.37a11.76,11.76,0,0,0-.15-1.24c-.08-.47-.18-.94-.29-1.4a6,6,0,0,0-.36-1.11h1.65a1.41,1.41,0,0,0,.75-.15c.15-.1.23-.32.23-.67V459.29h-4V471.4H87.72V454.47H99.2v1.33h11.08v3.5H107v14.11a2.7,2.7,0,0,1-.91,2.28,4.49,4.49,0,0,1-2.76.7h-1.94Zm-10.5-15.18H92.1v-3.5H90.92Zm0,7H92.1v-3.85H90.92Zm3.93-7H96v-3.5H94.85Zm0,7H96v-3.85H94.85Z" transform="translate(176.81 -310.66)"/><path class="cls-1" d="M128,475.12a4.62,4.62,0,0,0-.44-1.16,11.88,11.88,0,0,0-.78-1.31,4.93,4.93,0,0,0-.89-1,9.71,9.71,0,0,0,5.23-2.15,5.48,5.48,0,0,0,1.8-3.85,5.62,5.62,0,0,0-.6-3,6.17,6.17,0,0,0-4.48-3.22,34.15,34.15,0,0,1-.74,4.59,24,24,0,0,1-1.49,4.48,13.09,13.09,0,0,1-2.35,3.61,4.1,4.1,0,0,1-2.23,1.44,4.25,4.25,0,0,1-2.23-.31,5.11,5.11,0,0,1-2-1.51,7.08,7.08,0,0,1-1.29-2.45,8.68,8.68,0,0,1-.36-3,10.52,10.52,0,0,1,3.75-7.64,11.41,11.41,0,0,1,3.79-2.1,12.29,12.29,0,0,1,4.56-.59,10.37,10.37,0,0,1,3.78.89,9.87,9.87,0,0,1,3.06,2.14,9.1,9.1,0,0,1,2.59,7,8.83,8.83,0,0,1-2.5,6A12.33,12.33,0,0,1,128,475.12Zm-7.28-5.78a7.31,7.31,0,0,0,1.56-2.34,19.65,19.65,0,0,0,1.21-3.48,23.85,23.85,0,0,0,.67-3.94,7.5,7.5,0,0,0-2.74,1.44,7.21,7.21,0,0,0-1.86,2.36,7.93,7.93,0,0,0-.78,3,4.48,4.48,0,0,0,.21,1.7,3.09,3.09,0,0,0,.76,1.2A.62.62,0,0,0,120.76,469.34Z" transform="translate(176.81 -310.66)"/><path class="cls-1" d="M146.72,476.14a14.26,14.26,0,0,0-1.29-1.76c-.51-.6-1.05-1.19-1.62-1.75a11.91,11.91,0,0,0-1.69-1.39l2.33-2.1a14.86,14.86,0,0,1,1.26.95c.46.38.93.8,1.4,1.24s.91.87,1.31,1.29.73.78,1,1.1Z" transform="translate(176.81 -310.66)"/><path class="cls-1" d="M172.59,476.29a8.07,8.07,0,0,0-.51-1.58,6.31,6.31,0,0,0-.89-1.55,7.81,7.81,0,0,0,4.44-1.68,4.32,4.32,0,0,0,1.39-3.3,3.36,3.36,0,0,0-1.6-3,27.18,27.18,0,0,1-2,3.08,21.76,21.76,0,0,1-2.25,2.55c.08.27.18.54.28.81a8.14,8.14,0,0,0,.33.79,7.6,7.6,0,0,0-1.1.4c-.42.18-.81.37-1.19.56a6.24,6.24,0,0,0-.91.54c-.07-.13-.13-.27-.19-.4s-.11-.27-.16-.4a10.36,10.36,0,0,1-2.55,1.09,6,6,0,0,1-2.48.16,2.88,2.88,0,0,1-1.75-1,3.71,3.71,0,0,1-.8-2.58,7.47,7.47,0,0,1,.78-3.39,9.38,9.38,0,0,1,2.14-2.79,11.83,11.83,0,0,1,3.11-2c0-.9,0-1.78.08-2.65-.92.07-1.78.1-2.58.1a15.88,15.88,0,0,1-2-.1l-.23-3.33a22.17,22.17,0,0,0,2.28.16c.88,0,1.82,0,2.8,0q.12-.82.24-1.59c.08-.51.15-1,.24-1.46l3.4.62-.21,1.06c-.07.35-.14.72-.19,1.09,1.18-.13,2.33-.31,3.44-.53a17.79,17.79,0,0,0,2.84-.78l.3,3.2a25.51,25.51,0,0,1-3.1.74c-1.23.23-2.52.4-3.85.54,0,.32,0,.64,0,1s0,.65-.05,1l1.08-.13c.37,0,.73-.05,1.1-.05a12.22,12.22,0,0,1,1.35.08c.12-.32.23-.63.34-.95s.21-.64.31-1l3.35.9a18.4,18.4,0,0,1-.75,1.88,7,7,0,0,1,2.93,2.38,6,6,0,0,1,1.05,3.45A7.33,7.33,0,0,1,177,474.9,11.52,11.52,0,0,1,172.59,476.29ZM165,471a6.28,6.28,0,0,0,2.3-1.15,34.84,34.84,0,0,1-.53-3.95,6.72,6.72,0,0,0-2,1.9,4,4,0,0,0-.74,2.28,1.13,1.13,0,0,0,.23.83A.91.91,0,0,0,165,471Zm5.28-4a15.61,15.61,0,0,0,1-1.24c.31-.44.6-.9.89-1.39-.37,0-.72,0-1.06.05a8.48,8.48,0,0,0-1,.15C170.11,465.4,170.19,466.21,170.29,467Z" transform="translate(176.81 -310.66)"/><path class="cls-1" d="M200.08,475.12a4.62,4.62,0,0,0-.44-1.16,11.88,11.88,0,0,0-.78-1.31,4.93,4.93,0,0,0-.89-1,9.71,9.71,0,0,0,5.23-2.15,5.48,5.48,0,0,0,1.8-3.85,5.62,5.62,0,0,0-.6-3,6.17,6.17,0,0,0-4.48-3.22,34.15,34.15,0,0,1-.74,4.59,24,24,0,0,1-1.49,4.48,13.09,13.09,0,0,1-2.35,3.61,4.1,4.1,0,0,1-2.23,1.44,4.25,4.25,0,0,1-2.23-.31,5.11,5.11,0,0,1-2-1.51,7.08,7.08,0,0,1-1.29-2.45,8.68,8.68,0,0,1-.36-3,10.52,10.52,0,0,1,3.75-7.64,11.41,11.41,0,0,1,3.79-2.1,12.29,12.29,0,0,1,4.56-.59,10.37,10.37,0,0,1,3.78.89,9.87,9.87,0,0,1,3.06,2.14,9.1,9.1,0,0,1,2.59,7,8.83,8.83,0,0,1-2.5,6A12.33,12.33,0,0,1,200.08,475.12Zm-7.28-5.78a7.31,7.31,0,0,0,1.56-2.34,19.65,19.65,0,0,0,1.21-3.48,23.85,23.85,0,0,0,.67-3.94A7.5,7.5,0,0,0,193.5,461a7.21,7.21,0,0,0-1.86,2.36,7.93,7.93,0,0,0-.78,3,4.48,4.48,0,0,0,.21,1.7,3.09,3.09,0,0,0,.76,1.2A.62.62,0,0,0,192.8,469.34Z" transform="translate(176.81 -310.66)"/><path class="cls-1" d="M226.39,476.52v-7.2a27.44,27.44,0,0,1-2.43,2.24c-.87.71-1.73,1.35-2.58,1.93A20.51,20.51,0,0,1,219,474.9a8.83,8.83,0,0,0-.62-1,9.26,9.26,0,0,0-.85-1,4.45,4.45,0,0,0-.88-.75,17.55,17.55,0,0,0,2.19-1.12c.78-.46,1.56-1,2.35-1.55a28.51,28.51,0,0,0,2.23-1.78,20.14,20.14,0,0,0,1.79-1.8h-3.58v3.2h-7.6V456.31h7.6v6.3h4.73v-2.38h-4V457h4v-3.58H230V457h5v3.2h-5v2.38h6.68v3.3h-5.93a16.83,16.83,0,0,0,1.54,1.73c.59.58,1.22,1.15,1.89,1.69s1.32,1,1.95,1.46a17.07,17.07,0,0,0,1.73,1,9.85,9.85,0,0,0-2.55,2.75,19.49,19.49,0,0,1-2.7-2.1,26,26,0,0,1-2.6-2.75v6.78Zm-9.16-10.73h1.28v-6.18h-1.28Z" transform="translate(176.81 -310.66)"/><path class="cls-1" d="M254.53,476.14a16.28,16.28,0,0,1-3.94-.43,6.09,6.09,0,0,1-2.76-1.38,3.3,3.3,0,0,1-1-2.53,3.91,3.91,0,0,1,.72-2.28,7.41,7.41,0,0,1,2-1.86,18.57,18.57,0,0,1,3-1.54V466a1.25,1.25,0,0,0-.41-1,1.72,1.72,0,0,0-1-.4,3.84,3.84,0,0,0-1.89.2,6,6,0,0,0-1.84,1.35l-.85.8L245.38,468l-.91.85-2.65-2.65a14.86,14.86,0,0,0,3.2-2.69A22.88,22.88,0,0,0,247.7,460c-1.77.08-3,.11-3.85.08l-.15-3.5c.58,0,1.37.08,2.36.08s2.05,0,3.19-.08a11.72,11.72,0,0,0,.6-2.85l3.65.2q0,.6-.15,1.2t-.27,1.2c1.18-.08,2.28-.19,3.29-.33a16.76,16.76,0,0,0,2.31-.43l.2,3.38c-.47.08-1.08.17-1.83.26s-1.57.18-2.46.26l-2.76.25c-.17.37-.35.73-.55,1.08s-.41.69-.62,1a6.21,6.21,0,0,1,1.35-.15,4.84,4.84,0,0,1,2.61.71,3.5,3.5,0,0,1,1.46,2.51c.9-.28,1.82-.55,2.76-.79l2.84-.71,1.05,3.4c-1.2.13-2.36.31-3.46.54s-2.14.47-3.09.74v3.2h-3.65v-1.85a7.33,7.33,0,0,0-1.58,1,1.4,1.4,0,0,0-.58,1c0,.52.3.85.9,1a13.24,13.24,0,0,0,3,.24,20.33,20.33,0,0,0,2-.12c.78-.08,1.54-.19,2.3-.31a15.44,15.44,0,0,0,1.91-.41c-.05.3-.1.7-.14,1.19s-.07,1-.09,1.45a10.69,10.69,0,0,0,0,1.14,24.22,24.22,0,0,1-2.81.44C256.44,476.09,255.45,476.14,254.53,476.14Z" transform="translate(176.81 -310.66)"/><path class="cls-1" d="M273.29,476.14a14.26,14.26,0,0,0-1.29-1.76c-.51-.6-1.05-1.19-1.62-1.75a11.91,11.91,0,0,0-1.69-1.39l2.33-2.1a14.86,14.86,0,0,1,1.26.95c.46.38.93.8,1.4,1.24s.91.87,1.31,1.29.73.78,1,1.1Z" transform="translate(176.81 -310.66)"/><path class="cls-1" d="M295.83,474.32a12.28,12.28,0,0,1-3.1-.36,5.28,5.28,0,0,1-2.39-1.35,7.14,7.14,0,0,1-1.66-2.84l3.25-1.85a3.11,3.11,0,0,0,1.23,1.88,4.59,4.59,0,0,0,2.68.65c1,0,2.13-.05,3.28-.16s2.24-.25,3.28-.44a17,17,0,0,0,2.55-.62,9,9,0,0,0,.05,1.31c.05.53.12,1,.21,1.55a8.68,8.68,0,0,0,.29,1.21,16.08,16.08,0,0,1-2.63.55c-1.07.15-2.21.27-3.43.35S297,474.32,295.83,474.32Zm-4.28-14.66v-3.75a9.46,9.46,0,0,0,1.9.38q1.16.12,2.49.15c.89,0,1.78,0,2.66,0s1.71-.11,2.46-.21a10.37,10.37,0,0,0,1.86-.38v3.78a10.81,10.81,0,0,1-1.76.3c-.76.08-1.59.14-2.5.17s-1.83,0-2.75,0-1.77-.06-2.54-.12A11.07,11.07,0,0,1,291.55,459.66Zm14.31.27a12.23,12.23,0,0,0-1.19-1.64,14.69,14.69,0,0,0-1.29-1.36l1.63-1.3c.22.2.49.48.83.85s.66.75,1,1.14.57.72.75,1Zm2.4-1.92a11.56,11.56,0,0,0-1.19-1.63c-.48-.55-.9-1-1.29-1.38l1.63-1.3c.22.2.49.48.83.85s.66.75,1,1.14.57.72.75,1Z" transform="translate(176.81 -310.66)"/><path class="cls-1" d="M315.91,475.67V456.61h5c.13-.38.27-.8.4-1.25s.25-.86.35-1.24a6,6,0,0,0,.17-.74l4.53.38a12.13,12.13,0,0,1-.51,1.21l-.76,1.64h8.18v19.06ZM319.79,462h9.6v-2.13h-9.6V462Zm0,5.25h9.6v-2.1h-9.6v2.1Zm0,5.23h9.6v-2.08h-9.6v2.08Z" transform="translate(176.81 -310.66)"/><path class="cls-1" d="M352.48,476.42a4.23,4.23,0,0,1-2.4-.51,1.94,1.94,0,0,1-.7-1.69v-4.5l-8.78.62-.3-3.35,9.08-.65v-1.48c-.73.1-1.46.19-2.18.26s-1.42.14-2.1.19c-.07-.33-.17-.71-.3-1.12s-.27-.82-.41-1.21a7.87,7.87,0,0,0-.41-1q1.42,0,3.18-.24c1.17-.13,2.35-.29,3.55-.49a33.25,33.25,0,0,0,3.38-.74,15.63,15.63,0,0,0,2.65-1l2.3,2.93c-.83.32-1.75.61-2.74.89s-2,.53-3.06.76v1.9l9.86-.7.3,3.35-10.16.73v2.78a.66.66,0,0,0,.18.53,1.2,1.2,0,0,0,.72.15h3.48a1.7,1.7,0,0,0,1-.23,1.4,1.4,0,0,0,.5-.81,9.31,9.31,0,0,0,.26-1.69,10.22,10.22,0,0,0,1.11.44c.47.16,1,.31,1.46.45l1.25.34a15.44,15.44,0,0,1-.76,3.11,2.75,2.75,0,0,1-1.2,1.5,4.62,4.62,0,0,1-2.14.41h-6.58ZM340.7,461.71v-5.65h9v-2.58h4.2v2.58H363v5.63h-3.75v-2.5H344.53v2.53H340.7Z" transform="translate(176.81 -310.66)"/><path class="cls-1" d="M384.9,475.84a12.09,12.09,0,0,1-4.79-1.56A8.8,8.8,0,0,1,376.9,471a9.22,9.22,0,0,1-1.15-4.65,8.26,8.26,0,0,1,.76-3.44,10.76,10.76,0,0,1,2.16-3.11l-3.76.66c-1.23.22-2.33.44-3.3.64s-1.75.38-2.31.55l-.8-4c.53,0,1.3-.08,2.29-.17s2.12-.24,3.39-.41,2.58-.37,3.94-.58,2.67-.42,3.94-.65,2.4-.45,3.4-.66,1.78-.41,2.33-.58l1,3.73c-.28,0-.63.05-1,.11l-1.36.19a7.51,7.51,0,0,0-2.5.76,8.11,8.11,0,0,0-2.21,1.63,7.66,7.66,0,0,0-1.56,2.35,7.48,7.48,0,0,0-.58,3,4.71,4.71,0,0,0,.95,3,6.21,6.21,0,0,0,2.63,1.83,15.38,15.38,0,0,0,3.83.9,7.4,7.4,0,0,0-.89,1.18,11.07,11.07,0,0,0-.74,1.39A4.64,4.64,0,0,0,384.9,475.84Zm2.1-9.9a11,11,0,0,0-1.19-1.62,18.36,18.36,0,0,0-1.29-1.38l1.6-1.3a9.6,9.6,0,0,1,.85.85c.33.37.66.74,1,1.12a11.34,11.34,0,0,1,.75,1Zm2.4-1.95a12.87,12.87,0,0,0-1.2-1.61,16.09,16.09,0,0,0-1.3-1.36l1.63-1.3a9.6,9.6,0,0,1,.85.85c.33.37.66.74,1,1.12a9,9,0,0,1,.73,1Z" transform="translate(176.81 -310.66)"/></svg>