<svg xmlns="http://www.w3.org/2000/svg" viewBox="0 0 200 200">
    <path fill="#FFFFFF" d="M45.2,-78.4C58.7,-70.4,69.9,-58.6,77.9,-44.9C85.9,-31.2,90.7,-15.6,91.3,0.3C91.9,16.3,88.2,32.5,79.7,45.5C71.3,58.4,58.1,68.1,44,75.4C29.9,82.6,15,87.5,-0.1,87.7C-15.2,87.9,-30.4,83.5,-44.6,76.3C-58.8,69.1,-72.1,59.2,-80,46C-88,32.8,-90.6,16.4,-89.6,0.6C-88.6,-15.3,-84,-30.5,-76.1,-43.9C-68.3,-57.3,-57.4,-68.9,-44.2,-77.1C-31,-85.2,-15.5,-89.9,0.2,-90.2C15.8,-90.5,31.7,-86.4,45.2,-78.4Z" transform="translate(100 100)">
        <animate attributeType="XML" attributeName="d" dur="10s" repeatCount="indefinite" values="M45.2,-78.4C58.7,-70.4,69.9,-58.6,77.9,-44.9C85.9,-31.2,90.7,-15.6,91.3,0.3C91.9,16.3,88.2,32.5,79.7,45.5C71.3,58.4,58.1,68.1,44,75.4C29.9,82.6,15,87.5,-0.1,87.7C-15.2,87.9,-30.4,83.5,-44.6,76.3C-58.8,69.1,-72.1,59.2,-80,46C-88,32.8,-90.6,16.4,-89.6,0.6C-88.6,-15.3,-84,-30.5,-76.1,-43.9C-68.3,-57.3,-57.4,-68.9,-44.2,-77.1C-31,-85.2,-15.5,-89.9,0.2,-90.2C15.8,-90.5,31.7,-86.4,45.2,-78.4Z;
        M45.8,-80.2C58.9,-71.8,68.6,-58.5,75.5,-44.3C82.5,-30.1,86.7,-15.1,86.6,-0.1C86.4,14.9,81.8,29.7,74.3,43.1C66.9,56.4,56.6,68.3,43.7,77.4C30.8,86.6,15.4,93.1,0.3,92.5C-14.8,91.9,-29.5,84.3,-43.2,75.6C-56.8,66.9,-69.4,57.1,-77.6,44.3C-85.9,31.5,-89.9,15.8,-90.3,-0.2C-90.7,-16.2,-87.5,-32.4,-79.6,-45.9C-71.7,-59.4,-59.2,-70.1,-45.2,-77.8C-31.1,-85.6,-15.6,-90.4,0.4,-91.1C16.4,-91.8,32.8,-88.5,45.8,-80.2Z;
        M44.8,-76.1C59.2,-69.2,72.8,-59.5,80.3,-46.4C87.9,-33.2,89.5,-16.6,87.8,-1C86.1,14.7,81.2,29.4,73.8,42.8C66.3,56.2,56.4,68.3,43.7,76.4C30.9,84.5,15.5,88.6,-0.2,88.9C-15.8,89.2,-31.6,85.7,-45,77.9C-58.3,70.2,-69,58.1,-77.1,44.4C-85.2,30.7,-90.5,15.4,-90.5,0C-90.6,-15.4,-85.4,-30.9,-77,-44C-68.6,-57,-57,-67.8,-43.6,-75.3C-30.2,-82.8,-15.1,-87.1,0,-87.2C15.2,-87.2,30.4,-83.1,44.8,-76.1Z;
        M44.3,-76.8C57.4,-69.2,67.8,-57.2,74.9,-43.7C82.1,-30.1,85.9,-15.1,86.3,0.3C86.8,15.6,83.8,31.1,76.9,45C69.9,58.9,59,71,45.5,78C32,84.9,16,86.7,0.7,85.6C-14.7,84.4,-29.4,80.4,-43.5,73.8C-57.7,67.2,-71.3,58.1,-78.8,45.4C-86.4,32.7,-88,16.3,-87.4,0.3C-86.9,-15.7,-84.2,-31.4,-77.4,-45.5C-70.7,-59.6,-59.7,-72,-46.1,-79.2C-32.5,-86.4,-16.2,-88.4,-0.3,-87.8C15.6,-87.3,31.3,-84.3,44.3,-76.8Z;
        M45.2,-78.4C58.7,-70.4,69.9,-58.6,77.9,-44.9C85.9,-31.2,90.7,-15.6,91.3,0.3C91.9,16.3,88.2,32.5,79.7,45.5C71.3,58.4,58.1,68.1,44,75.4C29.9,82.6,15,87.5,-0.1,87.7C-15.2,87.9,-30.4,83.5,-44.6,76.3C-58.8,69.1,-72.1,59.2,-80,46C-88,32.8,-90.6,16.4,-89.6,0.6C-88.6,-15.3,-84,-30.5,-76.1,-43.9C-68.3,-57.3,-57.4,-68.9,-44.2,-77.1C-31,-85.2,-15.5,-89.9,0.2,-90.2C15.8,-90.5,31.7,-86.4,45.2,-78.4Z"/>
    </path>
</svg>