<svg xmlns="http://www.w3.org/2000/svg" viewBox="0 0 537 537"><defs><style>.a{fill:#fff;fill-opacity: 0;}.b{fill:#fc0;}</style></defs><rect class="a" width="537" height="537"/><path class="b" d="M398.25,152,270.86,279.41a9.39,9.39,0,0,1-13.27-13.28h0L369,154.77H320.8a9.39,9.39,0,0,1,0-18.78h70.82a9.39,9.39,0,0,1,6.63,16Z" transform="translate(0 0)"/><path class="b" d="M363.05,364.64H183.71a9.72,9.72,0,0,1-9.72-9.71V175.58a9.72,9.72,0,0,1,9.72-9.71h80a9.71,9.71,0,0,1,0,19.42H193.42V345.22H353.34V275a9.71,9.71,0,1,1,19.42,0v80A9.71,9.71,0,0,1,363.05,364.64Z" transform="translate(0 0)"/></svg>