<svg xmlns="http://www.w3.org/2000/svg" viewBox="0 0 6.24 8.45"><defs><style>.a{fill:#e40000;}</style></defs><path class="a" d="M6,2.88c0-.22.25-.22.25-.44C6.27,1.53,5,1,4.48.79L4.27.72H2L1.82.79C1.32,1,0,1.53,0,2.44c0,.22.25.21.25.44S0,3.11,0,3.33s.25.22.25.44S0,4,0,4.21s.25.22.25.44S0,4.87,0,5.09s.25.22.25.44S0,5.75,0,6C0,6.88,1.3,7.43,1.81,7.62L2,7.7H4.27l.22-.08C5,7.43,6.27,6.88,6.27,6c0-.22-.25-.22-.25-.44s.25-.22.25-.44S6,4.87,6,4.65s.25-.22.25-.44S6,4,6,3.77s.25-.22.25-.44S6,3.1,6,2.88Z" transform="translate(-0.03 0)"/><path d="M1.66,0h3a.21.21,0,0,1,.21.21V1A7.41,7.41,0,0,0,1.43,1V.21A.21.21,0,0,1,1.64,0Z" transform="translate(-0.03 0)"/><path d="M4.64,8.45h-3a.21.21,0,0,1-.21-.21V7.47a7.68,7.68,0,0,0,3.44,0v.77a.21.21,0,0,1-.21.21Z" transform="translate(-0.03 0)"/></svg>