<?xml version="1.0" encoding="utf-8"?>
<!-- Generator: Adobe Illustrator 26.0.0, SVG Export Plug-In . SVG Version: 6.00 Build 0)  -->
<svg version="1.1" id="レイヤー_1" xmlns="http://www.w3.org/2000/svg" xmlns:xlink="http://www.w3.org/1999/xlink" x="0px"
	 y="0px" viewBox="0 0 595.28 841.89" style="enable-background:new 0 0 595.28 841.89;" xml:space="preserve">
<style type="text/css">
	.st0{fill:#040000;}
</style>
<g>
	<path class="st0" d="M476.98,300.11c-3.84-4.69-9.58-7.42-15.65-7.42H197.88l-8.97-30.81l-0.01-0.02
		c-4.11-13.79-15.42-24.23-29.49-27.24l-32.2-6.9c-5.45-1.17-10.82,2.31-11.99,7.76c-1.17,5.45,2.31,10.82,7.75,11.99l32.21,6.9
		c6.85,1.47,12.36,6.56,14.37,13.28l58.85,202.18c-1.32,0.62-2.61,1.29-3.84,2.03c-6.34,3.78-11.42,9.09-14.85,15.28
		c-3.26,5.89-4.99,12.56-5.15,19.45h-0.03v1.05h0.03c0.13,5.37,1.27,10.54,3.26,15.24c3.19,7.52,8.48,13.89,15.16,18.4
		c6.66,4.51,14.77,7.16,23.4,7.15h189.3c5.58,0,10.1-4.52,10.1-10.1c0-5.58-4.52-10.1-10.1-10.1h-189.3c-3.01,0-5.84-0.6-8.42-1.69
		c-3.88-1.64-7.2-4.39-9.53-7.86c-2.25-3.32-3.57-7.25-3.67-11.55c0.11-5.13,1.74-9.58,4.61-13.14c1.49-1.84,3.34-3.45,5.56-4.78
		c2.19-1.31,4.79-2.35,7.83-3.01l190.28-30.97c12.44-2.03,22.32-11.53,24.83-23.87l23.27-114.42l0.01-0.01
		c0.26-1.33,0.4-2.68,0.4-4.02C481.54,308.28,479.96,303.76,476.98,300.11z M438.07,427.32c-0.83,4.12-4.13,7.29-8.28,7.97
		L248,464.88l-44.24-151.98h257.58l0.01,0.01L438.07,427.32z"/>
	<path class="st0" d="M269.75,564.87c-4.44-3.01-9.85-4.77-15.6-4.77c-3.83,0-7.51,0.78-10.84,2.2c-5.02,2.12-9.25,5.65-12.26,10.09
		c-3,4.43-4.77,9.84-4.77,15.58c0,3.83,0.79,7.52,2.2,10.86c2.12,5.01,5.64,9.25,10.08,12.25c4.44,3,9.84,4.77,15.58,4.77
		c3.83,0.01,7.52-0.78,10.86-2.2c5.01-2.12,9.25-5.64,12.25-10.08c3.01-4.44,4.78-9.85,4.77-15.6c0.01-3.83-0.77-7.51-2.19-10.84
		C277.71,572.12,274.19,567.88,269.75,564.87z M264.52,592.36c-0.84,2-2.29,3.73-4.08,4.95c-1.8,1.22-3.93,1.91-6.29,1.92
		c-1.57,0-3.03-0.32-4.37-0.88c-2.01-0.84-3.73-2.29-4.95-4.08c-1.22-1.8-1.91-3.92-1.91-6.28c0-1.57,0.31-3.03,0.88-4.37
		c0.85-2.01,2.29-3.74,4.08-4.95c1.8-1.22,3.92-1.91,6.27-1.92c1.58,0.01,3.04,0.32,4.38,0.88c2,0.85,3.74,2.28,4.95,4.08
		c1.21,1.8,1.91,3.92,1.92,6.27C265.4,589.56,265.08,591.01,264.52,592.36z"/>
	<path class="st0" d="M422.62,564.87c-4.44-3.01-9.85-4.77-15.6-4.77c-3.83,0-7.51,0.78-10.85,2.2c-5.02,2.12-9.25,5.65-12.25,10.09
		c-3,4.43-4.77,9.84-4.77,15.58c0,3.83,0.78,7.52,2.19,10.86c2.13,5.01,5.65,9.25,10.09,12.25c4.44,3,9.85,4.77,15.59,4.77
		c3.83,0.01,7.52-0.78,10.86-2.2c5.01-2.12,9.25-5.64,12.25-10.08c3-4.44,4.77-9.85,4.77-15.6c0-3.83-0.77-7.51-2.19-10.84
		C430.58,572.12,427.06,567.88,422.62,564.87z M417.38,592.36c-0.84,2-2.28,3.73-4.08,4.95c-1.8,1.22-3.92,1.91-6.27,1.92
		c-1.57,0-3.03-0.32-4.37-0.88c-2.01-0.84-3.74-2.29-4.96-4.08c-1.21-1.8-1.91-3.92-1.91-6.28c0-1.57,0.31-3.03,0.88-4.37
		c0.85-2.01,2.28-3.74,4.08-4.95c1.8-1.22,3.92-1.91,6.27-1.92c1.57,0.01,3.03,0.32,4.37,0.88c2,0.85,3.74,2.28,4.95,4.08
		c1.21,1.8,1.91,3.92,1.91,6.27C418.25,589.56,417.94,591.01,417.38,592.36z"/>
</g>
</svg>
