<svg xmlns="http://www.w3.org/2000/svg" viewBox="0 0 537 537"><defs><style>.a{fill:none;}</style></defs><rect class="a" width="537" height="537"/><path d="M7341.56-7262.4l-84.75-84.75a10,10,0,0,0-14.2,0L7073-7177.58h0a9.17,9.17,0,0,0-.87,1l-.18.25a10.13,10.13,0,0,0-.68,1.07.08.08,0,0,0,0,.05,8.8,8.8,0,0,0-.55,1.22l-.09.25a10.84,10.84,0,0,0-.34,1.24.43.43,0,0,0,0,.05v.06l-21.11,105.89a10,10,0,0,0,2.74,9.06,10.07,10.07,0,0,0,7.1,2.94,10.11,10.11,0,0,0,2-.19l105.89-21.2h.06l.21,0,.75-.19.34-.12c.2-.07.39-.13.58-.21l.43-.2.46-.22c.17-.09.33-.19.49-.29l.35-.21c.19-.13.37-.27.55-.41l.24-.18q.35-.28.66-.6l.08-.07h0a9.59,9.59,0,0,0,.68-.75c.09-.11.16-.23.25-.34s.22-.29.32-.45.24-.38.35-.58a2.07,2.07,0,0,0,.15-.25c.1-.19.19-.38.28-.58s.1-.2.14-.31.13-.34.19-.51.1-.28.14-.42.07-.28.11-.42a4.72,4.72,0,0,0,.13-.54c0-.1,0-.21,0-.32s.07-.43.09-.65,0-.18,0-.27,0-.46,0-.7,0-.31,0-.46,0-.34,0-.51q-.06-.49-.15-1h0c0-.05,0-.1,0-.15-.06-.27-.12-.54-.2-.81l-.12-.32c-.07-.2-.13-.41-.22-.61s-.12-.27-.19-.4a5.24,5.24,0,0,0-.23-.48c-.08-.16-.18-.31-.27-.47l-.23-.37c-.12-.18-.25-.35-.38-.52l-.21-.27a7,7,0,0,0-.52-.57l-.14-.16,0,0h0l-77.68-77.61,155.37-155.38,28.22,28.22-132.5,132.42a10,10,0,0,0,0,14.2,10,10,0,0,0,7.1,2.94,10,10,0,0,0,7.09-2.94l132.5-132.43,28.21,28.21L7189.57-7122a10,10,0,0,0,.14,14.2,10,10,0,0,0,14.19-.13l137.73-140.35A10,10,0,0,0,7341.56-7262.4Zm-255.24,112.28,58.28,58.23-72.8,14.57Z" transform="translate(-6931.5 7468.5)"/></svg>