<svg xmlns="http://www.w3.org/2000/svg" viewBox="0 0 182.24 313.59"><defs><style>.a{fill:#8a3e22;}</style></defs><path class="a" d="M182.24,244.89c-1.31,1-2.57,2.12-3.93,3.07a10.06,10.06,0,0,1-3.77,1.95,3.66,3.66,0,0,0-.44.13,6.07,6.07,0,0,1-6.8-1.56,23.34,23.34,0,0,1-2.66-3,35.26,35.26,0,0,1-2-3.54,9.8,9.8,0,0,1-.71-1.41c-.74-2.06-1.47-4.13-2.16-6.21a16.48,16.48,0,0,1-.41-2,20.26,20.26,0,0,1-3.84-1.69,17.86,17.86,0,0,1-2.19-1.09,17.68,17.68,0,0,1-1.88-1.56c-.58-.57-.21-1.74.64-2.22a36,36,0,0,1,3.26-1.55c.7-.31,1.46-.5,2.17-.79a14.3,14.3,0,0,0,1.27-.69,4.46,4.46,0,0,0,1.51-1.66c.34-.55.74-1.07,1.08-1.63a1.78,1.78,0,0,0,0-1.94c-.31-.53-.56-1.09-.87-1.7h-1.76a5.12,5.12,0,0,1-3.73-1.44.7.7,0,0,0-.93-.09,2.41,2.41,0,0,1-2.56,0c-.55-.35-1.13-.64-1.7-1a1,1,0,0,0-1.28,0,15.91,15.91,0,0,1-5.87,2.79,31.65,31.65,0,0,1-5,.91c-2,.12-3.89.3-5.83.35a13.15,13.15,0,0,1-2.08-.15,16.9,16.9,0,0,1-4.88-.95c-.9-.41-1.76-.91-2.64-1.38-.16-.08-.29-.24-.46-.31a2.13,2.13,0,0,1-1.37-2c-1.15-.51-2.32-1-3.48-1.52a2.08,2.08,0,0,1-1.37-1.58l1-1.21h-2.5c-.13,0-.25,0-.37,0-1.37-.11-2.73-.24-4.09-.32-.64,0-1.26-.43-1.92-.12-.75-.53-1.72.13-2.45-.47a20.39,20.39,0,0,1-4.33-.71,28.21,28.21,0,0,1-3.47-.93c-1.54-.47-3.09-.93-4.61-1.48a22.81,22.81,0,0,1-3.08-1.35,52.35,52.35,0,0,1-4.55-2.75,14.11,14.11,0,0,1-3.5-3.31,3.75,3.75,0,0,1-.48-3.31,7.73,7.73,0,0,1,3.17-4.26,15.58,15.58,0,0,1,5.12-2.39,2.73,2.73,0,0,0,1.2-.81c.7-.71,1.24-1.73,2.45-1.76,1.11-.9,2.53-1.4,3.25-2.81a7.6,7.6,0,0,1,3.09-3,7.71,7.71,0,0,1,2.23-1.09,6.29,6.29,0,0,1,1.22-.11,8.27,8.27,0,0,1,2.39.25c1.53.45,3.17.45,4.6,1.34a10,10,0,0,0,2.38.71,3.54,3.54,0,0,0,3-.71,6.72,6.72,0,0,1,3.34-1,4.42,4.42,0,0,0,2.11-.62c2.06-1.16,3.93-2.6,5.87-3.94.91-.62,1.56-1.51,2.46-2.12s1.94-1.36,2.89-2.08c.27-.2.4-.57.68-.75.89-.61,1.6-1.43,2.45-2.06a28.26,28.26,0,0,0,3.07-2.81c.75-.74,1.56-1.41,2.31-2.14.42-.41.78-.88,1.17-1.32.56-.65,1.13-1.3,1.68-2q1.16-1.38,2.28-2.79c.66-.81,1.35-1.61,1.94-2.47,1-1.45,2-2.93,2.92-4.42.78-1.23,1.5-2.5,2.27-3.74,1-1.56,2-3.1,3-4.65,0-.08.14-.18.12-.24-.29-.86.47-1.17.88-1.63a16.64,16.64,0,0,1,3-2.06l.38-.24a8.45,8.45,0,0,0-2.44-1.88,3.17,3.17,0,0,1-1.56-1.42c-.9-1.38-1.81-2.75-2.69-4.14-.7-1.1-1.35-2.24-2.06-3.34-.37-.58-.82-1.1-1.21-1.66-.26-.38-.48-.78-.79-1.29a9.13,9.13,0,0,1,1.33-1,4.54,4.54,0,0,0,2.39-2.79,10.21,10.21,0,0,0,.56-4,2.49,2.49,0,0,0-.09-.46s-.08-.08-.2-.2c-.22.17-.54.3-.67.53a2.28,2.28,0,0,1-1.14.92c-.6.32-1.15.74-1.75,1.06a31.11,31.11,0,0,1-6.31,2.48,13.31,13.31,0,0,1-4.62.15c-.65,0-.79-.39-.74-1.07a3.71,3.71,0,0,0-.22-1.06c-.24.14-.47.19-.58.34a26.16,26.16,0,0,1-4.89,4.57,18.1,18.1,0,0,1-2.36,1.5,34.77,34.77,0,0,1-6.66,3.18,23.07,23.07,0,0,1-6.5,1.22,13.21,13.21,0,0,1-5.74-1.06,4.81,4.81,0,0,1-.51-.25c-.71-.41-1.47-.81-1.09-1.91-.88-.18-1.71-.29-2.5-.53-1.21-.37-2.49-.63-3.32-1.74a.52.52,0,0,0-.21-.18c-1.6-.63-2-2-2.17-3.51a2.2,2.2,0,0,0-.92-1.73c-.42-.3-.72-.85-1.18-1s-1,0-1.57,0c-1.41-.22-2.83-.46-4.22-.77-1.06-.24-2.08-.64-3.14-.92a14.5,14.5,0,0,1-4.42-2.1,2,2,0,0,0-.58-.28A5.45,5.45,0,0,1,83,110.05c-1.17-1.11-1.15-1.13-2.72-1a6.14,6.14,0,0,1-5.38-3.38A8.37,8.37,0,0,1,74,102c-4.44-1.71-6.37-4.8-5.39-9.51a5.38,5.38,0,0,1-2.27-5A12,12,0,0,1,68,81.81a20.52,20.52,0,0,1,3.81-4.67,9.17,9.17,0,0,1,4.6-2.29c1-.21,2-.48,3-.61a17.53,17.53,0,0,1,2.29,0,1.27,1.27,0,0,0,.27,0,5.9,5.9,0,0,1,2.83.19,1.77,1.77,0,0,0,1.39-.33,9,9,0,0,1,1.72-.71l2.94-1.11a8.13,8.13,0,0,0,.79-2.68,28.62,28.62,0,0,1,.6-3.65c.2-1,.47-2,.72-3a5.28,5.28,0,0,1,.31-.78,3.29,3.29,0,0,0,.21-.42,21.51,21.51,0,0,1,.9-2.71A20.46,20.46,0,0,1,95,57c.66-1.69,1.36-3.37,2-5.05s1.32-3.34,2.07-5c.59-1.3,1.39-2.5,2-3.79a38.89,38.89,0,0,1,2.11-3.86,43.72,43.72,0,0,1,3.41-4.71A25.39,25.39,0,0,1,110.32,31c.46-.37,1-.68,1.45-1,.86-.6,1.71-1.2,2.58-1.77.67-.44.73-.49.47-1.29-.41-1.28-.86-2.54-1.29-3.81-.16-.49-.29-1-.45-1.49-.38-1.19-.8-2.36-1.17-3.55s-.7-2.32-1-3.49A18.57,18.57,0,0,1,110,10a9.61,9.61,0,0,0-1.3-3.87A20.6,20.6,0,0,1,107,1.15a6.59,6.59,0,0,1,0-1.09h1.41a12.46,12.46,0,0,1,.36,1.25A18.8,18.8,0,0,0,110,5.6a21.74,21.74,0,0,1,.86,2.85,1.45,1.45,0,0,0,.76,1,19.23,19.23,0,0,0,5.06,2.06c.54.12,1,.38,1.58.51,1,.25,2,.5,3.09.67a18.91,18.91,0,0,0,2.14.15c1,.05,2,.07,3,.13.45,0,.85-.45,1.33-.13,1.16-.39,2.4-.38,3.58-.75.94-.29,1.81-.76,2.75-1a17.64,17.64,0,0,0,2.24-1.16A7.63,7.63,0,0,0,139,8c.43-.48,1.07-.67,1.55-1.13,1.14-1,2.42-1.93,3.58-2.95a21.71,21.71,0,0,0,2.24-2.36,5.54,5.54,0,0,0,.62-1.47c-.08.05,0,0,.07,0,1.63-.14,1.68-.07,1.28,1.5a3.7,3.7,0,0,0,0,.75l.82-.13a3.72,3.72,0,0,1,2.65,0c.05,0,.14,0,.18.06,1,.94,2.23.81,3.47,1a12.23,12.23,0,0,0,4.06-.2,12.94,12.94,0,0,0,2.92-1.15,10.88,10.88,0,0,0,2.1-1.2,4.62,4.62,0,0,1,3.39-.61,2.42,2.42,0,0,1-1,.87,5.26,5.26,0,0,0-1,.94A9.41,9.41,0,0,1,164,3.25a9.92,9.92,0,0,1-1.45.63,15,15,0,0,1-6.53.84h-.56s-.05,0-.06,0c.24,1.53.51,3,.7,4.57a9.91,9.91,0,0,1-.66,4.42c.13.08.16.11.18.11a10.63,10.63,0,0,1,5-.16c1.4.13,2.79.33,4.16.59,2,.38,4,.83,6,1.27a14.32,14.32,0,0,1,2.63.69,12.77,12.77,0,0,1,3.22,1.41c.45.35,1.12.43,1.6.86a2,2,0,0,0,1.22.59c.49,0,.92.68,1.36,1.07s1,.91,1.45,1.37v3c-.33-.4-.67-.81-1-1.22a8.65,8.65,0,0,0-3.32-3c-1.11-.48-2.11-1.22-3.22-1.7A35.74,35.74,0,0,0,170.34,17a36.38,36.38,0,0,0-4.38-1c-1.59-.26-3.21-.32-4.8-.58a43.83,43.83,0,0,0-6.37-.3.77.77,0,0,0-.47.24,5.77,5.77,0,0,0-.61.7,13.9,13.9,0,0,1-2.46,2.09l-1.52.72c.15.68.25,1.29.41,1.88a17.68,17.68,0,0,1,.33,7.24,25.73,25.73,0,0,1-2.41,7.85,19,19,0,0,1-4.39,5.63,3.08,3.08,0,0,1-.46.31,19.44,19.44,0,0,1-2.3,1.38,10.44,10.44,0,0,1-2.59.94,12.22,12.22,0,0,0-1.21.32c.19.49.35.92.53,1.35.82,1.91,1.66,3.82,2.46,5.74.63,1.51,1.23,3,1.83,4.56s1,2.76,1.59,4.14c.21.55.49,1.07.68,1.62.48,1.41.92,2.83,1.39,4.25.24.73.51,1.46.74,2.2.35,1.15.71,2.3,1,3.47.47,1.9.89,3.81,1.33,5.72.11.5.2,1,.32,1.61.29-.18.44-.27.58-.37.64-.43,1-1.22,1.78-1.45a.48.48,0,0,0,.21-.17c.55-.64,1.13-1.26,1.62-1.93.71-1,1.82-1.53,2.37-2.71.45-1,1.36-1.72,1.88-2.72.43-.81,1-1.53,1.48-2.32a35.56,35.56,0,0,0,1.86-3.29c.63-1.4,1.1-2.87,1.65-4.31a23.83,23.83,0,0,0,.85-3,35.5,35.5,0,0,0,.85-4.1c.23-2.13.58-4.25.68-6.39a46.39,46.39,0,0,0-.62-10c-.23-1.32-.49-2.64-.74-4-.08-.41-.11-.79.51-1a13.77,13.77,0,0,1,.54,1.4c.22.81.37,1.64.55,2.46a45.68,45.68,0,0,1,1,6.25c.08,1.13.14,2.27.16,3.4a49.06,49.06,0,0,1-.05,5.69,32.43,32.43,0,0,1-.9,5.94c-.47,1.59-.81,3.22-1.23,4.82a27.82,27.82,0,0,1-2.4,5.84c-.22.44-.28,1-.62,1.33-.71.65-.87,1.6-1.47,2.31a42.59,42.59,0,0,1-3.05,4c-.91.89-1.55,2.06-2.5,2.94a16.68,16.68,0,0,1-1.88,1.79c-.42.28-.54.72-.91,1-.55.41-1.05.86-1.58,1.28-.77.61-1.53,1.24-2.33,1.8s-1.92,1.24-2.88,1.85c-.36.23-.72.47-1.09.69-1,.56-1.89,1.14-2.85,1.66-.6.32-1.29.48-1.86.85a18.5,18.5,0,0,1-5,1.77c-.52.16-1.05.3-1.7.48a6.33,6.33,0,0,0,.54.53,10.18,10.18,0,0,1,1.49,1.09,21,21,0,0,1,2.89,3.27c.44.76.95,1.48,1.41,2.23a12.69,12.69,0,0,1,1.32,2.5c.39,1.11.95,2.16,1.34,3.26a27.61,27.61,0,0,1,1.39,7.25,10.41,10.41,0,0,1-.56,4.13,2.14,2.14,0,0,1-1.13,1.42,7.22,7.22,0,0,0-1.25.81,3.57,3.57,0,0,0-.45.52,13.51,13.51,0,0,0,3.49-.25,20.79,20.79,0,0,0,2.41-1c.86-.4,1.77-.72,2.64-1.11a5.32,5.32,0,0,0,1.44-.8A5.83,5.83,0,0,1,150,114a12.41,12.41,0,0,0,3-2,.91.91,0,0,0,.2-.66,7.9,7.9,0,0,0-.35-1.53,27.4,27.4,0,0,0-1-2.79,4.18,4.18,0,0,1-.58-1.35c0-.24-.33-.49-.55-.68s-.81-.42-1.06-.74A6.57,6.57,0,0,1,148.26,99a36.94,36.94,0,0,1,1-4.21,5.13,5.13,0,0,1,.6-1.25,1.16,1.16,0,0,0-.12-1.51c-.18-.21-.39-.39-.58-.59a14.84,14.84,0,0,0-3.07-2.85,9.94,9.94,0,0,1-1.28-1,3.11,3.11,0,0,1-.41-.53l.12-.17a8,8,0,0,1,1.19.43,17.87,17.87,0,0,1,4.36,3.48c.22.23.42.51.78.36a.73.73,0,0,0,.44-.74,2.29,2.29,0,0,1,.77-1.54,15.14,15.14,0,0,0,1.29-1.67c.29-.4.57-.8.88-1.19a14.77,14.77,0,0,0,1.34-1.64,14.3,14.3,0,0,1,1.9-2.2,17.17,17.17,0,0,1,2.27-1.86c.14-.12.35-.2.43-.35.5-1,1.7-.93,2.39-1.68.24-.26.79-.28,1-.7a.82.82,0,0,1,.46-.29c.7-.22,1.4-.48,2.09-.67a14.52,14.52,0,0,1,3.32-.88,1.06,1.06,0,0,0,.57-.28,1.61,1.61,0,0,1,1.48-.31,1.55,1.55,0,0,0,1,0,2.35,2.35,0,0,1,2-.22.91.91,0,0,0,.64.06c.67-.37,1.3-.09,2,0a.77.77,0,0,0,.54,0c.47-.35.94-.14,1.4-.06a15.9,15.9,0,0,1,1.68.43c.52.17,1,.39,1.53.59v2.82l-2.07-1c-.16-.08-.34-.24-.47-.21a4.18,4.18,0,0,1-1.89-.29,3.56,3.56,0,0,0-1.08,0c-.25,0-.53.18-.72.09-1-.42-2,0-2.92,0a19,19,0,0,0-3.56.64,24.31,24.31,0,0,0-2.89.93c-.77.3-1.47.77-2.23,1.09a14.29,14.29,0,0,0-3.33,2.07,17.19,17.19,0,0,0-2.26,2,46.73,46.73,0,0,0-3.34,3.72,31.21,31.21,0,0,0-2.78,4.44c-.22.46-.42.95-.67,1.4-.35.63-.78,1.21-1.12,1.85a9.15,9.15,0,0,0-.45,1.21,13.89,13.89,0,0,0-.92,3.76,7.59,7.59,0,0,0,.14,1.13l.88-.66a3.2,3.2,0,0,1,.5-.41A15.89,15.89,0,0,1,155.3,99a39.77,39.77,0,0,1,4.52-.47c.34,0,.76.13,1,0s.24-.59.35-.9.19-.46.29-.69a19.71,19.71,0,0,1,2.64-4.8,7.41,7.41,0,0,0,.56-1c-1.22-.34-2.34-.7-3.47-.94s-2.14-.33-3.22-.48a.94.94,0,0,1-.34-.08.43.43,0,0,1,0-.76,1.19,1.19,0,0,1,.6-.22c1.1.07,2.2.21,3.3.28s2.38.73,3.65.66c.19,0,.38.16.55.24L171,85c-.15-.11-.27-.27-.43-.32-1.42-.45-2.85-.87-4.28-1.31a7.89,7.89,0,0,1-1-.28c-.25-.1-.4-.31-.14-.68a15.08,15.08,0,0,1,1.61.08c1,.13,2,.29,2.94.49a14.62,14.62,0,0,1,1.94.52c.84.29,1.64.56,2.41-.16a1.89,1.89,0,0,1,.6-.24,17,17,0,0,0,2-.84c.59-.33,1.08-.83,1.65-1.22.29-.2.81-.51,1-.4.45.32.7,0,1-.14.67-.37,1.33-.77,2-1.16v1.5a3,3,0,0,0-.7.23c-.88.58-1.73,1.19-2.61,1.77-.33.22-.69.38-1,.58l-2.06,1.19c.66.68,1.31,1.26,1.85,1.92s1.63,1.39,1.86,2.66a6.36,6.36,0,0,0,.75-.39c.38-.28.7-.83,1.09-.87.65-.08.7-.48.85-.89v3l-1.32.44,1.32,1.25v2.44c-.6-.75-1.18-1.51-1.8-2.23a.93.93,0,0,0-1.4-.2.94.94,0,0,1-1.14,0,2.93,2.93,0,0,0-.55-.19c-.14.21-.32.38-.34.57,0,.54-.33.74-.84.81-.24,0-.46.25-.79.45.24.25.39.44.56.59s.39.21.54.36c.55.54,1,1.14,1.63,1.63s1.47,1.15,1.26,2.41a22.94,22.94,0,0,0,2.87-1.8v1.69l-2.71,1.42c-.48.26-.79.26-.88-.17-.17-.87-.85-1.28-1.4-1.81-1.16-1.11-2.16-2.41-3.73-3a.89.89,0,0,0-.94.07c-.77.57-1.52,1.16-2.26,1.77a6.89,6.89,0,0,0-1.67,2,.79.79,0,0,1-.67.33c-.34-.07-.45-.42-.37-.76a2.39,2.39,0,0,1,.25-.6,13.12,13.12,0,0,1,2.74-3.25,5.37,5.37,0,0,0,.63-.78l-4.82-1.78c-1.75,2.1-3.55,4.11-4.44,6.86a10.72,10.72,0,0,0,1.09.21c.46.06.93,0,1.39.12s1.07.28,1.61.37c.94.15,1.9.23,2.83.41a11.45,11.45,0,0,1,2.33.63,28.1,28.1,0,0,0,3.08,1.08,5,5,0,0,1,.91.41c.17.08.29.24.46.29a11.77,11.77,0,0,1,3.25,1.47c.25.16.65.37.85.28.51-.25.76.1,1.06.31.49.34.94.75,1.41,1.13v4.13a2.05,2.05,0,0,0-.4-.23l-2.39-.56-.15.64c-.89.36-1.74-.5-2.57.1,0,0-.11,0-.17-.06a16.27,16.27,0,0,1-1.7-.76,21.26,21.26,0,0,1-4.74-3.58,12.52,12.52,0,0,1-2.39-3.11,1.58,1.58,0,0,0-1.3-.9l-1.11-.16c-.52-.08-1-.2-1.55-.24s-.53.21-.34.59a1.41,1.41,0,0,0,.25.4c1,1.14,2.08,2.3,3.14,3.42a17.92,17.92,0,0,0,1.45,1.3,9.78,9.78,0,0,0,1.89,1.48c1.4.65,2.49,1.82,4,2.31a14,14,0,0,1,1.78.75c.41.21,1,.13,1.25.66.11.18.56.2.86.25a11.66,11.66,0,0,1,1.46.2,4.38,4.38,0,0,0,2.75-.06v1.31a15.13,15.13,0,0,1-4.59-.56c-.17,0-.37,0-.56,0a17.21,17.21,0,0,1-1.9-.36,23.65,23.65,0,0,1-5.78-3.14c-.75-.48-1.34-1.19-2.06-1.73a20.94,20.94,0,0,1-5.27-6.13,1.82,1.82,0,0,0-1.43-1,5.79,5.79,0,0,0-1,0,6.43,6.43,0,0,1-1.57.06,4.66,4.66,0,0,0-1.75.11l-.9.1a9.75,9.75,0,0,0-3.8,1.18c-.66.39-.68.42-.42,1.11s.67,1.6,1.05,2.37.82,1.34,1.1,2a16.66,16.66,0,0,1,.71,2.6,25.48,25.48,0,0,1,.76,4,13.73,13.73,0,0,1-.65,5.34,4.83,4.83,0,0,1-1.5,2.21c-.53.41-1.11.76-1.71,1.17.46.67.91,1.36,1.39,2,.63.89,1.31,1.74,1.92,2.65s1.22,2,1.85,2.92a19.59,19.59,0,0,0,4.47,4.66,4.87,4.87,0,0,0,2.09.9,7,7,0,0,0,3.37-.37c1.27-.38,2.54-.8,3.78-1.29a12.23,12.23,0,0,0,2.4-1.2c1.09-.74,1.31-.53,2,.19a19.82,19.82,0,0,1,2.8,3.69.91.91,0,0,0,.58.37,13.59,13.59,0,0,0,3.66,0,1.74,1.74,0,0,0,1-.45v1.69c-.59.05-1.18.14-1.76.15s-.92-.12-1.33.27c-.12.12-.42.1-.62.07a6.8,6.8,0,0,1-2.84-1l0,0a3.72,3.72,0,0,1-.51-1.26,1.57,1.57,0,0,0-.47-1.15c-.27-.3-.5-.63-.75-.95-.44-.59-.46-.63-1.15-.33-1.07.47-2.12,1-3.07,1.43-.18.35-.25.7-.46.84-.41.26-.38-.37-.49-.4-1.26.33-2.36.66-3.48.9a5.69,5.69,0,0,1-3.75-.17c-1-.46-1.58-.27-2.41.72l.26.24c.25.24.29.52,0,.7a.42.42,0,0,1-.67-.27,2.81,2.81,0,0,0-.25-.48c-.55.71-1.35,1.06-1.7,1.87a2.24,2.24,0,0,0,.26.11c.31,0,.57.11.52.5a.42.42,0,0,1-.55.37c-.38-.07-.58.16-.76.42-.5.77-1,1.52-1.5,2.32-1.05,1.86-2.05,3.75-3.1,5.62-.18.32-.34.56-.13.94s.09.66-.28.64c-.56,0-.75.29-1,.67-.45.7-.91,1.39-1.38,2.08s-1.05,1.61-1.63,2.37S146,157,145.4,157.79c-.31.38-.57.81-.9,1.19-.82.93-1.65,1.84-2.5,2.75s-1.53,1.62-2.33,2.4-1.87,1.81-2.85,2.67c-1.25,1.1-2.56,2.13-3.79,3.26a19,19,0,0,1-2,1.51,13.47,13.47,0,0,1-2.26,1.62c-.46.22-1,.41-1.21,1a.37.37,0,0,1-.28.21c-.86-.05-1.19.71-1.77,1.06.17.77.06,1-.42.9-1-.26-1.42.5-2.16,1,.23.11.36.13.41.21a1.23,1.23,0,0,1,.23.54c0,.08-.22.27-.32.25a.78.78,0,0,1-.44-.26,2.23,2.23,0,0,1-.22-.44c-.79.52-1.77.73-1.91,1.86a.84.84,0,0,0,.24,0c.39-.08.74,0,.7.46s-.38.45-.71.31-.53.06-.78.29a2.22,2.22,0,0,0-.54,1.62c-.41.27-1.22,0-1.09.85a8.56,8.56,0,0,0,1.89.47,16.58,16.58,0,0,1,2.82.57c.62.13,1.2.24,1.66-.39a.41.41,0,0,1,.74.13,2.19,2.19,0,0,0,1.43,1.2c1,.31,1.92.61,2.89.86a1.33,1.33,0,0,0,.85-.14c.53-.3.5-.32.9.21a1.19,1.19,0,0,0,.57.4c1,.32,2.09.61,3.14.91a5.47,5.47,0,0,0,2.65.25,19.88,19.88,0,0,0,3.16-1.06c.71-.28,1.36-.72,2.05-1s1.58-.75,1.6-1.88a2,2,0,0,0,2.43-.91c-.16-.15-.37-.25-.4-.4a.81.81,0,0,1,.1-.64c.21-.2.47-.07.6.2s.11.31.18.49a66.9,66.9,0,0,0,9.52-9.67c-.54-.45-.66-.75-.41-1,.43-.35.64.09.9.34l1.46-1.34-.22-.08c-.06-.3-.26-.68-.15-.87.33-.53.69.17,1.18.06.19-.28.63-.62.65-1a10.51,10.51,0,0,1,.52-2,12.61,12.61,0,0,0,.28-1.36c0-.42.08-.84-.48-1.08s-.39-.43,0-.77a2,2,0,0,1,.23-.14c.11-.71-.29-1.42.37-2.06a2.86,2.86,0,0,1,.24.55c.21.92.38,1.84.59,2.74.09.39.19.76.69.9s.58.45.18.79a.66.66,0,0,0-.26.8,22,22,0,0,0,.87,2.26c.4.79.57,1.74,1.46,2.22a.38.38,0,0,1,.14.32c-.28,1,.64,1.37.89,2.2.18-.21.26-.38.38-.41a2.9,2.9,0,0,1,.66,0,3.43,3.43,0,0,1-.16.65c-.07.14-.25.24-.45.43.79.46,1.06,1.29,1.74,1.81a9.47,9.47,0,0,1,1.4,1.55c.17.22.33.37.66.19a1.3,1.3,0,0,1,.66-1,2.47,2.47,0,0,0,1.16-2c.78,0,.74-.81,1.15-1.17,0-.11,0-.14,0-.17s-.09-.16-.14-.24a9,9,0,0,1-1.18-7.5,11.16,11.16,0,0,0,.41-1.8c0-.43.06-.78.48-1,.17-.1.25-.35.36-.53a7,7,0,0,1,1.08-1.6c.49-.42.48-1.22,1.31-1.39.43-.1.72-.72,1.12-1a3.93,3.93,0,0,1,2.3-1.24c.13,0,.3,0,.36-.09a1.64,1.64,0,0,1,1.61-.47,3,3,0,0,0,.91-.19v1.87a6.23,6.23,0,0,0-2.74.64,9.75,9.75,0,0,0-2.78,2.07,10.51,10.51,0,0,0-2.7,4.35,8.38,8.38,0,0,0-.39,4.82,6.38,6.38,0,0,0,.74,2,4,4,0,0,1,.91,1.86c0,.3.2.66.08.88a26.91,26.91,0,0,1-1.77,3.62,5,5,0,0,0-1.25,2.61c0,.16-.18.32-.27.48-.2.38-.4.76-.58,1.14s-.2.78-.43.91c-.56.29-.48.86-.76,1.27-.18.25-.22.59-.42.81-.7.81-.74,2-1.56,2.73,0,.64-.36,1-.71,1.53a14.91,14.91,0,0,0-1.19,2.48,25.47,25.47,0,0,1-1.32,2.85,10.25,10.25,0,0,0-1.36,3.29c.4.16.81.35,1.24.49a14.75,14.75,0,0,1,1.78.56c.73.37,1.77.23,2.14,1.35.3-.46.56-.41.93-.25.78.35,1.61.6,2.41.89a4.44,4.44,0,0,1,.62.19,27,27,0,0,0,5.2,2.11,6.32,6.32,0,0,1,.61.22,18.08,18.08,0,0,0,3.57,1.42v19.9a1.46,1.46,0,0,1-.51-.18,2.09,2.09,0,0,1-.41-2.25,6.73,6.73,0,0,0-.34-3.93,36.14,36.14,0,0,0-1.82-4,21.7,21.7,0,0,0-1.11-1.92c-.28-.45-.59-.79-1.22-.44a9.07,9.07,0,0,1-1.22.31,1.11,1.11,0,0,1-1.27-.31,1.07,1.07,0,0,1-.24-1.4,3.47,3.47,0,0,0,.23-.65c-.24-.05-.41-.1-.58-.12-.78-.11-1-.34-.89-1.1,0-.23.06-.46.09-.73a1.74,1.74,0,0,0-1.27.48c-.74.72-1.79.84-2.63,1.38-.58.37-1.23,0-1.75.14-.13-.28-.18-.64-.35-.72-.79-.35-.2-1.1-.53-1.56.6-.68.41-1.62.82-2.37.21-.4.34-.85.52-1.28a.67.67,0,0,0-.8.11c-.89.65-1.74,1.33-2.66,1.93s-1.49,1.21-2.54,1.13a9.45,9.45,0,0,0-.29,2.44,14.27,14.27,0,0,0,.78,5.54,2.21,2.21,0,0,1,.1.46c.1.78.62,1.52.27,2.36.38.66,0,1.14-.34,1.69a9.16,9.16,0,0,1-1.87,2.38,7.13,7.13,0,0,1-3.41,2,24.43,24.43,0,0,0-2.87.79,7.4,7.4,0,0,0-1.2.63c2.46,1.85,5.31,2.55,7.87,3.9a3.3,3.3,0,0,1,.31,1.09,8,8,0,0,0,.64,3.44,37.86,37.86,0,0,0,2.14,5.72c.45.82.88,1.65,1.33,2.46a11.54,11.54,0,0,0,.8,1.25c.39.49.89.9,1.24,1.42a6.91,6.91,0,0,0,2.8,2.4c.7.33,1.43.78,2.29.36,1.34-.65,2.86-.94,4-2,.08-.06.25,0,.36-.06a2.75,2.75,0,0,0,.57-.28c.54-.38,1.06-.77,1.58-1.17a4.16,4.16,0,0,0,.52-.51,8,8,0,0,1,1.28-1.31,2.38,2.38,0,0,0,1.07-1.33c.07-.19.32-.32.49-.48Zm-27.41-51.43a2.79,2.79,0,0,0-1.82,1.73,8,8,0,0,1,.57.81c0,.05-.2.32-.26.31a4.12,4.12,0,0,1-.75-.31,3.6,3.6,0,0,0-.42.71,16.2,16.2,0,0,0-1,4c0,.18-.07.44,0,.53.42.42.61.79,0,1.22-.07.05-.06.24-.06.36a8.06,8.06,0,0,0,.18,2.1,15.73,15.73,0,0,0,1.55,3.89c.46.66.84,1.37,1.25,2.06.65,1.05,1.72,1.79,2.2,3a1.38,1.38,0,0,0,.56.47,4.45,4.45,0,0,0,2.77.49.67.67,0,0,0,.6-.79,13.91,13.91,0,0,1-.16-3.7,5.24,5.24,0,0,0,0-1.12c0-.13-.21-.25-.32-.37a2.1,2.1,0,0,0-.34.46c0,.08.07.22.09.34.12.55.07.6-.63.54l0-.36c-.6-.06-1.19-.06-1.76-.17a.87.87,0,0,1-.56-.5,1.85,1.85,0,0,1,0-1.09c.44-1.15.48-2.42,1.25-3.48.29-.39.44-.92.74-1.36a3,3,0,0,0,.22-1.15c0-.17,0-.35.06-.51s.23-.13.31-.12c.74.12.94-.63,1.43-.9.13-.07.1-.43.15-.65.07-.43.36-.44.7-.38,1,.17.94.16,1.15-.79a22.82,22.82,0,0,1,.66-2.62c.52-1.49,1.14-2.94,1.73-4.43-.3-.15-.49-.35-.87-.13a3.09,3.09,0,0,1-1.15.29,5.73,5.73,0,0,0-1.2.13c-1.58.69-3.27.56-4.91.79a3.76,3.76,0,0,0-2.06.71Zm-66.09-.92.27.29.06-.15-.35-.11a15.64,15.64,0,0,1,.46-3.78c.22-.59,0-.77-.59-.52a29.44,29.44,0,0,0-3.45,1.63A6.37,6.37,0,0,0,82,194.11a2.76,2.76,0,0,0,.39,2.15,9,9,0,0,0,3.06,3c1.33.72,2.54,1.64,4,2.24a43.51,43.51,0,0,0,5.29,1.94c.36.1.68.3,1,.38,1.72.39,3.45.76,5.17,1.13l1,.16,2.32.41a7.65,7.65,0,0,0,1.07.15c.27,0,.56,0,.83,0,.84.12,1.67.31,2.52.41a25.43,25.43,0,0,0,3.13.27,14.6,14.6,0,0,0,3.1.08,2.32,2.32,0,0,1,.64,0,4.9,4.9,0,0,0,.54,0l2.34-.13a1.64,1.64,0,0,1,.28.07,8.49,8.49,0,0,0,1.73.19c1.75-.17,3.49-.51,5.25-.64,1.39-.11,2.77-.37,4.15-.58.63-.09,1.26-.21,2-.35-1.09-.39-2-.74-3-1.09a2.49,2.49,0,0,1-.59-.29c-.8-.52-1.57-1.09-2.39-1.57a7.67,7.67,0,0,1-2.63-2.71,3.79,3.79,0,0,1-.51-1.86,1.79,1.79,0,0,1,.58-1.3,4.14,4.14,0,0,1,1.79-.76,11,11,0,0,1,5.67.59c1.13.41,2.23.92,3.38,1.22,2.19.56,4.4,1,6.61,1.51a1,1,0,0,0,1.27-.68,5.42,5.42,0,0,0,.16-3.45c-.66-1.85-1.54-3.48-3.55-4.17a2.88,2.88,0,0,1-.5-.24c-1.2-.67-2.38-1.37-3.6-2a4.34,4.34,0,0,0-1.44-.34,8,8,0,0,1-2.36-.49,12.1,12.1,0,0,0-2-.68,6.89,6.89,0,0,0-1.23-.08c-.23,1-.5,1.85-.61,2.71a5.17,5.17,0,0,1-1.35,2.71c-.29.34-.34.8-.82,1.07a6.26,6.26,0,0,0-2.53,2.39,1.06,1.06,0,0,1-.22.29c-1.29.83-2.19,2.17-3.65,2.77-.76,1-2.09,1-3,1.73-.1.08-.29.05-.44.06-1,0-2,0-3.06.16a23.77,23.77,0,0,1-4.62,0A2,2,0,0,1,105,198.6c-.06-.36-.07-.73-.11-1.18a31.58,31.58,0,0,1-3.24.84,30.11,30.11,0,0,1-4.34.44,11.42,11.42,0,0,1-6.17-1.48A4.65,4.65,0,0,1,88.74,192.54ZM115.59,29.33a22,22,0,0,0-2.43,1A17.83,17.83,0,0,0,110.93,32a31.77,31.77,0,0,0-3.67,4A14.26,14.26,0,0,0,106,37.82a67.81,67.81,0,0,0-4.78,8.94c-.37.89-.78,1.78-1.17,2.67-.69,1.56-1.42,3.11-2,4.7S97,57.32,96.4,58.92c-.5,1.44-1,2.87-1.49,4.31a5.8,5.8,0,0,0-.17.72c-.06.26-.13.53-.19.79-.23.87-.45,1.74-.68,2.6a19.18,19.18,0,0,1-1,3.72,5,5,0,0,0-.23.78c1.51-.24,2.9-.47,4.29-.67.42-.06.85,0,1.27,0,1-.07,2-.23,3-.24a19,19,0,0,1,4,.14c1.34.28,2.74,0,4,.6a2.94,2.94,0,0,0,.88.09,5.52,5.52,0,0,0,.54-.85,1.24,1.24,0,0,1,1.31-.84c.46,0,.93,0,1.36,0,.17-.32.32-.56.44-.81q1.33-3,2.65-5.93a15.55,15.55,0,0,1,2.91-4.39.63.63,0,0,0,.1-1c-.63-.89-1.25-1.79-1.85-2.69a1.74,1.74,0,0,1-.48-1.32,4.34,4.34,0,0,1,1.58,1.51,60.7,60.7,0,0,1,3.6,4.95c.77,1.26,1.69,2.44,2.45,3.71s1.33,2.54,2,3.81c.42.79.88,1.55,1.28,2.35.48,1,.9,2,1.35,2.94.36.78.78,1.54,1.08,2.34.83,2.23,1.63,4.48,2.42,6.73A17.15,17.15,0,0,1,134,87.81a6.38,6.38,0,0,0,.17.92c.68-.34,1.27-.64,1.87-.92a6.2,6.2,0,0,0,1.17-.52c.8-.6,1.88-.71,2.57-1.48.11-.12.35-.12.52-.2a5.9,5.9,0,0,0,1.83-1,5.33,5.33,0,0,1,2.36-1.51,2.1,2.1,0,0,0,.52-.38,8.21,8.21,0,0,1,1.37-1.22,5.58,5.58,0,0,0,1.42-1.17.92.92,0,0,0,.27-.94c-.13-.45-.28-.89-.4-1.34-.53-2.08-1-4.18-1.59-6.24-.78-2.65-1.64-5.28-2.55-7.9-.76-2.17-1.54-4.33-2.45-6.45s-1.72-4.46-2.58-6.7c-.34-.87-.72-1.72-1.06-2.59s-.77-2-1.16-3.06a1,1,0,0,0-1-.75,4.59,4.59,0,0,1-1.93-.26,11.56,11.56,0,0,1-3.44-2c-.87-.84-1.88-1.53-2.21-2.79l-5-.89c-1.29-.23-2.58-.44-3.85-.73A1.28,1.28,0,0,1,118,37c-.39-1-.68-2.07-1-3.11Zm-1,41,2.84.64c1.09.25,1.8,1,1.19,2.17-.44.82-.91,1.62-1.39,2.42-.2.35-.5.64-.68,1-.64,1.2-1.23,2.43-1.87,3.63-.34.65-.74,1.28-1.11,1.92s-.82,1.43-1.23,2.16c1,.38,1.25.33,1.7-.43.8-1.36,1.57-2.75,2.39-4.12.44-.74.95-1.46,1.43-2.18a6.94,6.94,0,0,0,.81-1.24,19,19,0,0,0,.54-2.19c.09.06.3.13.3.21,0,.49.4.56.76.7a6.48,6.48,0,0,1,1.32.65c.81.55,1.57,1.18,2.36,1.76s1,1.24.31,2.08a.61.61,0,0,0,0,.83c.25.39.51.77.78,1.15a13,13,0,0,1,2.25,8.1,14,14,0,0,1-1.18,5.15c-.16.37-.27.78-.42,1.25.35,0,.56.08.77.08a27.47,27.47,0,0,0,6.26-.81c.4-.1.82-.38,1.23,0,0,.5-.39.64-.75.72-1.25.27-2.49.57-3.75.77a33.34,33.34,0,0,1-9.41-.18l-3.15-.39c-.65-.08-1.3-.15-2-.2-.92-.07-1.84-.13-2.76-.17a2.36,2.36,0,0,0-.73.14c-.65.18-.76.3-.76,1a4.2,4.2,0,0,0,1.86,3.37,22.19,22.19,0,0,0,1.92,1.21,8.29,8.29,0,0,0,4.75,1,38.34,38.34,0,0,0,4-.57,6.44,6.44,0,0,1,1,0,2.65,2.65,0,0,1-1.8,2,51,51,0,0,1-9.11,3c-.79.15-1.58.34-2.37.46-.39.06-.82-.07-1.2,0a22,22,0,0,1-8.44-.18,1.28,1.28,0,0,0-1.39.48,1.92,1.92,0,0,0,0,2.26,5.17,5.17,0,0,0,2.3,1.71,14,14,0,0,0,5,1.1c1,.08,2.1,0,3.15,0a12.29,12.29,0,0,0,2.77-.22c.75-.15,1.53-.21,2.28-.39s1.15,0,1.16,1c-.83.16-1.68.36-2.54.48a28.23,28.23,0,0,1-3.88.42,32.09,32.09,0,0,1-4.26-.37,12.32,12.32,0,0,1-3.86-1c-.48-.23-.92-.54-1.4-.75a.78.78,0,0,0-1,.15,1,1,0,0,0-.27,1.12,5.51,5.51,0,0,0,1.31,2,10.11,10.11,0,0,0,2.89,1.85,19.41,19.41,0,0,0,7.36,1.31,21.35,21.35,0,0,0,6.15-.91,2.52,2.52,0,0,1,.68,0l.25.93a10.37,10.37,0,0,1-4.46,1.33c-3.89.32-7.73.18-11.3-1.85-.06.17-.17.33-.14.44a5.09,5.09,0,0,0,1.23,2.38,6.61,6.61,0,0,0,3,1.73c1,.27,2.11.46,3.17.63a21.47,21.47,0,0,0,6.88-.13l2.08-.34-.21,1.21a5.17,5.17,0,0,1-.86.24c-.65.08-1.32,0-1.94.17a16,16,0,0,1-4.74.13c-.14,0-.29.15-.48.25a2.75,2.75,0,0,0,1.31,1,11.09,11.09,0,0,0,3.54.83,14.67,14.67,0,0,0,5.82-.53,45.82,45.82,0,0,0,5-2,41.3,41.3,0,0,0,4.5-2.54c1-.62,1.86-1.44,2.86-2a10.28,10.28,0,0,0,2.72-2.48c1.53-1.9,3.35-3.58,4.47-5.69a5.41,5.41,0,0,1-.17-1.18,17.22,17.22,0,0,0-.54-3.92,16.62,16.62,0,0,0-.84-3.09,21.05,21.05,0,0,0-1.34-3.13c-.69-1.28-1.5-2.5-2.28-3.73a12.71,12.71,0,0,0-2.77-3.25c-.65-.53-1.38-1-2-1.46-.19-.14-.28-.43-.42-.65.2-.12.39-.32.6-.35a9.72,9.72,0,0,0,2.81-1.21c0-.17,0-.3-.07-.41-.35-1-.73-2-1-3-.5-1.63-.92-3.29-1.44-4.91-.42-1.29-.95-2.55-1.43-3.82,0-.09-.09-.17-.12-.26-.58-1.28-1.13-2.56-1.73-3.83-1-2.17-2-4.35-3.12-6.48-1-2-2.18-3.85-3.25-5.78-.6-1.08-.75-1.09-1.45,0A47.15,47.15,0,0,0,116,67.19C115.55,68.18,115.12,69.17,114.59,70.35Zm15.08-45.12.07.32A2.62,2.62,0,0,1,129,26a3.47,3.47,0,0,1-1.2.1c-1.33-.13-2.66-.29-4-.47a1.33,1.33,0,0,1-1.11-1.54c.07-.65.14-1.3.2-1.95.13-1.33.28-2.66.39-4,.08-1,.12-2,.17-3.07,0-.33,0-.61-.45-.69-1.4-.26-2.8-.52-4.2-.8a5.43,5.43,0,0,1-.53-.17l-1.23-.4c-.79-.26-1.61-.48-2.38-.79s-1.75-.82-2.63-1.2a.75.75,0,0,0-.6,0,.65.65,0,0,0-.11.56c.17.69.41,1.37.6,2.06.27,1,.49,2,.79,3,.42,1.38.91,2.75,1.36,4.13s1,3,1.46,4.52c.78,2.36,1.6,4.71,2.38,7.07.43,1.29.81,2.61,1.22,3.94.64.17,1.25.36,1.88.49,1.19.24,2.38.45,3.57.65,1.38.22,2.76.41,4.14.63.62.1.86,0,1-.65s.25-1.39.37-2.08c.06-.38.19-.66.75-.66a5.32,5.32,0,0,1,0,1,4.05,4.05,0,0,0,.33,2.45c.07.14.26.32.39.32s.32-.17.4-.32a1.62,1.62,0,0,0,.16-.62c0-.44,0-.87.1-1.3s.17-1.13,1-1.25a6.13,6.13,0,0,1,.08.82c0,.74-.11,1.49-.14,2.23,0,.53.18.82.54.82s.63-.28.64-.82,0-1.23.08-1.85c0-.37.13-.73.58-.7s.41.38.43.71c0,.65.08,1.31.17,2a1.11,1.11,0,0,0,.26.45,1.75,1.75,0,0,0,.76-2.39,2.77,2.77,0,0,1-.11-.64c0-.42,0-.83,0-1.22.64-.13.76.21.88.6s.07.76.54.93a2.81,2.81,0,0,0,1-1.19c.87-1.35,1.28-3,2.34-4.21.06-.06.06-.17.1-.26.26-.52.53-1,.79-1.57s.71-1.36,1.05-2.05c.61-1.24,1.2-2.49,1.81-3.73a4.68,4.68,0,0,0,.61-1.28,1.58,1.58,0,0,1,.46-1.15,1.4,1.4,0,0,0,.32-.67,2.32,2.32,0,0,1,1.09-1.46c.78-.45,1.6-.83,2.4-1.23.25-.12.58-.16.75-.35a22.55,22.55,0,0,0,2.18-2.19,6.22,6.22,0,0,0,1.46-4.44c-.3-2.41-.55-4.84-2.75-6.48a2.23,2.23,0,0,0-2.89,0,7.58,7.58,0,0,0-2.1,3.16,14.47,14.47,0,0,1-2.35,4.61,1.09,1.09,0,0,1-1,.52c-1.11,0-1.43-.27-1.62-1.36a4.85,4.85,0,0,0-.08-.55c-.13-.4-.28-.79-.45-1.25-.37.21-.67.29-.83.49a10.88,10.88,0,0,1-2.91,2.12,23.81,23.81,0,0,1-4,2,2.28,2.28,0,0,1-.44.15c-1.08.27-2.16.57-3.26.79a15.78,15.78,0,0,1-2.19.25c-.64,0-1.29,0-1.94,0s-.89.27-.91.93c0,1.09,0,2.18-.09,3.27-.12,1.61-.31,3.21-.46,4.82a5,5,0,0,0,0,.85C126,24.85,127.87,24.73,129.67,25.23Zm32.34,143c-.51.79-.88,1.36-1.26,1.93-.58.87-1.12,1.79-1.77,2.61-.82,1-1.73,2-2.6,2.93s-1.55,1.79-2.38,2.63c-1.11,1.12-2.26,2.2-3.42,3.27a22.41,22.41,0,0,1-2,1.68c-1,.7-2,1.33-2.91,2a23.44,23.44,0,0,1-5.09,2.46,6.3,6.3,0,0,0-1.87.72,24,24,0,0,1,3.72,4,6.26,6.26,0,0,1,1,4.88c-.12.5-.21,1-.33,1.55a1.94,1.94,0,0,0,.59.27c1.09.09,2.17.18,3.26.21a1.71,1.71,0,0,0,1-.35,2,2,0,0,1,1.8-.47c.55-1.28,1.08-2.49,1.58-3.72a5.13,5.13,0,0,1,3.85-3.18,26.08,26.08,0,0,1,4.42-.57,19.55,19.55,0,0,0,3.64-.78c.84-.2,1.67-.42,2.63-.66.06-.16.17-.44.29-.72a7.9,7.9,0,0,1,.85-2c.41-.53.45-1.21.91-1.68.06-1.18.82-2.06,1.31-3.06a8.55,8.55,0,0,0,.63-1.71.81.81,0,0,0-.21-.73,21.36,21.36,0,0,1-1.94-1.86,12.77,12.77,0,0,1-2.65-3.45c-.87-1.54-1.54-3.19-2.3-4.78C162.6,169.18,162.35,168.8,162,168.23ZM82.47,88a7.54,7.54,0,0,1,4.34.06,5.85,5.85,0,0,1,1.17.53c.33.17.62.42,1,.56a13.21,13.21,0,0,1,3.42,2.5c1,.9,2,1.88,3.06,2.82a8.79,8.79,0,0,0,4.41,1.81,3,3,0,0,1,2.3,1.92,4.93,4.93,0,0,1-.3,4.4c-.17.29-.1.54.2.56a10,10,0,0,0,1.64-.09,7.4,7.4,0,0,0,.81-.21c.83-.17,1.67-.31,2.5-.5.51-.11,1-.28,1.5-.44.85-.26,1.71-.53,2.55-.81.12,0,.2-.21.32-.34a5.06,5.06,0,0,0-.46-.64,5,5,0,0,1-1.31-2.82c-.32-1.43.65-2.12,1.79-2.32a7.63,7.63,0,0,1,2.86-.1,2,2,0,0,0,1.14-.28,11,11,0,0,1,2-.8A6.63,6.63,0,0,0,121,91.58c1.12-1.37.3-3.56-.7-4.25a7.19,7.19,0,0,0-2.66-1.45.93.93,0,0,1-.47-.29,1.18,1.18,0,0,0-1.23-.25,2.86,2.86,0,0,1-2.06-.18,1.33,1.33,0,0,0-.71,0,12.77,12.77,0,0,0-5.43,2.71A6.75,6.75,0,0,0,106,90.74a1.72,1.72,0,0,0,0,1,4.52,4.52,0,0,0,1.71,2.49,9.26,9.26,0,0,1,.79.76c-.6.51-1.2.06-1.7.22s-.92.56-1.52.61a6.92,6.92,0,0,1-5.07-1.72c-.48-.39-1.12-.83-.86-1.64.68-.51,1.14,0,1.53.38a6.58,6.58,0,0,0,4.34,1.66c.47,0,.64-.21.42-.62a3.87,3.87,0,0,0-2-2.13A7.1,7.1,0,0,1,102,90.56a.7.7,0,0,1-.23-1c1,.06,1.68,1.21,2.83,1,.23-.35.34-.65-.19-.94a10.44,10.44,0,0,1-1.48-1.09c-.24-.19-.5-.44-.23-.79s.49-.13.75,0l1.76.87c.46-.52.91-1,1.29-1.51a.65.65,0,0,0-.09-.64c-.57-.51-1.19-1-1.86-1.51a5.75,5.75,0,0,0-1,.31,1.59,1.59,0,0,0-.62.64c-.39.74-.67,1.53-1.08,2.26-.6,1.07-1.27,2.1-1.93,3.15a1.58,1.58,0,0,1-1.39.66,4.16,4.16,0,0,1,.3-1c.29-.46.71-.84,1-1.3.83-1.43,1.81-2.75,2.72-4.11a5.06,5.06,0,0,1,2.26-1.86l.42.63c.1.15.17.34.3.42.62.35,1.26.69,1.9,1a.93.93,0,0,0,.71,0c.63-.32,1.22-.71,1.85-1.08-.27-.15-.6-.21-.69-.4a1.62,1.62,0,0,0-2.37-1l-.88-.55,1-3.9c-.51-.58-1.2-.09-1.8-.15a4.06,4.06,0,0,0-1.85.55,15.57,15.57,0,0,0-1.56.87c-.39-.25-.66-.55-1-.61-.81-.14-1.65-.11-2.44-.27a14.07,14.07,0,0,0-4.15.11,8.06,8.06,0,0,0-2.42.89,9.77,9.77,0,0,0-4.22,3.78c-.46.7-.87,1.44-1.38,2.29-.35-1.64.6-2.72,1.2-4C84.89,82.89,81.9,85.75,82.47,88Zm64.61,112.17c-1.08,0-1.92,0-2.75,0a17.44,17.44,0,0,0-2-.06c-.69.08-1.33.27-1.93-.24a.81.81,0,0,0-.44-.13c-1.47-.28-2.95-.51-4.4-.83s-2.9-.66-4.31-1.11c-1.14-.37-2.21-.94-3.32-1.41a1.36,1.36,0,0,0-.63-.11,8.3,8.3,0,0,0-1.58.16,4.56,4.56,0,0,0-1.27.53.75.75,0,0,0-.32.58,2.18,2.18,0,0,0,.84,1.61,6.47,6.47,0,0,1,1.22,1,18.54,18.54,0,0,0,1.92,1.41,7.25,7.25,0,0,0,2.26,1c.25.1.61,0,.77.22a3.65,3.65,0,0,0,1.9.74,12.65,12.65,0,0,1,2.27,1.13,10.25,10.25,0,0,1-5.11,2.78,38.15,38.15,0,0,1-5.71.92c-1.15.07-2.31.21-3.46.17a8.89,8.89,0,0,0-3.71.78,2.88,2.88,0,0,0-.53.44c.54.31,1,.57,1.44.81s.85.37,1.27.58c.15.07.36.21.37.34.06.44.35.47.68.47.77,0,.72,0,.91.69a1.72,1.72,0,0,0,.56.91,10.17,10.17,0,0,0,4,1.7,20.09,20.09,0,0,0,3.22.37,55,55,0,0,0,7.26-.27c1.26-.12,2.51-.35,3.75-.58s2.47-.53,3.7-.82c.72-.17,1.42-.43,2.14-.59a2.81,2.81,0,0,0,2.06-1.59C145,208.32,144.91,204.46,147.08,200.19ZM81.49,88.44A1,1,0,0,1,81,87.35a8.52,8.52,0,0,1,.23-1c.78-2.58,2.71-4,5.06-5a1.22,1.22,0,0,1,.47,0c.43,0,.87,0,1.31,0,.2,0,.49,0,.59-.17a7.54,7.54,0,0,1,2.58-1.79,7.45,7.45,0,0,1,3.15-1c1-.1,2.1-.17,3.15-.19a4.86,4.86,0,0,1,3.1.54c.29.2.61.37.91.55a10.23,10.23,0,0,1,3.78-1.55c.61-.1,1.24-.12,1.86-.16a.77.77,0,0,0,.74-.48l1.48-3.62a3,3,0,0,0-.61-.29c-.75-.15-1.51-.26-2.26-.39a35.45,35.45,0,0,0-7.84-.25,15.59,15.59,0,0,0-3.65.69c-.44.12-.92.09-1.37.17a38,38,0,0,0-5.37,1.45c-.55.18-1,.6-1.59.78a15.12,15.12,0,0,0-3.85,2,30.27,30.27,0,0,0-3.58,2.67,19.65,19.65,0,0,0-3,3.44A15.27,15.27,0,0,0,74,88.56a5,5,0,0,0-.07,3.57c.33.71.69,1.39,1,2.09a7.07,7.07,0,0,0,2.48,2.35,3.61,3.61,0,0,0,.62.3C77.57,93.33,78.52,90.47,81.49,88.44Zm35.39,97c.09-.45.51-.81.15-1.26a19.65,19.65,0,0,0-1.31-1.56c-.42-.41-.67-.36-1.15,0-1.22.89-2.33,1.93-3.62,2.73s-2.22,1.45-3.69.79a3.27,3.27,0,0,0-2.35-.08,2.31,2.31,0,0,1-1.73-.09c-.8-.4-1.63-.73-2.43-1.12a8.43,8.43,0,0,0-4-.92c-1,0-2.09.13-2.52,1.37,0,.14-.42.27-.62.25a1.53,1.53,0,0,0-1.2.38,6.18,6.18,0,0,0-2,3.39,11.08,11.08,0,0,0-.29,4.3,3.41,3.41,0,0,0,1.7,2.46c.6.42,1.43.39,2,.94.1.11.36.07.54.08a4.65,4.65,0,0,1,.75,0,11.75,11.75,0,0,0,3.74.16,19,19,0,0,0,4.78-1,5.06,5.06,0,0,0,2.65-1.46c.07-.09.2-.21.29-.2.8.12,1.2-.51,1.77-.85a8.11,8.11,0,0,0,2.74-3.09c-.24-.39-.61-.74-.6-1.07a16.12,16.12,0,0,1,.37-2.38,1.55,1.55,0,0,1,.19-.4c.87.79.37,1.71.61,2.53a4,4,0,0,0,.88-.62,32.57,32.57,0,0,1,3-2.67A2.37,2.37,0,0,1,116.88,185.43ZM98.1,103.61c.25,0,.5,0,.75,0a1.53,1.53,0,0,0,1.62-1.22,6.36,6.36,0,0,1,.44-1.42,2,2,0,0,0,0-1.87c-.2-.58-.51-1.29-1.14-1.35s-1.09-.29-1.67-.31A3.53,3.53,0,0,1,96.41,97a22.7,22.7,0,0,1-2.71-2c-.78-.66-1.46-1.43-2.18-2.15a10.76,10.76,0,0,0-1.47-1.4,22.73,22.73,0,0,0-3.12-1.83,5.07,5.07,0,0,0-4.12-.35,5.66,5.66,0,0,0-3.24,3.38,9.11,9.11,0,0,0-.12,5.15.91.91,0,0,0,.39.5,18.81,18.81,0,0,0,1.82,1.11,26.75,26.75,0,0,0,4,1.86,49,49,0,0,0,5.9,1.64A40.6,40.6,0,0,0,98.1,103.61Zm30.67-64A1.64,1.64,0,0,0,129,40a10.58,10.58,0,0,0,4.66,2.9c.62.17,1.26.27,1.89.39a1.42,1.42,0,0,0,.46,0,12.65,12.65,0,0,0,5-1.65,7.36,7.36,0,0,0,1.59-1.13c.67-.8,1.52-1.41,2.13-2.29a16.39,16.39,0,0,0,2-3.27,22.91,22.91,0,0,0,1.69-4.68c.19-1.08.53-2.17.64-3.26a23.85,23.85,0,0,0,0-4.14,33.06,33.06,0,0,0-.63-3.53l-.22,0a4.07,4.07,0,0,0-.43.86,19.22,19.22,0,0,1-1.9,4.62c-.57,1.1-1.15,2.19-1.71,3.29-.44.86-.84,1.74-1.32,2.57-.74,1.29-1.57,2.53-2.31,3.83a26.59,26.59,0,0,1-3.44,4.61,8.24,8.24,0,0,1-1.38,1.07,1.27,1.27,0,0,1-1.24.17,18.36,18.36,0,0,0-5.13-.89A2.07,2.07,0,0,0,128.77,39.57Zm-2.9,146.3c-1.79-.63-2.36-.4-3,1.14a3.38,3.38,0,0,1-3.16,2.17,3,3,0,0,1-.9,0,3.67,3.67,0,0,1-2-1.41c-.45-.53-.68-.62-1.2-.16-.72.64-1.4,1.31-2.07,2a5.7,5.7,0,0,0-1.08,1.28,13.49,13.49,0,0,1-5.69,5.53,2.22,2.22,0,0,0-.48,2.31.59.59,0,0,0,.3.2,6,6,0,0,0,1.3.26c1.4,0,2.8,0,4.19-.05a7.69,7.69,0,0,0,2.29-.28,9.86,9.86,0,0,0,2.62-1.25c.74-.55,1.49-1.07,2.22-1.64q.76-.6,1.47-1.26c.84-.77,1.67-1.56,2.48-2.36.58-.57,1.31-.94,1.72-1.75a5.22,5.22,0,0,0,.76-2.33C125.66,187.47,125.79,186.68,125.87,185.87ZM69.11,91.3a1.58,1.58,0,0,1,.48-.16.85.85,0,0,1,.55.15c.08.07,0,.33,0,.49a3.77,3.77,0,0,1-.21.52,5.17,5.17,0,0,0-.16,3.55,6.61,6.61,0,0,0,3,3.75,1.82,1.82,0,0,0,1.74.31c-.42-.85-.8-1.66-1.21-2.45a2.79,2.79,0,0,1-.4-1.6,2.9,2.9,0,0,0-.14-1,11.72,11.72,0,0,1-.37-3.77,12.89,12.89,0,0,1,1-4.58c.44-1,1-2,1.44-3a9.7,9.7,0,0,1,2.08-2.72c.57-.56,1.12-1.15,1.69-1.72a11.21,11.21,0,0,1,1.06-1c1-.8,2.12-1.56,3.3-2.41a4.84,4.84,0,0,0-1.16-.27c-1.3,0-2.61.1-3.91.2a9.76,9.76,0,0,0-4.82,1.83,9.53,9.53,0,0,0-2,2A15,15,0,0,0,68.2,84.3a10.13,10.13,0,0,0-.47,3.86A5.53,5.53,0,0,0,69.11,91.3Zm45.09,90.08-.13-.21a1.38,1.38,0,0,0-.27-.08.92.92,0,0,0-.37,0,4.92,4.92,0,0,1-3.18-.39c-.25-.13-.54-.15-.8-.26a3.5,3.5,0,0,1-.82-.41,4.13,4.13,0,0,0-2-.81c-.7-.1-1.4-.24-2.1-.35a6.3,6.3,0,0,0-4.15.41,8.84,8.84,0,0,0-1.58,1.12c-.65.6-1.22,1.28-2,2.06a5.93,5.93,0,0,0,.76.21,6.48,6.48,0,0,1,1.54.1,29.31,29.31,0,0,1,3.92,1.61,2.18,2.18,0,0,0,1.56.31,5.81,5.81,0,0,1,3.73.21.86.86,0,0,0,.61,0,14.2,14.2,0,0,0,2.79-1.75c.7-.5,1.22-1.24,2.08-1.52A2.38,2.38,0,0,0,114.2,181.38ZM119.67,85c.31.29.57.69.93.84a4.28,4.28,0,0,1,2,2.25,3.9,3.9,0,0,1-.54,4.36,6.32,6.32,0,0,1-2.85,2.17,3.57,3.57,0,0,0-.83.56,1.79,1.79,0,0,0,2,.12,22.74,22.74,0,0,0,2-1.38c1-.78,2-1.59,2.94-2.42a1.83,1.83,0,0,0,.65-.85,15,15,0,0,0,.27-2.31,9.27,9.27,0,0,0-1.34-4.53,27.93,27.93,0,0,0-1.6-2.51c-.23-.35-.59-.37-.76-.06-.34.65-1.06,1-1.32,1.65A16.36,16.36,0,0,1,119.67,85Zm58.78,4.72c-.5-.57-.77-1.28-1.57-1.44-.1,0-.18-.15-.27-.23a12.75,12.75,0,0,0-2.87-1.84,1.07,1.07,0,0,0-1.21.16c-.64.51-1.33,1-2,1.47a19.37,19.37,0,0,0-2.69,2.53c.35.12.62.2.88.31a8.33,8.33,0,0,1,2.09.89c.67.52,1.47.45,2.17.77.11.05.32-.1.48-.18.68-.36,1.14-1.14,2-1.1a.35.35,0,0,0,.22-.15c.26-.4.67-.37,1.08-.4A2.13,2.13,0,0,0,178.45,89.7ZM148.48,200c-.23.45-.47.87-.67,1.32a9.94,9.94,0,0,1-.35,1,5.21,5.21,0,0,0-.6,2.5c0,.32,0,.62.45.7a.36.36,0,0,1,.21.64c-.68.55-.39,1.14-.19,1.76a8,8,0,0,0,1.82,2.79,9.09,9.09,0,0,0,4.88,2.91s.07-.08.16-.17l-2.36-3.5a7.59,7.59,0,0,1-.78.33c-.05,0-.23-.2-.26-.33-.1-.5.44-.41.58-.55l-1.69-5c-.38-.13-.84.06-.88-.46s.54-.38.8-.62v-2.81ZM169,101.83c.3.37.47.63.69.85,1.34,1.34,2.48,2.94,4.48,3.42.14,0,.25.18.37.27a8.16,8.16,0,0,0,2.55,1.2,18.77,18.77,0,0,0,2.34.51,1.44,1.44,0,0,0,1.31-.26,2.74,2.74,0,0,0-1.45-1.35,5.3,5.3,0,0,1-1-.61,13.53,13.53,0,0,0-3.36-2.09c-.92-.33-1.81-.75-2.72-1.09A9,9,0,0,0,169,101.83Zm-51.44,84.91c.43.32.82.62,1.22.9a.94.94,0,0,0,.42.19,2.57,2.57,0,0,0,2.46-1.33c.18-.38.35-.78.56-1.25a9,9,0,0,0-3.11-.72.73.73,0,0,0-.51.32C118.26,185.46,117.94,186.09,117.58,186.74ZM80.2,107.65c-.28-.32-.45-.53-.64-.73-.4-.44-.84-.84-1.19-1.3-.82-1.06-1.59-2.15-2.38-3.23-.19-.26-.3-.65-.82-.49a5,5,0,0,0,1.19,3.95A4.26,4.26,0,0,0,80.2,107.65Zm37.18,74.57c.67-.79,1.27-1.48,1.86-2.19.05-.06.12-.2.09-.24-.12-.2-.26-.52-.41-.53a3.26,3.26,0,0,0-2.15.39c-.51.33-1.09.57-1.62.87-.11.06-.17.21-.39.49A3,3,0,0,1,117.38,182.22Zm7.27-88.52c-.84.38-.84.38-.79,1ZM146.89,3.25a.65.65,0,0,0-.18.92C147,3.86,147.16,3.63,146.89,3.25Zm-26.63,100.5-.09-.21-.48.19.09.22Zm-21.73,8.11-.13-.12a1.48,1.48,0,0,0-.13.21s.07.07.1.1Zm9.93-8.19-.21.26c.09.07.19.19.25.17s.14-.16.21-.25Zm2.67-29.44.16.09.2-.37-.13-.08Zm1-3.56.11.13.13-.15s-.09-.09-.13-.09S112.15,70.63,112.11,70.67Z" transform="translate(0)"/><path class="a" d="M182.24,313.59c-1-.7-2-1.42-2.94-2.11-1.5-1-3-2.07-4.54-3.1-.66-.45-1.33-.89-2-1.33-1.42-.93-2.85-1.85-4.27-2.79-.86-.57-1-.55-1.71.15a2.81,2.81,0,0,1-2,.57,3.2,3.2,0,0,1-2.11-.89q-4.18-3.43-8.33-6.89a4.37,4.37,0,0,1-.59-.73,1.12,1.12,0,0,0-.15-1.47.91.91,0,0,1-.18-.6c0-1,0-2.06,0-3.09,0-.8,0-.8.68-1.41a8.77,8.77,0,0,0-.61-.89c-1-1.05-1.91-2.13-2.94-3.12a10.89,10.89,0,0,0-2.25-2,6.37,6.37,0,0,0-3.43-1.15,31.63,31.63,0,0,1-3.62-.26c-1.23-.08-2.46-.1-3.69-.2s-2.22-.24-3.31-.43a26,26,0,0,1-2.61-.62,6.69,6.69,0,0,1-1.07-.54,2.08,2.08,0,0,1-1.64-.22,24.59,24.59,0,0,1-5-3,36.05,36.05,0,0,1-3.19-2.88,13.47,13.47,0,0,0-1.27-1.24,4.61,4.61,0,0,0-1.59-.69c-1.35-.29-2.71-.49-4.08-.7-.45-.08-.92-.05-1.37-.13-.68-.11-1.35-.27-2-.42-1.36-.32-2.72-.63-4.07-1-1-.27-2-.64-3-.94s-2.18-.57-3.22-1a25.15,25.15,0,0,1-3.76-1.75A8.23,8.23,0,0,1,94,264.92a1.75,1.75,0,0,1-.44-.78,2.91,2.91,0,0,1,.69-2.16,3.63,3.63,0,0,1,1.64-1,31.82,31.82,0,0,1,3.54-1.16c1.23-.31,2.5-.45,3.75-.69.9-.17,1.8-.42,2.71-.57a13.61,13.61,0,0,1,2.76-.28c.54,0,1.08-.38,1.62,0a1.27,1.27,0,0,0,.49-.56,5.59,5.59,0,0,0,.21-1.36,10.83,10.83,0,0,0,.09-2.73,1.48,1.48,0,0,1,.27-1.12,8,8,0,0,1,3.68-2.4,11,11,0,0,1,1.21-.45,14.79,14.79,0,0,1,2.18-.36c1.51-.12,3-.22,4.53-.25a3.94,3.94,0,0,1,2.25.38,3.24,3.24,0,0,0,1.22.26,1,1,0,0,0,.6-.1c1.86-1.21,3.89-1,5.94-.79a11.72,11.72,0,0,1,3.62,1.36,3.67,3.67,0,0,1,1.72,2.09,1.49,1.49,0,0,1,1.39,1.59c0,.67,0,1.35,0,2-.06.88-.2,1.76-.29,2.65a1.28,1.28,0,0,0,.1.4,5.37,5.37,0,0,1,3.05.26,6.38,6.38,0,0,0,1,.14c1.39.17,2.8.25,4.16.55,2,.43,3.9,1,5.85,1.56a6.15,6.15,0,0,1,2.95,1.47c.23.23.62.3.83.54a3.52,3.52,0,0,1,.44.89,2.77,2.77,0,0,1-1.4,1.7.78.78,0,0,0-.33.32,4.23,4.23,0,0,1-2.59,1.82c-.6.21-1.2.45-1.78.68a35.37,35.37,0,0,1,1.52,3.42,6.57,6.57,0,0,0,1.09,2.22,4.1,4.1,0,0,0,.51.51c.11.09.29.13.39.24.69.74,1.36,1.5,2.05,2.25a1.92,1.92,0,0,0,1.73.85,3.47,3.47,0,0,0,1.1-.18c1.2-.69,2.48-.42,3.74-.39a24.23,24.23,0,0,1,3.91.24c.9.16,1.87-.1,2.7.45a.78.78,0,0,0,.46,0,1.71,1.71,0,0,1,1.33.29c.1.08.3,0,.45.06a1.7,1.7,0,0,1,1.71,1.7,4,4,0,0,1,0,.49l3.89,1.23c-.17-.44-.27-.75-.41-1-.53-1-1.1-2-1.58-3.06a17.12,17.12,0,0,1-.5-1.77,22.25,22.25,0,0,1-1.09-4.34,15.17,15.17,0,0,1-.42-2.07c0-1-.24-2-.33-3s-.19-2.15-.19-3.23c0-.76.25-1.53.21-2.28a12.21,12.21,0,0,1,.48-2.9,11.45,11.45,0,0,1,1-2.71,10.71,10.71,0,0,1,3.92-4.17,14.67,14.67,0,0,1,2.9-1.22V252c-.15,0-.3-.12-.44-.09a1.8,1.8,0,0,0-.69.26,11.32,11.32,0,0,0-3.84,3.82,10.89,10.89,0,0,0-1,2.63,13.81,13.81,0,0,0-.43,3.94,5.69,5.69,0,0,1,0,1.54,4.46,4.46,0,0,0,.05,2,11.14,11.14,0,0,1,.48,2.63,5.28,5.28,0,0,0,.42,2.17.51.51,0,0,1,0,.36,1.33,1.33,0,0,0,.15,1.15c.24.5.69,1.09.58,1.51-.19.76.26,1.09.57,1.56,0,.06,0,.18,0,.27a3.07,3.07,0,0,0,.16.8c.35.83.8,1.62,1.08,2.46.35,1,1.45,1.62,1.56,2.77,0,.05.15.09.21.15s.28.26.3.41a1.35,1.35,0,0,0,.82,1v2.44c-.11-.07-.2-.2-.31-.2a2.82,2.82,0,0,1-1.72-.82,1.89,1.89,0,0,0-.57-.28c-1-.38-1.92-.76-2.89-1.12-.69-.26-1.4-.49-2.1-.76a.6.6,0,0,0-.86.31,7.48,7.48,0,0,0-.42,1.49c-.11.57-.06,1.18-.22,1.73-.22.72-.24,1.67-1.3,1.79a1.49,1.49,0,0,1-.62-1.32,7.15,7.15,0,0,1,.24-1.65c.27-1.17.58-2.33.86-3.51.18-.77,0-1-.77-1.16a12.93,12.93,0,0,1-1.65-.29,20.7,20.7,0,0,0-4.56-.76c-.52,0-1-.18-1.56-.22s-1-.24-1.52,0a3,3,0,0,1-.86,2.82c-.33.35-.54.78-1,1-.19.09-.27.46-.35.72-.25.85-.45,1.73-.72,2.58-.41,1.29-.85,2.58-1.3,3.87-.37,1-.77,2.08-1.16,3.12-.18.49-.36,1-.57,1.46s-.6,1.23-.91,1.84a11.93,11.93,0,0,1,1,.71c.9.75,1.72,1.59,2.65,2.26a34.27,34.27,0,0,0,5.33,3.7c.51.24,1.05.22,1.28-.27s.91-1.13.87-1.92c0-.13.13-.27.21-.4a4.53,4.53,0,0,0,.8-2.07.93.93,0,0,1,.48-.85c.1-.05.22-.16.23-.25a4.24,4.24,0,0,1,.88-2.38c.13-1.39,1.22-2.14,2.05-3.06.12-.13.44-.08.79-.14a8.45,8.45,0,0,1-.54,2.9,6.88,6.88,0,0,0-.85,2.12,11.27,11.27,0,0,1-.6,1.75,5.42,5.42,0,0,1-.7,1.77,8.5,8.5,0,0,0-1,2.26c1.29.8,2.58,1.53,3.81,2.35,2,1.33,4.06,2.56,6,3.89a30.64,30.64,0,0,0,4.07,2.47Zm-44.48-49.51a5,5,0,0,0-.24.89,4.22,4.22,0,0,0,1.5,3.46,14.89,14.89,0,0,0,3.57,2.45c.42.22.5,1,.12,1.08-1.05.3-1.64,1.5-2.85,1.42-.42.39-1,.1-1.41.22a12.24,12.24,0,0,1-3.67.34,17.52,17.52,0,0,0-1.77-.11,9.65,9.65,0,0,1-3.26-.19.53.53,0,0,0-.37,0,4.26,4.26,0,0,1-2.07,0c-.48,0-1,0-1.46,0-.15,0-.33,0-.44,0-1-.58-2.16-.06-3.17-.53-.15-.07-.54.16-.68.35s.07.43.29.59.52.53.8.76c.76.64,1.5,1.29,2.3,1.87s1.49,1,2.25,1.42c.4.24.82.43,1.22.67.64.36,1.56.43,1.59,1.46,0,0,.1.06.23.14.57-.6,1.26-.43,2-.27a23,23,0,0,0,3.62.45c1.3,0,2.6.32,3.92.25l.19,0,3.13.19c.15,0,.32-.07.46,0,1.14.42,2.38.1,3.54.56a12,12,0,0,1,2.55,1.07c.71.49,1.35,1.06,2,1.62.1.09.09.3.15.44a4.94,4.94,0,0,0,.63,1.33c.81,1,1.69,1.89,2.56,2.8.37.39.78.74,1.26,1.2.45-1.12.89-2.14,1.27-3.18.48-1.28.9-2.58,1.36-3.86a1.32,1.32,0,0,0-.4-1.59,13.62,13.62,0,0,1-1.35-1.28c-1.17-1.31-2.34-2.63-3.47-4a9.55,9.55,0,0,1-1.19-1.76,22.28,22.28,0,0,1-.84-2.15,21.24,21.24,0,0,0-2.51-4.33,1.4,1.4,0,0,0-.89-.6c-.84-.2-1.69-.38-2.51-.65a34.22,34.22,0,0,1-3.49-1.08c-1.37-.6-3-.64-4.27-1.47C138,264,137.92,264.05,137.76,264.08Zm2.44,7.33c0-.07,0-.16-.07-.18a10.71,10.71,0,0,1-2.94-2.83,4.77,4.77,0,0,1-.72-4.35c.2-.66,1.06-1.37,1.59-1.23,1.35.37,2.77.33,4.07,1.08a13,13,0,0,0,4.65,1.5,5.87,5.87,0,0,1,3.5,1.79c.22.22.45.41.77.7.17-.27.28-.48.41-.66s.28-.52.5-.64a15.16,15.16,0,0,1,1.59-.72c.8-.36,1.61-.69,2.39-1.09.52-.26.52-.62,0-.88a10.42,10.42,0,0,0-3.19-1.28,5.76,5.76,0,0,1-1.7-.44,9.59,9.59,0,0,0-3.11-.7c-.3.31-.52.72-.73.72-.64,0-.24-.65-.51-1-1.05,0-2.08-.37-3.19-.31a10.11,10.11,0,0,1-2.94-.34,1.55,1.55,0,0,0-1.57.57c.18.12.31.19.43.28a.44.44,0,0,1,.05.72c-.25.21-.47.06-.63-.16s-.19-.3-.26-.39a30.38,30.38,0,0,1-3.36.54,28.48,28.48,0,0,1-3.31-.18c-.06.2-.13.38-.17.56a4.6,4.6,0,0,1-2.67,3.2c-.7.38-1.47.48-2.13.84-1.07.59-2.26.5-3.36.83-.68.2-1.52-.08-2,.68-.13.2-.45.16-.64-.1s-.26-.4-.41-.41c-.91-.1-1.82-.14-2.76-.21-.11.36,0,.94-.56.8s-.2-.57-.17-.83c-1.34-.51-2.64-1-3.94-1.51-.37-.15-.71-.38-1.08-.53a2,2,0,0,1-1.34-2.26,4.59,4.59,0,0,0-.17-2.54c-.65,0-1.3,0-1.94,0a11.18,11.18,0,0,0-2.53.15,26,26,0,0,0-3,.58,3.81,3.81,0,0,1-1.36.29,4,4,0,0,0-2.29.69,1.28,1.28,0,0,0-1.54.12,2.37,2.37,0,0,1-1.36.49,1.06,1.06,0,0,0-1,.69,1,1,0,0,0,.44,1.14,8.49,8.49,0,0,1,.88.67c.73.73,1.78.87,2.56,1.49a3.7,3.7,0,0,0,1.53.64c.44.09.86.22,1.38.37l.78-.37c.44.36.73.77,1.12.91a27.24,27.24,0,0,0,2.84.83c1,.25,2.13.44,3.19.68a.66.66,0,0,0,.74-.18c.43-.44.59-.45.83,0a.92.92,0,0,0,.92.5,7.32,7.32,0,0,1,2.46.43,1.14,1.14,0,0,0,.37.05,14.88,14.88,0,0,0,2.39.14c.79-.07,1.53.66,2.32.12,0,0,.1.08.16.09a1.41,1.41,0,0,0,.57.05.74.74,0,0,1,.78.11c.11.09.33.06.51.05a5.83,5.83,0,0,1,.72-.06c1,.08,2.11.17,3.16.27a4.11,4.11,0,0,0,1.08.12,14.35,14.35,0,0,1,4.14.07c.56,0,1.21.31,1.74-.19a.39.39,0,0,1,.35-.05,2,2,0,0,0,1.93.08.24.24,0,0,1,.18,0c.48.31,1,.07,1.42,0a1.3,1.3,0,0,1,.62,0,9.41,9.41,0,0,0,2.54.08C140.09,271.6,140.15,271.47,140.2,271.41Zm-27.73-15.86c0,.89,0,1.67,0,2.44-.09,1.76-.22,3.51-.32,5.26a.89.89,0,0,0,.46,1,7.34,7.34,0,0,1,1.35.55c1,.71,2.12.67,3.17.93a8.63,8.63,0,0,0,3.1.32,28.61,28.61,0,0,0,3.36-.13,18.88,18.88,0,0,0,4.14-1.21,14.72,14.72,0,0,1,1.61-.59.91.91,0,0,0,.49-.38,4.22,4.22,0,0,0,.51-2.93.9.9,0,0,1,0-.54,4.84,4.84,0,0,0,.08-2.45,2,2,0,0,0-1.75.53,1.86,1.86,0,0,1-.77.44c-.87.17-1.75.28-2.62.41a28.35,28.35,0,0,1-5.59-.5,2,2,0,0,0-.62-.21,4.2,4.2,0,0,1-2.37-.81c-.33-.17-.69-.28-1-.44-.7-.31-1.43-.61-1.69-1.42a.57.57,0,0,0-.71-.44A7.86,7.86,0,0,0,112.47,255.55Zm-.16-1.52a2.05,2.05,0,0,1,1.72-.09c1.11.28,2.25.45,3.38.62.7.1,1.43.07,2.12.21a15.91,15.91,0,0,0,4.72.19c.71-.08,1.41-.19,2.13-.24a5.23,5.23,0,0,0,2.51-.58c.13-.08.35,0,.51,0a.84.84,0,0,0,.43-.22c0-.06-.05-.3-.15-.38a11.62,11.62,0,0,0-3.17-1.9c-.7-.25-1.42-.41-2.13-.64a12.26,12.26,0,0,0-4.39-.31c-.92,0-1.83.19-2.74.29a5.51,5.51,0,0,0-.92.14,8.6,8.6,0,0,0-3.33,1.54A1.59,1.59,0,0,0,112.31,254Zm26,.8-.31-.2c-.1.19-.19.39-.3.57a2.77,2.77,0,0,1-1.64,1.08,21.05,21.05,0,0,1-3.56,1.13c-.44.06-.63.32-.57.79s.1,1.11.18,1.66.29.75.91.85a8.52,8.52,0,0,0,3.37-.28,1.81,1.81,0,0,0,1.37-1.43c.21-.94.24-1.92.53-2.85A4.84,4.84,0,0,0,138.27,254.83Zm-6.82-1a8.51,8.51,0,0,0,5.25-1.34c-.28-1-1.15-1.31-1.93-1.61s-1.63-1-2.64-.73a.66.66,0,0,1-.36-.06c-1.17-.35-2.28,0-3.51.19.12.22.17.42.27.46a7.21,7.21,0,0,1,1.43.94A2.81,2.81,0,0,1,131.45,253.84Zm29,25.68-.07-.2-.67.23s0,.16.05.24l.64-.19S160.41,279.55,160.43,279.52ZM138.1,253.94l.09-.21-.44-.19a1.63,1.63,0,0,0-.07.22C137.82,253.83,138,253.88,138.1,253.94Z" transform="translate(0)"/><path class="a" d="M2.09,9.33l.67-.39c-.34-.61-.66-1.18-1-1.75a.28.28,0,0,1,0-.18A4.28,4.28,0,0,0,1.7,4.82a9.07,9.07,0,0,1,0-1.65c0-.33-.13-.64.09-1s.05-.54.05-.82,0-.84-.07-1.31h19.9c-.18.45-.34.83-.49,1.22s-.28.76-.4,1.14a3.26,3.26,0,0,0-.21.8,1.72,1.72,0,0,1-.41,1.2.73.73,0,0,0-.15.52,1,1,0,0,1-.28.85.23.23,0,0,0-.08.16A11.68,11.68,0,0,1,19,8.42a.9.9,0,0,0,.06.63,1.32,1.32,0,0,1,0,1.25A6.59,6.59,0,0,0,19,13.93a11,11,0,0,1,.21,1.28,8.87,8.87,0,0,0,.18,1.57,7.38,7.38,0,0,0,.74,1.38,1.46,1.46,0,0,0,.47,0c1.12-.39,2.22-.88,3.36-1.2,1.52-.44,3.07-.75,4.61-1.11.89.28,1.69-.26,2.55-.27.68,0,1.34-.16,2-.21.13,0,.27.11.41.16s.31.15.42.11a6.41,6.41,0,0,1,2.58,0,29.08,29.08,0,0,1,6.23.82c1.26.32,2.54.57,3.79.93,1,.29,1.9.69,2.83,1.07,1.32.55,2.63,1.1,3.93,1.69a18.31,18.31,0,0,1,1.77,1,14.59,14.59,0,0,1,1.75,1.14A32.29,32.29,0,0,1,60.09,25a31.66,31.66,0,0,1,2.36,2.56.62.62,0,0,0,1,0,16.16,16.16,0,0,1,3.11-2.78c.6-.45,1.26-1.06.85-2.07a1.6,1.6,0,0,1,.13-1c.52-1.46,1.1-2.91,1.6-4.37.29-.85.46-1.74.69-2.61.11-.45.23-.89.34-1.33.32-1.19.64-2.38,1-3.58.14-.56.26-1.13.38-1.7.24-1.18.48-2.36.73-3.54s.54-2.61.82-3.92a3.85,3.85,0,0,1,.23-.55H99.55a1.78,1.78,0,0,1-.43,1.21c-.3.31-.32.89-.46,1.35a4.11,4.11,0,0,1-.21.68c-.39.76-.82,1.5-1.2,2.28-.3.62-.53,1.28-.81,1.92a1.37,1.37,0,0,1-.3.45,8.39,8.39,0,0,0-1,1.8c-.25.38-.52.75-.76,1.14s-.45.74-.65,1.12a4.16,4.16,0,0,1-1.12,1.61c-.52.39-.73,1.18-1.1,1.79a10.82,10.82,0,0,0-.87,1.4,6.94,6.94,0,0,1-1.44,2.46c-.09.09-.06.29-.14.42s-.32.5-.47.75a3.87,3.87,0,0,0-.31.65,4.61,4.61,0,0,1-1.2,2,1.07,1.07,0,0,0-.15.22c-.48.73-.91,1.49-1.43,2.19a5.75,5.75,0,0,1-1.36,1.42,4.89,4.89,0,0,0-1.53,2c-.08.13-.09.3-.17.43a2.17,2.17,0,0,1-2.36,1.11c-.14,0-.23-.22-.36-.32-.61-.5-1.08-.42-1.35.31-.42,1.11-.79,2.23-1.13,3.35A38.69,38.69,0,0,0,76,40.39,31.81,31.81,0,0,1,74.64,47a31.48,31.48,0,0,1-1.71,4.19,21.79,21.79,0,0,1-3.85,5.44,23.63,23.63,0,0,1-3.24,2.66c-1.54,1.05-3.17,2-4.78,2.93a2.26,2.26,0,0,1-.94.3,1.84,1.84,0,0,0-1.15.55c-1,.93-2,1.88-3.08,2.7A33.46,33.46,0,0,1,52,68.34a32.46,32.46,0,0,1-3.57,1.57c-.89.36-1.79.7-2.71,1a36.77,36.77,0,0,1-4.57,1c-1.87.31-3.73.13-5.58.34A16.64,16.64,0,0,1,33.73,72a22.46,22.46,0,0,1-3.57-.66A21.36,21.36,0,0,1,28,71c-.89-.24-1.78-.54-2.65-.87a31.7,31.7,0,0,1-6.58-3.31,27.24,27.24,0,0,1-6.06-5.23,37.27,37.27,0,0,1-3.59-4.87,29.19,29.19,0,0,1-2.69-6.24c-.39-1.34-.56-2.74-.85-4.11,0-.23-.09-.58-.26-.67-1.48-.83-1.95-2.35-2.49-3.78A8.31,8.31,0,0,1,2,39.07c0-.47-.48-.92-.62-1.42A25.4,25.4,0,0,1,0,29.14,13.72,13.72,0,0,1,.7,25.57c.7-2.05,1.94-3.82,2.81-5.78a6.8,6.8,0,0,0,.31-.86c.27-1,.55-2,.78-3a8.33,8.33,0,0,0,.2-1.57.93.93,0,0,0-.8-1.1,1.86,1.86,0,0,1-1.64-1.83C2.26,10.78,2.18,10.1,2.09,9.33Zm61.49,44a3.15,3.15,0,0,1-2.33-2.89A7.55,7.55,0,0,1,62.6,46a9.83,9.83,0,0,0,1.66-5.15,38.47,38.47,0,0,1,.12-6.35,1.13,1.13,0,0,0-.34-.92,8.81,8.81,0,0,1-.94-1.48c-.44-1-.81-1.95-1.22-2.92a2.72,2.72,0,0,0-.41-.61,27.06,27.06,0,0,0-6-5.46c-.69-.47-1.43-.87-2.11-1.35s-1.56-.56-2.28-1.06a10,10,0,0,0-2.31-1c-1.32-.45-2.64-.93-4-1.27-1.15-.3-2.38-.3-3.52-.64-1.62-.48-3.32-.19-4.94-.62a1,1,0,0,0-.28,0,16.15,16.15,0,0,1-1.84,0,24.13,24.13,0,0,0-3.4.08,21.13,21.13,0,0,0-4.18.64,17.12,17.12,0,0,1-2.52.61,10.89,10.89,0,0,0-3.54,1.1c-1.15.54-2.3,1.09-3.4,1.73a6.54,6.54,0,0,0-2.32,1.85c-.63,1-1.16,2-1.71,3-.1.17,0,.43-.06.64-.21,1.7-.32,3.42-.69,5.08a16.65,16.65,0,0,1-1.74,4.51,6.05,6.05,0,0,1-2.52,2.75,1,1,0,0,0-.66,1.1A29.13,29.13,0,0,0,8,46.19c.38,1.49.67,3,1.15,4.46a25.49,25.49,0,0,0,1.6,3.63c1.09,2.09,2.21,4.17,3.42,6.2a10.21,10.21,0,0,0,1.92,2.23,18.26,18.26,0,0,0,3.22,2.43c.9.5,1.76,1.09,2.64,1.64a6.56,6.56,0,0,0,1.27.74c1.82.61,3.52,1.55,5.39,2a1.65,1.65,0,0,1,.44.16,8,8,0,0,0,4,.76L35,70.5c1.14,0,2.28,0,3.41,0a31.55,31.55,0,0,0,3.47-.51,38.6,38.6,0,0,0,5.24-1.31c.63-.22,1.26-.45,1.86-.72s1.16-.57,1.74-.87,1.33-.63,2-1a21.32,21.32,0,0,0,2.09-1.42,13.94,13.94,0,0,0,1.8-1.4c1.57-1.67,3.37-3.13,4.61-5.1.71-1.13,1.51-2.2,2.16-3.36C63.53,54.39,63.9,53.9,63.58,53.37Zm5.78-29.49c-.23.19-.49.4-.73.62a5.23,5.23,0,0,1-1,.94,13.49,13.49,0,0,0-3.66,3c-.32.34-.37.57-.08.95a5.93,5.93,0,0,1,.59,1c.13.24.23.48.45.94l.48-1.12c.23-.51.45-1,.7-1.53s.56-.54,1-.22a1.3,1.3,0,0,1,0,.45,15.22,15.22,0,0,0-1.26,4.19,44.64,44.64,0,0,0-.47,4.9c0,1.39.14,2.78.11,4.17a7.64,7.64,0,0,1-.89,3.31A21.17,21.17,0,0,0,63,48.8a2.79,2.79,0,0,0,.31,2.73c.43.54.73.65,1.3.27a4.12,4.12,0,0,0,1.93-2.18,1,1,0,0,0,.57-.44c.67-1.59,1.32-3.19,2-4.8a5.24,5.24,0,0,0,.42-1.12,7.91,7.91,0,0,1,1.21-2.41c.12-.22.29-.41.69-.18a3.29,3.29,0,0,1-.06.75c-.41,1.26-.82,2.53-1.29,3.77a41.39,41.39,0,0,1-2.13,5.06,9.37,9.37,0,0,1-1.82,2.44,4.62,4.62,0,0,0-.91,1.16c-.62,1.11-1.13,2.29-1.77,3.39a11.47,11.47,0,0,1-2.14,3.15c-.06,0,0,.2,0,.5,1.1-.7,2.07-1.3,3-1.94.54-.37,1-.79,1.55-1.2a23.43,23.43,0,0,0,2.78-2.26,19.37,19.37,0,0,0,3.59-5.73,20.88,20.88,0,0,0,1.35-4c.06-.33.15-.66.22-1,.22-1.12.45-2.24.64-3.36.23-1.31.36-2.65.63-4s.64-2.66,1-4c.28-.95.68-1.86,1-2.8.2-.61.35-1.24.53-1.86A8.72,8.72,0,0,0,76.07,28a2.84,2.84,0,0,1-1.32-.77,2.24,2.24,0,0,0-.51-.41C72.65,25.87,71,24.9,69.36,23.88Zm-53.67-3,3.19-2a2.25,2.25,0,0,0-.18-.51A5,5,0,0,1,18,15.78a24.29,24.29,0,0,0-.36-2.68c-.05-.38-.2-.55-.62-.5-1.29.16-2.58.28-3.87.45-.83.11-1.65.31-2.48.39-1,.1-2,.07-3,.15a8.34,8.34,0,0,0-1.27.3c-.31.09-.39.34-.44.64-.24,1.25-.47,2.51-.77,3.75a12.47,12.47,0,0,1-1.63,4,12,12,0,0,0-1.89,4.53,22.15,22.15,0,0,0-.39,4.44,26.31,26.31,0,0,0,1.34,6.42,44.58,44.58,0,0,0,2,5.37,8.48,8.48,0,0,0,.62,1l.19-.06c0-.43,0-.86,0-1.28a11.85,11.85,0,0,1,.21-2.87C6,38.71,5.3,37.93,5.22,37a.27.27,0,0,0,0-.09,13.25,13.25,0,0,1,.39-3.77,24.08,24.08,0,0,0,.78-6.26c0-1,0-1.94,0-2.91,0-.51.16-.84.83-.82a8.08,8.08,0,0,1,.17,1.08,48.65,48.65,0,0,1,.06,5.4c-.07,1.06-.19,2.11-.34,3.16s-.44,2.37-.6,3.57a2.83,2.83,0,0,0,.22,1.17,1.09,1.09,0,0,0,1.57.32,10.24,10.24,0,0,0,.89-1.19,20.57,20.57,0,0,0,2.28-6.06,8.17,8.17,0,0,0,.31-1.15,3,3,0,0,0-.22-2.06.78.78,0,0,1,0-.95,19.08,19.08,0,0,0,1.09-1.85A23.06,23.06,0,0,0,15,17.66c.06-.46.32-.71.83-1a3.3,3.3,0,0,1,.28,1c-.05.71-.18,1.41-.28,2.11C15.8,20.06,15.76,20.36,15.69,20.87Zm62.39,5.68,0,.21.39.1c0-.07,0-.21,0-.22S78.21,26.58,78.08,26.55Z" transform="translate(0)"/><path class="a" d="M116.89,1.65a13.53,13.53,0,0,0,1.51.68c1.06.31,2.14.56,3.22.82.21.05.44,0,.65.06a15.06,15.06,0,0,0,3.91.11c.86-.07,1.71-.22,2.57-.26A13.85,13.85,0,0,0,132,2.48c1-.26,1.92-.46,2.87-.71,1.41-.37,2.8-.76,4.21-1.14a2.71,2.71,0,0,1,.55,0c-.1.18-.13.31-.21.36a11.75,11.75,0,0,1-2.82,1.62c-1.4.49-2.82.86-4.25,1.25a36.49,36.49,0,0,1-3.72.61A19.22,19.22,0,0,1,121.09,4a10.85,10.85,0,0,1-3.61-1.21A1,1,0,0,1,116.89,1.65Z" transform="translate(0)"/><path class="a" d="M104.91,186" transform="translate(0)"/><path class="a" d="M116,194.24c-.11-.14-.12-.17-.15-.18-1.25-.52-2.23.26-3.26.73-.09,0-.15.35-.1.48a.59.59,0,0,0,.43.26,5.11,5.11,0,0,0,2.4-.56C115.63,194.84,115.81,194.47,116,194.24Zm.89-3.29c-.34.36-.6.69-.38,1.12a1.89,1.89,0,0,0,2.45.56c-.14-.26-.3-.51-.43-.77C118.2,191.16,117.35,191.48,116.91,191Z" transform="translate(0)"/><path class="a" d="M149.8,208c-.25-.22-.38-.41-.54-.45s-.51.11-.46.4a.55.55,0,0,0,.39.36C149.34,208.28,149.52,208.11,149.8,208Z" transform="translate(0)"/><path class="a" d="M124.65,93.7l-.79,1C123.81,94.08,123.81,94.08,124.65,93.7Z" transform="translate(0)"/><path class="a" d="M146.89,3.25c.27.38.13.61-.18.92A.65.65,0,0,1,146.89,3.25Z" transform="translate(0)"/><path class="a" d="M120.26,103.75l-.48.2-.09-.22.48-.19Z" transform="translate(0)"/><path class="a" d="M98.53,111.86l-.16.19s-.11-.09-.1-.1a1.48,1.48,0,0,1,.13-.21Z" transform="translate(0)"/><path class="a" d="M88.72,192.57l.35.11-.06.15-.27-.29Z" transform="translate(0)"/><path class="a" d="M108.46,103.67l.25.18c-.07.09-.12.22-.21.25s-.16-.1-.25-.17Z" transform="translate(0)"/><path class="a" d="M111.13,74.23l.23-.36.13.08-.2.37Z" transform="translate(0)"/><path class="a" d="M112.11,70.67s.08-.11.11-.11.09,0,.13.09l-.13.15Z" transform="translate(0)"/><path class="a" d="M168.53,35.21A4,4,0,0,1,171,32.56a16.29,16.29,0,0,1,3.17-1.34,28.89,28.89,0,0,1,3.49-.59,1.13,1.13,0,0,1,.55,0,.49.49,0,0,1,.27.33.42.42,0,0,1-.18.36,3.23,3.23,0,0,1-1,.26,11.84,11.84,0,0,0-6,1.81C170.35,34,169.46,34.61,168.53,35.21Z" transform="translate(0)"/><path class="a" d="M133.49,175.4l.08.78a3.36,3.36,0,0,0-2.06,2.16,2.92,2.92,0,0,0-2.23,1.11c.26.22.59.5.24.81s-.64-.08-.89-.39l-1.49.72a1.51,1.51,0,0,1-.52.2.43.43,0,0,1-.37-.17.45.45,0,0,1,.1-.39c.09-.11.28-.14.4-.23,1.11-.78,2.21-1.58,3.33-2.36S132,175.71,133.49,175.4Z" transform="translate(0)"/><path class="a" d="M133.35,180.59a8.74,8.74,0,0,0,2.3-1.38,21.57,21.57,0,0,1,2.56-1.6l.14.16-1.07,1.47c.05.35.7.63.21,1s-.6-.05-.85-.39c-.57.35-1.13.75-1.73,1.05-.81.38-1.65.69-2.48,1-.2.08-.43.09-.63.17-.83.34-.83.35-1.31-.63a4.73,4.73,0,0,1,.59-.16c.55-.11,1.1-.16,1.64-.31a2.11,2.11,0,0,0,.65-.45Z" transform="translate(0)"/><path class="a" d="M169.17,144.66a1.53,1.53,0,0,1-.33-.38c-.14-.28-.13-.61.24-.66.66-.1.78-.58,1-1.09a15.48,15.48,0,0,1,1-2c.1-.17.38-.23.76-.45,0,.45,0,.67-.08.9s-.2.48-.17.71a.85.85,0,0,1-.36.88,1.2,1.2,0,0,0-.31.54l-1.28,3.38c-.1.25-.23.5-.38.81a2.15,2.15,0,0,1,.33.68.54.54,0,0,1-.37.38c-.14,0-.43-.27-.41-.33.32-.85-.22-1.76.18-2.61A4.39,4.39,0,0,0,169.17,144.66Z" transform="translate(0)"/><path class="a" d="M181.87,142.23a2,2,0,0,1,.11.59c-.1,1.83-.21,3.67-.36,5.5a4.87,4.87,0,0,1-.43,1.17c-.57-.05-.78-.27-.71-.75.14-1,.24-2,.41-3.05.08-.49.25-1-.08-1.43a.32.32,0,0,1,0-.27l.94-1.8Z" transform="translate(0)"/><path class="a" d="M174.7,142.17v3.33c.27.23.87-.05.87.52s-.56.34-.9.53l-.36,2.16c-.38-.27-.62-.5-1-.34a.38.38,0,0,1-.56-.31c0-.36.18-.5.52-.49h.38c.13-1.18.24-2.31.37-3.44a6,6,0,0,1,.22-1.19,3.39,3.39,0,0,1,.48-.75Z" transform="translate(0)"/><path class="a" d="M177.55,148.59c-.81-.35-.77-.34-.64-1.05a19.25,19.25,0,0,0,.29-2.39c0-.24-.19-.5-.25-.75s-.11-.63,0-.66c.64-.27.58-.9.81-1.38a3,3,0,0,1,.32-.46c.08.16.16.24.16.31-.12,1.94-.24,3.87-.38,5.81A2,2,0,0,1,177.55,148.59Z" transform="translate(0)"/><path class="a" d="M167.55,139.05c-.76,2-1.51,4-2.33,6.17a1.66,1.66,0,0,1-.11-1.83c.56-1,.92-2,1.4-3,.24-.49.55-.94.83-1.41Z" transform="translate(0)"/><path class="a" d="M179.75,146c-.29.19-.47.4-.61.38s-.26-.27-.4-.41c.15-.13.28-.34.43-.36S179.47,145.84,179.75,146Z" transform="translate(0)"/><path class="a" d="M157.23,148.6c-.22-.29-.44-.45-.42-.58s.23-.3.36-.44c.14.13.37.24.4.4S157.41,148.29,157.23,148.6Z" transform="translate(0)"/><path class="a" d="M141.17,175.36c.21.26.43.41.42.56a.55.55,0,0,1-.34.41.52.52,0,0,1-.41-.35C140.82,175.84,141,175.65,141.17,175.36Z" transform="translate(0)"/><path class="a" d="M135.81,173.89c-.25.24-.39.47-.53.48a.57.57,0,0,1-.43-.34c0-.11.18-.37.33-.41S135.51,173.75,135.81,173.89Z" transform="translate(0)"/><path class="a" d="M169.22,171.38c.18.29.34.44.35.61a.33.33,0,0,1-.47.37.59.59,0,0,1-.31-.45C168.8,171.77,169,171.63,169.22,171.38Z" transform="translate(0)"/><path class="a" d="M159.79,150c-.26.2-.4.38-.56.42a.34.34,0,0,1-.42-.43.59.59,0,0,1,.41-.36C159.36,149.61,159.52,149.81,159.79,150Z" transform="translate(0)"/><path class="a" d="M152.62,172c.25-.21.38-.4.53-.43a.34.34,0,0,1,.44.41.56.56,0,0,1-.39.37C153.06,172.38,152.9,172.19,152.62,172Z" transform="translate(0)"/><path class="a" d="M167.16,150.61c-.2-.29-.38-.43-.39-.6a.34.34,0,0,1,.46-.39.58.58,0,0,1,.31.43C167.54,150.2,167.35,150.35,167.16,150.61Z" transform="translate(0)"/><path class="a" d="M145.22,171.36c.18.3.38.47.36.61s-.24.28-.37.42c-.14-.14-.37-.27-.39-.42S145,171.66,145.22,171.36Z" transform="translate(0)"/><path class="a" d="M137.21,171.39c.21.25.4.39.43.55a.35.35,0,0,1-.43.42.58.58,0,0,1-.36-.4C136.84,171.82,137,171.66,137.21,171.39Z" transform="translate(0)"/><path class="a" d="M179.15,149.4c.2.28.39.43.39.58a.56.56,0,0,1-.34.42.34.34,0,0,1-.45-.41C178.78,149.83,179,149.68,179.15,149.4Z" transform="translate(0)"/><path class="a" d="M125.25,179.35c.19.27.37.42.4.59a.34.34,0,0,1-.45.41.57.57,0,0,1-.34-.43C124.86,179.77,125.06,179.61,125.25,179.35Z" transform="translate(0)"/><path class="a" d="M157.77,152c-.25.24-.4.47-.54.46a.54.54,0,0,1-.41-.35c0-.13.19-.38.33-.42S157.48,151.79,157.77,152Z" transform="translate(0)"/><path class="a" d="M161.24,143.43c.16.3.34.48.3.63s-.26.24-.41.36c-.12-.15-.34-.3-.34-.45S161,143.69,161.24,143.43Z" transform="translate(0)"/><path class="a" d="M169.22,151.42c.18.31.37.49.34.63s-.27.26-.42.39c-.12-.15-.33-.29-.34-.45S169,151.69,169.22,151.42Z" transform="translate(0)"/><path class="a" d="M173.1,151.43c.22.26.44.41.43.55s-.21.3-.33.45c-.15-.12-.39-.22-.43-.38S172.93,151.73,173.1,151.43Z" transform="translate(0)"/><path class="a" d="M179.18,142.63c-.21-.27-.39-.4-.42-.57a.36.36,0,0,1,.42-.46.57.57,0,0,1,.35.43C179.55,142.18,179.36,142.34,179.18,142.63Z" transform="translate(0)"/><path class="a" d="M151.25,170.53c-.22-.24-.42-.36-.45-.51a.35.35,0,0,1,.4-.46.57.57,0,0,1,.38.39C151.6,170.08,151.41,170.26,151.25,170.53Z" transform="translate(0)"/><path class="a" d="M147.8,170c-.29.16-.48.33-.62.3s-.36-.29-.34-.41a.56.56,0,0,1,.41-.35C147.4,169.57,147.54,169.8,147.8,170Z" transform="translate(0)"/><path class="a" d="M135.81,170.05c-.3.14-.49.32-.63.28s-.35-.3-.33-.42a.58.58,0,0,1,.43-.34C135.42,169.57,135.56,169.81,135.81,170.05Z" transform="translate(0)"/><path class="a" d="M169.77,167.9c-.26.24-.4.47-.54.47a.56.56,0,0,1-.43-.34.54.54,0,0,1,.33-.42C169.27,167.57,169.46,167.75,169.77,167.9Z" transform="translate(0)"/><path class="a" d="M163.76,142c-.26.2-.42.42-.56.41s-.4-.23-.4-.36a.57.57,0,0,1,.36-.42C163.3,141.59,163.48,141.8,163.76,142Z" transform="translate(0)"/><path class="a" d="M141.16,168.58c-.16-.3-.35-.49-.32-.63a.56.56,0,0,1,.41-.34.55.55,0,0,1,.34.42C141.59,168.17,141.38,168.32,141.16,168.58Z" transform="translate(0)"/><path class="a" d="M167.75,165.92c-.26.22-.41.45-.54.44a.58.58,0,0,1-.42-.35.58.58,0,0,1,.35-.42C167.26,165.56,167.45,165.75,167.75,165.92Z" transform="translate(0)"/><path class="a" d="M159.13,165.38c.23.27.45.41.45.56s-.22.3-.35.44c-.14-.12-.38-.23-.41-.37S159,165.68,159.13,165.38Z" transform="translate(0)"/><path class="a" d="M139.17,181.29c.22.32.42.48.42.62s-.2.4-.34.41a.52.52,0,0,1-.43-.3C138.81,181.84,139,181.64,139.17,181.29Z" transform="translate(0)"/><path class="a" d="M129.82,183.91c-.26.22-.38.41-.55.45a.35.35,0,0,1-.44-.42.58.58,0,0,1,.4-.36C129.37,183.56,129.54,183.74,129.82,183.91Z" transform="translate(0)"/><path class="a" d="M141.19,183.37c.21.26.39.39.42.55a.35.35,0,0,1-.42.44.61.61,0,0,1-.36-.41C140.81,183.81,141,183.65,141.19,183.37Z" transform="translate(0)"/><path class="a" d="M139.8,166c-.29.19-.47.39-.6.36s-.28-.26-.41-.4c.14-.13.28-.35.44-.37S139.52,165.79,139.8,166Z" transform="translate(0)"/><path class="a" d="M167.23,138.63c-.23-.28-.46-.44-.45-.57s.23-.3.36-.45c.14.12.37.23.4.39S167.39,138.32,167.23,138.63Z" transform="translate(0)"/><path class="a" d="M163.76,162c-.27.19-.42.37-.59.38a.34.34,0,0,1-.37-.47.54.54,0,0,1,.43-.31C163.37,161.62,163.51,161.83,163.76,162Z" transform="translate(0)"/><path class="a" d="M147.79,162c-.27.19-.41.38-.58.39a.34.34,0,0,1-.38-.47.56.56,0,0,1,.43-.31C147.4,161.62,147.55,161.82,147.79,162Z" transform="translate(0)"/><path class="a" d="M169.24,160.57c-.22-.25-.41-.37-.45-.52s.09-.52.39-.47a.63.63,0,0,1,.39.39C169.59,160.11,169.4,160.29,169.24,160.57Z" transform="translate(0)"/><path class="a" d="M169.15,139.44c.21.26.39.4.42.56a.35.35,0,0,1-.42.44.61.61,0,0,1-.36-.42C168.78,139.88,169,139.72,169.15,139.44Z" transform="translate(0)"/><path class="a" d="M173.21,140.63c-.22-.26-.44-.41-.44-.56a.56.56,0,0,1,.36-.41.52.52,0,0,1,.4.35C173.56,140.16,173.37,140.34,173.21,140.63Z" transform="translate(0)"/><path class="a" d="M145.8,160c-.29.2-.45.4-.59.38s-.39-.25-.38-.37a.59.59,0,0,1,.38-.4C145.34,159.57,145.51,159.78,145.8,160Z" transform="translate(0)"/><path class="a" d="M149.8,160c-.28.17-.45.35-.6.33a.59.59,0,0,1-.4-.37.35.35,0,0,1,.45-.42C149.42,159.62,149.54,159.81,149.8,160Z" transform="translate(0)"/><path class="a" d="M153.17,160.59c-.18-.3-.37-.48-.34-.62s.25-.27.39-.41c.13.15.35.28.37.44S153.39,160.3,153.17,160.59Z" transform="translate(0)"/><path class="a" d="M157.17,160.59c-.19-.31-.39-.49-.36-.62s.26-.27.4-.4c.13.14.34.28.36.44S157.38,160.31,157.17,160.59Z" transform="translate(0)"/><path class="a" d="M161.77,159.92c-.27.23-.41.44-.55.44s-.31-.21-.46-.33c.12-.16.23-.39.38-.43S161.46,159.75,161.77,159.92Z" transform="translate(0)"/><path class="a" d="M173.75,160c-.27.18-.43.38-.57.36a.56.56,0,0,1-.42-.34.36.36,0,0,1,.43-.44C173.35,159.61,173.48,159.8,173.75,160Z" transform="translate(0)"/><path class="a" d="M151.25,161.42c.17.28.35.45.33.58a.61.61,0,0,1-.38.4.36.36,0,0,1-.41-.46C150.83,161.78,151,161.66,151.25,161.42Z" transform="translate(0)"/><path class="a" d="M159.79,162c-.26.2-.4.39-.56.42a.33.33,0,0,1-.41-.44.55.55,0,0,1,.4-.34C159.37,161.61,159.52,161.8,159.79,162Z" transform="translate(0)"/><path class="a" d="M170.59,162c.28-.2.42-.36.59-.4a.3.3,0,0,1,.39.37.65.65,0,0,1-.38.41C171.06,162.42,170.88,162.2,170.59,162Z" transform="translate(0)"/><path class="a" d="M181.74,140c-.25.2-.39.39-.55.42a.33.33,0,0,1-.4-.44.55.55,0,0,1,.39-.35C181.33,139.64,181.48,139.84,181.74,140Z" transform="translate(0)"/><path class="a" d="M175.69,137.76c-.06.17-.08.4-.2.49a.9.9,0,0,1-.57.1.47.47,0,0,1-.13-.38.79.79,0,0,1,.42-.35c.15,0,.34.1.51.17Z" transform="translate(0)"/><path class="a" d="M171.76,138.07c-.28.17-.46.35-.6.33a.56.56,0,0,1-.38-.38.33.33,0,0,1,.44-.4C171.38,137.66,171.51,137.85,171.76,138.07Z" transform="translate(0)"/><path class="a" d="M181.11,155.4c.23.28.45.44.44.58s-.23.29-.36.44c-.14-.13-.36-.25-.4-.4S180.94,155.7,181.11,155.4Z" transform="translate(0)"/><path class="a" d="M163.76,138.15c-.32.13-.53.29-.67.24a.55.55,0,0,1-.28-.45.58.58,0,0,1,.46-.3C163.41,137.66,163.53,137.9,163.76,138.15Z" transform="translate(0)"/><path class="a" d="M173.75,156c-.28.2-.45.42-.59.4s-.28-.25-.42-.39c.14-.13.27-.35.42-.38S173.47,155.8,173.75,156Z" transform="translate(0)"/><path class="a" d="M169.75,156c-.25.2-.38.39-.55.42a.33.33,0,0,1-.41-.43.55.55,0,0,1,.4-.35C169.33,155.61,169.49,155.8,169.75,156Z" transform="translate(0)"/><path class="a" d="M161.17,155.41c.19.28.39.44.38.58s-.24.28-.37.43c-.14-.14-.37-.26-.4-.41S161,155.7,161.17,155.41Z" transform="translate(0)"/><path class="a" d="M137.22,184.55c-.18-.28-.38-.44-.37-.59s.26-.38.39-.37a.55.55,0,0,1,.39.38C137.64,184.11,137.43,184.28,137.22,184.55Z" transform="translate(0)"/><path class="a" d="M157.13,156.6c-.16-.3-.35-.49-.32-.63s.27-.25.42-.37c.12.15.33.29.33.44S157.35,156.33,157.13,156.6Z" transform="translate(0)"/><path class="a" d="M153.16,155.4c.22.28.43.44.43.58s-.23.29-.36.43c-.14-.13-.36-.24-.39-.39S153,155.7,153.16,155.4Z" transform="translate(0)"/><path class="a" d="M149.15,155.41c.23.26.45.41.44.55s-.21.3-.33.46c-.14-.13-.38-.23-.41-.38S149,155.72,149.15,155.41Z" transform="translate(0)"/><path class="a" d="M179.75,154c-.28.19-.45.4-.59.38s-.39-.26-.39-.39a.58.58,0,0,1,.39-.4C179.3,153.57,179.46,153.79,179.75,154Z" transform="translate(0)"/><path class="a" d="M135.81,182c-.26.18-.41.38-.55.37a.56.56,0,0,1-.42-.34.34.34,0,0,1,.4-.45C135.41,181.57,135.54,181.75,135.81,182Z" transform="translate(0)"/><path class="a" d="M127.83,181.92c-.26.21-.41.41-.55.41a.56.56,0,0,1-.43-.33.35.35,0,0,1,.39-.47C127.41,181.56,127.56,181.73,127.83,181.92Z" transform="translate(0)"/><path class="a" d="M175.76,154c-.26.21-.41.42-.56.42s-.4-.22-.4-.35a.56.56,0,0,1,.34-.42C175.29,153.58,175.47,153.78,175.76,154Z" transform="translate(0)"/><path class="a" d="M123.83,182c-.29.18-.47.37-.6.35s-.39-.27-.38-.4a.61.61,0,0,1,.4-.38C123.39,181.54,123.55,181.76,123.83,182Z" transform="translate(0)"/><path class="a" d="M153.78,167.94c-.26.22-.41.44-.55.44a.52.52,0,0,1-.39-.37c0-.13.2-.37.34-.4S153.5,167.78,153.78,167.94Z" transform="translate(0)"/><path class="a" d="M157.78,167.92c-.26.23-.41.46-.55.45a.53.53,0,0,1-.41-.35c0-.13.19-.37.34-.41S157.48,167.76,157.78,167.92Z" transform="translate(0)"/><path class="a" d="M167.74,154.08c-.3.15-.49.33-.62.29s-.35-.3-.33-.42a.59.59,0,0,1,.43-.35C167.35,153.6,167.49,153.84,167.74,154.08Z" transform="translate(0)"/><path class="a" d="M163.12,154.59c-.17-.3-.35-.49-.32-.62s.26-.27.41-.39c.12.14.34.29.35.45S163.34,154.32,163.12,154.59Z" transform="translate(0)"/><path class="a" d="M159.79,154c-.27.18-.44.38-.59.36a.54.54,0,0,1-.38-.38.55.55,0,0,1,.39-.39C159.36,153.59,159.52,153.8,159.79,154Z" transform="translate(0)"/><path class="a" d="M149.79,180c-.26.18-.42.38-.57.37a.57.57,0,0,1-.39-.38.34.34,0,0,1,.43-.43C149.42,179.58,149.55,179.78,149.79,180Z" transform="translate(0)"/><path class="a" d="M141.21,180.55c-.19-.27-.36-.42-.39-.58a.34.34,0,0,1,.44-.42.58.58,0,0,1,.34.43C141.61,180.13,141.41,180.28,141.21,180.55Z" transform="translate(0)"/><path class="a" d="M151.77,154.13c-.31.12-.52.28-.65.23a.38.38,0,1,1,.16-.75C151.43,153.62,151.54,153.87,151.77,154.13Z" transform="translate(0)"/><path class="a" d="M133.37,180.57c-.16-.13-.38-.23-.48-.4a.62.62,0,0,1,.05-.51.43.43,0,0,1,.4-.1.59.59,0,0,1,.25.43,1.89,1.89,0,0,1-.24.6Z" transform="translate(0)"/><path class="a" d="M173.75,144.05c-.29.18-.47.38-.6.35s-.27-.26-.4-.4c.14-.13.28-.35.43-.37S173.48,143.84,173.75,144.05Z" transform="translate(0)"/><path class="a" d="M151.79,178c-.3.18-.49.38-.62.35s-.26-.27-.39-.42c.15-.13.3-.34.45-.35S151.52,177.79,151.79,178Z" transform="translate(0)"/><path class="a" d="M175.75,150c-.26.2-.39.38-.55.42a.34.34,0,0,1-.41-.44.55.55,0,0,1,.39-.35C175.33,149.61,175.49,149.81,175.75,150Z" transform="translate(0)"/><path class="a" d="M141.8,172c-.26.2-.4.38-.56.41a.34.34,0,0,1-.41-.44.51.51,0,0,1,.4-.34C141.38,171.58,141.53,171.77,141.8,172Z" transform="translate(0)"/><path class="a" d="M171.76,150c-.27.18-.41.36-.58.38a.33.33,0,0,1-.4-.45.56.56,0,0,1,.42-.34C171.35,149.62,171.5,149.82,171.76,150Z" transform="translate(0)"/><path class="a" d="M149.8,171.93c-.26.21-.38.4-.55.44a.34.34,0,0,1-.45-.41.61.61,0,0,1,.4-.38C149.35,171.57,149.52,171.76,149.8,171.93Z" transform="translate(0)"/><path class="a" d="M147.17,177.36c.22.28.43.44.42.58s-.23.29-.36.44c-.14-.13-.37-.25-.4-.4S147,177.66,147.17,177.36Z" transform="translate(0)"/><path class="a" d="M163.25,146.61c-.22-.25-.44-.39-.45-.54s.2-.4.33-.4a.57.57,0,0,1,.43.32C163.59,146.13,163.4,146.32,163.25,146.61Z" transform="translate(0)"/><path class="a" d="M139.25,177.36c.17.3.36.48.33.62s-.26.27-.4.4c-.13-.15-.35-.29-.36-.44S139,177.64,139.25,177.36Z" transform="translate(0)"/><path class="a" d="M147.81,174c-.28.21-.44.43-.59.42s-.28-.24-.42-.38c.13-.13.25-.36.4-.38S147.52,173.78,147.81,174Z" transform="translate(0)"/><path class="a" d="M151.18,173.39c.2.28.41.44.4.58s-.24.28-.38.43c-.14-.14-.37-.26-.4-.42S151,173.68,151.18,173.39Z" transform="translate(0)"/><path class="a" d="M169.15,175.35c.2.28.42.44.41.59a.54.54,0,0,1-.37.38c-.13,0-.37-.21-.39-.36S169,175.64,169.15,175.35Z" transform="translate(0)"/><path class="a" d="M153.79,176c-.28.18-.45.37-.59.36s-.37-.25-.36-.38a.54.54,0,0,1,.37-.39C153.35,175.55,153.51,175.76,153.79,176Z" transform="translate(0)"/><path class="a" d="M129.83,175.91c-.27.21-.42.43-.56.42s-.3-.22-.45-.34c.13-.15.23-.39.38-.42S129.52,175.73,129.83,175.91Z" transform="translate(0)"/><path class="a" d="M137.83,175.92c-.27.2-.42.41-.57.4a.54.54,0,0,1-.4-.34.56.56,0,0,1,.35-.41C137.36,175.55,137.54,175.74,137.83,175.92Z" transform="translate(0)"/><path class="a" d="M145.78,175.92c-.26.21-.41.42-.55.41s-.4-.23-.4-.35a.54.54,0,0,1,.35-.41C145.31,175.54,145.49,175.74,145.78,175.92Z" transform="translate(0)"/><path class="a" d="M153.78,164c-.29.16-.47.35-.61.32a.38.38,0,0,1,.06-.75C153.38,163.59,153.52,163.81,153.78,164Z" transform="translate(0)"/><path class="a" d="M157.22,164.56c-.21-.27-.42-.42-.41-.56a.54.54,0,0,1,.36-.4c.13,0,.37.21.4.36S157.4,164.27,157.22,164.56Z" transform="translate(0)"/><path class="a" d="M127.19,177.36c.22.27.43.42.43.56s-.21.31-.33.46c-.14-.13-.37-.23-.4-.38S127,177.67,127.19,177.36Z" transform="translate(0)"/><path class="a" d="M135.17,178.56c-.17-.3-.35-.49-.32-.63s.27-.25.41-.37c.12.15.34.29.34.44S135.38,178.3,135.17,178.56Z" transform="translate(0)"/><path class="a" d="M143.23,177.35c.19.31.37.48.35.62s-.24.28-.38.41c-.12-.14-.33-.28-.34-.43S143,177.64,143.23,177.35Z" transform="translate(0)"/><path class="a" d="M133.28,171.35c.16.33.33.52.3.66s-.26.25-.4.37c-.12-.15-.32-.3-.33-.45S133.06,171.64,133.28,171.35Z" transform="translate(0)"/><path class="a" d="M167.13,170.56c-.18-.31-.37-.49-.34-.63s.27-.27.41-.4c.12.15.32.3.34.46S167.34,170.28,167.13,170.56Z" transform="translate(0)"/><path class="a" d="M173.76,136.08c-.32.16-.5.33-.64.3s-.25-.26-.38-.4c.15-.12.3-.32.46-.33S173.48,135.86,173.76,136.08Z" transform="translate(0)"/><path class="a" d="M161.14,140.63c-.18-.29-.37-.47-.35-.62a.54.54,0,0,1,.41-.35.53.53,0,0,1,.34.41C161.55,140.21,161.34,140.37,161.14,140.63Z" transform="translate(0)"/><path class="a" d="M145.77,180c-.27.17-.44.37-.57.35a.59.59,0,0,1-.38-.39.35.35,0,0,1,.44-.42C145.42,179.58,145.54,179.78,145.77,180Z" transform="translate(0)"/><path class="a" d="M139.79,170c-.3.15-.49.33-.62.29s-.25-.27-.37-.42c.15-.12.3-.34.46-.34S139.54,169.8,139.79,170Z" transform="translate(0)"/><path class="a" d="M159.79,142c-.28.19-.44.39-.59.38a.55.55,0,0,1-.38-.39.57.57,0,0,1,.38-.39C159.35,141.61,159.51,141.82,159.79,142Z" transform="translate(0)"/><path class="a" d="M167.18,141.41c.18.27.37.43.36.58a.55.55,0,0,1-.32.43.34.34,0,0,1-.45-.41C166.8,141.84,167,141.69,167.18,141.41Z" transform="translate(0)"/><path class="a" d="M174.72,142.19c.05-.35.12-.73.61-.55a.57.57,0,0,1,.2.52c-.24.45-.55.25-.83,0Z" transform="translate(0)"/><path class="a" d="M157.76,144.05c-.27.18-.42.35-.58.37a.35.35,0,0,1-.38-.47.57.57,0,0,1,.43-.32C157.38,143.63,157.52,143.84,157.76,144.05Z" transform="translate(0)"/><path class="a" d="M159.17,146.61c-.17-.28-.37-.45-.35-.59s.26-.37.39-.36a.56.56,0,0,1,.38.38C159.6,146.18,159.38,146.34,159.17,146.61Z" transform="translate(0)"/><path class="a" d="M143.79,182c-.28.17-.45.37-.59.35a.55.55,0,0,1-.34-.4.52.52,0,0,1,.38-.38C143.38,181.54,143.53,181.76,143.79,182Z" transform="translate(0)"/><path class="a" d="M151.17,166.57c-.19-.29-.39-.47-.36-.61s.26-.26.41-.39c.12.14.34.28.35.43S151.37,166.3,151.17,166.57Z" transform="translate(0)"/><path class="a" d="M133.8,183.94c-.27.21-.44.43-.57.41a.56.56,0,0,1-.38-.38c0-.13.22-.36.37-.39S133.52,183.76,133.8,183.94Z" transform="translate(0)"/><path class="a" d="M147.18,165.38c.21.27.42.43.41.58s-.23.28-.36.43c-.14-.13-.37-.25-.4-.4S147,165.67,147.18,165.38Z" transform="translate(0)"/><path class="a" d="M143.24,166.59c-.2-.29-.39-.45-.38-.59s.21-.29.33-.44c.14.13.36.25.39.4S143.42,166.28,143.24,166.59Z" transform="translate(0)"/><path class="a" d="M169.13,163.39c.21.26.43.41.43.55a.54.54,0,0,1-.36.4c-.13,0-.37-.2-.4-.34S169,163.68,169.13,163.39Z" transform="translate(0)"/><path class="a" d="M135.83,185.93c-.29.19-.46.39-.6.37s-.28-.23-.42-.36c.14-.14.27-.36.42-.38S135.53,185.74,135.83,185.93Z" transform="translate(0)"/><path class="a" d="M153.17,148.6c-.18-.3-.37-.48-.34-.62s.25-.27.38-.4c.14.14.36.28.38.44S153.38,148.31,153.17,148.6Z" transform="translate(0)"/><path class="a" d="M165.76,148.09c-.29.14-.48.31-.62.27a.49.49,0,0,1-.3-.42.52.52,0,0,1,.4-.33C165.39,147.62,165.52,147.85,165.76,148.09Z" transform="translate(0)"/><path class="a" d="M163.76,150.05c-.27.17-.42.34-.59.36a.33.33,0,0,1-.37-.47.56.56,0,0,1,.43-.31C163.37,149.63,163.51,149.84,163.76,150.05Z" transform="translate(0)"/><path class="a" d="M141.19,163.39c.21.27.42.43.41.57a.38.38,0,0,1-.76,0C140.82,163.85,141,163.67,141.19,163.39Z" transform="translate(0)"/><path class="a" d="M147.17,158.56c-.18-.29-.37-.47-.34-.6s.27-.36.41-.35a.56.56,0,0,1,.36.4C147.6,158.14,147.39,158.29,147.17,158.56Z" transform="translate(0)"/><path class="a" d="M167.76,162.05c-.3.17-.49.37-.62.34a.59.59,0,0,1-.35-.43c0-.12.26-.33.42-.34S167.49,161.83,167.76,162.05Z" transform="translate(0)"/><path class="a" d="M151.8,158c-.29.18-.46.37-.6.35s-.28-.23-.42-.36c.14-.13.26-.35.41-.37S151.5,157.79,151.8,158Z" transform="translate(0)"/><path class="a" d="M143.79,162c-.26.22-.4.44-.54.44a.39.39,0,0,1-.06-.77C143.33,161.59,143.51,161.78,143.79,162Z" transform="translate(0)"/><path class="a" d="M159.18,158.55c-.19-.28-.38-.45-.36-.58s.27-.38.39-.37a.57.57,0,0,1,.38.4C159.61,158.13,159.39,158.29,159.18,158.55Z" transform="translate(0)"/><path class="a" d="M163.23,157.41c.17.28.36.46.33.6a.55.55,0,0,1-.42.33.54.54,0,0,1-.34-.4C162.8,157.8,163,157.66,163.23,157.41Z" transform="translate(0)"/><path class="a" d="M165.76,159.92c-.25.22-.4.44-.53.44a.52.52,0,0,1-.4-.34.53.53,0,0,1,.32-.43C165.29,159.56,165.47,159.75,165.76,159.92Z" transform="translate(0)"/><path class="a" d="M175.2,158.56c-.2-.27-.41-.42-.4-.55s.22-.29.34-.43c.14.12.37.23.41.38S175.38,158.27,175.2,158.56Z" transform="translate(0)"/><path class="a" d="M171.12,158.55c-.16-.3-.34-.48-.3-.61s.26-.25.41-.36c.11.14.32.29.33.44S171.34,158.3,171.12,158.55Z" transform="translate(0)"/><path class="a" d="M171.77,174c-.28.21-.43.43-.58.42a.56.56,0,0,1-.38-.38c0-.13.22-.35.37-.38S171.49,173.78,171.77,174Z" transform="translate(0)"/><path class="a" d="M143.79,174c-.27.2-.44.4-.58.39a.57.57,0,0,1-.35-.39c0-.13.23-.35.37-.37S143.53,173.8,143.79,174Z" transform="translate(0)"/><path class="a" d="M139.19,173.4c.2.27.41.43.39.56s-.23.29-.35.43c-.15-.13-.38-.24-.41-.4S139,173.69,139.19,173.4Z" transform="translate(0)"/><path class="a" d="M155.77,162c-.29.21-.47.42-.59.39s-.29-.26-.32-.43.21-.33.32-.32S155.48,161.8,155.77,162Z" transform="translate(0)"/><path class="a" d="M131.19,174.58c-.16-.29-.35-.47-.32-.61s.26-.37.38-.35a.53.53,0,0,1,.37.38C131.62,174.15,131.41,174.3,131.19,174.58Z" transform="translate(0)"/><path class="a" d="M177.13,156.62c-.17-.33-.34-.52-.31-.66s.27-.24.41-.35c.11.13.29.27.28.39S177.33,156.31,177.13,156.62Z" transform="translate(0)"/><path class="a" d="M165.15,155.39c.21.29.41.45.4.58s-.21.3-.33.45c-.14-.14-.36-.25-.39-.4S165,155.7,165.15,155.39Z" transform="translate(0)"/><path class="a" d="M145.78,164c-.29.17-.47.35-.6.32s-.25-.26-.38-.4c.15-.12.29-.33.44-.35S145.52,163.8,145.78,164Z" transform="translate(0)"/><path class="a" d="M171.2,153.4c.18.29.37.46.36.61s-.25.26-.39.39c-.13-.14-.34-.27-.35-.42S171,153.67,171.2,153.4Z" transform="translate(0)"/><path class="a" d="M171.77,170c-.28.17-.45.36-.59.33s-.37-.26-.36-.38a.54.54,0,0,1,.38-.39C171.34,169.56,171.5,169.78,171.77,170Z" transform="translate(0)"/><path class="a" d="M181.75,152c-.29.19-.46.4-.61.38a.53.53,0,0,1-.35-.41c0-.13.24-.35.39-.36S181.48,151.84,181.75,152Z" transform="translate(0)"/><path class="a" d="M143.78,170c-.28.15-.47.33-.6.3a.52.52,0,0,1-.31-.42.53.53,0,0,1,.39-.35C143.4,169.56,143.53,169.79,143.78,170Z" transform="translate(0)"/><path class="a" d="M165.12,152.62c-.15-.3-.32-.49-.29-.63s.26-.25.4-.37c.12.15.33.29.33.44S165.35,152.35,165.12,152.62Z" transform="translate(0)"/><path class="a" d="M161.76,152c-.27.22-.42.45-.55.44s-.3-.24-.44-.37c.12-.14.23-.36.38-.39S161.47,151.8,161.76,152Z" transform="translate(0)"/><path class="a" d="M152.61,152c.28-.2.45-.4.58-.38s.28.24.42.38c-.14.14-.26.36-.42.39S152.89,152.22,152.61,152Z" transform="translate(0)"/><path class="a" d="M165.76,140c-.26.21-.42.43-.55.42a.54.54,0,0,1-.38-.38.53.53,0,0,1,.35-.39C165.31,139.63,165.48,139.83,165.76,140Z" transform="translate(0)"/><path class="a" d="M149.24,163.39c.18.29.38.46.36.6a.53.53,0,0,1-.4.35.53.53,0,0,1-.35-.39C148.84,163.81,149.05,163.65,149.24,163.39Z" transform="translate(0)"/><path class="a" d="M155.77,150c-.29.19-.47.4-.59.37a.6.6,0,0,1-.32-.43c0-.1.21-.34.32-.33S155.48,149.82,155.77,150Z" transform="translate(0)"/><path class="a" d="M149.78,176.1c-.3.11-.51.27-.64.22a.54.54,0,0,1-.28-.45.55.55,0,0,1,.44-.29C149.45,175.61,149.56,175.84,149.78,176.1Z" transform="translate(0)"/><path class="a" d="M165.14,163.38c.21.27.42.42.42.56s-.22.29-.34.43c-.14-.12-.36-.23-.39-.38S165,163.68,165.14,163.38Z" transform="translate(0)"/><path class="a" d="M161.25,147.42c.15.29.33.47.3.61a.38.38,0,0,1-.76-.07C160.8,147.81,161,147.67,161.25,147.42Z" transform="translate(0)"/><path class="a" d="M139.8,185.87c-.27.22-.42.43-.56.43s-.29-.21-.44-.33c.12-.15.23-.37.38-.41S139.5,185.71,139.8,185.87Z" transform="translate(0)"/><path class="a" d="M171.12,145.44c.22.26.44.4.44.54s-.21.3-.33.45c-.15-.12-.38-.22-.41-.37S171,145.74,171.12,145.44Z" transform="translate(0)"/><path class="a" d="M167.76,146c-.28.22-.44.43-.57.42s-.29-.24-.43-.37c.13-.14.24-.36.39-.39S167.46,145.82,167.76,146Z" transform="translate(0)"/><path class="a" d="M155.76,166c-.28.19-.43.36-.58.38s-.34-.24-.32-.33.18-.4.32-.43S155.48,165.78,155.76,166Z" transform="translate(0)"/><path class="a" d="M177.72,140c-.26.23-.41.46-.53.45s-.33-.23-.38-.39a.5.5,0,0,1,.29-.37C177.25,139.65,177.42,139.81,177.72,140Z" transform="translate(0)"/><path class="a" d="M165.75,167.93c-.25.22-.39.44-.53.44a.51.51,0,0,1-.38-.36.53.53,0,0,1,.33-.4C165.3,167.58,165.48,167.77,165.75,167.93Z" transform="translate(0)"/><path class="a" d="M171.73,166c-.28.19-.43.36-.59.37s-.34-.23-.32-.33.19-.4.33-.42S171.45,165.78,171.73,166Z" transform="translate(0)"/><path class="a" d="M137.17,167.4c.22.26.45.4.44.54s-.22.3-.34.45c-.15-.12-.38-.22-.41-.37S137,167.7,137.17,167.4Z" transform="translate(0)"/><path class="a" d="M145.19,168.58c-.18-.3-.38-.47-.36-.62s.26-.25.4-.38c.12.15.33.28.34.43S145.38,168.31,145.19,168.58Z" transform="translate(0)"/><path class="a" d="M149.2,168.57c-.18-.28-.37-.45-.35-.59a.38.38,0,1,1,.75,0C149.61,168.14,149.4,168.3,149.2,168.57Z" transform="translate(0)"/><path class="a" d="M167.76,158c-.29.19-.46.38-.59.36s-.27-.24-.41-.37c.14-.13.27-.35.42-.37S167.47,157.78,167.76,158Z" transform="translate(0)"/><path class="a" d="M155.24,169.34c.16.33.33.51.3.66s-.27.23-.41.35c-.1-.14-.29-.28-.28-.4S155,169.64,155.24,169.34Z" transform="translate(0)"/><path class="a" d="M155.1,145.47c.23.23.45.36.43.46a1.32,1.32,0,0,1-.29.49c-.13-.11-.36-.2-.37-.32S155,145.76,155.1,145.47Z" transform="translate(0)"/><path class="a" d="M177.12,151.41c.21.31.38.45.39.61s-.17.27-.27.4c-.15-.11-.38-.21-.42-.35S177,151.74,177.12,151.41Z" transform="translate(0)"/><path class="a" d="M155.75,154c-.27.19-.42.36-.58.37s-.33-.23-.31-.33a.63.63,0,0,1,.32-.43C155.3,153.58,155.48,153.8,155.75,154Z" transform="translate(0)"/><path class="a" d="M155.13,157.42c.21.23.42.37.41.47s-.2.31-.31.46c-.13-.1-.36-.2-.37-.31S155,157.7,155.13,157.42Z" transform="translate(0)"/><path class="a" d="M155.11,174.54c-.12-.29-.26-.47-.25-.64a.49.49,0,0,1,.38-.28c.28,0,.38.21.3.45S155.33,174.31,155.11,174.54Z" transform="translate(0)"/><path class="a" d="M160.43,279.52s0,.07-.05.08l-.64.19c0-.08-.07-.23-.05-.24l.67-.23Z" transform="translate(0)"/><path class="a" d="M138.1,253.94c-.14-.06-.28-.11-.42-.18a1.63,1.63,0,0,1,.07-.22l.44.19Z" transform="translate(0)"/><path class="a" d="M171.58,234.41a1.43,1.43,0,0,1,.2,1.31,6.24,6.24,0,0,1-2.53,3.78,3,3,0,0,1-3.4-.06,1.68,1.68,0,0,1-.54-2.07c.38-.06.44.2.52.43a1.67,1.67,0,0,0,2.43,1,3.65,3.65,0,0,0,1.9-2c.18-.53.38-1.05.58-1.57A1.18,1.18,0,0,1,171.58,234.41Z" transform="translate(0)"/><path class="a" d="M168.1,219.48a5.56,5.56,0,0,1,.26,1.19.81.81,0,0,1-.44.61.6.6,0,0,1-.83-.36,4.61,4.61,0,0,1-.22-.51c-.2-.66,0-1,.73-1C167.72,219.42,167.84,219.45,168.1,219.48Z" transform="translate(0)"/><path class="a" d="M164.29,116.29c-.12.55-.22,1.1-.36,1.64a2.22,2.22,0,0,1-1.94,1.65,2.13,2.13,0,0,1-2.1-1.13,13.62,13.62,0,0,1-.94-1.72,19.42,19.42,0,0,1-2.19-9.15,7.26,7.26,0,0,1,.22-1.46,1.53,1.53,0,0,1,1.4-1.18,2.33,2.33,0,0,1,2.39,1.31c.38.73.64,1.53,1,2.3s.64,1.54,1,2.26a12.26,12.26,0,0,1,1.51,4.74,3.71,3.71,0,0,1-.08.73Zm-2.34,2a3.83,3.83,0,0,0,.56-.76,4.87,4.87,0,0,0,.16-3.26,28.74,28.74,0,0,0-1.24-3.4c-.57-1.2-1.29-2.33-2-3.48-.09-.15-.3-.23-.65-.48C158.47,111.16,158.87,115,162,118.28Z" transform="translate(0)"/><path class="a" d="M166.63,124.11a4,4,0,0,1-.59,1.08,14.12,14.12,0,0,1-2.84,2.26c-.68.36-1.31.8-2,1.21a1.19,1.19,0,0,1-.25.13l-2.9,1.16a2.48,2.48,0,0,1-.35.13c-.38.08-1-.16-1-.39,0-.42.34-.55.65-.7,1.06-.5,2.17-.91,3.17-1.51,1.43-.84,2.78-1.82,4.17-2.74A4.28,4.28,0,0,1,166.63,124.11Z" transform="translate(0)"/><path class="a" d="M167.65,121.48a1.59,1.59,0,0,1,.56.15c1.13.86,2.27,1.7,3.33,2.64A1.41,1.41,0,0,1,172,126a1.09,1.09,0,0,1-1.08-.36c-.92-1-1.85-1.93-2.75-2.92a6.59,6.59,0,0,1-.65-1Z" transform="translate(0)"/><path class="a" d="M78.08,26.55c.13,0,.25.05.37.09s0,.15,0,.22l-.39-.1Z" transform="translate(0)"/><path class="a" d="M138.93,25.05a1.25,1.25,0,0,1,.58,1.43,5.94,5.94,0,0,1-2.18,3.7,11.21,11.21,0,0,1-3.74,2,18,18,0,0,1-2.56.43c-.24,0-.49,0-.74.05a6.51,6.51,0,0,1-3.93-.88,1.4,1.4,0,0,1-.74-1.21,1.77,1.77,0,0,1,.54.15,7.29,7.29,0,0,0,5.09.93,10,10,0,0,0,3.09-.9A5.53,5.53,0,0,0,136.81,29a12.47,12.47,0,0,0,1-1.24,20.71,20.71,0,0,0,.79-1.94C138.66,25.61,138.78,25.38,138.93,25.05Z" transform="translate(0)"/><path class="a" d="M91.77,84.48c1.32,1.49,2.57,2.87,3.84,4.3a17.09,17.09,0,0,0,1.28-1.69A11.57,11.57,0,0,1,101.12,83a8.07,8.07,0,0,1,1.63-.83,1,1,0,0,1,1.34.51,1.28,1.28,0,0,1-.87.76A6.58,6.58,0,0,0,100,85.31a11.06,11.06,0,0,0-1.89,2.41,2.65,2.65,0,0,1-.75.78,1.89,1.89,0,0,0-.67,1.41,1.61,1.61,0,0,1,.62,1.46A1,1,0,0,1,96,91.2a10.21,10.21,0,0,1-1.58-1.7,24.72,24.72,0,0,0-2.09-2.38c-.4-.44-.85-.83-1.2-1.3a2.7,2.7,0,0,1-.44-1.11c-.13-.71.06-.93.72-1.21A25.14,25.14,0,0,1,98.47,82a3.6,3.6,0,0,1,2.36.45,1.5,1.5,0,0,1-1.29.69c-1.22.18-2.47.2-3.69.36s-2.3.41-3.45.64A3,3,0,0,0,91.77,84.48Z" transform="translate(0)"/><path class="a" d="M118.22,90.09c0,1-.33,1.54-1,1.77a7.26,7.26,0,0,0-1.79.93,5.91,5.91,0,0,1-1.64.58c-.15,0-.33,0-.47,0-.85.33-1.55-.12-2.29-.42a2,2,0,0,1-1.31-2.2,2.78,2.78,0,0,1,1.16-1.87,19.85,19.85,0,0,1,2.77-1.46,1.18,1.18,0,0,1,.79-.18,9.92,9.92,0,0,1,2.22.64A2.66,2.66,0,0,1,118.22,90.09ZM114,88.34a3.92,3.92,0,0,0-3,2.08,1.22,1.22,0,0,0,.18,1,3.13,3.13,0,0,0,2.93.58,12.49,12.49,0,0,0,2-.79,1,1,0,0,0,.52-1.63A3.1,3.1,0,0,0,114,88.34Z" transform="translate(0)"/><path class="a" d="M88.64,86.88l.68-.52c3.85,3,4.88,4.07,5.29,5.19-.61.42-1.12.12-1.58-.25a21.37,21.37,0,0,1-1.61-1.41q-1.1-1-2.16-2.16A7,7,0,0,1,88.64,86.88Z" transform="translate(0)"/><path class="a" d="M105.88,189.05a2.36,2.36,0,0,1-.23,1.95c-.37.78-.8,1.53-1.24,2.28a.5.5,0,0,1-.71.23.51.51,0,0,1-.18-.73c.54-1.08,1.07-2.16,1.65-3.21C105.28,189.36,105.59,189.25,105.88,189.05Z" transform="translate(0)"/><path class="a" d="M98.72,192.55a1.35,1.35,0,0,1-1.57-.46,17.55,17.55,0,0,1-1.49-1.74.51.51,0,0,1,.07-.75.52.52,0,0,1,.76,0A12,12,0,0,1,98.62,192,1.81,1.81,0,0,1,98.72,192.55Z" transform="translate(0)"/><path class="a" d="M86.35,94.06c.35.17.57.42.33.8-.63,1-1.29,2-2,2.94,0,0-.11,0-.17,0C83.88,96.89,84.81,94.9,86.35,94.06Z" transform="translate(0)"/><path class="a" d="M89.16,95.9a1.26,1.26,0,0,1-.39,1.31c-.46.54-.94,1.05-1.41,1.58-.2.23-.41.38-.71.19A3.7,3.7,0,0,1,89.16,95.9Z" transform="translate(0)"/><path class="a" d="M91.16,96.78a2.24,2.24,0,0,1-.14.66c-.4.73-.83,1.45-1.28,2.15a.52.52,0,0,1-.46.17.5.5,0,0,1-.2-.44,5.28,5.28,0,0,1,1.74-2.56S90.94,96.76,91.16,96.78Z" transform="translate(0)"/><path class="a" d="M157.25,211.32c.16.29.34.46.32.6a.59.59,0,0,1-.38.4.35.35,0,0,1-.39-.47C156.84,211.7,157,211.57,157.25,211.32Z" transform="translate(0)"/><path class="a" d="M159.12,194.51c-.15-.28-.33-.46-.3-.6a.56.56,0,0,1,.39-.37.33.33,0,0,1,.38.46C159.55,194.16,159.35,194.28,159.12,194.51Z" transform="translate(0)"/><path class="a" d="M157.25,199.33c.16.29.34.46.32.6a.61.61,0,0,1-.38.4.34.34,0,0,1-.39-.46C156.84,199.71,157,199.58,157.25,199.33Z" transform="translate(0)"/><path class="a" d="M153.17,200.52c-.17-.28-.35-.44-.34-.59a.55.55,0,0,1,.35-.4.34.34,0,0,1,.42.43C153.56,200.12,153.38,200.26,153.17,200.52Z" transform="translate(0)"/><path class="a" d="M159.8,198c-.3.16-.49.33-.64.3s-.35-.28-.33-.41a.53.53,0,0,1,.41-.34C159.39,197.53,159.54,197.75,159.8,198Z" transform="translate(0)"/><path class="a" d="M153.77,203.86c-.23.21-.36.42-.51.43a.55.55,0,0,1-.43-.31.34.34,0,0,1,.36-.48C153.35,203.51,153.5,203.69,153.77,203.86Z" transform="translate(0)"/><path class="a" d="M157.79,195.89c-.28.22-.43.44-.57.43s-.29-.23-.44-.35c.13-.14.24-.37.39-.4S157.49,195.72,157.79,195.89Z" transform="translate(0)"/><path class="a" d="M157.26,204.5c-.23-.25-.42-.37-.46-.53a.35.35,0,0,1,.39-.47.57.57,0,0,1,.38.4C157.6,204,157.42,204.21,157.26,204.5Z" transform="translate(0)"/><path class="a" d="M159.83,213.9c-.32.19-.49.38-.64.37s-.37-.24-.37-.38.22-.41.34-.4S159.51,213.69,159.83,213.9Z" transform="translate(0)"/><path class="a" d="M155.77,209.89c-.27.2-.41.37-.57.4a.31.31,0,0,1-.39-.38.61.61,0,0,1,.38-.4C155.32,209.48,155.49,209.69,155.77,209.89Z" transform="translate(0)"/><path class="a" d="M163.17,193.35c.2.26.38.39.41.56a.33.33,0,0,1-.43.41.61.61,0,0,1-.36-.41C162.78,193.77,163,193.61,163.17,193.35Z" transform="translate(0)"/><path class="a" d="M155.75,202c-.27.18-.45.39-.57.36a.56.56,0,0,1-.33-.43.54.54,0,0,1,.38-.37C155.36,201.51,155.51,201.74,155.75,202Z" transform="translate(0)"/><path class="a" d="M161.77,196c-.3.18-.48.37-.62.34s-.26-.26-.39-.4c.15-.12.29-.32.44-.33S161.49,195.77,161.77,196Z" transform="translate(0)"/><path class="a" d="M153.79,207.92c-.29.17-.46.36-.6.34s-.27-.25-.4-.38c.14-.13.27-.36.41-.37S153.51,207.71,153.79,207.92Z" transform="translate(0)"/><path class="a" d="M154.8,193.49a1.66,1.66,0,0,1,.61.11c.11.07.14.33.12.48s-.23.26-.32.24a.6.6,0,0,1-.36-.32,1.38,1.38,0,0,1,0-.54Z" transform="translate(0)"/><path class="a" d="M155.16,206.53c-.16-.33-.34-.51-.3-.65s.26-.24.41-.35c.1.13.29.27.28.39S155.36,206.23,155.16,206.53Z" transform="translate(0)"/><path class="a" d="M155.16,198.53c-.16-.34-.31-.5-.3-.66s.2-.24.32-.36c.13.14.34.26.36.41S155.37,198.22,155.16,198.53Z" transform="translate(0)"/><path class="a" d="M116,194.24c-.21.23-.39.6-.68.73a5.11,5.11,0,0,1-2.4.56.59.59,0,0,1-.43-.26c-.05-.13,0-.44.1-.48,1-.47,2-1.25,3.26-.73C115.9,194.07,115.91,194.1,116,194.24Z" transform="translate(0)"/><path class="a" d="M116.91,191c.44.53,1.29.21,1.64.91.13.26.29.51.43.77a1.89,1.89,0,0,1-2.45-.56C116.31,191.64,116.57,191.31,116.91,191Z" transform="translate(0)"/><path class="a" d="M149.8,208c-.28.16-.46.33-.61.31a.55.55,0,0,1-.39-.36c-.05-.29.18-.46.46-.4S149.55,207.73,149.8,208Z" transform="translate(0)"/><path class="a" d="M107.84,261.74c-.23.23-.35.45-.51.49a.36.36,0,0,1-.47-.41.62.62,0,0,1,.38-.41C107.38,261.38,107.56,261.57,107.84,261.74Z" transform="translate(0)"/><path class="a" d="M97.87,263.88c-.28.15-.46.33-.61.3a.55.55,0,0,1-.36-.39.34.34,0,0,1,.46-.4C97.52,263.44,97.63,263.65,97.87,263.88Z" transform="translate(0)"/><path class="a" d="M149.8,263.88c-.29.15-.47.33-.62.3a.59.59,0,0,1-.38-.4.35.35,0,0,1,.47-.4C149.44,263.43,149.56,263.64,149.8,263.88Z" transform="translate(0)"/><path class="a" d="M99.9,265.76c-.26.22-.4.44-.55.44a.53.53,0,0,1-.44-.31.34.34,0,0,1,.38-.48C99.46,265.43,99.62,265.59,99.9,265.76Z" transform="translate(0)"/><path class="a" d="M119.23,270.38c-.18-.28-.38-.44-.36-.58a.59.59,0,0,1,.36-.41.35.35,0,0,1,.42.44C119.62,270,119.44,270.12,119.23,270.38Z" transform="translate(0)"/><path class="a" d="M151.14,265.23c.22.24.43.37.44.52a.55.55,0,0,1-.3.45.35.35,0,0,1-.49-.37C150.8,265.67,151,265.51,151.14,265.23Z" transform="translate(0)"/><path class="a" d="M103.19,266.4c-.15-.28-.33-.46-.31-.61a.57.57,0,0,1,.4-.37.35.35,0,0,1,.4.46C103.63,266,103.42,266.16,103.19,266.4Z" transform="translate(0)"/><path class="a" d="M131.22,265.22c.21.26.4.4.43.56a.35.35,0,0,1-.45.42.59.59,0,0,1-.35-.4C130.84,265.65,131,265.49,131.22,265.22Z" transform="translate(0)"/><path class="a" d="M111.85,265.75c-.28.23-.43.45-.57.44s-.29-.22-.44-.35c.12-.15.23-.38.38-.41S111.54,265.58,111.85,265.75Z" transform="translate(0)"/><path class="a" d="M107.86,265.76c-.26.22-.39.41-.55.44a.34.34,0,0,1-.44-.41.62.62,0,0,1,.4-.37C107.41,265.4,107.58,265.58,107.86,265.76Z" transform="translate(0)"/><path class="a" d="M135.16,265.22c.22.24.44.38.45.52a.6.6,0,0,1-.3.45.35.35,0,0,1-.49-.37C134.83,265.66,135,265.5,135.16,265.22Z" transform="translate(0)"/><path class="a" d="M115.19,270.38c-.15-.31-.33-.5-.29-.64s.27-.24.42-.36c.12.15.33.3.34.46S115.43,270.11,115.19,270.38Z" transform="translate(0)"/><path class="a" d="M123.83,269.77c-.28.2-.44.41-.57.39s-.29-.23-.44-.36c.13-.14.25-.37.4-.4S123.53,269.58,123.83,269.77Z" transform="translate(0)"/><path class="a" d="M153.79,263.81c-.27.18-.44.38-.59.37a.58.58,0,0,1-.37-.39.55.55,0,0,1,.38-.4C153.35,263.38,153.52,263.6,153.79,263.81Z" transform="translate(0)"/><path class="a" d="M131.16,270.37c-.15-.29-.32-.47-.29-.6a.57.57,0,0,1,.39-.38.36.36,0,0,1,.4.47C131.61,270,131.4,270.13,131.16,270.37Z" transform="translate(0)"/><path class="a" d="M109.25,263.2c.21.26.39.4.43.57s-.16.43-.45.44a.32.32,0,0,1-.35-.42A2.41,2.41,0,0,1,109.25,263.2Z" transform="translate(0)"/><path class="a" d="M101.85,263.83c-.27.17-.43.36-.57.35s-.29-.23-.43-.35c.15-.15.28-.37.46-.43S101.59,263.62,101.85,263.83Z" transform="translate(0)"/><path class="a" d="M135.84,269.82c-.31.18-.49.37-.62.34s-.27-.25-.41-.39c.15-.14.28-.36.43-.37S135.55,269.6,135.84,269.82Z" transform="translate(0)"/><path class="a" d="M103.86,261.79c-.26.21-.41.44-.56.43a.56.56,0,0,1-.39-.37c0-.13.21-.38.35-.4S103.58,261.62,103.86,261.79Z" transform="translate(0)"/><path class="a" d="M127.84,269.81c-.29.18-.47.37-.61.35s-.36-.27-.35-.4a.53.53,0,0,1,.39-.36C127.41,269.39,127.57,269.6,127.84,269.81Z" transform="translate(0)"/><path class="a" d="M129.21,268.4c-.18-.26-.36-.41-.38-.57a.33.33,0,0,1,.46-.39.63.63,0,0,1,.33.43C129.62,268,129.41,268.15,129.21,268.4Z" transform="translate(0)"/><path class="a" d="M125.87,267.85c-.32.17-.5.36-.64.33s-.26-.26-.39-.4c.14-.12.29-.32.44-.33S125.58,267.64,125.87,267.85Z" transform="translate(0)"/><path class="a" d="M113.33,268.37c-.23-.24-.45-.38-.45-.52a.52.52,0,0,1,.34-.4.53.53,0,0,1,.42.32C113.67,267.9,113.49,268.09,113.33,268.37Z" transform="translate(0)"/><path class="a" d="M109.88,267.77c-.28.21-.43.42-.58.41a.59.59,0,0,1-.41-.36.3.3,0,0,1,.36-.39C109.42,267.45,109.58,267.6,109.88,267.77Z" transform="translate(0)"/><path class="a" d="M145.77,263.93c-.31.13-.52.29-.65.24s-.32-.33-.28-.45a.53.53,0,0,1,.45-.31C145.43,263.42,145.54,263.67,145.77,263.93Z" transform="translate(0)"/><path class="a" d="M143.16,262.42c-.16-.3-.33-.47-.31-.63a.56.56,0,0,1,.36-.4c.31-.05.46.2.39.47S143.38,262.16,143.16,262.42Z" transform="translate(0)"/><path class="a" d="M105.31,263.16c.17.34.34.53.31.67s-.27.24-.42.36c-.1-.13-.29-.27-.28-.4S105.11,263.47,105.31,263.16Z" transform="translate(0)"/><path class="a" d="M133.18,264.42c-.18-.33-.35-.51-.33-.65s.26-.27.39-.4c.12.15.33.29.34.45S133.39,264.12,133.18,264.42Z" transform="translate(0)"/><path class="a" d="M105.31,267.22c.17.32.35.51.32.64a.68.68,0,0,1-.42.33c-.07,0-.3-.24-.29-.37S105.1,267.52,105.31,267.22Z" transform="translate(0)"/><path class="a" d="M133.75,267.9c-.28.12-.46.26-.62.24s-.2-.25-.3-.38c.15-.11.3-.28.47-.31S133.53,267.67,133.75,267.9Z" transform="translate(0)"/><path class="a" d="M114.24,259.72l.79-.49c1.44,1,3.17,1.25,4.8,1.74a14.47,14.47,0,0,0,4.2.33,15.45,15.45,0,0,0,2.9-.5c.55-.1.61-.09,1.14.41a1.8,1.8,0,0,1-1.08,1,12.07,12.07,0,0,1-1.62.68,2.05,2.05,0,0,1-.78,0l-3.3-.14a12.77,12.77,0,0,1-5.06-1.37c-.45-.22-.91-.38-1.36-.59A1.05,1.05,0,0,1,114.24,259.72Z" transform="translate(0)"/><path class="a" d="M35.39,61.56a6.84,6.84,0,0,1-4.34-.41,6.23,6.23,0,0,0-1.5-.38,8.13,8.13,0,0,0-2.64-.45c-.73.11-1.48.1-2.22.19a7.93,7.93,0,0,1-4.28-.43A7.63,7.63,0,0,1,17,57.39,12.3,12.3,0,0,1,15.15,53a9.68,9.68,0,0,0-1.83-4,9.78,9.78,0,0,1-1.76-3.27A1.93,1.93,0,0,1,11.49,44c0-.07,0-.2-.06-.29-.09-.26-.3-.51-.28-.75a22.9,22.9,0,0,1,.35-2.62,14.21,14.21,0,0,1,.6-2.12,4,4,0,0,1,1.25-2c.36-.26.21-.67.21-1a14.42,14.42,0,0,1,0-1.47.83.83,0,0,1,.27-.56,6.11,6.11,0,0,1,1.75-1,19.81,19.81,0,0,0,3.1-1.23,2.66,2.66,0,0,0,.77-.66c.27-.29.49-.62.76-1,.23.08.44.13.64.22a.82.82,0,0,0,1-.26A9.48,9.48,0,0,1,23,28.36c.52-.34,1-.69,1.58-1a12.92,12.92,0,0,1,2.26-1,.78.78,0,0,0,.65-.65c.26-1,.55-1.92.76-2.89a6.54,6.54,0,0,1,1.24-2.31c.55-.75,1.48-.68,2.32-.56a2.15,2.15,0,0,1,1.16.5,7.34,7.34,0,0,1,1.69,1.65,4.81,4.81,0,0,1,.92,2,4,4,0,0,0,.46-.71,2.84,2.84,0,0,1,1.21-1.26,1.82,1.82,0,0,1,1.58-.11,5.22,5.22,0,0,1,2.5,1.54c.25.33.54.64.78,1s.48.37.87.23a5.45,5.45,0,0,1,4.23.12,3.91,3.91,0,0,1,1.65,1.14,1.12,1.12,0,0,0,.34.31,4,4,0,0,1,1.86,2.35.93.93,0,0,0,.76.7,7.77,7.77,0,0,1,1.45.3,17.41,17.41,0,0,1,2.06,1.06,6.84,6.84,0,0,1,2.52,2A3.38,3.38,0,0,1,58,36.93a7.24,7.24,0,0,1-3,2.59,3.05,3.05,0,0,0-1.2,1c-.51.68-1.16.59-1.83.52a4.86,4.86,0,0,1-.82-.2,7.1,7.1,0,0,1,.5,3.68,4.68,4.68,0,0,0,.53,0,21.34,21.34,0,0,1,2.74-.42,2.34,2.34,0,0,1,2.22,1.26,6.64,6.64,0,0,1,.66,2.55,11.54,11.54,0,0,1-.19,3A4.84,4.84,0,0,1,55,54.77a2.7,2.7,0,0,1-1.53.29,6.27,6.27,0,0,1-3.06-.94,8.07,8.07,0,0,1-2-2A5.42,5.42,0,0,1,47.21,50a1.06,1.06,0,0,0-1.05,1.75,4.64,4.64,0,0,1,.69,2.51,11.09,11.09,0,0,1-.63,2.88c-.21,1.18-1.13,2-1.47,3-1,.77-1.4,2.28-2.83,2.63-.44.86-1.48.68-2.1,1.22a.33.33,0,0,1-.26.09c-1.22-.24-2.51-.32-3.28-1.55A7.11,7.11,0,0,0,35.39,61.56ZM38.5,46.78a3.06,3.06,0,0,0-.4.36A14.43,14.43,0,0,1,36.56,49a16.79,16.79,0,0,1-2.83,2.16,13.84,13.84,0,0,1-4.95,1.68,13.41,13.41,0,0,1-5.42-.28,4.84,4.84,0,0,1-2-.88A6.67,6.67,0,0,1,20,50.22c-.27-.42-.25-1-.51-1.47A12.42,12.42,0,0,0,18,46.62c-.45-.52-1.1-.87-1.59-1.37a2,2,0,0,1-.54-2.06,2.21,2.21,0,0,1,1.94-1.46,5.78,5.78,0,0,1,2.38.06c1.79.47,3.73.13,5.44,1a.58.58,0,0,0,.37,0,10.13,10.13,0,0,0,1.32-.42c1.26-.58,2.51-1.19,3.75-1.81.14-.07.21-.3.36-.52a3,3,0,0,1-2.12-1.39,2.7,2.7,0,0,0-.51.1,6.34,6.34,0,0,1-2.71.6,6.7,6.7,0,0,1-3-.53A11.58,11.58,0,0,0,19.56,38a16.77,16.77,0,0,1-4.27-.74,4.84,4.84,0,0,0-.6-.22.57.57,0,0,0-.75.37,20.84,20.84,0,0,0-1.23,3.1A8.73,8.73,0,0,0,13,45.6a11.47,11.47,0,0,0,1.57,2.71,11.32,11.32,0,0,1,1.94,4.46,9,9,0,0,0,1.71,3.85,7.62,7.62,0,0,0,2,1.82c1.5.87,3.1.72,4.7.75s2.89-.52,4.35,0c.74.27,1.53.42,2.27.69a7.49,7.49,0,0,0,2.43.39c.49,0,.67-.29.56-.75-.17-.68-.41-1.36-.52-2A12.29,12.29,0,0,1,34,55.57a2.6,2.6,0,0,1,.64-1.82,6.39,6.39,0,0,1,1.14-1.25,4.91,4.91,0,0,1,1.75-.78A9.84,9.84,0,0,1,40.37,51c.19,0,.4-.19.59-.29ZM20.85,35.61c-.86-.09-1-.22-1.09-.83,0-.43,0-.87,0-1.31V31.83c-.47.24-.83.47-1.22.62-.84.32-1.69.6-2.54.89a2,2,0,0,0-1.14,1.27,2,2,0,0,0,.9,1.43,9.43,9.43,0,0,0,1.81.39,40.16,40.16,0,0,1,5.21.77c.17,0,.33.16.5.2.89.21,1.67.8,2.66.68a8.85,8.85,0,0,0,4.11-1.51,15,15,0,0,0,3.1-3,12.51,12.51,0,0,0,2.2-5,1.93,1.93,0,0,0-.46-2.08,2,2,0,0,1-.37-.84c-.13-.44-.2-.92-.37-1.35a4.87,4.87,0,0,0-2.42-2.76,1.08,1.08,0,0,0-1.46.32,3.25,3.25,0,0,0-.76,1.66c-.17.75-.15.86.56,1.11a2.73,2.73,0,0,1,1.32.94c.1.14.24.41.19.45a.75.75,0,0,1-.53.25,5,5,0,0,1-1.12-.4c-.33-.15-.63-.35-1-.56l-.7,1.75c.61.4,1.31.71,1.22,1.58-1.14.29-1.48-.79-2.13-1.21l-1.27.64a1.74,1.74,0,0,0,.87,1.51.75.75,0,0,1,.31,1A1.25,1.25,0,0,1,25.57,30c-.25-.42-.47-.85-.76-1.39-.42.49-1,.52-1.17,1,.43,1.7,1.32,3.13,1.21,4.93-.31-.08-.59-.07-.69-.19a3.16,3.16,0,0,1-.83-1.3,16.81,16.81,0,0,0-.68-2.19.63.63,0,0,0-.46-.35A1.72,1.72,0,0,0,21,31.68c0,1,.05,2,.05,3A6.12,6.12,0,0,1,20.85,35.61ZM31,42c-.91.49-1,.75-.78,1.73.13.51.23,1,.32,1.55a.47.47,0,0,1-.48.56.94.94,0,0,1-.65-.2,1.22,1.22,0,0,1-.2-.6c-.14-.68-.27-1.36-.4-2-.49.19-.89.35-1.28.52a.64.64,0,0,0-.36.24c-.31.64-.6,1.29-.87,1.94-.19.45-.39.85-1,.88-1-.92,0-1.71.26-2.64a3.75,3.75,0,0,0-.73-.3c-1.51-.2-3-.4-4.53-.54A3.4,3.4,0,0,1,18,42.47a3.29,3.29,0,0,1-.35.61c-.55.64-.55.93,0,1.46s.89.88,1.38,1.25a5.21,5.21,0,0,1,2,3.21A2.89,2.89,0,0,0,23,51a6.3,6.3,0,0,0,2.49.58A16.84,16.84,0,0,0,30.81,51a13.27,13.27,0,0,0,4.09-2.37,7.3,7.3,0,0,0,1.34-1.38c.52-.67,1-1.39,1.44-2.11a1,1,0,0,0,.1-.6,4.35,4.35,0,0,1,1.86-4A4,4,0,0,0,39,38.58a1.2,1.2,0,0,0-2-.09,7,7,0,0,1-1.09.86c-.65.42-1.34.8-2,1.19.39.64,1.39.56,1.37,1.5-1,.29-1.55-.51-2.26-1l-1.16.67,1.61,1.93-.83.5C31.74,43.7,31.57,42.71,31,42Zm-.58-3.74A3.5,3.5,0,0,0,35.12,38a8.58,8.58,0,0,1,2.16-1.36,2.08,2.08,0,0,1,1.24-.07,3.85,3.85,0,0,1,2.31,2.31c.22.73.53.86,1.24.53.36-.17.76-.29,1.11-.49a2.15,2.15,0,0,1,1.45-.19c.75.09.9,0,.77-.74a11.63,11.63,0,0,1-.16-4.24,4.89,4.89,0,0,1,2.28-3.65c.62-.35,1.22-1,2.09-.63.06,0,.19-.12.33-.22a9.14,9.14,0,0,0-1.7-2A5.78,5.78,0,0,0,45,25.68a3.59,3.59,0,0,0-1.85.29c.28.93.53,1.8.81,2.66.44,1.31,0,2.56-.22,3.83a.87.87,0,0,1-.15.24l-.53,1A6.52,6.52,0,0,1,41,36.1c-.27.18-.58.32-.84,0a.64.64,0,0,1,.09-.85c.06-.07.15-.12.2-.19a17.76,17.76,0,0,0,1.68-2.42A6,6,0,0,0,42,27.08c-.32-.63-.8-1.18-1.16-1.8a5.67,5.67,0,0,0-2.14-1.87,1.21,1.21,0,0,0-1.51.3,3.55,3.55,0,0,0-.56,2.85,8,8,0,0,1,.26,1.36.73.73,0,0,0,.74.79l1,.12c-.17.39-.22.73-.41.9-.51.45-1,0-1.57-.1a3,3,0,0,0-.13.3c-.33,1-.21,1.18.81,1.4.09,0,.23,0,.27.05A1.77,1.77,0,0,1,38,32c0,.13-.19.39-.35.47a1,1,0,0,1-1.2-.06c-.53-.4-.65-.35-1.06.18a10.64,10.64,0,0,0-1,1.46,1.07,1.07,0,0,0,.11.77c.06.15.34.2.42.35a1.28,1.28,0,0,1,.14.75c-.07.28-.61.36-.89.17a7.69,7.69,0,0,1-.68-.56c-1,.79-2,1.57-3,2.36C30.47,38,30.47,38.14,30.41,38.3ZM48.85,31c.19.37.34.69.51,1a32.14,32.14,0,0,1,1.71,3.15,1.67,1.67,0,0,0,1.14,1.09,6.73,6.73,0,0,0,1.55.21,5.9,5.9,0,0,0,2.61-.53c.61-.25.83-.47.63-1.07s-.23-1.46-1.09-1.72c-.07,0-.09-.17-.16-.22a6.08,6.08,0,0,0-1.22-.95A12.83,12.83,0,0,0,51,30.68,3.75,3.75,0,0,0,48.85,31Zm-.49,11.53c-.2,0-.45,0-.59-.07s-.17-.35-.22-.48a24.2,24.2,0,0,0-3-.21,5.94,5.94,0,0,0-2.23.35c-.33.06-.46.3-.32.64.35.82.48,1.78,1.43,2.22a.37.37,0,0,1,.21.28c0,.36.23.37.49.41a1.11,1.11,0,0,1,1,.89l.85.05.46.91c.25-.22.54-.36.57-.55.1-.52.51-.78.82-1.08A2.66,2.66,0,0,0,48.36,42.51ZM37.73,58a1.72,1.72,0,0,1,.84-1,4.7,4.7,0,0,0,1.6-1.87c.4-.67,1.32-1,1.25-2,0,0,0,0,.06-.06l.75-1.25A18.84,18.84,0,0,0,37.88,53a6.7,6.7,0,0,0-1.6,1,1.1,1.1,0,0,0-.49,1,1.19,1.19,0,0,1,0,.46,6.46,6.46,0,0,0,.49,2.91s.1.06.11.06Zm16.59-12.5a1.38,1.38,0,0,0-.52-.15c-.48.07-1,.18-1.45.29a2.44,2.44,0,0,0-2,1.27c-.08.19-.29.32-.46.46a3.83,3.83,0,0,0-1.12,1.92,1.35,1.35,0,0,0,0,1A15.51,15.51,0,0,0,50.07,52l.37-1.27c1.08-.42,1.57-1.54,2.43-2.25.05,0,.06-.11.09-.17Zm-.46,7.68c-.51.08-.94-.18-1.48.23C53,53.43,53.41,54,53.86,53.21Z" transform="translate(0)"/><path class="a" d="M53.86,53.21c-.45.78-.91.22-1.48.23C52.92,53,53.35,53.29,53.86,53.21Z" transform="translate(0)"/><path class="a" d="M39.55,27.79c-.81.64-.89.63-1.75-.13C38.48,27,38.9,27,39.55,27.79Z" transform="translate(0)"/></svg>