<svg xmlns="http://www.w3.org/2000/svg" viewBox="0 0 537 537"><defs><style>.a{fill:none;}.b{fill:#FC0;}</style></defs><rect class="a" width="537" height="537"/><path class="b" d="M7200-7356.8a10,10,0,0,0-10,10v81.43a10,10,0,0,0,10,10,10,10,0,0,0,10-10v-81.43A10,10,0,0,0,7200-7356.8Z" transform="translate(-6931.5 7468.5)"/><path class="b" d="M7100.44-7309.71a10,10,0,0,0-14.15,0,10,10,0,0,0,0,14.15l57.59,57.58A10,10,0,0,0,7151-7235,10,10,0,0,0,7158-7238a10,10,0,0,0,0-14.14Z" transform="translate(-6931.5 7468.5)"/><path class="b" d="M7140.63-7196a10,10,0,0,0-10-10H7049.2a10,10,0,0,0-10,10,10,10,0,0,0,10,10h81.43A10,10,0,0,0,7140.63-7196Z" transform="translate(-6931.5 7468.5)"/><path class="b" d="M7143.88-7154l-57.59,57.58a10,10,0,0,0,0,14.15,10,10,0,0,0,7.08,2.92,10,10,0,0,0,7.07-2.92l57.58-57.59a10,10,0,0,0,0-14.14A10,10,0,0,0,7143.88-7154Z" transform="translate(-6931.5 7468.5)"/><path class="b" d="M7200-7136.63a10,10,0,0,0-10,10v81.43a10,10,0,0,0,10,10,10,10,0,0,0,10-10v-81.43A10,10,0,0,0,7200-7136.63Z" transform="translate(-6931.5 7468.5)"/><path class="b" d="M7256.12-7154a10,10,0,0,0-14.14,0,10,10,0,0,0,0,14.14l57.58,57.59a10,10,0,0,0,7.07,2.92,10,10,0,0,0,7.08-2.92,10,10,0,0,0,0-14.15Z" transform="translate(-6931.5 7468.5)"/><path class="b" d="M7350.8-7206h-81.43a10,10,0,0,0-10,10,10,10,0,0,0,10,10h81.43a10,10,0,0,0,10-10A10,10,0,0,0,7350.8-7206Z" transform="translate(-6931.5 7468.5)"/><path class="b" d="M7249.05-7235a10,10,0,0,0,7.07-2.93l57.59-57.58a10,10,0,0,0,0-14.15,10,10,0,0,0-14.15,0L7242-7252.12a10,10,0,0,0,0,14.14A10,10,0,0,0,7249.05-7235Z" transform="translate(-6931.5 7468.5)"/></svg>