<svg xmlns="http://www.w3.org/2000/svg" viewBox="0 0 537 537"><defs><style>.a{fill:none;}</style></defs><rect class="a" width="537" height="537"/><path d="M7202.56-7189a114.13,114.13,0,0,1-114-114,114.14,114.14,0,0,1,114-114,114.14,114.14,0,0,1,114,114A114.13,114.13,0,0,1,7202.56-7189Zm0-202.42a88.52,88.52,0,0,0-88.42,88.42,88.52,88.52,0,0,0,88.42,88.42A88.52,88.52,0,0,0,7291-7303,88.52,88.52,0,0,0,7202.56-7391.39Z" transform="translate(-6931.5 7468.5)"/><path d="M7368-6999.68a77.06,77.06,0,0,1-77-77,77.07,77.07,0,0,1,77-77,77.07,77.07,0,0,1,77,77A77.06,77.06,0,0,1,7368-6999.68Zm0-137.27a60.36,60.36,0,0,0-60.29,60.29,60.36,60.36,0,0,0,60.29,60.29,60.35,60.35,0,0,0,60.29-60.29A60.36,60.36,0,0,0,7368-7136.95Z" transform="translate(-6931.5 7468.5)"/><rect x="395.13" y="383.5" width="82.65" height="16.69"/><rect x="428.11" y="350.52" width="16.69" height="82.65"/><path d="M7202.56-7214.55c-99.68,0-180.77,81.09-180.77,180.76a12.8,12.8,0,0,0,12.8,12.79,12.79,12.79,0,0,0,12.79-12.79c0-85.57,69.61-155.18,155.18-155.18a154.05,154.05,0,0,1,105,41l22.34-14A179.54,179.54,0,0,0,7202.56-7214.55Z" transform="translate(-6931.5 7468.5)"/></svg>