<svg xmlns="http://www.w3.org/2000/svg" viewBox="0 0 2273.23 96.58"><defs><style>.a{fill:#fc0;}</style></defs><path class="a" d="M1433.9,469.67v-9.45a1.87,1.87,0,0,1-1.62-1.84v-25c0-1.76-2.58-3.18-5.77-3.18h-94.13c-3.19,0-5.77,1.42-5.77,3.18v26.18h-4.29v-.76H1312.2a10.08,10.08,0,0,1-.65-2.21c-.47-6-.86-16.35-1.31-22.33-.32-4.35-.67-8.71-1-13.06,0-.54-.21-1.07-.31-1.6-.82-.45-1.76,1.26-2.53-.12-1.63-.05-3.37-.47-4.86-.08-3.83,1-8,.87-11.58,2.67a8.06,8.06,0,0,1-2.31.26c-1.53.2-3.45,0-4.47.74s-2.09.74-3.22.92c-2.17.34-4.34.73-6.46,1.27-3.65.93-7.23,2.1-10.89,3-5.58,1.34-11.22,2.49-16.83,3.77-2,.45-2.85,1-3.22,2.21a5,5,0,0,0-.59,2.93l.36,1.16v15.87c-1.84,0-3.66,0-5.47,0-2.41-.07-3.28-.62-3.2-2.85.1-2.89-1.3-5.48-1.53-8.35-.28-3.46-.45-7.12-2.08-10.45-.19-.38.21-1,.32-1.48a2.8,2.8,0,0,0,.1-.9c-.2-1.41-.43-2.82-.67-4.24-.31-1.93-.64-3.86-1-5.79l-.4-.2v0l.41-.18c-.26-2.11-.39-4.25-.81-6.34-.52-2.53-.86-2.68-3.93-3.08-.35,0-.65-.38-1-.45a8.4,8.4,0,0,0-1.87-.17c-.76,0-1.52.29-2.27.27-2.53,0-5.06-.15-7.59-.24-.19,0-.41.14-.57.09a6,6,0,0,1-.89-.41l.26-.42.1-.35.25-.41.65-2.39c-.06-1.77-.1-3.54-.17-5.31a16.55,16.55,0,0,0-1.41-6.91l-11.81-.72-2.54-.14-5.84-.46-1.29.29-2,1.14v.56l-.35.2V404a1.24,1.24,0,0,1,.53.56,1.66,1.66,0,0,1-.24.16c0,.17,0,.34,0,.51a1.69,1.69,0,0,1-.37.25c.12,3.19.54,6.38-.33,9.54,0,.2-.06.41-.08.61,0,2.42,0,4.85,0,7.27,0,5.24-.44,10.5,0,15.71.21,2.47.08,17.26.08,21.25a25.4,25.4,0,0,1-8.85-.07c.64-1.71-.47-19.37.84-21.18.82-1.14-1.51-4.94-3.49-6.58-2.16-1.8-8.43-12.15-10-13.83a5.44,5.44,0,0,0-4.26-2,46.83,46.83,0,0,1-7.09-.64c-4.2-.6-8.35-1.53-12.56-2-5.89-.62-11.73-1.44-17.52-2.6a4.46,4.46,0,0,0-4.52,1.35c-.47.5-1.22,1.29-1.71,1.77-4.41,4.37-8.37,9.08-13.12,13.18a84.93,84.93,0,0,0-6.61,6.93c.45,1.6,1,2.61,1,3.58-.3,3.81-.8,17.9-1.23,21.73a29.69,29.69,0,0,0-3.32-.38c-4.62-.19-7.55-.37-12.17-.53-1.22,0-1.91-10.67-2.17-11.95-.75-3.59-.15-7.1.13-10.58l3.89-.68,1-.81a11.33,11.33,0,0,1,1-2.31c.61-.87,1-1.54.24-2.57-.3-.41.18-1.28.31-1.94,0-1.09.88-1.1,1.73-1.12-.14-1.84,1.28-3.52.66-5.4-.45-1.26-.08-1.87,1.67-2.73h0l.89-1.78v-6c-.48-.33-1.6-.71-1.76-1.31a50.29,50.29,0,0,1-1-6.25,1.16,1.16,0,0,1,.5-.94c2-1.25,2.11-3.27,2.26-5.15a9.37,9.37,0,0,0-.71-3.4c-.08-.24-.85-.29-1.31-.43l-.89.07c.11-.43.23-.86.35-1.29-.36-1.34.15-2.73-1-4.05-1.57-1.75-3.71-3.62-1.82-6.32a.71.71,0,0,0,0-.52c-.72-2.47-.44-5.19-2.22-7.39a3.54,3.54,0,0,1-1.12-.25c-1.54-.94-2.59-.19-3.38.9-1.16,1.6-2.55,3.1-2.85,5.14a2.09,2.09,0,0,1-1,1.52c-1.49.47-2.5,1.71-3.72,2.17a4,4,0,0,0-2.71,3.71,5.48,5.48,0,0,1-1.94,3.67,9.26,9.26,0,0,1,.61,6.46,6.22,6.22,0,0,0-.22,3.63c.17.68-.54,1.58-.93,2.34-.64,1.25-2,2.51-1.89,3.7.15,2.2.64,4.17-1.12,6.14-.65.73-.28,2.23-.38,3.38,1.61.91,1.93,2.4,2,4-.25,1.72-1.53,3.22-1.27,5.06,0,.28-.44.63-.71.92s-.77.67-.76.68c1.12,1.21-.64,2.36-.06,3.53,1.12.12,1.23.82,1.11,1.65a3.55,3.55,0,0,0,3.67,1.53,12.58,12.58,0,0,1,1.87.31,9.9,9.9,0,0,1,1.6.79c.27,1.29.91,2.62.75,3.87-.36,2.81-1.53,21.19-1.69,21.19-2.9-.12-20.31-.1-35.59-.11V406.44a3.15,3.15,0,0,0-3.15-3.16l-60.63-.07a4.5,4.5,0,0,0-4.5,4.49l-3.15,52.11L946,459.38l-2.75-54.08c-.75.1-10.74-1.36-13.62-.88-1.51.25-3.25.85-4.5.4a11.51,11.51,0,0,0-5.09-.44c-1.82.14-.46-.53-2.08-.53-1-3.21-.57-5.64-1.58-8.83-10.55.76-12.87.12-23.45.69,1.17,5.42-.07,60.66-.48,64.19-6,.3-12-.25-17.19,0-1.58-4.22-1.54-15.32-4-17.67-.07-.06,0-.35.14-.48,1.11-1.36-.06-2.29-.74-3.31l.12-.67c-.39-3.19-1.49-6.27-1.68-9.49-.94-1.2-1.63-2.45-.8-3.95-.43-2-.84-4-1.28-5.95-.13-.62-.64-1.32-.45-1.8.7-1.74-.48-3.1-.82-4.63l-.69-.33.71-.32c0-.55.28-1.23,0-1.65-1-1.63-.81-2,1.14-2.22,1.39-.15,2.78-.38,4.44-.62-.27-.94-.25-1.8-.7-2.22-1.78-1.69-4.34-1.16-6.58-1.58-.06-.65-.08-1.19-.17-1.72s-.29-1.19-.52-2.09c1.07-.31,2-.6,3-.87s2.77-2.17,2.8-3.12-1.39-2.43-2.85-2.69a8.7,8.7,0,0,0-2-.07,19,19,0,0,0-1.95.29l-1.73-4.3,7.08-1c.37-.75.66-1.31.93-1.89,1-2.17.27-3-2.39-2.94-2.23.08-4.47,0-6.43,0L857,376.94h-7c.16,2.05.3,3.87.44,5.79l-2.71.18c-.38.54-.79.93-1.34.13a7.66,7.66,0,0,0-4.71,1.72l1.35,5.05,7.35-.81v4.42c-1.36.06-2.61.1-3.87.19a3.2,3.2,0,0,0-2.89,1.78c-1,2,.3,3.78,3,4,1.4.12,2.82,0,4.28,0,.1,1.49.17,2.64.26,3.95-2.84.7-6.22.16-7.58,3.31,1.25,2.56,1.44,2.66,4.21,2.09,2.6-.54,3.86.42,3.82,2.93a5.19,5.19,0,0,1-.25,1.09c-2.54.28-4.86.7-7.18.74-4.15.08-8.31-.52-12.47,0a7.71,7.71,0,0,1-1.17-.06c-4.25-.17-8.51-.47-12.77-.46-4.43,0-8.86.44-13.29.52q-8.13.16-16.25,0c-3.7,0-7.4-.34-11.1-.44-1.45,0-2.9.17-4.35.27-.58,0-1.3.31-1.73.09-2.2-1.12-4.15,0-6.3.42-1.24,2.4-.86,5-.83,7.5.06,5,.29,10,.5,15,.12,2.73.48,5.46.51,8.2,0,2.5-.1,10.1-.25,12.61.15,3.74-28.25,1.9-28.25,1.9-.11-2.19.28-8.6.48-10.74l4-.59.92-.67a8.35,8.35,0,0,1,1-1.93c.62-.73,1-1.29.24-2.16-.29-.34.18-1.07.31-1.63,0-.91.89-.92,1.73-.94-.14-1.54,1.28-2.95.67-4.53-.46-1.06-.09-1.57,1.67-2.29h0l.88-1.5v-5c-.47-.28-1.6-.6-1.76-1.1a35,35,0,0,1-1-5.25.93.93,0,0,1,.49-.79c2-1.05,2.12-2.74,2.26-4.32a6.77,6.77,0,0,0-.71-2.85c-.08-.21-.85-.25-1.3-.37l-.9.06c.12-.36.24-.72.35-1.08-.36-1.12.15-2.29-1-3.4-1.56-1.46-3.7-3-1.82-5.3,0-.1,0-.19,0-.3-.78-2.11-.44-4.46-2.27-6.34a4.21,4.21,0,0,1-1.12-.21,2.52,2.52,0,0,0-3.38.75c-1.16,1.35-2.55,2.6-2.84,4.32a1.8,1.8,0,0,1-1,1.27c-1.49.39-2.51,1.43-3.73,1.82a3.46,3.46,0,0,0-2.7,3.11,4.45,4.45,0,0,1-2,3.09c.86,1.81,1.32,3.59.61,5.42a4.5,4.5,0,0,0-.22,3.05c.17.57-.54,1.32-.93,2-.64,1.05-2,2.11-1.89,3.11.15,1.84.64,3.5-1.12,5.15-.65.62-.28,1.87-.38,2.83a3.55,3.55,0,0,1,2,3.34c-.24,1.44-1.53,2.69-1.27,4.24,0,.23-.44.53-.71.77s-.77.56-.75.58c1.11,1-.65,2-.07,3,1.12.1,1.24.69,1.12,1.38a3.88,3.88,0,0,0,3.67,1.28,16.5,16.5,0,0,1,1.87.26,11.64,11.64,0,0,1,1.59.67c.28,1.08.91,2.2.75,3.24-.22,1.47-.17,7.75-.24,9.22l-19.21.56-1.48-30.77a4,4,0,0,0-4.79-3.77L667.16,440a3.75,3.75,0,0,0-3,3.67V459.3H653.93c-.64-4.24-.4-11.95,0-13.12s-2.81-6.63-4.44-8.06c-1.79-1.56-7.7-11.18-9-12.68a3.59,3.59,0,0,0-3.3-1.51,24.9,24.9,0,0,1-5.11.08c-3.06-.18-6.13-.67-9.18-.69a101.51,101.51,0,0,1-12.78-.8,2.69,2.69,0,0,0-3,1.79c-.26.54-.68,1.4-1,1.93-2.51,4.77-4.65,9.83-7.44,14.36a74.47,74.47,0,0,0-3.51,7.27,16.43,16.43,0,0,1,1,3.71c.08,1,.17,7.7.27,8.85h-6.91V424.06c0-2.11-1.43-3.82-3.18-3.82H534.49c-1.76,0-3.18,1.71-3.18,3.82v34.1a1.71,1.71,0,0,1-1.71,1.71H524a1.71,1.71,0,0,1-1.71-1.71V431.7a1.88,1.88,0,0,0-1.87-1.88h-5.86a1.88,1.88,0,0,1-1.88-1.87V412a1.88,1.88,0,0,0-1.87-1.88l-21.68-3.94a1.87,1.87,0,0,0-1.88,1.87v50a1.87,1.87,0,0,1-1.87,1.87h-9.82a1.87,1.87,0,0,1-1.87-1.87V433c0-1.76-2.58-3.18-5.77-3.18H373.76c-3.19,0-5.77,1.42-5.77,3.18v26.18H353.23a10.15,10.15,0,0,1-.65-2.2c-.47-6-.86-16.36-1.3-22.33-.32-4.36-.68-8.72-1-13.07a14.57,14.57,0,0,0-.31-1.6.68.68,0,0,0-.31-.08,1.2,1.2,0,0,0-.32.06c-.65.23-1.32.93-1.9-.09-1.62-.06-3.36-.48-4.86-.09l-1.13.25c-1.15.23-2.32.41-3.49.58-.82.13-1.64.25-2.45.41a17.22,17.22,0,0,0-4.5,1.43l-.16.05a3.13,3.13,0,0,1-.89.16h-.07c-.4,0-.81,0-1.2,0-.74.1-1.58.09-2.36.15a4.38,4.38,0,0,0-1.95.52c-.05,0-.11,0-.15.07h0a3.71,3.71,0,0,1-.82.48,9.06,9.06,0,0,1-2.31.43H321q-2,.31-4,.72c-.84.17-1.67.34-2.5.55-1.32.34-2.62.72-3.93,1.09-2.31.66-4.62,1.33-7,1.89-5.58,1.34-11.22,2.49-16.82,3.77a9,9,0,0,0-1.76.55c-1.38.64-1.71,1.64-1.71,3.83l.36,1.16v16.63c-1.95,0-3.89,0-5.82,0-2.41-.07-3.27-.62-3.2-2.85s-.69-4.16-1.18-6.24a14.84,14.84,0,0,1-.35-2.1c-.28-3.47-.45-7.13-2.08-10.46a.49.49,0,0,1,0-.32,1.81,1.81,0,0,1,.09-.37,6.72,6.72,0,0,0,.27-.79,2.55,2.55,0,0,0,.1-.9c-.2-1.41-.43-2.82-.66-4.24l-1-5.79-.45-.22.46-.2h0c-.26-2.11-.39-4.25-.82-6.34-.51-2.53-.86-2.68-3.93-3.08-.35,0-.65-.38-1-.45a8.4,8.4,0,0,0-1.87-.17h0a10.58,10.58,0,0,0-1.13.15,5.52,5.52,0,0,1-1.14.12c-2.53,0-5.06-.15-7.59-.24h0l-.3.07a.51.51,0,0,1-.27,0,9.73,9.73,0,0,1-1-.45h0l.71-1.13c.18-.69.46-1.7.64-2.39-.05-1.77-.1-3.54-.17-5.31A16.42,16.42,0,0,0,250.6,394l-11.81-.72-2.54-.14-5.83-.46h0l-1.3.29-.6.35-1.4.79h0v9.51h0c.54.35.7.69.5,1a1.16,1.16,0,0,1-.36.32.85.85,0,0,1-.21.14c.12,3.19.55,6.38-.32,9.54l-.09.61c0,2.42,0,4.85,0,7.27,0,5.24-.44,10.5,0,15.7.12,1.49.12,7.45.11,12.83h0c0,1.79,0,3.51,0,5s0,2.7,0,3.49c0,.26,0,.47,0,.63a22.3,22.3,0,0,1-6,.39q-.65,0-1.23-.09a12.78,12.78,0,0,1-2-.3,10.69,10.69,0,0,0,.2-2.45c.09-4.52-.27-13.74.26-17.37a3.51,3.51,0,0,1,.38-1.36c.31-.43.18-1.23-.22-2.15a13.55,13.55,0,0,0-2.51-3.72c-.25-.26-.51-.5-.75-.71a11.77,11.77,0,0,1-1.6-1.8c-.63-.82-1.36-1.84-2.11-2.92s-1.53-2.25-2.28-3.37c-1.74-2.61-3.33-5-4-5.73a5.41,5.41,0,0,0-4.26-2,35.16,35.16,0,0,1-3.55-.18c-1.19-.12-2.37-.29-3.54-.46-4.2-.6-8.35-1.53-12.56-2-5.89-.62-11.73-1.44-17.52-2.6a5.91,5.91,0,0,0-1.3-.13,4.3,4.3,0,0,0-3.08,1.35c0,.05-.1.08-.14.13h0l-.84.89-.86.89c-1.54,1.51-3,3.07-4.49,4.63-1.92,2-3.84,4-5.86,6h0c-.91.87-1.82,1.74-2.78,2.57a84.93,84.93,0,0,0-6.61,6.93c.45,1.6,1,2.61.95,3.58-.3,3.81-.79,17.91-1.22,21.73a32.56,32.56,0,0,0-3.32-.38c-4.62-.19-7.55-.37-12.18-.53-1.22,0-1.9-10.67-2.17-11.95-.74-3.59-.14-7.1.13-10.58l3.89-.68,1-.81a11.33,11.33,0,0,1,1-2.31c.62-.87,1-1.54.24-2.57-.29-.41.18-1.28.31-1.94,0-1.09.89-1.1,1.73-1.12-.14-1.84,1.28-3.52.67-5.4-.46-1.26-.09-1.87,1.67-2.73h0l.88-1.78v-6c-.47-.33-1.6-.71-1.76-1.31a48.48,48.48,0,0,1-1-6.25,1.15,1.15,0,0,1,.49-.94c2-1.25,2.12-3.27,2.26-5.15a9.41,9.41,0,0,0-.71-3.4c-.08-.24-.85-.29-1.3-.43l-.9.07.36-1.29c-.37-1.34.14-2.73-1-4.05-1.56-1.75-3.71-3.62-1.82-6.32a.67.67,0,0,0,0-.52c-.72-2.47-.43-5.19-2.22-7.39a3.83,3.83,0,0,1-1.12-.24c-1.54-1-2.58-.2-3.38.89-1.16,1.6-2.55,3.1-2.84,5.14a2.11,2.11,0,0,1-1,1.52c-1.49.47-2.51,1.71-3.73,2.17a4,4,0,0,0-2.7,3.71,5.54,5.54,0,0,1-1.95,3.68,9.23,9.23,0,0,1,.61,6.45,6.31,6.31,0,0,0-.22,3.63c.17.68-.54,1.58-.93,2.34-.64,1.25-2,2.51-1.89,3.7.15,2.2.64,4.17-1.12,6.14-.65.73-.28,2.23-.38,3.38,1.62.91,1.93,2.4,2,4-.24,1.72-1.53,3.22-1.27,5.06,0,.28-.44.63-.71.92s-.77.67-.75.69c1.11,1.2-.64,2.35-.07,3.52,1.12.12,1.24.82,1.12,1.65a3.55,3.55,0,0,0,3.67,1.53,12.8,12.8,0,0,1,1.87.31,10.23,10.23,0,0,1,1.59.79c.28,1.29.91,2.62.75,3.87-.35,2.81-1.52,21.19-1.69,21.19-2.9-.12-20.31-.1-35.59-.1V406.82a3.15,3.15,0,0,0-3.15-3.16l-60.63-.07a4.49,4.49,0,0,0-4.49,4.49L2.26,460.19-13,459.76l-2.75-54.08c-.74.1-10.73-1.36-13.62-.88-1.5.25-3.25.85-4.5.4a11.5,11.5,0,0,0-5.09-.44c-1.81.14-.46-.53-2.07-.53-1-3.21-.58-5.64-1.58-8.83-10.55.76-12.88.12-23.45.69,1.17,5.42-.08,60.66-.49,64.19-6,.3-12-.25-17.18,0-1.58-4.21-1.55-15.32-4-17.67-.06-.06,0-.35.15-.48,1.1-1.36-.07-2.29-.74-3.31l.12-.67c-.4-3.19-1.5-6.27-1.69-9.49-.94-1.2-1.62-2.44-.8-4-.42-2-.84-4-1.28-5.95-.13-.62-.64-1.32-.45-1.8.7-1.74-.47-3.1-.82-4.63l-.69-.33.71-.32c0-.55.28-1.23,0-1.65-1-1.63-.8-2,1.14-2.22,1.4-.15,2.78-.38,4.45-.61-.28-.95-.25-1.81-.7-2.23-1.79-1.69-4.35-1.16-6.58-1.58-.07-.65-.09-1.19-.18-1.72s-.29-1.19-.51-2.09c1.07-.31,2-.6,3-.87s2.77-2.17,2.8-3.12-1.39-2.43-2.84-2.69a8.78,8.78,0,0,0-2-.07,19.48,19.48,0,0,0-2,.29l-1.73-4.3,7.08-1c.37-.74.66-1.31.93-1.89,1-2.17.27-3-2.39-2.94-2.23.08-4.46,0-6.43,0-1-2-1.84-3.76-2.78-5.65h-7c.15,2.05.29,3.87.43,5.79l-2.7.18c-.39.54-.79.93-1.34.13a7.69,7.69,0,0,0-4.72,1.72l1.35,5.05,7.35-.81v4.42c-1.36.06-2.61.1-3.86.19a3.2,3.2,0,0,0-2.9,1.78c-1,2,.31,3.78,3,4,1.4.12,2.82,0,4.28,0,.09,1.49.16,2.64.25,3.95-2.83.7-6.21.16-7.58,3.31,1.26,2.56,1.45,2.66,4.21,2.09,2.61-.54,3.86.42,3.82,2.93a4.85,4.85,0,0,1-.25,1.1c-2.54.27-4.85.69-7.18.73-4.15.08-8.31-.52-12.47,0a7.58,7.58,0,0,1-1.16-.06c-4.26-.16-8.52-.47-12.77-.45-4.43,0-8.86.43-13.3.52q-8.11.15-16.25.05c-3.7-.05-7.4-.35-11.1-.45-1.45,0-2.9.17-4.35.27-.58,0-1.3.31-1.72.09-2.21-1.12-4.15,0-6.31.42-1.24,2.4-.86,5-.83,7.5.06,5,.29,10,.51,15,.12,2.73.48,5.46.5,8.2,0,2.5-.1,10.1-.24,12.61.15,3.74-28.26,1.9-28.26,1.9-.11-2.19.28-8.6.49-10.74l4-.59.92-.67a8.76,8.76,0,0,1,1-1.93c.62-.73,1-1.29.24-2.16-.29-.34.19-1.07.31-1.63,0-.91.89-.92,1.74-.94-.15-1.54,1.27-2.95.66-4.53-.46-1.06-.08-1.57,1.67-2.29h0l.89-1.5v-5c-.48-.28-1.61-.6-1.76-1.1a35.07,35.07,0,0,1-1-5.25.94.94,0,0,1,.5-.79c2-1,2.11-2.74,2.25-4.32a6.49,6.49,0,0,0-.71-2.85c-.08-.21-.85-.25-1.3-.37l-.9.06.36-1.08c-.36-1.12.15-2.29-1-3.4-1.57-1.46-3.71-3-1.83-5.3l.05-.3c-.78-2.11-.44-4.45-2.27-6.34a4.28,4.28,0,0,1-1.12-.21,2.51,2.51,0,0,0-3.37.75c-1.16,1.35-2.56,2.6-2.85,4.32a1.8,1.8,0,0,1-1,1.27c-1.49.39-2.51,1.43-3.72,1.82a3.46,3.46,0,0,0-2.71,3.11,4.44,4.44,0,0,1-1.94,3.09c.85,1.82,1.31,3.59.6,5.42a4.5,4.5,0,0,0-.22,3.05c.17.57-.54,1.32-.93,2-.64,1.05-2,2.11-1.88,3.11.14,1.84.63,3.5-1.13,5.15-.65.62-.28,1.87-.37,2.84a3.56,3.56,0,0,1,2.05,3.33c-.25,1.44-1.54,2.69-1.28,4.24,0,.23-.44.53-.71.77s-.77.56-.75.58c1.12,1-.64,2-.07,3,1.13.1,1.24.69,1.12,1.38A3.9,3.9,0,0,0-235,446.6a15.9,15.9,0,0,1,1.87.25,11.64,11.64,0,0,1,1.59.67c.28,1.08.91,2.2.76,3.24-.23,1.47-.18,7.75-.25,9.22l-19.21.56-1.48-30.77a4,4,0,0,0-4.79-3.77l-35.33,14.34a3.74,3.74,0,0,0-3,3.68v15.66H-305c-.65-4.24-.4-11.95,0-13.12s-2.81-6.63-4.44-8.05c-1.79-1.57-7.7-11.19-9-12.69a3.58,3.58,0,0,0-3.3-1.51,24.9,24.9,0,0,1-5.11.08c-3.06-.17-6.13-.67-9.18-.68a103.44,103.44,0,0,1-12.78-.81,2.69,2.69,0,0,0-3,1.79c-.25.54-.67,1.4-1,1.93-2.51,4.77-4.65,9.83-7.44,14.37a73.26,73.26,0,0,0-3.51,7.26,15.91,15.91,0,0,1,1,3.71c.08,1,.18,7.7.27,8.85h-6.91V424.44c0-2.11-1.42-3.82-3.18-3.82h-51.85c-1.75,0-3.18,1.71-3.18,3.82v34.1a1.71,1.71,0,0,1-1.7,1.71H-435a1.72,1.72,0,0,1-1.71-1.71V432.08a1.88,1.88,0,0,0-1.87-1.88h-5.86a1.88,1.88,0,0,1-1.88-1.87v-16a1.88,1.88,0,0,0-1.87-1.88l-21.68-3.94a1.87,1.87,0,0,0-1.88,1.87v50a1.87,1.87,0,0,1-1.87,1.87h-9.82a1.87,1.87,0,0,1-1.87-1.87v-25c0-1.76-2.58-3.18-5.77-3.18h-94.14c-3.18,0-5.76,1.42-5.76,3.18v26.18h-14.76a9.14,9.14,0,0,1-.65-2.2c-.48-6-.87-16.36-1.31-22.33q-.48-6.54-1-13.07a14.54,14.54,0,0,0-.3-1.6c-.82-.45-1.76,1.26-2.53-.11-1.63-.06-3.37-.48-4.87-.09-3.83,1-8,.87-11.57,2.67a8.1,8.1,0,0,1-2.31.26c-1.53.2-3.45,0-4.47.74s-2.1.74-3.22.92c-2.17.34-4.35.73-6.47,1.27-3.64.93-7.22,2.11-10.88,3-5.59,1.34-11.23,2.49-16.83,3.77-2.88.66-3.46,1.47-3.46,4.38.12.39.24.78.35,1.16v16.63c-2,0-3.89,0-5.82,0-2.4-.07-3.27-.62-3.19-2.85.1-2.89-1.3-5.47-1.54-8.34-.27-3.47-.45-7.13-2.08-10.46-.18-.37.22-1,.32-1.48a2.79,2.79,0,0,0,.11-.89c-.2-1.42-.44-2.83-.67-4.25l-1-5.79-.45-.22.46-.2c-.26-2.11-.39-4.25-.81-6.33-.52-2.54-.87-2.69-3.93-3.09-.35,0-.66-.38-1-.45a9.14,9.14,0,0,0-1.88-.17c-.75,0-1.51.29-2.26.28-2.53-.05-5.06-.16-7.6-.25-.19,0-.4.14-.56.09a9,9,0,0,1-1-.45h0c.23-.35.47-.74.71-1.13l.65-2.39c-.06-1.77-.1-3.54-.17-5.31a16.58,16.58,0,0,0-1.41-6.91l-11.81-.72-2.55-.14-5.83-.46-1.3.29-2,1.14V404c.81.52.86,1-.07,1.48.13,3.19.55,6.38-.32,9.54l-.09.61c0,2.42,0,4.85,0,7.27,0,5.24-.44,10.5,0,15.71.23,2.65,0,19.43.08,21.94a25.09,25.09,0,0,1-8.69.1v-.81l-.29-.05c.5-1.33,0-12.24.29-17.91v-1.44a3,3,0,0,1,.33-1.07c.33-.46.13-1.36-.33-2.36v-1.23a13.39,13.39,0,0,0-2.93-3.75c-2.16-1.8-8.43-12.15-10-13.83a5.41,5.41,0,0,0-4.26-2,47.06,47.06,0,0,1-7.09-.64c-4.19-.6-8.34-1.53-12.56-2-5.89-.62-11.73-1.44-17.51-2.6a4.47,4.47,0,0,0-4.53,1.35c-.46.5-1.21,1.29-1.7,1.77-4.41,4.37-8.37,9.08-13.13,13.18a86.68,86.68,0,0,0-6.61,6.93c.45,1.6,1,2.61,1,3.58-.3,3.81-.8,17.9-1.23,21.73a30,30,0,0,0-3.32-.38l-1.32-.06v.22h-13.18v10.37Zm-41.18-31.3a17.32,17.32,0,0,1,10,1.11v10.9a20.43,20.43,0,0,1-10-.61Zm-20.6,0a17.35,17.35,0,0,1,10,1.11v10.9a20.47,20.47,0,0,1-10-.61Zm-20.59,0a17.36,17.36,0,0,1,10,1.11v10.9a20.47,20.47,0,0,1-10-.61ZM1284,442.08a4.92,4.92,0,0,1,.21-1.22,3.06,3.06,0,0,1,2.6-1.51c2.81-.21,4.41.6,4.87,2.71a23,23,0,0,1,.44,4.54,4.18,4.18,0,0,1-.22,1.31,3.68,3.68,0,0,1-4.43,1.28,24.18,24.18,0,0,1-3.48-1.66C1284,445.66,1284,443.87,1284,442.08Zm-13.72,2.19a1,1,0,0,1,.83-.42c2.54.16,5.29-.78,7.67,1V455h-8.54c0-3.43,0-6.78,0-10.12A3.21,3.21,0,0,1,1270.28,444.27Zm-14.45-.46a11,11,0,0,1,7.59,1.16v10.19a13,13,0,0,1-7.59-.67Zm-40.4-15.76,0-.11a1,1,0,0,1,.43-.36,11.37,11.37,0,0,1,6.56.21.59.59,0,1,1,.16,1.16,25.92,25.92,0,0,1-2.67.43c-1.53-.18-2.6-.23-3.63-.46C1215.94,428.84,1215.4,428.32,1215.43,428.05Zm10.13,12.87c-.19.39-.34.71-.53.73-2.38.32-4.77.56-7.17.66-.41,0-1-.54-1.24-1a1.85,1.85,0,0,1,.52-.38A14.37,14.37,0,0,1,1225.56,440.92Zm-2.91-4.59a21.18,21.18,0,0,1-4.36-.09c-1.22-.16-1.62-.89-1.39-2.09,1.94.21,3.8.35,5.62.68.4.07.71.55,1,.95A1.72,1.72,0,0,1,1222.65,436.33Zm-.81-14.61c1,.28,1.51.78,1.26,1.7-2,0-4.11.07-6.22,0-1.45-.07-1.88-.46-2.07-2A18.71,18.71,0,0,1,1221.84,421.72Zm-17.07,21.74s0,0,0-.06a1.22,1.22,0,0,1,.67.3H1210c.2,2.6.4,5.11.61,7.79h-5.87Zm-10.73-.39h5.38c.14,1.63.35,3,.38,4.45,0,1.09-.07,2.17-.15,3.28l-3.68.63C1193.19,449.1,1194.25,446,1194,443.07Zm-52.34-2.31c.23-.41.55-.89,1-1.55,2.34.2,4.9.36,7.44.67,1.26.15,1.77,1.31,1.7,3.29a3.27,3.27,0,0,1-.12.75,2.48,2.48,0,0,1-1.7.86,33.16,33.16,0,0,1-8.4-1.11A7.2,7.2,0,0,1,1141.7,440.76Zm-34.89-3c.62-.81,1.9-.9,4.46-.72.68.05,1.37.07,2,.13,2.81.27,3.56,1.07,3.21,3.42a4.6,4.6,0,0,1-.29,1,3.27,3.27,0,0,1-3.34,1.41c-.49,0-1-.07-1.22-.08-1,0-1.81,0-2.6,0-1.86-.07-2.25-.4-2.4-2a2.43,2.43,0,0,1,0-.27A10,10,0,0,1,1106.81,437.73ZM1004.1,430l1.51.2,3.34.24c.25,4.07,2,7.9.3,11.93a2.14,2.14,0,0,1-2.5,1.61,33.48,33.48,0,0,0-4.52.58,10.16,10.16,0,0,1-2-.21c-.24-4.81-.48-9.48-.72-14.35Zm-18.89,1c1.63-1.45,3.45-.89,5.14-1h0l1.6,0,2.35.4a2.9,2.9,0,0,0,.14.48c1.51,1,.73,2.22.32,3.39-.09,1.86-.2,3.72-.25,5.58-.05,1.67,0,3.35,0,5.25l-9,.45c-.1-2.53-.23-5-.28-7.44S985.21,433.23,985.21,430.94Zm-83.85-28c3.63,0,7.09-2,11.13-.82v2.59c0,2.65-.51,3.23-3.47,3.52-1.65.17-3.31.22-5,.24-2.56,0-3.08-.31-3.87-2.44a20.17,20.17,0,0,1-.55-2.2C900.23,403.51,900.79,402.94,901.36,402.94Zm-57.67,42.35c-4.11,0-8.21-.17-12.32-.2s-8.22,0-12.33,0c-2.25,0-4.5,0-6.75,0-1.11,0-2.22,0-3.33,0L783,445c-1.18,0-2.36,0-3.53-.09a2.77,2.77,0,0,1-1.42-.22,3.37,3.37,0,0,1-1.17-1.59c0-.19.9-.89,1.41-.91,2.84-.09,5.69-.09,8.53,0,3.4.1,6.79.44,10.19.44,4.08,0,8.16-.39,12.24-.39,5.67,0,11.35.24,17,.27,5.48,0,11-.13,16.44-.13a38.12,38.12,0,0,1,4.11.45C846.44,444.94,845.11,445.29,843.69,445.29Zm-4.05-12.72c1.18,0,2.35.11,3.52.21.83.06,1.59.28,1.58,1.23s-.75,1.39-1.74,1.46c-.48,0-1,0-1.46,0l-20-.11-40.24-.21a11.37,11.37,0,0,1-2.62-.17,1.76,1.76,0,0,1-1.05-1.1c-.08-.27.37-.88.72-1a7.76,7.76,0,0,1,2.51-.52q15.14,0,30.28,0v.22Q825.4,432.56,839.64,432.57Zm-62.16-9.81a20.44,20.44,0,0,1,3.23-.05l28.79.46v.23q15.57,0,31.16,0a23,23,0,0,1,4.31.44,1.78,1.78,0,0,1,1.2,1.2,2,2,0,0,1-1,1.38,3.86,3.86,0,0,1-1.73.18c-2.54,0-5.09,0-7.64-.13-2.72-.1-5.44-.36-8.17-.39-8.68-.1-17.36-.11-26-.2q-11-.11-22.05-.3a5.54,5.54,0,0,1-2.3-.29,2.7,2.7,0,0,1-1.2-1.62C776,423.5,776.93,422.84,777.48,422.76ZM628.59,447.63c1.69,0,3.52-.14,5.37-.09.92,0,1.44,1.12,1.67,3.09.17,1.45-.17,2.18-1.2,2.57a17.9,17.9,0,0,1-6.12-.25C627.76,450.19,627.76,450.19,628.59,447.63Zm-22.59,1c.49,0,1-.06,1.47-.07,2,0,2.67.7,2.76,3.06.07,1.62-.32,2.68-1.12,3.18h-5.62a5.37,5.37,0,0,1-.34-1.1,2.51,2.51,0,0,0,0-.27C602.37,449.29,602.68,448.78,606,448.62Zm-25.4-4.46c-.25.28-.64.21-1,.2-1.42,0-2.84,0-4.26-.14s-3-.39-4.55-.43c-4.85-.11-9.69-.12-14.53-.21-4.1-.08-8.2-.21-12.3-.34a1.72,1.72,0,0,1-1.28-.31,3.59,3.59,0,0,1-.67-1.78,1.68,1.68,0,0,1,.8-1,5.72,5.72,0,0,1,1.8,0l16.06.49v.26c5.79,0,11.58,0,17.37,0a6.78,6.78,0,0,1,2.41.49,1.86,1.86,0,0,1,.67,1.31A2.68,2.68,0,0,1,580.6,444.16Zm-37.87-13.8a5.72,5.72,0,0,1,1.8,0l16.06.49v.26c5.79,0,11.58,0,17.38,0a6.77,6.77,0,0,1,2.4.49,1.86,1.86,0,0,1,.67,1.31,2.61,2.61,0,0,1-.55,1.51c-.25.28-.64.21-1,.2-1.43,0-2.85-.05-4.27-.14s-3-.4-4.55-.43c-4.84-.11-9.69-.12-14.53-.22-4.1-.07-8.2-.2-12.3-.33a1.68,1.68,0,0,1-1.28-.32,3.61,3.61,0,0,1-.67-1.77A1.69,1.69,0,0,1,542.73,430.36Zm-51-12.81a1.26,1.26,0,0,1,1.27-1.26h4.25a1.25,1.25,0,0,1,1.26,1.26v5.93a1.26,1.26,0,0,1-1.26,1.27H493a1.27,1.27,0,0,1-1.27-1.27Zm0,11.28a1.26,1.26,0,0,1,1.27-1.26h4.25a1.25,1.25,0,0,1,1.26,1.26v5.93a1.26,1.26,0,0,1-1.26,1.27H493a1.27,1.27,0,0,1-1.27-1.27Zm0,11.28a1.27,1.27,0,0,1,1.27-1.26h4.25a1.26,1.26,0,0,1,1.26,1.26V446a1.26,1.26,0,0,1-1.26,1.27H493a1.27,1.27,0,0,1-1.27-1.27ZM434.1,438a17.36,17.36,0,0,1,10,1.11V450a20.47,20.47,0,0,1-10-.61Zm-20.59,0a17.37,17.37,0,0,1,10,1.11V450a20.46,20.46,0,0,1-10-.61Zm-20.59,0a17.32,17.32,0,0,1,10,1.11V450a20.43,20.43,0,0,1-10-.61ZM325,442.46c.06-2.16,1.16-3.34,3.15-3.49,2.82-.21,4.41.6,4.87,2.71a23,23,0,0,1,.44,4.54,3.31,3.31,0,0,1-3,3.57,4.94,4.94,0,0,1-2-.22,24.09,24.09,0,0,1-3.47-1.66C325,446,325,444.25,325,442.46Zm-12.55,1c.32,0,.64,0,1,0,1,0,2-.13,2.94-.13a6,6,0,0,1,3.77,1.13V455.4h-8.88c0-3.43,0-6.78,0-10.12C311.23,444.33,311.67,443.42,312.49,443.47Zm-15.62,0a14.34,14.34,0,0,1,2-.25,10.34,10.34,0,0,1,6,1.36v10.89a12,12,0,0,1-2.06.34,13.85,13.85,0,0,1-5.87-.95Zm-40.4-15.05a1.65,1.65,0,0,1,.18-.56,1.25,1.25,0,0,1,.62-.67,8.8,8.8,0,0,1,1.65-.34,13,13,0,0,1,4.91.55,1.24,1.24,0,0,1,.68,1,1,1,0,0,1-.07.2,1.48,1.48,0,0,1-.38.46,1.18,1.18,0,0,1-.41.24,23.55,23.55,0,0,1-2.68.43c-1.53-.18-2.6-.23-3.63-.46C257,429.22,256.43,428.7,256.47,428.43Zm9.81,13.45a.34.34,0,0,1-.22.15l-.41.05c-2.16.28-4.33.49-6.51.59l-.25,0c-.43,0-1.05-.61-1.29-1.07-.1-.18.5-.91.93-1.06.16-.05.33-.07.5-.12a12,12,0,0,1,3.6-.52,19.41,19.41,0,0,1,4.34.62C266.67,441.06,266.48,441.62,266.28,441.88Zm-1.12-6.22a3.57,3.57,0,0,0-.37.31c-.36.34-.72.71-1.11.74-.72.06-1.45.08-2.18.07a17.62,17.62,0,0,1-2.18-.16,2.17,2.17,0,0,1-.89-.29,1.4,1.4,0,0,1-.59-1.44c0-.07.05-.15.06-.22a3.93,3.93,0,0,1,.22-.92c2,.22,3.91.36,5.79.7C264.39,434.53,264.74,435.24,265.16,435.66Zm-5.68-14.84h0a15.37,15.37,0,0,1,3.72.52c1.26.35,1.79,1,.94,2.46l-3.08,0c-1,0-2.11,0-3.18,0-1.64-.08-2-.57-2.14-2.75A25.73,25.73,0,0,1,259.48,420.82Zm-13.67,22.49a.39.39,0,0,1,.1-.18s0-.09.07-.11.44,0,.85.3h4.58c.23,2.86.44,5.57.67,8.55H245.8v-8A1.81,1.81,0,0,1,245.81,443.31Zm-5-.62c.15,1.63.35,3,.38,4.45s-.11,2.55-.19,3.85a.71.71,0,0,1,0,.14l-1.95.33-2,.35a5.13,5.13,0,0,1-1.51-2,5.66,5.66,0,0,1-.31-1.12,11.31,11.31,0,0,1-.11-2.34c0-.8.07-1.61,0-2.42a8.11,8.11,0,0,0-.11-1.2Zm-58-1.89a5.87,5.87,0,0,1,.29-.53c.16-.27.38-.6.63-1,.1-.16.2-.3.32-.48,2.34.2,4.9.36,7.44.67,1.27.15,1.77,1.31,1.71,3.29a2.17,2.17,0,0,1-2.18,2.37,3.48,3.48,0,0,1-.63,0,36.75,36.75,0,0,1-7.77-1.15C182.52,442.3,182.47,441.64,182.85,440.8Zm-34.93-3a2,2,0,0,1,.21-.41,1.65,1.65,0,0,1,.87-.67,4.21,4.21,0,0,1,.9-.18,11.27,11.27,0,0,1,1.2,0c.46,0,1,0,1.55.08s1.37.07,2,.13c2.81.27,3.56,1.07,3.22,3.42a3.31,3.31,0,0,1-4,3.16c-.48,0-1-.07-1.22-.08h-1.39c-.42,0-.81,0-1.2,0a5.6,5.6,0,0,1-1.14-.12c-.9-.2-1.15-.68-1.27-1.89V441A8.62,8.62,0,0,1,147.92,437.84Zm-102.79-7.5,1.51.2,3.35.24c.24,4.07,2,7.9.3,11.93a2.16,2.16,0,0,1-2.51,1.61,33.68,33.68,0,0,0-4.52.58,10.23,10.23,0,0,1-2-.21c-.24-4.81-.47-9.48-.72-14.35Zm-18.89,1c1.63-1.45,3.46-.89,5.15-1h0l1.6,0,2.34.4a2.9,2.9,0,0,0,.14.48c1.52,1,.73,2.22.33,3.39-.09,1.86-.21,3.72-.26,5.58,0,1.67,0,3.35,0,5.25l-9,.46c-.1-2.54-.24-5-.29-7.45S26.24,433.61,26.24,431.32Zm-83.85-28c3.63,0,7.09-2,11.14-.82,0,1,0,1.79,0,2.59,0,2.65-.51,3.23-3.48,3.52-1.64.17-3.3.22-5,.24-2.55,0-3.07-.31-3.87-2.44-.24-.67-.34-1.38-.54-2.2C-58.74,403.89-58.18,403.32-57.61,403.32Zm-57.66,42.35c-4.11,0-8.22-.17-12.33-.2s-8.21,0-12.32,0c-2.25,0-4.51,0-6.76,0-1.11,0-2.21,0-3.32,0l-25.93-.07c-1.18,0-2.35,0-3.53-.09-.48,0-1.1,0-1.41-.22a3.34,3.34,0,0,1-1.18-1.58c0-.2.91-.9,1.42-.92q4.26-.13,8.52,0c3.4.1,6.79.44,10.19.44,4.08,0,8.16-.39,12.24-.39,5.68,0,11.35.24,17,.27,5.48,0,11-.13,16.45-.13a38.12,38.12,0,0,1,4.11.45A2.79,2.79,0,0,1-115.27,445.67Zm-4-12.72c1.17,0,2.34.11,3.51.21.83.06,1.59.28,1.58,1.23s-.75,1.39-1.73,1.46c-.49,0-1,0-1.47,0l-20-.11q-20.12-.11-40.24-.21a11.37,11.37,0,0,1-2.62-.17,1.77,1.77,0,0,1-1-1.1c-.08-.27.36-.88.72-1a7.44,7.44,0,0,1,2.51-.51c10.09,0,20.18,0,30.27,0v.22Q-133.57,432.94-119.32,433Zm-62.17-9.81a20.46,20.46,0,0,1,3.23-.05l28.79.46v.23q15.58,0,31.16,0a23.1,23.1,0,0,1,4.32.44,1.77,1.77,0,0,1,1.19,1.2c0,.45-.51,1.1-1,1.38a3.57,3.57,0,0,1-1.72.18c-2.55,0-5.1,0-7.65-.13-2.72-.1-5.44-.36-8.16-.39-8.69-.1-17.37-.11-26.05-.2q-11-.11-22.06-.3a5.54,5.54,0,0,1-2.3-.29,2.7,2.7,0,0,1-1.2-1.62C-183,423.88-182,423.22-181.49,423.14ZM-330.38,448c1.69,0,3.53-.14,5.37-.09.92,0,1.44,1.12,1.67,3.09.18,1.45-.17,2.18-1.2,2.57a17.84,17.84,0,0,1-6.11-.25C-331.21,450.57-331.21,450.57-330.38,448ZM-353,449c.5,0,1-.06,1.48-.07,2,0,2.67.7,2.76,3.06.06,1.62-.33,2.68-1.13,3.18h-5.61a4.81,4.81,0,0,1-.34-1.1,2.51,2.51,0,0,1,0-.27C-356.59,449.67-356.29,449.16-353,449Zm-25.4-4.46c-.25.29-.64.21-1,.2-1.42,0-2.85,0-4.27-.14s-3-.39-4.55-.43c-4.84-.11-9.69-.12-14.53-.21-4.1-.08-8.2-.21-12.3-.34a1.72,1.72,0,0,1-1.28-.31,3.69,3.69,0,0,1-.67-1.78,1.73,1.73,0,0,1,.81-1,6,6,0,0,1,1.8,0l16.05.49v.26c5.79,0,11.59,0,17.38,0a6.87,6.87,0,0,1,2.41.49,1.89,1.89,0,0,1,.66,1.31A2.61,2.61,0,0,1-378.37,444.54Zm-37.86-13.8a5.71,5.71,0,0,1,1.8,0l16.05.49v.26c5.79,0,11.59,0,17.38,0a6.87,6.87,0,0,1,2.41.49,1.85,1.85,0,0,1,.66,1.31,2.61,2.61,0,0,1-.55,1.51c-.25.28-.64.21-1,.2-1.42,0-2.85,0-4.27-.14s-3-.39-4.55-.43c-4.84-.11-9.68-.12-14.53-.21-4.1-.08-8.2-.21-12.3-.34a1.68,1.68,0,0,1-1.28-.32,3.61,3.61,0,0,1-.67-1.77A1.73,1.73,0,0,1-416.23,430.74Zm-51-12.81a1.26,1.26,0,0,1,1.26-1.26h4.25a1.27,1.27,0,0,1,1.27,1.26v5.93a1.27,1.27,0,0,1-1.27,1.27h-4.25a1.26,1.26,0,0,1-1.26-1.27Zm0,11.28a1.26,1.26,0,0,1,1.26-1.26h4.25a1.27,1.27,0,0,1,1.27,1.26v5.93a1.27,1.27,0,0,1-1.27,1.27h-4.25a1.26,1.26,0,0,1-1.26-1.27Zm0,11.28a1.26,1.26,0,0,1,1.26-1.26h4.25a1.27,1.27,0,0,1,1.27,1.26v5.93a1.27,1.27,0,0,1-1.27,1.27h-4.25a1.26,1.26,0,0,1-1.26-1.27Zm-57.66-2.12a17.35,17.35,0,0,1,10,1.11v10.9a20.47,20.47,0,0,1-10-.61Zm-20.59,0a17.36,17.36,0,0,1,10,1.11v10.9a20.47,20.47,0,0,1-10-.61Zm-20.59,0a17.36,17.36,0,0,1,10,1.11v10.9a20.47,20.47,0,0,1-10-.61Zm-67.88,4.47c.06-2.16,1.17-3.34,3.16-3.49,2.81-.21,4.4.6,4.86,2.71a23,23,0,0,1,.44,4.54c0,2.7-2.19,4.21-5,3.35a24.61,24.61,0,0,1-3.47-1.66C-633.94,446.42-634,444.63-633.93,442.84Zm-12.54,1c2.53.16,5.29-.78,7.67,1v10.91h-8.89c0-3.43,0-6.78,0-10.12C-647.73,444.71-647.29,443.8-646.47,443.85Zm-15.63,0a11.15,11.15,0,0,1,7.94,1.11v10.89a12.93,12.93,0,0,1-7.94-.61Zm-40.4-15.05a1.63,1.63,0,0,1,.8-1.23,11.4,11.4,0,0,1,6.57.21,1.25,1.25,0,0,1,.67,1,1.33,1.33,0,0,1-.86.9,23.2,23.2,0,0,1-2.68.43c-1.53-.18-2.6-.23-3.63-.46C-702,429.6-702.53,429.08-702.5,428.81Zm9.59,13.6c-2.37.32-4.77.56-7.16.66-.44,0-1-.61-1.3-1.07-.1-.18.51-.91.93-1.06a14.43,14.43,0,0,1,8.44,0C-692.4,441.61-692.6,442.37-692.91,442.41Zm-.9-6.37c-.49.37-1,1-1.47,1a21.18,21.18,0,0,1-4.36-.09c-1.48-.19-1.81-1.17-1.21-2.87,2,.22,3.92.36,5.79.7C-694.58,434.91-694.22,435.62-693.81,436Zm-1.93-14.32c1.27.35,1.79,1,.94,2.46-2,0-4.13.07-6.26,0-1.64-.08-2-.57-2.13-2.75A19.28,19.28,0,0,1-695.74,421.72Zm-16.4,22h4.59c.22,2.86.43,5.57.67,8.55h-6.29v-8C-713.25,443.33-712.95,443.1-712.14,443.7Zm-6-.63c.15,1.63.35,3,.39,4.45s-.13,2.64-.2,4l-4,.68c-3-2.53-1.49-5.94-2-9.12Zm-57.93-1.91a15.62,15.62,0,0,1,1.22-1.94c2.31.2,4.83.35,7.33.66,1.26.15,1.77,1.31,1.7,3.29a3.27,3.27,0,0,1-.12.75,2.48,2.48,0,0,1-1.7.86,33.17,33.17,0,0,1-8.41-1.11A10.42,10.42,0,0,1-776.1,441.16Zm-34.82-3.23a1.69,1.69,0,0,1,.31-.43l0,0a1.85,1.85,0,0,1,.52-.29,3.29,3.29,0,0,1,.37-.1,4.39,4.39,0,0,1,.47-.09c.27,0,.57,0,.91-.05h.25c.47,0,1,0,1.62.07s1.36.07,2,.13c2.8.27,3.55,1.07,3.21,3.42a5.25,5.25,0,0,1-.29,1A3.27,3.27,0,0,1-804.8,443c-.49,0-1-.07-1.22-.08-1,0-1.82,0-2.6,0-1.86-.07-2.25-.4-2.4-2,0-.09,0-.18,0-.27A11.5,11.5,0,0,1-810.92,437.93Z" transform="translate(839.33 -373.09)"/></svg>