<svg xmlns="http://www.w3.org/2000/svg" viewBox="0 0 537 537"><defs><style>.a{fill:none;}.b{fill:#FC0;}</style></defs><rect class="a" width="537" height="537"/><path class="b" d="M7368-6999.68a77.06,77.06,0,0,1-77-77,77.07,77.07,0,0,1,77-77,77.07,77.07,0,0,1,77,77A77.06,77.06,0,0,1,7368-6999.68Zm0-137.27a60.36,60.36,0,0,0-60.29,60.29,60.36,60.36,0,0,0,60.29,60.29,60.35,60.35,0,0,0,60.29-60.29A60.36,60.36,0,0,0,7368-7136.95Z" transform="translate(-6931.5 7468.5)"/><rect class="b" x="395.13" y="383.5" width="82.65" height="16.69"/><rect class="b" x="428.11" y="350.52" width="16.69" height="82.65"/><rect class="a" x="26.56" y="9.42" width="489" height="489"/><path class="b" d="M7253.5-7021.21h-40.75a10,10,0,0,1-10-10,10,10,0,0,1,10-10h30.75v-102.25h-81.88v112.25a10,10,0,0,1-10,10,10,10,0,0,1-10-10v-122.25a10,10,0,0,1,10-10H7253.5a10,10,0,0,1,10,10v122.25A10,10,0,0,1,7253.5-7021.21Z" transform="translate(-6931.5 7468.5)"/><path class="b" d="M7365.37-7224.77a10,10,0,0,0-2.5-6.61l-152.81-173.19a10,10,0,0,0-7.5-3.39,10,10,0,0,0-7.5,3.39l-152.81,173.19a10,10,0,0,0-2.5,6.61v183.38a20.2,20.2,0,0,0,20.19,20.18h91.68a10,10,0,0,0,10-10,10,10,0,0,0-10-10h-91.68a.18.18,0,0,1-.19-.18V-7221l142.81-161.85L7345.37-7221v49.49h20Z" transform="translate(-6931.5 7468.5)"/></svg>