<svg xmlns="http://www.w3.org/2000/svg" viewBox="0 0 216.07 335.46"><defs><style>.a{fill:#8a3e22;}</style></defs><path class="a" d="M12.39,214.69c.59.24.67.69.53,1.26-.3,1.13-.49,2.28-.86,3.38a15.28,15.28,0,0,0-.45,7.59,2,2,0,0,0,.21.64c.93,1.63,1.37,1.66,2.32,0a38.3,38.3,0,0,0,2.08-4.09,28,28,0,0,1,3.68-6.07,47.43,47.43,0,0,1,7.58-7.93,43.34,43.34,0,0,1,4-2.61c0-2.29,0-4.71,0-7.13-.06-3.08-.17-6.15-.28-9.23,0-.79-.16-1.57-.17-2.36,0-.39,0-.95.58-.93s.49.45.5.84c.19,3.76.44,7.52.56,11.28.08,2.33-.05,4.66-.09,7,0,.09,0,.2,0,.28.87,2.17.16,4.32-.05,6.48,0,.18,0,.37,0,.69a6.67,6.67,0,0,0,1.29.35,15.42,15.42,0,0,1,4.61,1,1.2,1.2,0,0,0,1.5-.41c.39-.47.81-.91,1.16-1.4a12.3,12.3,0,0,1,3.4-3.23,1.31,1.31,0,0,0,.49-.91,18.65,18.65,0,0,0,0-2.24c-.11-2.93-.21-5.86-.34-8.78s-.27-6.11-.46-9.16a9.86,9.86,0,0,0-.44-1.9,1.25,1.25,0,0,1,.56-1.6,12.78,12.78,0,0,1,.51,1.76c.44,3,.69,6.08.83,9.13.17,3.76.28,7.52.44,11.27,0,.89.22,1.77.21,2.64a24.06,24.06,0,0,1-.25,3.61c-.35,2.06-.78,4.11-1.28,6.13-.34,1.34-.85,2.64-1.32,3.95-1.18,3.24-2.41,6.46-3.56,9.71-.6,1.7-1.74,3.19-2,5-.07.55-.1,1.09-.14,1.56a1.27,1.27,0,0,0,1.87.14c2.49-2.08,5.24-3.89,7.11-6.63.65-1,1.26-2,2-2.87a9.67,9.67,0,0,1,3-2.8,1.37,1.37,0,0,0,.48-1c0-1.19,0-2.38-.07-3.57,0-3.07-.13-6.14-.06-9.2.09-3.4.33-6.79.51-10.18,0-.42.09-.83.13-1.25a4.54,4.54,0,0,0-.56-3.1,24.7,24.7,0,0,1-3.48-11c-.28-2.45-.42-4.92-.52-7.38a29.65,29.65,0,0,1,.23-3.64c0-.43.11-.87.87-.67,0,1.21,0,2.44,0,3.67a46.19,46.19,0,0,0,1.9,13.78,30.58,30.58,0,0,0,1.27,3.1c.13.29.32.57.45.87.77,1.83,1.72,2.38,3.74,2.31A11.92,11.92,0,0,0,62.3,199c1.39-.83,2.81-1.64,4.21-2.43a47.21,47.21,0,0,0,8.14-6.14,58.51,58.51,0,0,0,9.18-10.72,63.12,63.12,0,0,0,5.77-10.42c2.47-5.73,4.76-11.53,7.07-17.32a14.42,14.42,0,0,0,1.27-4.87c.9-.67,2.33-1,1.81-2.91-1.1-.32-2.33-.71-3.58-1-2.85-.72-5.7-1.44-8.56-2.09a28.3,28.3,0,0,0-2.92-.29,1.71,1.71,0,0,1-.93-.21c-.74-.64-1.18-.1-1.67.32s-.39,1.08,0,1.59a2.88,2.88,0,0,1,.46,2.65,44.31,44.31,0,0,1-2.87,9.46,33.35,33.35,0,0,1-4.49,7.52,33.91,33.91,0,0,1-6.86,6.22,29.05,29.05,0,0,1-7.8,3.66,25.24,25.24,0,0,1-8.15.94,55.3,55.3,0,0,1-11.53-2.05c-1.26-.32-2.48-.83-3.72-1.24l-.88-.26a4.32,4.32,0,0,0,0,1c.76,2.76.41,5.56.21,8.34a40.46,40.46,0,0,1-1,5,2.14,2.14,0,0,1-.06.27c-.62,1.52-2,2.51-3.59,1s-2.94-3-4.35-4.54c-.88-1-1.67-2-2.52-3s-1.26-.84-1.75.22c-.59,1.3-1,2.67-1.56,4-.4,1-.77,2.09-1.22,3.1C19.53,187,17.83,187.44,16,186a18.49,18.49,0,0,1-4.39-5.4c-1.27-2.22-2.43-4.52-3.62-6.79a4.15,4.15,0,0,1-.31-.92c-.1-.37-.23-.82.3-.9.21,0,.55.28.68.51.52,1,1,2,1.47,3a42.45,42.45,0,0,0,5,7.52A10.37,10.37,0,0,0,17,184.63c.77.56,1.26.47,1.67-.4.62-1.34,1.15-2.73,1.64-4.13a13.82,13.82,0,0,1,2.2-4,2,2,0,0,1,3.23.13c1.4,1.67,2.77,3.37,4.19,5A23.06,23.06,0,0,0,32,183.45a8,8,0,0,0,1.32.75,4.41,4.41,0,0,0,1-2.38,51.28,51.28,0,0,0,.67-9.59,25.76,25.76,0,0,1,.22-3.17A4,4,0,0,0,33.18,168a27.63,27.63,0,0,1-3-.75,1.24,1.24,0,0,0-1.4.33c-2.55,2.64-5.91,3-9.28,3.2a46.92,46.92,0,0,1-4.89,0c-1.21,0-2.42-.17-3.62-.32s-1.54-.54-1.54-2c-3.33-.53-6.08,1.22-9,2.32-.23-1.12-.22-1.1.71-1.65a24.83,24.83,0,0,1,6.43-2.3,13.43,13.43,0,0,1,2.78-.14c1.71-.08,1.91-.35,1.67-2.28-.29-.05-.6-.09-.9-.16a6.92,6.92,0,0,1-2.26-.65,3.17,3.17,0,0,0-3.15-.34,10.05,10.05,0,0,1-4.69.17c-.78-.11-.85-.28-.61-1.5.74.27,1.49.06,2.29.58.54.36,1.6,0,2.42-.16A15.71,15.71,0,0,0,7,161.83a1.23,1.23,0,0,1,1.59.43c.39.58.78.08,1.23-.24l.18,1,1.5.31c.1-.3.25-.51.23-.71-.24-2.13-.51-4.26-.76-6.39,0-.27.08-.55.05-.81a1.44,1.44,0,0,0-.27-.83c-.32-.3-.57,0-.78.28-.06.07-.22.08-.48.16l.21-1c-.31-.19-.62-.4-1-.57a2.78,2.78,0,0,1-1.52-1.26c-.26-.52-.94-.83-1.44-1.25a9.26,9.26,0,0,0-.25-1.23,10.3,10.3,0,0,1-.24-5.92,3.83,3.83,0,0,1,3.85-3.16c.56,0,1.23.08,1.46-.85H9.35l.82-1c-.72-1.28-2.74-.46-3.33-2.06a18.78,18.78,0,0,0,2.69.7,11.48,11.48,0,0,0,7.87-2.33A16.53,16.53,0,0,0,21,131.3c.58-.78,1.06-1.63,1.56-2.42-.26-.82-.81-.8-1.5-.54.11-.63.21-1.18.32-1.84a4.74,4.74,0,0,1,.78.38c.33.26.6.59.93.85.84.68,1.09.68,2.12,0,0,.8.46,1.28,1.14,1.19.86-.11,2,.13,2.34-1,.43.11.88.37,1.22.27a6.47,6.47,0,0,0,2.12-1,11.72,11.72,0,0,1,3.46-1.78,1,1,0,0,0,.82-1.32c.39,0,.85.13,1.13,0a1.93,1.93,0,0,0,.68-1,11.6,11.6,0,0,0,.45-2.32,8.09,8.09,0,0,0-.18-1.76c0-.18-.21-.39-.16-.52.53-1.38-.16-2.68-.71-3.73-.71-1.36-1.41-2.94-3.11-3.58a11.91,11.91,0,0,1-1.85-1.13c-2.19-1.36-4.35-.75-6.51.12a6.46,6.46,0,0,0-3.84,4c-.17-.51-.37-.78-.3-1a5.51,5.51,0,0,1,1.5-2.73c.71-.55.73-.94,0-1.59a10,10,0,0,0-10.57-2.43c-.43.14-.73.66-1.16.87s-.91.11-1.29.3a6.39,6.39,0,0,0-2.8,2.72l.58.69a2.33,2.33,0,0,1-.45.19c-.82.16-1,.57-.49,1.15s.82.84,1.41,1.45L.31,111.71v-1c1.13-.4,2.2,0,3.27.11a4.37,4.37,0,0,1,1.48.38c.76.35,1.16,0,1.42-.61a8.85,8.85,0,0,1,3-3.81,11.08,11.08,0,0,1,7.64-2.39,13.92,13.92,0,0,1,2.74.39A10.55,10.55,0,0,1,25,108.06c.47.52.89.68,1.44.37,1.58-.88,3.37-.6,5.05-.91a2,2,0,0,1,1.21.19c2.8,1.46,5.38,3.17,6.63,6.3a21,21,0,0,1,1.06,5.42,8.55,8.55,0,0,1-1.94,6.25,4.85,4.85,0,0,1-1.28,1,11.29,11.29,0,0,1-1.3.64c.48,1.38.85,2.77,1.44,4.06a27.64,27.64,0,0,0,2.34,4.76c1.36,1.94,3,3.18,5.39,3.17.45.58,0,1-.22,1.42-.82,1.31-1.66,2.6-2.58,3.83a3,3,0,0,0-.58,1.67A72.39,72.39,0,0,1,41,153.6a20.47,20.47,0,0,1-3.38,7.79,7.56,7.56,0,0,1-5.44,3.07,4.77,4.77,0,0,0-1.56.51,1.06,1.06,0,0,0-.34.83c0,.14.4.31.64.4,1.65.62,3.35,1.12,4.93,1.86a36.53,36.53,0,0,0,6.51,2.08A51.92,51.92,0,0,0,51,171.5a23.26,23.26,0,0,0,7.31-.5,28.09,28.09,0,0,0,14.48-8.71,35.4,35.4,0,0,0,7.32-12.75c.17-.48.43-.94.56-1.43.17-.66.21-1.36.39-2a4.34,4.34,0,0,0-.75-3.48c-.58-1-.36-1.49.5-2.34a4.11,4.11,0,0,1,4.31-.86c-.2-.72-.32-1.34-.53-1.94a13.74,13.74,0,0,1-.28-7.6c.19-.91.31-1.84.49-2.76a8.22,8.22,0,0,1,1.51-3.86c1-1.3,2-2.65,3.06-4a2.09,2.09,0,0,1,1.7-.83,1.42,1.42,0,0,1,1.63,1.19c.11.35.22.7.32,1.05.68.1.83-.42,1.08-.77a38.85,38.85,0,0,1,5.49-6.31,8.66,8.66,0,0,1,2.34-1.45c.79-.34,1.36.07,1.43.94a5,5,0,0,1-.16,1.38,24.73,24.73,0,0,1-2.23,5.25c-.14.28-.25.56-.44,1,.89-.16,1.28-.77,1.8-1.18,1.49-1.17,3-2.37,4.49-3.5a2.56,2.56,0,0,1,1.3-.41c1-.08,1.35.33,1.11,1.25a11.71,11.71,0,0,1-1.06,2.57c-.59,1.1-1.29,2.15-1.94,3.22a1.15,1.15,0,0,0-.18.82l1.23-.75c1.28-.77,2.54-1.57,3.85-2.28a1.45,1.45,0,0,1,1.26-.07,1.48,1.48,0,0,1,.23,1.27,7.68,7.68,0,0,1-.9,2,36.85,36.85,0,0,1-5,6,5.32,5.32,0,0,0-1.11,1.48c.65-.31,1.3-.62,2-.91a19.17,19.17,0,0,1,2.58-1.06,1.71,1.71,0,0,1,1.39.19,1.17,1.17,0,0,1,.06,1.55,19.78,19.78,0,0,1-3.83,4.23L103,139.29c-.71.61-1.44,1.19-2.13,1.82-.4.37-.73.81-1.17,1.31,1,.81,1.83,1.59,1.42,3-.37,1.21-1,2.11-2.22,2.3-.38,1.71-.65,3.36-1.12,5-.63,2.19-1.39,4.33-2.11,6.48-.4,1.19-.8,2.39-1.25,3.56-1,2.6-2,5.23-3.09,7.76a55.21,55.21,0,0,1-4.75,8.83c-.76,1.1-1.37,2.32-2.16,3.4-1,1.35-2,2.64-3.13,3.9a51.35,51.35,0,0,1-11.15,9.86c-1.48.94-2.79,2.18-4.54,2.68a1.68,1.68,0,0,0-.71.43c-1.78,1.82-4.12,2.08-6.45,2.36-1.29.16-2.59.23-3.88.35-.56.05-.79.34-.81.92-.1,3.48-.26,7-.34,10.42,0,2.38,0,4.77,0,7.15s0,4.91,0,7.37a5.37,5.37,0,0,0,.2,1c.15.08.24.18.3.17a2.8,2.8,0,0,1,3.16,1.51,1.38,1.38,0,0,0,.3.29,2.43,2.43,0,0,1,.72,3.42,8.63,8.63,0,0,1-1.56,1.95c-1.85,1.78-3.69,3.57-5.64,5.23a49.55,49.55,0,0,1-7.86,6A13.07,13.07,0,0,0,39,251.64c-.62.87-1.12,1.81-1.68,2.72-.34.57-.34.57.11,1.7a10.15,10.15,0,0,0,1.07-.77,23.22,23.22,0,0,1,2.21-2.12,13.45,13.45,0,0,1,3.19-1.66c1.25-.42,2.24.12,3.22,1.47.87-.32,1.78-.62,2.65-1a3.62,3.62,0,0,1,4.85,2.11c1.59-.1,3.09,0,4.1,1.54s.56,2.86.05,4.2a1.25,1.25,0,0,0,1.71.45c.57-.2,1.13-.42,1.71-.58a3,3,0,0,1,3.78,3.1,13.94,13.94,0,0,1-.59,3.36c-.16.66-.07,1.11.56,1.38a1.89,1.89,0,0,1,1,1.95c.09,2.11-1,3.77-2.2,5.31a33.89,33.89,0,0,1-2.58,2.5,1.48,1.48,0,0,0-.51.93c0,1.13,0,2.28,1.29,3a6.1,6.1,0,0,1,2.89,3.3,2.37,2.37,0,0,1,.26.79c0,2.91.58,5.85-.58,8.7a2,2,0,0,0,0,1.2,62.44,62.44,0,0,1,1.64,6.06c.21,1.31.72,2.55.81,3.88s.29,2.7.32,4a24.34,24.34,0,0,1-.36,6.54,6,6,0,0,1-2,3.58,14.61,14.61,0,0,1-2.31,1.24,2.06,2.06,0,0,0-.83.56,22.36,22.36,0,0,0,2.76.71c3.23.44,6.46.92,9.71,1.16A27.19,27.19,0,0,0,85,321.85a27.66,27.66,0,0,0,6.37-2.72c2.15-1.26,4.18-2.73,6.23-4.16a4.6,4.6,0,0,0,.88-1c-.92-2.72-1.81-5.26-2.65-7.82a74.51,74.51,0,0,1-2.72-11.71,12.53,12.53,0,0,0-.81-2.79c-.69-1.72-1.49-3.41-2.23-5.11-.08-.17-.12-.36-.21-.52-.27-.48-.63-.55-1-.12A13.4,13.4,0,0,1,84,289.66c-1.89.86-3.76,1.82-6,1.55a6.4,6.4,0,0,1-4.92-3.27,11.09,11.09,0,0,1-1.26-5.81c0-2.19,0-4.38,0-6.57a1.82,1.82,0,0,0-.16-.94,12.16,12.16,0,0,1-1.2-3.7,26.5,26.5,0,0,1-1-6.61,22.68,22.68,0,0,1,1-7.33,5.61,5.61,0,0,1,.69-1.51,2.09,2.09,0,0,1,1.16-.87,2.17,2.17,0,0,0,1.59-1c.18-.26.44-.48.63-.74a1.77,1.77,0,0,1,2-.78A2.76,2.76,0,0,0,79.64,251a6.82,6.82,0,0,1,1.25-1c-.26-.28-.45-.51-.66-.73a9.46,9.46,0,0,1-2.79-4.75,9.9,9.9,0,0,0-3.15-5.3,15.81,15.81,0,0,1-4.74-9,14.2,14.2,0,0,1,1.56-9.16,56.38,56.38,0,0,0,2.63-5.49,10.43,10.43,0,0,0,.68-3.67,39,39,0,0,1,1.34-10.64A16.31,16.31,0,0,1,81.18,193a25.94,25.94,0,0,1,7-4.1,18.45,18.45,0,0,1,3.22-.88,27,27,0,0,1,7.34-.57,28.94,28.94,0,0,1,7.9,1.48,24.2,24.2,0,0,1,5.62,2.68,16.23,16.23,0,0,1,7.28,10.46,24,24,0,0,1,.1,4.33c0,.26-.09.62,0,.78.78.9.62,2,.71,3.06a20,20,0,0,1,0,3.87c-.17,1.66-.53,3.3-.84,4.94a6.17,6.17,0,0,0,1.86,5.94c1.8,1.78,4,2.11,6.31,2.28a40.55,40.55,0,0,1,5.75.5,8.22,8.22,0,0,1,6.11,4.78,12.89,12.89,0,0,1,1.07,2.83c.17,1,.48,2,1.66,2.16a3.21,3.21,0,0,0,2.88-1.08c1.12-1.36,2.22-2.74,3.49-4.31l.82.15c0,.2.08.29.09.38.13,1.66.3,3.32.38,5a13.7,13.7,0,0,1-2.58,9.09,12.78,12.78,0,0,1-4,3.42,11.35,11.35,0,0,1-6,1.39,9.08,9.08,0,0,1-4.33-1,6.37,6.37,0,0,0-3.54-.75c.9,2.31,1.92,4.54,2.65,6.85A72.15,72.15,0,0,1,134,264c1.47-2,2.75-3.75,4-5.51a3.51,3.51,0,0,1,2.08-1.31,2.14,2.14,0,0,1,2.38,1.67,9.54,9.54,0,0,1-.53,5.76c-.8,2-1.8,4-2.69,6a4.53,4.53,0,0,0-.38,1.53,11.1,11.1,0,0,0,2.66-2.44q3-3.06,6-6.08a7.87,7.87,0,0,1,4.27-1.94c1.3-.26,1.89.35,1.72,1.77a13.25,13.25,0,0,1-2,5.61c-.8,1.26-1.73,2.44-2.59,3.66a4.9,4.9,0,0,0-.35.79,7.34,7.34,0,0,0,2.58-1.4c1.66-1,3.25-2.21,5.29-2.39,1.46-.14,2.25.68,1.89,2.1a6.31,6.31,0,0,1-1,2.11,9.26,9.26,0,0,1-1.85,1.9c-2,1.5-4,2.92-6,4.37a4.54,4.54,0,0,1-.73.37l.25.35a2.37,2.37,0,0,0,.8,0c1.45-.5,2.88-1.06,4.33-1.56a4.85,4.85,0,0,1,1.49-.32c1.5-.05,2.21.74,2.08,2.25a4.29,4.29,0,0,1-2.87,3.68,43.48,43.48,0,0,1-7.81,2.63,5.06,5.06,0,0,0-2.67,1.44c-.74.76-1.56,1.44-2.33,2.18a1.77,1.77,0,0,0-.3.52c0,.14,0,.21.06.23a21.27,21.27,0,0,1,3.87,3.34c1.47,1.52,3.33,2.64,4.33,4.65a10.46,10.46,0,0,0,2.06,2.64,9.29,9.29,0,0,0,2.35,1.67,17.11,17.11,0,0,0,4.84,1.43,15.41,15.41,0,0,0,5.47-.24,31.9,31.9,0,0,0,3.24-.61c1-.28,2-.71,3-1.09l5.27-2c.63,1.07,1.42.84,2.28.38a25.65,25.65,0,0,0,6.43-4.35c.42-.41.94-.72,1.38-1.12,1.31-1.21,2.59-2.47,3.92-3.67s2.67-2.31,4.05-3.51c.32.47.27.86-.2,1a2.85,2.85,0,0,0-1.36,1.54,23.14,23.14,0,0,1-4.68,5.67,39.85,39.85,0,0,1-7.19,4.93,21.54,21.54,0,0,1-2.58,1.11c.23,3.2.47,6.38.72,9.71a3.2,3.2,0,0,0,1-.07,36.86,36.86,0,0,0,4.09-1.73,56,56,0,0,0,4.83-3,11.53,11.53,0,0,0,3.44-2.85c.1-.15.3-.22.45-.33a16,16,0,0,0,2.91-3.12,36.8,36.8,0,0,1,3.64-4.14,14.3,14.3,0,0,1,2.93-1.73,24.58,24.58,0,0,0,1.95,1.76,2,2,0,0,0,3.14-1.52,6.88,6.88,0,0,0-1.41-5.19c-1.92-2.17-3.9-4.29-5.89-6.48-2.06.5-3.09,2.52-5.09,3.66a3.83,3.83,0,0,1,.3-.86,23.39,23.39,0,0,1,5.17-4.86c1.11-.74,3.83-.37,5,.49a29.59,29.59,0,0,1,6.51,6.94,22.21,22.21,0,0,1,3.89,7.81,10.34,10.34,0,0,1,.07,6,4.83,4.83,0,0,1-1.62,2.2,6.22,6.22,0,0,1-2.71.84c-.45.11-1-.25-1.53-.48a15.68,15.68,0,0,1-4.59-3.14c-1.23-1.27-2.4-2.59-3.58-3.91a7.59,7.59,0,0,1-.64-1c-1.12,1.62-2,3-2.95,4.24a16.06,16.06,0,0,1-2.25,2.48c-2.06,1.79-4.1,3.63-6.31,5.22a26,26,0,0,1-10.08,4.17,1.28,1.28,0,0,0-1.23,1.35,23,23,0,0,1-.36,2.75c-.25,1.17-.58,2.32-.92,3.46s-.74,2.37-1.13,3.54a18,18,0,0,1-1,2.59c-1.14,2.15-1.32,4.61-2.31,6.87H111.06c.27-.2.49-.38.73-.54,2.06-1.4,4.16-2.75,6.19-4.19,1.56-1.12,3.09-2.28,4.54-3.54a50.45,50.45,0,0,0,6.75-7,41.14,41.14,0,0,0,4.17-6.27,17.72,17.72,0,0,0,2.09-10.53,3,3,0,0,0-.28-.93c-.14-.31-.55-.62-.5-.88a2.84,2.84,0,0,1,.63-1.2c.68-.89,1.4-1.74,2.09-2.62.07-.09.05-.25.08-.38-1.18,0-2.32,0-3.46,0-4-.1-8-.58-11.63-2.53a10.82,10.82,0,0,1-1.84-1.49c-.44-.39-.83-.84-1.32-1.32a5.16,5.16,0,0,0-1,2.42,2,2,0,0,1-1.36,1.76,8.57,8.57,0,0,0-4.19,4,66.89,66.89,0,0,1-3.53,5.71,44.19,44.19,0,0,1-3.86,4.37c-1.24,1.32-2.53,2.6-3.87,3.82s-2.5,2.09-3.77,3.1a39.86,39.86,0,0,1-7.5,4.54,25.64,25.64,0,0,1-9.51,2.67,34.28,34.28,0,0,1-8.64-.24c-2.06-.39-4.14-.67-6.18-1.13-1.68-.37-3.31-1-5-1.4a20.29,20.29,0,0,0-2.46-.38c-1.38-.17-2.77-.27-4.15-.47-1.13-.17-1.34-.11-1.76,1-.29.79-.5,1.61-.79,2.4a6,6,0,0,1-.63,1.24.68.68,0,0,1-.57.27c-.23-.08-.55-.35-.56-.54a5.72,5.72,0,0,1,.24-1.47c.18-.66.41-1.3.68-2.14-.69-.09-1.17-.19-1.66-.22a1.13,1.13,0,0,0-1.3,1c-.3,1.27-.6,2.54-.94,3.79a9.28,9.28,0,0,1-.59,1.32c-1.68-.54-1.76-.73-1.12-2.06.52-1.08,1-2.18,1.49-3.3.3-.71.18-.93-.55-1.09-1.26-.27-2-.41-2.45,1.51a14.6,14.6,0,0,1-1.5,3.3,1,1,0,0,1-1.45.39.89.89,0,0,1-.41-1.3c.4-.94.82-1.87,1.23-2.8l.79-1.81-2.55-.84c-.73,1.46-1.4,2.77-2,4.1-.28.57-.58,1.07-1.28,1.15s-1.25-.4-.87-1.09c.61-1.09,1.33-2.12,2-3.16.31-.44.7-.82,1.12-1.31l-4-2.58c-.68,1.51-1.34,2.94-2,4.37A1.56,1.56,0,0,1,31.22,322L32,320c-.5-.64-1.28-.56-1.91-.62a36.08,36.08,0,0,0-11.12.28c-3.1.63-6.25,1.05-9.36,1.68s-6.08,1.41-9.21,2.14c0-.4-.06-.71-.09-1a.83.83,0,0,1,.78-1,3.58,3.58,0,0,1,.54-.14c4.44-.24,8.65-1.63,13-2.41a51.22,51.22,0,0,1,12.1-1c1.63.09,3.24.37,4.85.6,1.11.17,1.1.19,1.55-.92a9,9,0,0,0,.82-2.91c-1.38.25-2.64.75-4,.47a7.86,7.86,0,0,1-5.18-4A11.57,11.57,0,0,1,23.11,302a1.12,1.12,0,0,0,0-.41s0-.08-.17-.29l-1.52.31v.3l1.08.38c0,.13,0,.3-.08.38-1.2,1.31-2.85,1.46-4.46,1.65a22.37,22.37,0,0,1-10.7-1.24,11.75,11.75,0,0,1-5.93-4.23c-1.07-1.61-1.1-1.59-1-4,.34.64.66,1.19.94,1.75a11.19,11.19,0,0,0,7.58,5.85,21.92,21.92,0,0,0,6.19,1,6,6,0,0,1,1.11.15c.18,0,.4.15.54.09,1.3-.54,2.84-.36,4.17-1.4-1.62-.56-3.61-.55-3.39-3-1.18-.53-2.64-.72-2.83-2.34-1.51-.16-3-.23-4.46-.49a6.46,6.46,0,0,1-5.13-4.43,10.33,10.33,0,0,1-.62-4.53c.15-1.81.07-3.63.17-5.44a26.21,26.21,0,0,1,.4-2.76,2.19,2.19,0,0,1,.27-.61c.16-.3.52-.61.48-.87a1.42,1.42,0,0,0-.68-.82,18,18,0,0,0-2.39-1.13c-.66-.24-1,0-1.28.68s-.34,1.26-.52,1.88a1.45,1.45,0,0,1-.47.67c0-1.52-.54-3.06.27-4.51a31.47,31.47,0,0,1,3.2.75,7.24,7.24,0,0,1,2.17,1.17,2.64,2.64,0,0,1,.93,3,6.64,6.64,0,0,0,.09,3.59,2,2,0,0,0,1,1.25,2.41,2.41,0,0,0,1.56-1.5A14,14,0,0,1,12.94,278a3.79,3.79,0,0,0,.33-.51,6.76,6.76,0,0,0-.56-.61,11.89,11.89,0,0,1-1.16-.94c-.75-.82-1.47-1.66-2.13-2.54a4.45,4.45,0,0,1-.48-1.17,5.24,5.24,0,0,1,3.44-1.69,4.07,4.07,0,0,0,2.41-1.5c.45-.56.91-1.17,1.81-1.1.23,0,.57-.31.72-.57a21.14,21.14,0,0,0,1.41-2.55A18.35,18.35,0,0,1,24,257.61a3.27,3.27,0,0,1,1.11-.54c.79-.24,1.61-.4,2.32-.57l1.22,1.15c.58-.42,1-.73,1.48-1.08a8.68,8.68,0,0,1,4.52-2,1.58,1.58,0,0,0,1-.56c.53-.76.87-1.65,1.41-2.4a18.5,18.5,0,0,1,4-4.33,39.52,39.52,0,0,1,4.1-2.32,14.68,14.68,0,0,0,2.65-2c2-1.8,4-3.67,5.93-5.51.89-.82,1.81-1.61,2.67-2.46a2.24,2.24,0,0,0,.6-2.69c-1.41.5-1.48,2.29-2.91,2.8a2,2,0,0,1,.4-1.62c.33-.51.59-1.06,1-1.53s.38-.77,0-1.13a.83.83,0,0,0-1.25,0c-.51.47-1,1-1.46,1.5a7.75,7.75,0,0,1-.61.5c-.65-.53-.25-1,0-1.39.67-1.19.68-1.2-.42-2.22A10.12,10.12,0,0,0,49,232.14c-.72,1-1.37,2.1-2.12,3.11a28.88,28.88,0,0,1-7.12,6.38c-1.53,1.05-3,.29-3.24-1.55a8.48,8.48,0,0,1,1.09-4.68,64.51,64.51,0,0,0,3.71-8.88,15.54,15.54,0,0,0,1.15-4.72,5.46,5.46,0,0,1,.5-1.58c.37-1.2.77-2.38,1.09-3.59a3,3,0,0,0-.18-1.07c1.42-1.08,1.1-2.68,1.34-4.11l-.25-.2c-.84.67-1.74,1.27-2.5,2s-1.64,1.9-2.51,2.81a2.09,2.09,0,0,1-2,.69c-1.45-.32-2.92-.59-4.36-.95-.8-.2-1.75,0-2.35-.74s0-1.6.14-2.4.25-1.37.34-2.06.12-1.39.19-2.12c-1.05-.35-1.77.34-2.39.85-1.78,1.49-3.51,3-5.15,4.7a27.64,27.64,0,0,0-3.1,3.73,52.2,52.2,0,0,0-2.93,4.86c-.76,1.39-1.37,2.85-2,4.28-.37.81-.66,1.65-1.07,2.44a2.18,2.18,0,0,1-3.93.23,6.56,6.56,0,0,1-1.15-3.39c-.26-4.06.92-7.81,2.32-11.52Zm78.1-85c-.37-.44-1-.71-.93-1.46A8.7,8.7,0,0,1,90.65,124a5.75,5.75,0,0,0,.8-1.63,7.47,7.47,0,0,0,.29-2.05,1.08,1.08,0,0,0-.55-.84,1.16,1.16,0,0,0-.92.39q-1.58,1.88-3.06,3.82a7.4,7.4,0,0,0-1.55,4.13c-.06,1-.27,2-.33,2.92a19.12,19.12,0,0,0,.79,8c.43,1.15.52,1.25,1.8,1.34a6,6,0,0,1,1,.14c2.81.63,5.63,1.23,8.43,1.91a1.07,1.07,0,0,0,1.27-.47,34.73,34.73,0,0,1,3.09-3.21c2.44-2.14,5-4.19,7.42-6.31A7.33,7.33,0,0,0,110,131l-.23-.3c-2.63.6-4.88,2.11-7.39,3.23a2.47,2.47,0,0,1,.25-1.31,10.25,10.25,0,0,1,1.33-1.61,50.64,50.64,0,0,0,6.5-7.3,3.76,3.76,0,0,0,1-2.25c-.62.27-1.09.43-1.52.67a31.91,31.91,0,0,0-5.84,4.31c-.47.46-.91,1-1.89.91a7.44,7.44,0,0,1,.46-1.36c.42-.72.94-1.39,1.4-2.09,1.15-1.75,2.3-3.5,3.41-5.28a1.31,1.31,0,0,0,.14-1.57c-1.23.87-2.43,1.66-3.55,2.54-1.46,1.15-2.86,2.38-4.29,3.57-.36.3-.71.64-1.22.3a4.66,4.66,0,0,1,.66-2.65c.94-1.93,1.87-3.86,2.77-5.81a1.73,1.73,0,0,0,0-1.79,11.93,11.93,0,0,0-1.19.87,41.41,41.41,0,0,0-9.24,11.83,10.29,10.29,0,0,0-1.08,3.83Zm33.22,133.53,0,0a6.71,6.71,0,0,1,1.28,3.31,33.64,33.64,0,0,0,.58,4c.22,1.15.6,2.28.87,3.43.13.56.38.93.79,1a11.16,11.16,0,0,0,1.52-1.62c1.48-2.37,2.89-4.78,4.3-7.2a1.2,1.2,0,0,0,.14-.89c-.92-2.08-.72-4.43-1.71-6.52s-1.64-4.25-2.47-6.37c-.2-.52-.5-1-1.35-.74.35-.55.5-.93.2-1.49a16.51,16.51,0,0,0-6.74-7.09,15.43,15.43,0,0,0-3.83-1.45c-2.61-.61-5.27-1.05-8-1.58L106.93,245c-.34.74-.71,1.47-1.06,2.21a26.77,26.77,0,0,1-1.3,2.63c-.76,1.22-1.81,2-3.27,1.63A12.23,12.23,0,0,0,99.81,250a1.87,1.87,0,0,1-.81-1c-.27-.72-.68-1.5-2-1.07.66-1,.17-1.52-.24-2.06-1-1.25-2.07-2.41-2.28-4.07,0-.05-.15-.08-.4-.19-1,.9-2,1.83-3,2.8a28.76,28.76,0,0,1-7,5.53,16.85,16.85,0,0,0-2.76,2.18c1.21.42,2,1,2.17,2.15a.91.91,0,0,0,.29.47A20.61,20.61,0,0,1,87,259.48,14.66,14.66,0,0,0,88.05,261c0,.17-.28.55-.19.85.41,1.51.91,3,1.38,4.5l1.16.17-1.23.64c.26,1.14-.2,2.37.81,3.31-1.21.44-1.22,1.39-1.19,2.33A1.1,1.1,0,0,0,90,274c.15,1.37.25,1.52,1.51,1.83,1.46.37,2.84,1.21,4.44.88a.56.56,0,0,1,.28.05c1.17.51,2.4.17,3.59.15a1.27,1.27,0,0,0,.91-.67c.25-.56.55-.62,1.1-.54a36.23,36.23,0,0,0,4,.4c2,0,4-.24,6.06,0a4.73,4.73,0,0,0,1.88-.06c.9-.3,1.37.14,2,.76l-3.18,1.38A3.48,3.48,0,0,0,109,278a13.22,13.22,0,0,0-1.49-.55c-.54-.12-1.11-.13-1.66-.22-.72-.1-.37.84-1,1l-.1-1.07c-.6,0-1.11-.1-1.62-.09s-.85.34-.62.91.54,1,.72,1.52c.68,2,1.39,4,1.93,6.07.16.59-.25,1.32-.31,2a1.76,1.76,0,0,0,1.58,2.18q.75.19,1.5.33c1.91.34,3.83.69,5.75,1a15.35,15.35,0,0,0,3.29.36,12.14,12.14,0,0,0,2.84-.74c.15,0,.36-.33.33-.4-.46-.92.47-1.35.68-2a6.15,6.15,0,0,0,.2-3.45c-.39-1.53-.87-3-1.3-4.55-.7-2.52-1.72-4.95-2-7.59,0-.42-.41-.79-.55-1.21a2.84,2.84,0,0,1-.06-.88h0c.61-.07.34-.54.38-.85.13-1.15.23-2.31.37-3.45.07-.59.23-1.16.36-1.82a2.27,2.27,0,0,0,1.88-1.86Zm25-26.46c-.28,0-.38-.09-.46-.06a.68.68,0,0,0-.37.18A8.12,8.12,0,0,1,145,239a3.67,3.67,0,0,1-4.79-1A8.63,8.63,0,0,1,139,235c-1.19-3.84-3-5-6.4-5.52-2.43-.35-4.89-.53-7.34-.67a7.34,7.34,0,0,1-4.24-1.91,7.93,7.93,0,0,1-2.65-7.45,40.88,40.88,0,0,0,.4-7.5c-.18-2.55-.21-5.12-.27-7.68a12.58,12.58,0,0,0-2.07-6.3,17.37,17.37,0,0,0-7.11-6.16,24.92,24.92,0,0,0-11.18-2.78,27.79,27.79,0,0,0-9,1.24A23.42,23.42,0,0,0,82,194c-4.14,3.1-5.6,7.52-6,12.4-.16,1.8,0,3.63-.09,5.45a14.35,14.35,0,0,1-.47,3.71,25.93,25.93,0,0,1-2,4.59c-1.83,3.31-2.86,6.72-2.08,10.56a15.38,15.38,0,0,0,1.54,3.95,10.45,10.45,0,0,0,2,2.81,14.79,14.79,0,0,1,3.44,4.5,13.21,13.21,0,0,0,.91,2c1.13,1.69,2.33,3.32,3.58,5.07a11,11,0,0,0,2-.92c1.52-1.14,3-2.33,4.45-3.57,1.59-1.36,3.1-2.8,4.72-4.28l-1.19-2.1c-1.24.27-2.27.54-3.33.7a7.86,7.86,0,0,1-4.39-.55,11.18,11.18,0,0,1-5.46-5.39A28.63,28.63,0,0,1,77,217.27c0-.45,0-1,.83-1.36a15.19,15.19,0,0,1,.16,1.79,32.4,32.4,0,0,0,1,9.56,18.41,18.41,0,0,0,2.78,6.33,9.5,9.5,0,0,0,3.08,2.94,8.08,8.08,0,0,0,7.61.14c.49-.24,1-.39,1.65-.63a15.89,15.89,0,0,1,.59,1.52c.5,1.71,1,3.42,1.44,5.13a3.73,3.73,0,0,0,.56,1.27c1.19,1.49,2.4,3,3.66,4.38a22.28,22.28,0,0,0,1.89,1.67c.35-.49.64-.88.89-1.29s.25-.61.39-.9l3.89-7.69c.45-.9.39-1.06-.28-1.84a29.63,29.63,0,0,1-2.17-2.74c-1.26-1.92-.91-2.87,1.22-3.75l.39-.16a15.89,15.89,0,0,0,2.46-1,8.36,8.36,0,0,0,2.36-1.83,7.49,7.49,0,0,0,1.37-6.58,4.2,4.2,0,0,0-1.85-2.69,3.17,3.17,0,0,0-4.56,1.15c-.14.26-.3.52-.54.92a1.69,1.69,0,0,1,0-2,3.7,3.7,0,0,1,2.45-1.69,4.73,4.73,0,0,1,5.31,2.34,7.7,7.7,0,0,1,.75,5.28c-.4,1.84-.73,3.81-2.34,5.12a10.39,10.39,0,0,1-5.71,2.67,6,6,0,0,0-1.25.38,9.77,9.77,0,0,0,.62,1.22,9.13,9.13,0,0,0,3.26,3.12,10.58,10.58,0,0,0,3.15,1.34c1.7.27,3.4.59,5.09.92A15.63,15.63,0,0,1,126.9,247a3.51,3.51,0,0,0,2.42,1.44,34.32,34.32,0,0,1,4.62,1c4.55,1.52,9.77-.13,12.21-3.75a14.15,14.15,0,0,0,1.38-2.25A13.44,13.44,0,0,0,148.67,236.75ZM11.85,169.42c.9.06,1.54.12,2.19.13,1.66,0,3.33,0,5,0a22.61,22.61,0,0,0,6.72-1.09,3.21,3.21,0,0,0,2-2.07c.68-1.66,1.66-3.08,3.68-3.42a8.28,8.28,0,0,0,2.86-1,8.81,8.81,0,0,0,3.58-4.18,28.33,28.33,0,0,0,2.22-7.18,46.72,46.72,0,0,0,.24-4.74,3.82,3.82,0,0,1,.94-2.39c.59-.75,1.48-1.44,1.45-2.63a6,6,0,0,1-3.28-2.08,19.22,19.22,0,0,1-3.56-7.06c-.41-1.31-.52-2.75-1.63-3.92l-1.47.76A16,16,0,0,1,30,130a8.15,8.15,0,0,1-6.11-.38,4.83,4.83,0,0,0-.64-.2,13.49,13.49,0,0,1-11.82,8.94c.15,1.6.41,3,2.08,3.66a1.21,1.21,0,0,1,.51.47c.21.38.52.78.08,1.37l-.92-.58a23.8,23.8,0,0,0-2.52-1.49c-1.94-.84-3.54-.24-4.23,1.62a8.3,8.3,0,0,0,0,5.77,5.65,5.65,0,0,0,1.8,2.44,13.89,13.89,0,0,0,6.21,2.75,9.78,9.78,0,0,1,1.45.53c-.3.25-.4.42-.5.41-1.05,0-2.1-.11-3.26-.19a9,9,0,0,0,.11,1.07c.17.92.44,1.82.54,2.75.16,1.34.16,2.69.31,4a11.63,11.63,0,0,1-.37,4.55A14.25,14.25,0,0,1,11.85,169.42ZM37.08,288.87c-1.1,4.22-2.09,8.27-3.23,12.29-.31,1.11-.51,2.51-2.27,2.76-.38-.36-.83-.82-1.31-1.24a11.92,11.92,0,0,0-1.6-1.35c-3.12-1.93-4.42-.4-4.7,2.44A10.1,10.1,0,0,0,27,312c1.6,1.66,4.62,2.57,6.7.93a3.12,3.12,0,0,1,1.93-.74c-.12.79-.26,1.47-.31,2.16a1.4,1.4,0,0,0,.26,1,8.67,8.67,0,0,0,2,1.5c3.33,1.6,6.72,3,10.53,2.77.16,0,.33.14.5.17,1.06.19,2.32.49,3.09-.23a3.22,3.22,0,0,1,3.23-.63,20.6,20.6,0,0,0,8.13,0,4.33,4.33,0,0,0,3.42-3.31c1-3.14.76-6.39.52-9.57a68.79,68.79,0,0,0-1.46-8.12,4.52,4.52,0,0,0-.79-2c-.58.49-1,.93-1.57,1.33a3.14,3.14,0,0,1-3.55.37A7.06,7.06,0,0,1,56,292.69c-.24-.93-.67-1.16-1.54-.82a16.93,16.93,0,0,0-2,1.05,2,2,0,0,0-1,1.94,10.42,10.42,0,0,1-2,6.57c-1.52,1.92-3.55,2.55-5.36,1.34a8,8,0,0,1-2.61-2.88,13.62,13.62,0,0,1-1.37-8.15,8.23,8.23,0,0,1,1.53-4.28,4.05,4.05,0,0,1,4-1.68,5.9,5.9,0,0,1,5.14,4.33c.15.53.31,1.06.45,1.55l4.14-1.32c0-.37,0-.74.07-1.1a28.05,28.05,0,0,1,.63-4.41c.6-2.05,1.56-3.94,4-4.32a2.13,2.13,0,0,0,.63-.33l-.3-1.79c-1,.73-1.73.19-2.43-.39a6.67,6.67,0,0,1-.6-.59c-.67-.69-1.33-1.4-2.06-2.17-.44.8-.8,1.5-1.2,2.16a2.14,2.14,0,0,1-2.15,1.29c-1-.24-1.34.27-1.84,1-1.36,1.87-3,3.33-5.6,2.87a1,1,0,0,0-1.11.61,17.47,17.47,0,0,1-2.45,3.7C40,288,38.83,289.1,37.08,288.87Zm114.65-26.32a23.6,23.6,0,0,0-2.71,1.72c-1.67,1.42-3.27,2.92-4.87,4.41s-3.41,3.29-5.17,4.89c-.52.47-1.21,1.19-1.95.54s-.21-1.36.12-2.05c1.27-2.65,2.52-5.32,3.75-8a7.06,7.06,0,0,0,.52-3.71,2.54,2.54,0,0,0-1-2.15,4.36,4.36,0,0,0-1,.64,17.32,17.32,0,0,0-1.84,2.28c-1,1.61-2,3.26-2.95,4.91a114.89,114.89,0,0,1-6.6,10.17c1,2.05,3.34,2.87,4.17,5.05a3.76,3.76,0,0,1-1.78-.32,12,12,0,0,1-5.41-6.81,43.92,43.92,0,0,1-1-5.63,26.16,26.16,0,0,0-.82-3.39c-.32-.94-1-1.11-1.9-.62a3.16,3.16,0,0,0-1.75,2.7,24,24,0,0,0,0,4.87,81.09,81.09,0,0,0,2.14,9.35,14.33,14.33,0,0,1,0,8.67,2.26,2.26,0,0,0,.82,2.8c2,1.7,4.56,2,7,2.37a55.59,55.59,0,0,0,5.78.46,7.83,7.83,0,0,0,1.7-.3,1.92,1.92,0,0,1,.06-2.5,13.93,13.93,0,0,1,1.32-1.23c1.16-1.06,2.31-2.12,3.48-3.16s2.12-2,3.72-2.21a15.71,15.71,0,0,0,2.44-.48c1.52-.4,3-.77,4.54-1.28a6.21,6.21,0,0,0,3.43-2.27,1.47,1.47,0,0,0,.16-1.71c-.42-.6-1-.23-1.53-.08-2.36.71-4.71,1.47-7.08,2.13-.83.24-1.76.41-2.39-.62a2.62,2.62,0,0,1,1.16-1.43l5.5-3.55a20.4,20.4,0,0,0,4.47-3.7,2,2,0,0,0,.51-2.42,4.66,4.66,0,0,0-1.29.23,35.46,35.46,0,0,0-3.33,1.78c-1.94,1.2-3.84,2.47-5.76,3.71-.41.26-.94.52-1.24,0a2.07,2.07,0,0,1-.07-1.29c0-.24.31-.45.49-.67.74-.9,1.48-1.81,2.23-2.7a21.55,21.55,0,0,0,4.22-7.51A1.66,1.66,0,0,0,151.73,262.55ZM77,253.64a2.46,2.46,0,0,0-2.1,3.67,7.62,7.62,0,0,1,.48,1.74c.33,2.5.58,5,.92,7.49a43.69,43.69,0,0,0,2.09,9.51,8.49,8.49,0,0,0,6.24,5.57c1.3.32,2.68.34,4,.57a22.83,22.83,0,0,1,2.55.68,8.17,8.17,0,0,0,1.52.55q3.68.33,7.35.55c.82.06,1.66,0,2.46,0a8.93,8.93,0,0,0-1.16-5.78c-1.12.12-2.19.2-3.24.35a11.08,11.08,0,0,1-7-1.16c-2.55-1.35-3.67-2.82-3.45-5.67a20.31,20.31,0,0,0,0-4.74,23.28,23.28,0,0,0-4.87-11.87c-.21-.25-.43-.5-.62-.77-1-1.48-2-1.61-3.27-.4S77.58,255,77,253.64Zm-.39,22.56c0-.65,0-1.14-.13-1.6s-.32-.69-.37-1.05c-.4-2.91-.83-5.81-1.13-8.72-.24-2.36-.17-4.75-1.14-7a6.57,6.57,0,0,0-.38-.9c-.51-.79-1.31-.83-1.72,0a9.44,9.44,0,0,0-.92,2.61,25.07,25.07,0,0,0,.17,8.51,23.46,23.46,0,0,0,1.55,5.35,8.19,8.19,0,0,1,.82,4.18,18.91,18.91,0,0,0,.47,7.34A5.46,5.46,0,0,0,75.58,288a4.15,4.15,0,0,0,2.7,1.14c2.56-.1,4.71-1.22,6.88-2.34.29-.15.46-.53.68-.8s.27-.54.45-.57c.83-.16,1-.88,1.42-1.53-1.28-.3-2.43-.84-3.52-.17a11.56,11.56,0,0,0-1-.91c-.34-.24-.74-.39-1.09-.61-2.06-1.25-3.22-3.34-4.73-5.09C77.06,276.79,76.79,276.44,76.59,276.2ZM48,266.53c.07-.33.12-.53.16-.74a4.46,4.46,0,0,0-.87-3.7,2.41,2.41,0,0,0-4.07.23,4.74,4.74,0,0,0-.05,5.28c.22.33.61.71.32,1.09a13.25,13.25,0,0,0-2.18-1.47,1.83,1.83,0,0,0-2.68,1.64,2.66,2.66,0,0,0,.73,2.44,6.54,6.54,0,0,1,.61.76,4.9,4.9,0,0,1-2.55,2.5,3.84,3.84,0,0,1-5.7-1.84l-.89-1.8c-.71,1-.28,1.83-.09,2.63A4.62,4.62,0,0,0,34,277.07a7.45,7.45,0,0,0,8.19-3.37c.27-.41.66-1,1-1A4.94,4.94,0,0,0,46,270.93a2.05,2.05,0,0,1,1.44-.74c4.93-.14,7.53-5.39,6.86-9.29a3.23,3.23,0,0,0-2.62-2.79c-.16,1.14-.37,2.18-.42,3.23a7.25,7.25,0,0,1-.91,3.34A3.17,3.17,0,0,1,48,266.53Zm1.8,28.65a24.33,24.33,0,0,0-.94-5.4,4,4,0,0,0-2.11-2.48,1.8,1.8,0,0,0-1.7,0,5.35,5.35,0,0,0-2.77,3.49,11.27,11.27,0,0,0,1.35,9.74,3.06,3.06,0,0,0,5.46-1C49.33,298.1,49.55,296.64,49.78,295.18Zm15.52-6a34,34,0,0,0-1-4,7.17,7.17,0,0,0-1.56-2.44,2.38,2.38,0,0,0-3.51,0,6.09,6.09,0,0,0-2,3.58,22.43,22.43,0,0,0,.27,6.4,6.22,6.22,0,0,0,1.76,2.92,2.54,2.54,0,0,0,3.17.51,5.42,5.42,0,0,0,1.87-2.37A18.18,18.18,0,0,0,65.3,289.22Zm43.54,4c.3-.17.73.59,1.09-.43-1.27-.41-2.54-.8-3.8-1.25-1.72-.62-3.35-1.33-4.11-3.23a18.81,18.81,0,0,0-1.38-2.42c-.48-.8-1.32-.71-2.08-.88s-.76.5-1.19.89a1.31,1.31,0,0,0-1.39-1,7.19,7.19,0,0,1-1.63-.35,8,8,0,0,0-3.21-.06c.51,1.92.66,3.88,2.71,4.87l-.36.74,1.31,1.22,1.06-.32-.33.95c1.77,1.21,3.58,2.32,5.8,2.36a23.09,23.09,0,0,0,6.09-.5A8.44,8.44,0,0,0,108.84,293.24ZM15,295.13v-.35h-.8c-1.35,0-2.43-.54-2.6-1.62a7.16,7.16,0,0,1,.25-2.28c.09-.57.25-1.13.38-1.65-2.69-1.32-3.93-1.26-6.59-5.39-.15.5-.45,1-.38,1.34.28,1.32-.66,2.69.24,3.95a6.38,6.38,0,0,0,4.46,6A8.29,8.29,0,0,0,15,295.13ZM171.28,310.8l-1.47.5.95.6Z" transform="translate(-0.13)"/><path class="a" d="M5.25,40.22c-.19-.55-.34-.78-.32-1a5.59,5.59,0,0,1,.32-.92c.51-1.63.07-2.58-1.6-2.9a14.94,14.94,0,0,0-3.2,0C.08,34.16.28,33.88,1.65,34c.47,0,.94,0,1.4,0,1.41.08,1.4.09,1.92-1.28.23-.61.55-1.19.73-1.81A14.25,14.25,0,0,0,6,29.14a7.42,7.42,0,0,0,1.36-1.42,27.46,27.46,0,0,1,4.13-5.94,1.54,1.54,0,0,0,.2-1.92c-1-2.06-1.87-4.15-2.67-6.28-.27-.72-.55-1.22-1.38-1.3,1.11-1.35.3-2.52-.08-3.84-3,.26-5,2.07-7.14,3.77a1.37,1.37,0,0,1,.43-1.77A20.67,20.67,0,0,1,6.24,7.57c1.16-.43,2.11-.34,2.64.93,1.09-.15,1.09-1,1.24-1.67a25.4,25.4,0,0,1,.56-2.59,3.36,3.36,0,0,1,.92-1.35,1.36,1.36,0,0,1,2.07.22c.28.36.54.74.92,1.27A8.09,8.09,0,0,1,17.37.83,6.18,6.18,0,0,1,19,.06c.69-.2,1.12.12,1.39.81a3.92,3.92,0,0,1-.12,2.74c-.23.7-.45,1.39-.75,2.32.57-.13.91-.19,1.24-.29.89-.25,1.77-.57,2.68-.76A1.11,1.11,0,0,1,24.8,6.45a3.44,3.44,0,0,1-.74,1.15C23.05,8.7,22,9.75,21,10.84a2.48,2.48,0,0,0-.26.61c.48,0,.83,0,1.19,0,1.21,0,2.41-.14,3.62-.17a2,2,0,0,1,.94.25,1.24,1.24,0,0,1,.21,2.25,4.62,4.62,0,0,1-1.52.66c-.89.26-1.8.44-3,.73.48.4.81.62,1.08.89a15.43,15.43,0,0,1,1.62,1.72c.47.66.23,1.22-.59,1.48a11.69,11.69,0,0,1-5.92.58c-1.05-.23-2.1-.46-3.17-.59a19,19,0,0,0-2.26,0c-.08.28-.15.39-.12.45a2.36,2.36,0,0,1-.56,2.91,29.66,29.66,0,0,0-5,7.68,13.08,13.08,0,0,0-1.5,4.58c1.55-.13,3-.15,4.38-.38a17,17,0,0,1,11.58,2.11,16,16,0,0,1,5.16,4.61c1.4,2,2.82,3.93,4.05,6a13.23,13.23,0,0,1,.91,3.21A17.27,17.27,0,0,1,31.39,61a33.58,33.58,0,0,1-2.15,4.49,15.66,15.66,0,0,1-4.31,4.89,9.17,9.17,0,0,1-6.64,2.18,20.69,20.69,0,0,1-1.75,3.56,21.2,21.2,0,0,1-3,2.69l.58.21c1.53.54,3.08,1,4.6,1.61s3,1.11,4.42,1.73a1.89,1.89,0,0,1,1.15,1.78,11.31,11.31,0,0,0,.15,1.23,16,16,0,0,0,1.94.09c2.29-.12,4.57-.3,6.85-.43a7,7,0,0,1,2,.08,2.19,2.19,0,0,1,1.36.76A1.35,1.35,0,0,1,36,87.57c-.88.68-1.81,1.3-2.73,2-.21.15-.43.28-.78.51.33.18.51.3.7.39,1.5.75,3,1.43,4.47,2.26a7,7,0,0,1,1.76,1.58c.83,1,.51,1.81-.7,2.2s-2.41,0-3.6-.17c-.31,0-.61-.11-1.11-.2a5.07,5.07,0,0,0,.45,1.14,5,5,0,0,1,.94,3c.07,1-.43,1.38-1.37,1.14a4.87,4.87,0,0,1-1-.47l-1.33-.71c0,.51,0,.84,0,1.16a8.78,8.78,0,0,1,0,2c-.2.84-.95,1-1.62.44-1.14-.95-2.26-1.91-3.48-3a2.47,2.47,0,0,0-.24.75c0,.37.17.74.17,1.1,0,.67-.07,1.37-.81,1.65a1.56,1.56,0,0,1-1.73-.6c-.61-.64-1.15-1.35-1.71-2l-3.61-4.39a31,31,0,0,1-3.29.46,14,14,0,0,1-6.38-1.35c-.87-.4-1.91-.42-2.82-.77C4.17,95,2.26,94.12.33,93.32V91.39c.54.32,1,.65,1.52.91.95.48,1.9,1,2.89,1.35a4.09,4.09,0,0,0,1.36,0c.48,1.12,1.7,1.16,2.63,1.61s1.88,1.11,3,.29c.19.86.79,1,1.56,1s1.29.18,1.93.2a4.28,4.28,0,0,0,4.27-2.58,28.58,28.58,0,0,0,1.26-3.09c.67-1.83,1.28-3.68,1.92-5.53.07-.22.16-.44.21-.66.22-1.15.07-1.55-1-2-2-.78-4-1.44-6-2.21-1.47-.56-2.94-1.16-4.36-1.83a1.65,1.65,0,0,0-1.9.09,1.76,1.76,0,0,0-1.23-1.73,7.81,7.81,0,0,1-1.51-1.2c-.27-.24-.48-.56-.76-.78a1.74,1.74,0,0,1-.7-1.44,2.39,2.39,0,0,0-2.48-2.56,8.21,8.21,0,0,1-1.86-.4c-.8-.21-.92-.65-.72-1.33,1.66.24,3.31.41,4.94.74s3.32-.24,5.1.39a2.74,2.74,0,0,1-1.89.71c-.79.07-1.59,0-2.38.11a1.25,1.25,0,0,0-.79.41c-.09.11.1.5.24.71.57.84,1.13,1.7,1.78,2.49C8.88,77,12,77.84,13.89,76.88a5.09,5.09,0,0,0,2.63-3.13,3.47,3.47,0,0,0-1.41-3.93c-.67-.46-1.3-1-2.12-1.61,1.26-.65,2.58-.24,3.72-.67s2.34-.88,3.52-1.32c.34.59-.06.85-.42,1-1.3.6-2.62,1.16-3.94,1.73l1.9,2.4c2.11.42,4-.45,5.79-1.59A15.56,15.56,0,0,0,28.12,65a20.94,20.94,0,0,0,3.2-8.54,13.06,13.06,0,0,0-1-7.4c-1.5-3.33-3.2-6.57-6-9.06C19.85,35.86,13.83,34,7.67,36.82c-.77.35-1,1-1.39,1.63S5.69,39.45,5.25,40.22ZM31,94.64c.79-.76,1.44-.31,2.08-.16,1.31.31,2.62.65,3.94.91a9,9,0,0,0,1.78-.07A8.59,8.59,0,0,0,38,94.24a18.63,18.63,0,0,0-6.4-3.36,3.16,3.16,0,0,0-3.61.77,1.07,1.07,0,0,1-.56.4,4.46,4.46,0,0,1-1-.14c.11-.28.13-.64.32-.82a6.63,6.63,0,0,1,3.38-1.87,10.52,10.52,0,0,0,3.12-1.13,3.62,3.62,0,0,0,2-2c-.74,0-1.33,0-1.92,0-1.53.12-3.05.3-4.58.39-1.35.08-2.7.1-4.05.09a1.22,1.22,0,0,0-1.33,1c-.29.88-.67,1.74-1,2.61-.81,2.11-1.13,4.43-3.15,6.3a4.09,4.09,0,0,1,1,.6c.81.93,1.61,1.87,2.35,2.85.53.71.92,1.51,1.44,2.22a6,6,0,0,0,1,.87,1.75,1.75,0,0,0,.1-1.87c-.24-.71-.68-1.48.14-2.23,2.27.64,3.23,3,5.11,4.08.86-.55.51-1.24.29-1.79-.35-.86-.88-1.65-1.27-2.5a2.55,2.55,0,0,1,0-.88,3.44,3.44,0,0,1,.91,0,3,3,0,0,1,.7.45c.73.5,1.44,1,2.19,1.49a4.71,4.71,0,0,0,1.06.29C34.08,97.59,32.22,96.37,31,94.64ZM26,13l-.1-.42c-2.22-.77-4.45.5-6.6.16-.53-1,0-1.55.49-2.11,1-1.12,2-2.19,3-3.31a6.85,6.85,0,0,0,.66-1,4.78,4.78,0,0,0-1,.06c-1.1.36-2.21.74-3.29,1.17-.37.14-.74.37-1,0a1.49,1.49,0,0,1-.18-1,10.24,10.24,0,0,1,.58-1.57,8.46,8.46,0,0,0,.78-3.38c-.28,0-.49-.06-.63,0a4.66,4.66,0,0,0-2.86,3.37,4.92,4.92,0,0,1-1.21,2.32c-.85-1.13-.76-2.62-1.77-3.5-1.21.19-1.28,1.14-1.42,2C11.17,7.18,11,8.63,9.81,9.67a2,2,0,0,0-.39,2.45c.69,1.77,1.5,3.49,2.25,5.24a1.06,1.06,0,0,0,1,.66c2,.22,4,.49,5.94.73a13.09,13.09,0,0,0,5.3-.52c-.44-.46-.71-.81-1.05-1.1a6.12,6.12,0,0,0-3.29-1.42c-1.68-.18-2.93-1.31-4.48-1.7,0,0,0-.09-.07-.24.15-.09.34-.33.49-.3a6.63,6.63,0,0,1,1.57.48,6.38,6.38,0,0,0,4.21.48c.91-.19,1.8-.47,2.69-.73C24.63,13.49,25.31,13.25,26,13Z" transform="translate(-0.13)"/><path class="a" d="M.28,185.6l4.17,3.26.19-.11a4.07,4.07,0,0,0-.28-.81c-1-1.79-2.05-3.56-3.07-5.34a5.45,5.45,0,0,1-.47-1,1.05,1.05,0,0,1,.45-1.34,1,1,0,0,1,1.27.23,3,3,0,0,1,.33.62l.4-.16L4,177.38l.29,0c0,.7,0,1.4,0,2.1a13.37,13.37,0,0,1-.17,1.4,3,3,0,0,0,.53,2.5c1.74,2.24,3.44,4.5,5.16,6.75.07.1.22.14.41.26l.48-1.72a2.36,2.36,0,0,1,.42,1.84,4.08,4.08,0,0,0,1,2.65c1.53,1.82,3,3.71,4.45,5.56a6.66,6.66,0,0,0,.66.53c.31-2.43-.06-4.74.37-7H18c0,.44.1.87.11,1.31.06,1.87.18,3.74.11,5.6a9.51,9.51,0,0,0,1.15,4.26c.12.25.3.47.41.73.39.9.17,1.26-.82,1.33l-.5,0c-.4,2.16-.19,4.36-.39,6.53s.05,4.27-.93,6.55a3.27,3.27,0,0,1-.44-1.9c.19-3.07.33-6.14.5-9.21a1.79,1.79,0,0,0-.81-1.62c-1.48-1.2-2.84-2.55-4.25-3.84-.4-.37-.81-.73-1.37-1.23a5.24,5.24,0,0,0-.46,1.16,3,3,0,0,1-1.33,2.06,8.41,8.41,0,0,1-5.86,1.82c-.91-.09-1.83-.1-2.75-.15V204a8.53,8.53,0,0,0,1.47.5,9.07,9.07,0,0,0,6.09-1,2.17,2.17,0,0,0,1.37-2.24c-.08-.61.24-.9.87-1a11.89,11.89,0,0,0,2-.6c1.06-.38,1.34-.9.85-1.89a21.6,21.6,0,0,0-1.55-2.35l-1,.7c.2-1.85-.94-2.7-2.22-3.34-1.58-.8-3.18-1.53-5.08-1.11a13.85,13.85,0,0,1-2.75,0l-.06-1.26L1.86,190c-.6-.69-1.29-1.19-1.52-1.85A8.66,8.66,0,0,1,.28,185.6Zm12.91,14.74c1.29,1.78,2.86,3.12,4,3.35l-2.89-4.3Z" transform="translate(-0.13)"/><path class="a" d="M52.72,185.31c1.44,0,2.69,0,3.93,0a17.63,17.63,0,0,0,7.9-1.17c.84-.37,1.78-.5,2.64-.84a27.92,27.92,0,0,0,6.3-3.83,34.57,34.57,0,0,0,4.78-4.26,66,66,0,0,0,5.19-6.34,47.27,47.27,0,0,0,5.46-10c1.09-2.77,1.83-5.67,2.73-8.51.15-.47.13-1.06,1-1.09a13.51,13.51,0,0,1-.24,1.74,82.31,82.31,0,0,1-3.32,10.22A39.42,39.42,0,0,1,84,170.17a54.66,54.66,0,0,1-6.33,7.21,41.14,41.14,0,0,1-6.3,5,21.06,21.06,0,0,1-4.86,2.38c-3.23,1-6.46,2.09-9.94,1.61-.78-.11-1.59.06-2.38,0C53.63,186.32,52.94,186.31,52.72,185.31Z" transform="translate(-0.13)"/><path class="a" d="M51.93,179.51c.35,0,.71,0,1,0a31.87,31.87,0,0,0,10.53-.74,5.63,5.63,0,0,0,1.4-.76,8.06,8.06,0,0,1,.9-.58c4.4-1.8,7.68-5,10.56-8.62a57.63,57.63,0,0,0,7.35-13.11,40.44,40.44,0,0,0,2.73-8.78,5.58,5.58,0,0,1,.36-.93l.37.07a22,22,0,0,1-.18,2.82,35.44,35.44,0,0,1-2.26,7.32A79.5,79.5,0,0,1,80,165.64a38.32,38.32,0,0,1-7.41,9,26.24,26.24,0,0,1-4.27,2.85,27.26,27.26,0,0,1-4,1.95,19.53,19.53,0,0,1-7.66,1.14,13.72,13.72,0,0,1-4.28-.55c-.17-.06-.32-.14-.49-.21Z" transform="translate(-0.13)"/><path class="a" d="M12.42,214.67a10.67,10.67,0,0,0-.37-1.29,6,6,0,0,0-.63-1,6.92,6.92,0,0,0-.73.7c-.35.45-.66,1-1.11,1.6l-1.71-2.47c-1.32.71-.8,2-1.24,3-.77,0-.83-.39-.75-1a13.09,13.09,0,0,0,0-1.41,1.59,1.59,0,0,0-1.43,1.88c.15,1.58-.49,3-.59,4.54a38.82,38.82,0,0,0-.19,7.23q.37,3,.64,6.11A14.49,14.49,0,0,1,3,239.48c-.67,1.62-1.62,3.12-2.54,4.85a3.5,3.5,0,0,1,.32-2.72c.67-1.37,1.31-2.75,1.89-4.16.86-2.1.64-4.23.36-6.45-.59-4.62-1-9.26.21-13.87a12.4,12.4,0,0,0,.22-1.93c.12-1.11.22-2.32,1.16-3A8,8,0,0,1,7.38,211c.38-.1.93.29,1.34.54a4.1,4.1,0,0,1,.75.83c.67-.54.94-1.55,1.93-1.27a3.36,3.36,0,0,1,1.29.72,2,2,0,0,1-.3,2.82Z" transform="translate(-0.13)"/><path class="a" d="M58.5,323.67a1.61,1.61,0,0,1-.13,1.72,18.67,18.67,0,0,1-4.55,5A14,14,0,0,1,49.23,333a10,10,0,0,1-6.44,0,25.43,25.43,0,0,1-9.18-5.19,20.47,20.47,0,0,1-1.9-2,3.6,3.6,0,0,1-.34-1,6.41,6.41,0,0,1,.86.56,27.7,27.7,0,0,0,8.5,5.75c3.76,1.63,7.47,1.64,11-.86a29.6,29.6,0,0,0,5.7-5.48A10.93,10.93,0,0,1,58.5,323.67Z" transform="translate(-0.13)"/><path class="a" d="M29.92,230.52a5.16,5.16,0,0,1-2.58,3.37c-.2.11-.43.17-.65.27-1.23.54-2.1.12-2.21-1.21a6.33,6.33,0,0,1,.28-2.06c.33-1.26.76-2.49,1.12-3.74a4,4,0,0,0,.07-.92c-.91-.54-1.88.49-2.88-.3.48-.19.8-.33,1.13-.43,1.28-.42,2.56-.85,3.85-1.22.63-.18.77-.5.68-1.13-.13-.87.12-1.18.73-1.19a1.21,1.21,0,0,1,1.27,1.33.77.77,0,0,1-.1.4c-.58.69-.12,1.22.28,1.73.66.84,1.34,1.67,2,2.5.11.14.18.29.46.72l-1.94-.29c-.59.07-.46,1.56-1.66,1.12a4.4,4.4,0,0,1,.34-1.11,2.16,2.16,0,0,0-.4-2.9l-.34-.38A2,2,0,0,0,27,226.76q-.69,2.49-1.35,5a2.86,2.86,0,0,0-.07.83c0,.85.52,1.15,1.16.61a20,20,0,0,0,1.89-2C28.93,230.81,29.1,230.23,29.92,230.52Z" transform="translate(-0.13)"/><path class="a" d="M38.83,183.42a13.18,13.18,0,0,1,.42,1.85c.53,8.95.47,17.92.34,26.88,0,.18-.23.36-.4.62a3.51,3.51,0,0,1-.7-2.56c.07-4.51.16-9,.21-13.53,0-1-.12-2-.14-3.06q-.11-4.68-.17-9.34C38.39,184.09,38.57,183.9,38.83,183.42Z" transform="translate(-0.13)"/><path class="a" d="M54.16,192a6.6,6.6,0,0,1,1.6,0,18.7,18.7,0,0,0,5.12.28,13.43,13.43,0,0,0,6.2-1.42c.17-.09.42-.27.5-.22,1.11.73,1.29-.33,1.88-.83a29.56,29.56,0,0,1,3.16-2.06c1-.62,1.94-1.25,2.93-1.86.71-.43,1.45-.83,2.43-1.38a4.75,4.75,0,0,1-1.81,2.41,57.09,57.09,0,0,1-9.93,5.67,6.15,6.15,0,0,1-1.73.46,30.24,30.24,0,0,1-7.36.21,26.87,26.87,0,0,1-3-.73Z" transform="translate(-0.13)"/><path class="a" d="M24.67,184.35a209.27,209.27,0,0,1,.69,25.29c0,.19-.19.37-.33.64a2.27,2.27,0,0,1-.64-1.85c0-4.39.06-8.77,0-13.15,0-2.83-.18-5.67-.23-8.51C24.17,186,23.94,185.1,24.67,184.35Z" transform="translate(-0.13)"/><path class="a" d="M.13,62.91l.89.45c1.16.62,1.77.4,2-.86a4.22,4.22,0,0,0-.23-2.85A16.15,16.15,0,0,1,1.1,54.37a16.71,16.71,0,0,0-.61-2.14C.35,51.61.31,51,.22,50.36l.33-.11a20.4,20.4,0,0,1,1.2,2.38c.31.86.38,1.81.67,2.69a32.29,32.29,0,0,0,1.33,3.37,5.62,5.62,0,0,1,.06,5.11,2.24,2.24,0,0,1-3.21.71C.31,64.23.32,63.63.13,62.91Z" transform="translate(-0.13)"/><path class="a" d="M13.45,335.32a2.18,2.18,0,0,1-2.21-.4q-3.52-2.6-7.16-5.07a36.12,36.12,0,0,0-3.17-1.76.85.85,0,0,1-.48-1.27,44,44,0,0,1,6.68,3.81A53.92,53.92,0,0,1,13.45,335.32Z" transform="translate(-0.13)"/><path class="a" d="M11.33,51.16c-.63-.73-.44-1.21.26-1.51a23.49,23.49,0,0,1,5.78-1.91c.55-.08,1.12-.09,1.66-.21.81-.17,1.14.13,1.09,1A26.07,26.07,0,0,0,11.33,51.16Z" transform="translate(-0.13)"/><path class="a" d="M13,58.19l-.39-1a32.08,32.08,0,0,0,8.6-4.1c.4.62.36,1-.19,1.39A27.86,27.86,0,0,1,13,58.19Z" transform="translate(-0.13)"/><path class="a" d="M21.87,59.43c-.24.47-.36,1.08-.74,1.36a19.09,19.09,0,0,1-6.82,3.36,2.44,2.44,0,0,1-.47,0c-.44-.8.14-1,.71-1.28,1.44-.63,2.9-1.22,4.31-1.93.94-.47,1.8-1.1,2.69-1.66Z" transform="translate(-0.13)"/><path class="a" d="M17.52,42.43c-2.74.37-5.43.61-7.81,2.26l-.63-1a13.84,13.84,0,0,1,4.48-1.86,27.35,27.35,0,0,1,2.9-.36C17.11,41.39,17.42,41.66,17.52,42.43Z" transform="translate(-0.13)"/><path class="a" d="M115.58,307.87c1-2.71,1.8-5.38,3.46-7.68l.33.06a2.56,2.56,0,0,1,0,1c-.89,2.15-1.83,4.28-2.74,6.42C116.43,308.05,116.2,308.22,115.58,307.87Z" transform="translate(-0.13)"/><path class="a" d="M128.82,308.46c.16-3.09.31-5.94.46-9a2.07,2.07,0,0,1,.91,2.08,41.31,41.31,0,0,1-.19,4.31A3.33,3.33,0,0,1,128.82,308.46Z" transform="translate(-0.13)"/><path class="a" d="M125.7,308.21s-.12-.09-.12-.11c.18-2.2.34-4.41.55-6.6.05-.54.39-.83,1.11-.53-.09.87-.17,1.77-.29,2.67-.16,1.28-.34,2.57-.52,3.85C126.37,307.91,126.3,308.35,125.7,308.21Z" transform="translate(-0.13)"/><path class="a" d="M123.7,300.44c.07.23.22.47.17.64-.76,2.32-1.55,4.62-2.57,7a2,2,0,0,1-.22-.76C121.53,303.82,122.52,301.19,123.7,300.44Z" transform="translate(-0.13)"/><path class="a" d="M3.44,40.71C2.72,41.8,1.51,42.22.28,43.19c.06-.64,0-1.13.14-1.26C1.29,41.3,2.14,40.55,3.44,40.71Z" transform="translate(-0.13)"/><path class="a" d="M9.86,59.34a1.93,1.93,0,0,1,.9,1.85.68.68,0,0,1-1,.55c-.7-.34-.45-1-.6-1.59S9.36,59.4,9.86,59.34Z" transform="translate(-0.13)"/><path class="a" d="M6.42,48.06c1.09.73,1.26,1.11,1,2.3C6,49.78,5.83,49.31,6.42,48.06Z" transform="translate(-0.13)"/><path class="a" d="M33.94,220.6c1.11-.54,1.11-.54,1.59.15C34.45,221.48,34.4,221.48,33.94,220.6Z" transform="translate(-0.13)"/><path class="a" d="M28.38,219.24c-.58.39-1,.56-1.32-.08a.74.74,0,0,1,.28-.66C28.06,218.22,28.09,218.83,28.38,219.24Z" transform="translate(-0.13)"/><path class="a" d="M10.55,187.59v-1.9C11.15,186.53,11.08,187.07,10.55,187.59Z" transform="translate(-0.13)"/><path class="a" d="M6.54,154.67a3.14,3.14,0,0,1-.64.3c-.08,0-.16-.17-.24-.26a1.33,1.33,0,0,1,.38-.27C6.13,154.42,6.26,154.53,6.54,154.67Z" transform="translate(-0.13)"/><path class="a" d="M6.35,139.48a1.56,1.56,0,0,1-.41.31c-.07,0-.27-.21-.25-.24a.77.77,0,0,1,.3-.32S6.17,139.35,6.35,139.48Z" transform="translate(-0.13)"/><path class="a" d="M6.33,128.09c-.15.11-.25.25-.34.24s-.17-.15-.26-.23c.09-.09.16-.24.26-.25S6.18,128,6.33,128.09Z" transform="translate(-0.13)"/><path class="a" d="M6,10.56c-.12-.16-.25-.26-.24-.35S5.9,10,6,9.93c.09.09.22.17.24.27S6.1,10.4,6,10.56Z" transform="translate(-0.13)"/><path class="a" d="M8.19,122.38c-.14.11-.24.25-.34.25s-.24-.16-.23-.24a.35.35,0,0,1,.25-.25C8,122.13,8.06,122.27,8.19,122.38Z" transform="translate(-0.13)"/><path class="a" d="M32.57,120.15c.11.14.25.24.24.33s-.15.18-.24.27c-.08-.09-.22-.18-.23-.27S32.47,120.29,32.57,120.15Z" transform="translate(-0.13)"/><path class="a" d="M15.81,122.36c-.14.11-.24.24-.33.24s-.17-.16-.26-.24c.09-.08.17-.23.27-.23S15.67,122.25,15.81,122.36Z" transform="translate(-0.13)"/><path class="a" d="M6,124c.11.13.25.23.24.32s-.17.23-.25.22a.36.36,0,0,1-.25-.24C5.7,124.2,5.85,124.1,6,124Z" transform="translate(-0.13)"/><path class="a" d="M15.13,126.18c.15-.11.25-.24.35-.24s.18.15.27.23c-.09.08-.18.21-.28.22S15.28,126.28,15.13,126.18Z" transform="translate(-0.13)"/><path class="a" d="M34.81,114.78c-.14.12-.23.26-.32.26a.38.38,0,0,1-.23-.25c0-.08.14-.24.23-.24S34.67,114.67,34.81,114.78Z" transform="translate(-0.13)"/><path class="a" d="M13.6,128.41c-.11-.14-.24-.24-.23-.32s.15-.18.23-.27c.08.09.22.17.22.26S13.71,128.27,13.6,128.41Z" transform="translate(-0.13)"/><path class="a" d="M17.35,127.74c.12.15.25.25.25.34s-.15.18-.23.26c-.08-.08-.22-.17-.23-.26S17.25,127.88,17.35,127.74Z" transform="translate(-0.13)"/><path class="a" d="M23.07,114.44c.11.15.24.24.24.33s-.15.17-.24.25c-.08-.08-.22-.16-.23-.25S23,114.58,23.07,114.44Z" transform="translate(-0.13)"/><path class="a" d="M7.86,130.32c-.1-.13-.24-.24-.23-.33a.36.36,0,0,1,.25-.24.33.33,0,0,1,.24.24C8.12,130.09,8,130.18,7.86,130.32Z" transform="translate(-0.13)"/><path class="a" d="M15.82,114.78c-.14.11-.25.25-.34.24s-.23-.16-.23-.25.15-.23.24-.23S15.68,114.67,15.82,114.78Z" transform="translate(-0.13)"/><path class="a" d="M8.2,114.78c-.13.11-.23.25-.31.24a.34.34,0,0,1-.24-.25.33.33,0,0,1,.24-.23C8,114.54,8.07,114.67,8.2,114.78Z" transform="translate(-0.13)"/><path class="a" d="M6.28,132.06c-.18,0-.33.08-.41,0s-.08-.21-.11-.33c.12,0,.26-.11.35-.07S6.21,131.89,6.28,132.06Z" transform="translate(-0.13)"/><path class="a" d="M17.72,131.87c-.15.11-.25.24-.34.24s-.17-.15-.25-.23c.08-.08.16-.22.25-.23S17.57,131.77,17.72,131.87Z" transform="translate(-0.13)"/><path class="a" d="M25.29,112.87c-.13.11-.22.26-.31.25a.34.34,0,0,1-.24-.25.34.34,0,0,1,.23-.25C25.07,112.62,25.16,112.76,25.29,112.87Z" transform="translate(-0.13)"/><path class="a" d="M6.35,135.71c-.17.11-.28.23-.37.22s-.19-.15-.28-.23c.09-.08.18-.23.27-.24S6.18,135.59,6.35,135.71Z" transform="translate(-0.13)"/><path class="a" d="M13.6,113.23c-.11-.16-.23-.27-.23-.36s.15-.18.23-.27c.08.09.21.18.22.27S13.71,113.07,13.6,113.23Z" transform="translate(-0.13)"/><path class="a" d="M9.77,113.24c-.1-.16-.22-.27-.21-.37s.14-.18.22-.28c.08.1.22.19.22.29S9.88,113.08,9.77,113.24Z" transform="translate(-0.13)"/><path class="a" d="M15.48,111.31c-.11-.14-.25-.23-.24-.32a.24.24,0,0,1,.48,0C15.73,111.08,15.59,111.17,15.48,111.31Z" transform="translate(-0.13)"/><path class="a" d="M6.29,78.62,6,78.91l-.34-.3c.09-.08.18-.23.27-.23S6.16,78.52,6.29,78.62Z" transform="translate(-0.13)"/><path class="a" d="M6,21.9c-.11-.13-.25-.23-.24-.31A.3.3,0,0,1,6,21.37a.33.33,0,0,1,.24.23C6.22,21.68,6.08,21.77,6,21.9Z" transform="translate(-0.13)"/><path class="a" d="M15.82,95.75c-.14.12-.24.25-.34.26s-.17-.16-.26-.25c.1-.08.18-.23.28-.24S15.69,95.65,15.82,95.75Z" transform="translate(-0.13)"/><path class="a" d="M8.2,156.58c-.11.12-.23.3-.26.29a1.76,1.76,0,0,1-.34-.27c.09-.08.17-.23.25-.23S8.06,156.49,8.2,156.58Z" transform="translate(-0.13)"/><path class="a" d="M6.3,86.28c-.14.1-.24.23-.33.22s-.18-.15-.26-.23c.08-.08.16-.23.26-.24S6.15,86.17,6.3,86.28Z" transform="translate(-0.13)"/><path class="a" d="M7.52,160.41c.15-.11.26-.25.35-.25s.18.16.27.25c-.09.08-.17.22-.27.23S7.67,160.52,7.52,160.41Z" transform="translate(-0.13)"/><path class="a" d="M6.31,14c-.15.11-.25.24-.34.23s-.18-.15-.27-.23c.09-.08.17-.22.27-.23S6.16,13.89,6.31,14Z" transform="translate(-0.13)"/><path class="a" d="M6.31,158.49c-.15.1-.25.23-.33.22s-.18-.14-.26-.22c.08-.08.16-.21.25-.22S6.16,158.39,6.31,158.49Z" transform="translate(-0.13)"/><path class="a" d="M4.37,156.52l-.26.31a1.09,1.09,0,0,1-.23-.25s.08-.19.12-.19A1.37,1.37,0,0,1,4.37,156.52Z" transform="translate(-0.13)"/><path class="a" d="M2.15,154.38c.09.17.2.28.19.36s-.17.13-.26.19-.14-.15-.13-.2A1.33,1.33,0,0,1,2.15,154.38Z" transform="translate(-0.13)"/><path class="a" d="M2.17,146.77c.09.18.2.3.18.38s-.17.14-.27.2S2,147.2,2,147.14A1.21,1.21,0,0,1,2.17,146.77Z" transform="translate(-0.13)"/><path class="a" d="M2.42,139.45l-.27.28c-.06-.09-.16-.17-.19-.27s.09-.2.11-.19A2,2,0,0,1,2.42,139.45Z" transform="translate(-0.13)"/><path class="a" d="M4.38,137.55l-.29.3a1.08,1.08,0,0,1-.21-.28.32.32,0,0,1,.13-.21A1.86,1.86,0,0,1,4.38,137.55Z" transform="translate(-0.13)"/><path class="a" d="M9.45,135.7c.14-.11.24-.25.33-.25s.17.15.25.24c-.08.08-.16.22-.26.24S9.59,135.81,9.45,135.7Z" transform="translate(-0.13)"/><path class="a" d="M15.54,133.53a1.4,1.4,0,0,1,.15.33s-.18.15-.2.13a3.11,3.11,0,0,1-.23-.28Z" transform="translate(-0.13)"/><path class="a" d="M8.09,133.9a1,1,0,0,1-.34,0s0-.15-.08-.22a1.31,1.31,0,0,1,.34-.09S8.05,133.78,8.09,133.9Z" transform="translate(-0.13)"/><path class="a" d="M2.38,131.93a1.24,1.24,0,0,1-.3.16s-.14-.17-.12-.19a1.84,1.84,0,0,1,.25-.23Z" transform="translate(-0.13)"/><path class="a" d="M18.82,129.93c.24-.1.36-.19.46-.17s.16.14.2.24-.1.19-.13.19A3.07,3.07,0,0,1,18.82,129.93Z" transform="translate(-0.13)"/><path class="a" d="M15.82,130c-.16.12-.26.25-.35.25s-.18-.16-.27-.24c.1-.09.18-.22.29-.24S15.67,129.85,15.82,130Z" transform="translate(-0.13)"/><path class="a" d="M11.57,129.73a1.38,1.38,0,0,1,.28.11,1.4,1.4,0,0,1-.1.35c-.07,0-.21-.05-.22-.1A1.17,1.17,0,0,1,11.57,129.73Z" transform="translate(-0.13)"/><path class="a" d="M4.3,130l-.14.21L3.89,130l.28-.21Z" transform="translate(-0.13)"/><path class="a" d="M2.39,128l-.17.28a1.2,1.2,0,0,1-.26-.24s.1-.21.12-.2A1.3,1.3,0,0,1,2.39,128Z" transform="translate(-0.13)"/><path class="a" d="M22.85,126.31c.06-.13.09-.28.12-.28a2,2,0,0,1,.35.09c0,.08-.05.22-.09.23A1.3,1.3,0,0,1,22.85,126.31Z" transform="translate(-0.13)"/><path class="a" d="M8.12,126.31a1.2,1.2,0,0,1-.37,0s-.06-.15-.09-.23A2.25,2.25,0,0,1,8,126S8.07,126.18,8.12,126.31Z" transform="translate(-0.13)"/><path class="a" d="M4.32,12l-.16.28a1.24,1.24,0,0,1-.26-.25s.08-.14.13-.22Z" transform="translate(-0.13)"/><path class="a" d="M32.82,124.15a1.88,1.88,0,0,1-.09.27,1.7,1.7,0,0,1-.32-.1c0-.08,0-.21.08-.22A1.32,1.32,0,0,1,32.82,124.15Z" transform="translate(-0.13)"/><path class="a" d="M25.33,124.17c-.17.16-.24.26-.34.3s-.18-.07-.2-.13,0-.21.09-.22A1.44,1.44,0,0,1,25.33,124.17Z" transform="translate(-0.13)"/><path class="a" d="M17.71,124.26c-.18.1-.29.21-.37.19s-.12-.17-.18-.26.14-.13.2-.12A1.83,1.83,0,0,1,17.71,124.26Z" transform="translate(-0.13)"/><path class="a" d="M26.81,122.06c.14.14.29.21.3.29s-.13.2-.22.26-.18-.08-.19-.13A1.63,1.63,0,0,1,26.81,122.06Z" transform="translate(-0.13)"/><path class="a" d="M19,122.38a2,2,0,0,1,.4-.21.37.37,0,0,1,.12.22.38.38,0,0,1-.13.21A3,3,0,0,1,19,122.38Z" transform="translate(-0.13)"/><path class="a" d="M11.44,122.33a1.15,1.15,0,0,1,.32-.15s.14.18.13.2a1.93,1.93,0,0,1-.28.22Z" transform="translate(-0.13)"/><path class="a" d="M4.21,122.6a1.43,1.43,0,0,1-.27-.1,2,2,0,0,1,.09-.33c.07,0,.21,0,.21.08A1.42,1.42,0,0,1,4.21,122.6Z" transform="translate(-0.13)"/><path class="a" d="M36.29,120.25a1.53,1.53,0,0,1,.26.1,1.39,1.39,0,0,1-.1.33c-.07,0-.21-.05-.21-.09A1.4,1.4,0,0,1,36.29,120.25Z" transform="translate(-0.13)"/><path class="a" d="M28.69,120.75a1.8,1.8,0,0,1-.05-.37s.15-.06.23-.09a1.4,1.4,0,0,1,.08.34S28.81,120.7,28.69,120.75Z" transform="translate(-0.13)"/><path class="a" d="M25,120.16c.12.13.25.23.25.32s-.15.17-.23.25c-.09-.09-.22-.17-.24-.27S24.88,120.28,25,120.16Z" transform="translate(-0.13)"/><path class="a" d="M21.44,120.6l-.28.1a1.39,1.39,0,0,1-.09-.35.54.54,0,0,1,.21-.08A1.68,1.68,0,0,1,21.44,120.6Z" transform="translate(-0.13)"/><path class="a" d="M17.4,120.83c-.11-.15-.24-.24-.24-.33s.15-.17.23-.26c.08.09.21.17.22.26S17.5,120.69,17.4,120.83Z" transform="translate(-0.13)"/><path class="a" d="M13.51,120.25a1.38,1.38,0,0,1,.28.11,2.35,2.35,0,0,1-.11.35c-.08,0-.22,0-.23-.09A1.24,1.24,0,0,1,13.51,120.25Z" transform="translate(-0.13)"/><path class="a" d="M9.51,120.52l.17-.27a1.59,1.59,0,0,1,.27.24s-.08.15-.13.23Z" transform="translate(-0.13)"/><path class="a" d="M6,120.16c.1.14.24.24.23.33s-.15.18-.24.26c-.09-.09-.23-.17-.24-.26S5.87,120.3,6,120.16Z" transform="translate(-0.13)"/><path class="a" d="M2,120.25c.13,0,.27.09.27.12a2.14,2.14,0,0,1-.09.34c-.08,0-.22-.06-.22-.1A1.17,1.17,0,0,1,2,120.25Z" transform="translate(-0.13)"/><path class="a" d="M15.45,118.38l.25.17a1.38,1.38,0,0,1-.22.26s-.19-.1-.18-.13A1.05,1.05,0,0,1,15.45,118.38Z" transform="translate(-0.13)"/><path class="a" d="M7.91,118.38a1.2,1.2,0,0,1,.15.3s-.17.15-.19.13a1.83,1.83,0,0,1-.21-.26Z" transform="translate(-0.13)"/><path class="a" d="M34.58,118.26c.06.18.16.33.12.39s-.21.11-.32.12a.3.3,0,0,1-.1-.21C34.33,118.46,34.44,118.39,34.58,118.26Z" transform="translate(-0.13)"/><path class="a" d="M32.64,116.91l-.25-.18a1.07,1.07,0,0,1,.22-.25s.19.1.18.13A1.4,1.4,0,0,1,32.64,116.91Z" transform="translate(-0.13)"/><path class="a" d="M6.21,116.77c-.11,0-.23.1-.32.08s-.08-.19-.11-.29a1.32,1.32,0,0,1,.34,0S6.17,116.65,6.21,116.77Z" transform="translate(-0.13)"/><path class="a" d="M31,114.76c-.15.13-.24.27-.34.27s-.24-.16-.23-.24a.37.37,0,0,1,.25-.25C30.79,114.53,30.89,114.66,31,114.76Z" transform="translate(-0.13)"/><path class="a" d="M19.59,114.77a2.28,2.28,0,0,1-.38.21.31.31,0,0,1-.13-.21c0-.07.1-.21.12-.2A1.42,1.42,0,0,1,19.59,114.77Z" transform="translate(-0.13)"/><path class="a" d="M11.92,114.75l-.17.27a1.2,1.2,0,0,1-.26-.24s.09-.14.13-.22Z" transform="translate(-0.13)"/><path class="a" d="M4.37,114.73,4.1,115c-.07-.09-.17-.16-.2-.26s.09-.2.12-.19A2,2,0,0,1,4.37,114.73Z" transform="translate(-0.13)"/><path class="a" d="M32.27,112.89c.14-.12.24-.28.33-.27a.35.35,0,0,1,.25.26.38.38,0,0,1-.26.26C32.51,113.15,32.4,113,32.27,112.89Z" transform="translate(-0.13)"/><path class="a" d="M28.85,112.53c.07.19.16.31.14.4s-.18.12-.28.15-.13-.15-.11-.21S28.73,112.69,28.85,112.53Z" transform="translate(-0.13)"/><path class="a" d="M21.47,112.82l-.19.26a1.2,1.2,0,0,1-.26-.24s.11-.21.13-.2A1.72,1.72,0,0,1,21.47,112.82Z" transform="translate(-0.13)"/><path class="a" d="M17.59,113.06c-.17,0-.34,0-.37,0a.52.52,0,0,1,0-.33s.19-.06.21,0A1.48,1.48,0,0,1,17.59,113.06Z" transform="translate(-0.13)"/><path class="a" d="M2.43,112.82l-.27.28a1.26,1.26,0,0,1-.2-.27s.1-.19.12-.19A2,2,0,0,1,2.43,112.82Z" transform="translate(-0.13)"/><path class="a" d="M31,111c-.13.1-.23.23-.31.22s-.24-.15-.23-.23a.33.33,0,0,1,.22-.24C30.79,110.73,30.89,110.87,31,111Z" transform="translate(-0.13)"/><path class="a" d="M27.1,111a1.82,1.82,0,0,1-.31.16s-.14-.18-.11-.21a.87.87,0,0,1,.27-.23Z" transform="translate(-0.13)"/><path class="a" d="M11.46,111l.16-.26a1.39,1.39,0,0,1,.25.23s-.1.2-.12.19A1.4,1.4,0,0,1,11.46,111Z" transform="translate(-0.13)"/><path class="a" d="M15.49,106.93l.21.15-.22.27-.21-.28Z" transform="translate(-0.13)"/><path class="a" d="M10.13,93.91c-.19.08-.31.19-.4.17s-.13-.19-.15-.3.15-.16.2-.14A1.57,1.57,0,0,1,10.13,93.91Z" transform="translate(-0.13)"/><path class="a" d="M15.43,92.19a1.82,1.82,0,0,1-.16-.31s.17-.13.2-.11a1.39,1.39,0,0,1,.21.27Z" transform="translate(-0.13)"/><path class="a" d="M8.11,91.86a1.25,1.25,0,0,1-.11.26,1.31,1.31,0,0,1-.32-.1c0-.07.05-.2.09-.21A1.47,1.47,0,0,1,8.11,91.86Z" transform="translate(-0.13)"/><path class="a" d="M11.91,88.19a1.4,1.4,0,0,1-.3.15s-.13-.17-.11-.2a1.27,1.27,0,0,1,.25-.21Z" transform="translate(-0.13)"/><path class="a" d="M4,87.92a1.25,1.25,0,0,1,.26.11,1.89,1.89,0,0,1-.09.34c-.08,0-.22-.05-.22-.09A1.63,1.63,0,0,1,4,87.92Z" transform="translate(-0.13)"/><path class="a" d="M17.35,85.69c.16.42.26.57.22.63s-.2.12-.31.14a.31.31,0,0,1-.12-.22A4.18,4.18,0,0,1,17.35,85.69Z" transform="translate(-0.13)"/><path class="a" d="M13.55,86.61c-.09-.18-.2-.3-.17-.39s.18-.13.29-.15.15.14.14.19A2.17,2.17,0,0,1,13.55,86.61Z" transform="translate(-0.13)"/><path class="a" d="M9.64,86a1.25,1.25,0,0,1,.26.11,1.39,1.39,0,0,1-.1.33c-.08,0-.21,0-.21-.09A.9.9,0,0,1,9.64,86Z" transform="translate(-0.13)"/><path class="a" d="M15.67,84.44l-.22.12-.1-.32c.08,0,.19-.06.24,0S15.65,84.37,15.67,84.44Z" transform="translate(-0.13)"/><path class="a" d="M13.55,82.8c-.09-.17-.21-.3-.18-.37a.52.52,0,0,1,.3-.17s.16.15.14.19A1.69,1.69,0,0,1,13.55,82.8Z" transform="translate(-0.13)"/><path class="a" d="M6.21,82.34c0,.12-.08.27-.11.26a2.25,2.25,0,0,1-.35-.09c0-.08.06-.23.09-.23A1.24,1.24,0,0,1,6.21,82.34Z" transform="translate(-0.13)"/><path class="a" d="M11.46,80.6l.16-.27c.09.08.2.14.25.24s-.07.14-.12.22Z" transform="translate(-0.13)"/><path class="a" d="M8.17,80.55c-.14.11-.23.24-.32.23s-.17-.15-.25-.24c.09-.08.17-.22.26-.23S8,80.44,8.17,80.55Z" transform="translate(-0.13)"/><path class="a" d="M2,78.41a1.18,1.18,0,0,1,.27.11,1.54,1.54,0,0,1-.1.35c-.07,0-.21-.06-.22-.1A1.63,1.63,0,0,1,2,78.41Z" transform="translate(-0.13)"/><path class="a" d="M4,27.08c.13.05.27.08.27.11a2.25,2.25,0,0,1-.09.35c-.08,0-.21-.06-.22-.1A1.17,1.17,0,0,1,4,27.08Z" transform="translate(-0.13)"/><path class="a" d="M7.8,23.32,8,23.4l-.17.29c-.06-.06-.17-.1-.19-.17S7.75,23.39,7.8,23.32Z" transform="translate(-0.13)"/><path class="a" d="M7.83,20c-.09-.17-.21-.29-.19-.36s.19-.15.3-.18.16.14.14.19A1.57,1.57,0,0,1,7.83,20Z" transform="translate(-0.13)"/><path class="a" d="M4.1,19.5l.18.15-.23.24c0-.07-.14-.14-.13-.21S4,19.56,4.1,19.5Z" transform="translate(-0.13)"/><path class="a" d="M9.63,18a1.26,1.26,0,0,1,0-.37s.14-.06.22-.09a1.5,1.5,0,0,1,.09.35A1.46,1.46,0,0,1,9.63,18Z" transform="translate(-0.13)"/><path class="a" d="M6.29,17.86c-.17.07-.31.18-.38.15s-.13-.2-.14-.31.16-.15.2-.13A1.53,1.53,0,0,1,6.29,17.86Z" transform="translate(-0.13)"/><path class="a" d="M8.09,16a1.14,1.14,0,0,1-.36,0s-.06-.14-.08-.22A1.87,1.87,0,0,1,8,15.75,1.83,1.83,0,0,1,8.09,16Z" transform="translate(-0.13)"/><path class="a" d="M25.85,147.66a4,4,0,0,0-.37.75,7.94,7.94,0,0,0,.92,6.34,5.68,5.68,0,0,0,5.4,2.86A6.32,6.32,0,0,0,35.73,156a1.54,1.54,0,0,0,.7-1.73c-.38.21-.65.37-.93.51a16.13,16.13,0,0,1-2.89,1.36c-3.19.85-5.89-1.52-6.39-4.66a3.3,3.3,0,0,1,.2-2.52,11.77,11.77,0,0,0,5.4.69c2-.17,4.28-1.24,4.82-2.31C33.06,148.64,29.53,150.05,25.85,147.66Zm.56-11.17.14.3a18.39,18.39,0,0,0,3.87-.69c.13,0,.3-.07.38-.17s.32-.38.29-.54a.63.63,0,0,0-.48-.36,6.26,6.26,0,0,0-3.51.7A3,3,0,0,0,26.41,136.49Z" transform="translate(-0.13)"/><path class="a" d="M60,306.35" transform="translate(-0.13)"/><path class="a" d="M171.28,310.8l-.52,1.1-.95-.6Z" transform="translate(-0.13)"/><path class="a" d="M92.5,202.88c.06.57.12,1.16.19,1.76a8.42,8.42,0,0,0,5.18,6.92,33.84,33.84,0,0,0,4.94,1.44c.24.07.48.19.81.32a1.69,1.69,0,0,1-1.81.6,17.1,17.1,0,0,1-2.49-.29,9.84,9.84,0,0,1-2.71-1,10.78,10.78,0,0,1-5.18-8.52,2.57,2.57,0,0,1,.06-.83C91.63,202.75,92,202.61,92.5,202.88Z" transform="translate(-0.13)"/><path class="a" d="M100.22,200.56c.47,3,2.15,5.16,3.91,7.29a15.13,15.13,0,0,0,6.9,4.33,2.9,2.9,0,0,1-2.82.22,15,15,0,0,1-5.26-3.87,15.6,15.6,0,0,1-3-4.5,9.57,9.57,0,0,1-.57-2A1.18,1.18,0,0,1,100.22,200.56Z" transform="translate(-0.13)"/><path class="a" d="M90.27,232.62c-2.12,0-3.45-1.81-4-3.56-.07-.22.1-.53.17-.79a.71.71,0,0,1,.94-.59,10.52,10.52,0,0,0,4.7-.28c.63-.13,1.34-.35,1.84.24a2.28,2.28,0,0,1,.36,2.25A4.13,4.13,0,0,1,90.27,232.62Zm-2.92-3.89c.65,2.29,2.4,3.23,4.27,2.43,1.4-.6,1.88-1.56,1.36-2.77Z" transform="translate(-0.13)"/><path class="a" d="M85.68,202c-.13.76-.28,1.51-.4,2.27a9.29,9.29,0,0,0,.17,4.29,5.2,5.2,0,0,0,1.92,2.5,7.38,7.38,0,0,0,5.2,1.66,9.85,9.85,0,0,1,1.08.06,1.81,1.81,0,0,1-1.78.85,8,8,0,0,1-5.48-2.06,6.21,6.21,0,0,1-2.16-4.95,26.2,26.2,0,0,1,.61-4c0-.27.33-.5.51-.75Z" transform="translate(-0.13)"/><path class="a" d="M94.62,218.3a1.67,1.67,0,0,1,1.77-.26,14.52,14.52,0,0,1,2,.88.49.49,0,0,1-.23.86,12.09,12.09,0,0,1-2.46-.31A1.19,1.19,0,0,1,94.62,218.3Z" transform="translate(-0.13)"/><path class="a" d="M86.26,217.5a2.54,2.54,0,0,1-3.09-.39c.11-.8.65-.74,1.17-.73A1.85,1.85,0,0,1,86.26,217.5Z" transform="translate(-0.13)"/><path class="a" d="M112.67,289.76c-.11-.16-.23-.27-.23-.37s.15-.17.24-.26c.08.09.22.18.23.28S112.78,289.61,112.67,289.76Z" transform="translate(-0.13)"/><path class="a" d="M122.16,257.38c-.09-.13-.22-.23-.22-.32a.35.35,0,0,1,.23-.23.37.37,0,0,1,.24.23C122.41,257.16,122.27,257.25,122.16,257.38Z" transform="translate(-0.13)"/><path class="a" d="M128.17,255.21c-.13.1-.24.25-.31.23a.36.36,0,0,1-.23-.26.33.33,0,0,1,.24-.23C128,254.94,128,255.09,128.17,255.21Z" transform="translate(-0.13)"/><path class="a" d="M124,254.8c.11.17.24.27.23.37s-.14.19-.22.28c-.08-.09-.22-.18-.23-.28S123.94,255,124,254.8Z" transform="translate(-0.13)"/><path class="a" d="M112.66,255.53c-.11-.14-.25-.25-.24-.34s.16-.18.25-.27c.09.08.24.17.24.26S112.78,255.38,112.66,255.53Z" transform="translate(-0.13)"/><path class="a" d="M104.66,255.18a2.13,2.13,0,0,1,.45-.25s.19.19.17.27a.38.38,0,0,1-.25.24C105,255.46,104.84,255.32,104.66,255.18Z" transform="translate(-0.13)"/><path class="a" d="M90.12,255.2c-.13.11-.23.26-.31.25s-.23-.17-.22-.26.14-.19.22-.29Z" transform="translate(-0.13)"/><path class="a" d="M86,255.54c-.1-.15-.23-.25-.22-.34s.14-.19.22-.28c.09.09.22.18.23.27S86.13,255.39,86,255.54Z" transform="translate(-0.13)"/><path class="a" d="M122.48,253.32c-.18.09-.31.2-.39.17s-.14-.19-.16-.3.16-.17.2-.15A2.1,2.1,0,0,1,122.48,253.32Z" transform="translate(-0.13)"/><path class="a" d="M114.9,253.28c-.14.11-.24.24-.34.24s-.18-.16-.27-.24c.09-.09.18-.25.28-.26S114.76,253.16,114.9,253.28Z" transform="translate(-0.13)"/><path class="a" d="M88.25,253.28c-.14.1-.23.23-.32.23s-.17-.14-.25-.23c.08-.08.16-.23.25-.24S88.11,253.17,88.25,253.28Z" transform="translate(-0.13)"/><path class="a" d="M114.54,287.85l-.24-.38a1.66,1.66,0,0,1,.32-.17s.16.14.15.19A1.48,1.48,0,0,1,114.54,287.85Z" transform="translate(-0.13)"/><path class="a" d="M95.88,249.46c-.16.11-.26.24-.35.23s-.17-.14-.26-.23c.09-.07.17-.21.27-.22S95.73,249.36,95.88,249.46Z" transform="translate(-0.13)"/><path class="a" d="M88.25,249.48c-.18.09-.3.21-.38.19s-.14-.19-.17-.3.14-.14.19-.13A1.46,1.46,0,0,1,88.25,249.48Z" transform="translate(-0.13)"/><path class="a" d="M124.55,247.54l-.57.27a1.09,1.09,0,0,1-.13-.34s.13-.15.2-.14A3.24,3.24,0,0,1,124.55,247.54Z" transform="translate(-0.13)"/><path class="a" d="M90.11,247.58l-.3.27c-.08-.09-.22-.18-.22-.27s.14-.18.22-.27Z" transform="translate(-0.13)"/><path class="a" d="M122.17,245.36c.1.14.23.24.23.33s-.15.17-.24.25c-.08-.09-.22-.17-.22-.26S122.07,245.49,122.17,245.36Z" transform="translate(-0.13)"/><path class="a" d="M114.54,260.57c.11.13.25.23.24.31a.33.33,0,0,1-.25.22c-.08,0-.24-.14-.24-.22S114.43,260.7,114.54,260.57Z" transform="translate(-0.13)"/><path class="a" d="M122.73,260.86c-.42.16-.55.25-.63.22s-.12-.19-.13-.3.14-.13.21-.12A2.75,2.75,0,0,1,122.73,260.86Z" transform="translate(-0.13)"/><path class="a" d="M97.45,263.14c-.11-.14-.24-.24-.23-.32s.15-.18.23-.27c.08.09.22.17.23.26S97.56,263,97.45,263.14Z" transform="translate(-0.13)"/><path class="a" d="M132,262.82l-.38.21a1,1,0,0,1-.16-.31c0-.05.14-.18.18-.16A1.81,1.81,0,0,1,132,262.82Z" transform="translate(-0.13)"/><path class="a" d="M95.88,264.7c-.13.12-.23.27-.31.26a.37.37,0,0,1-.24-.26.36.36,0,0,1,.23-.26C95.65,264.43,95.75,264.58,95.88,264.7Z" transform="translate(-0.13)"/><path class="a" d="M99.64,264.7l-.31.27c-.07-.09-.21-.18-.21-.27s.14-.19.22-.28Z" transform="translate(-0.13)"/><path class="a" d="M114.86,264.67c-.15.12-.25.27-.33.25a.37.37,0,0,1-.23-.27c0-.07.15-.22.24-.23S114.72,264.56,114.86,264.67Z" transform="translate(-0.13)"/><path class="a" d="M132,266.59c-.15.11-.25.24-.34.23s-.18-.16-.26-.24c.09-.08.17-.21.26-.22S131.87,266.49,132,266.59Z" transform="translate(-0.13)"/><path class="a" d="M97.77,270.41c-.14.1-.23.23-.32.22s-.17-.15-.26-.23c.09-.08.17-.22.26-.23S97.64,270.3,97.77,270.41Z" transform="translate(-0.13)"/><path class="a" d="M105,270.09l.28.31c-.09.08-.19.23-.28.22s-.19-.15-.28-.23Z" transform="translate(-0.13)"/><path class="a" d="M95.54,272.65c-.11-.15-.25-.26-.24-.36s.15-.19.24-.28c.09.09.24.18.24.28S95.65,272.5,95.54,272.65Z" transform="translate(-0.13)"/><path class="a" d="M114.53,272.64c-.1-.14-.23-.25-.22-.34s.14-.17.22-.26c.09.09.22.17.23.27S114.64,272.5,114.53,272.64Z" transform="translate(-0.13)"/><path class="a" d="M105,274.51c-.1-.14-.23-.24-.23-.33s.16-.23.24-.22a.31.31,0,0,1,.24.23C105.28,274.28,105.14,274.37,105,274.51Z" transform="translate(-0.13)"/><path class="a" d="M105.35,281.77c-.15.11-.25.24-.33.23s-.17-.15-.26-.23c.09-.08.17-.22.27-.22S105.21,281.67,105.35,281.77Z" transform="translate(-0.13)"/><path class="a" d="M95.87,245.69c-.15.11-.25.24-.34.23s-.18-.15-.27-.23c.09-.09.18-.24.27-.26S95.72,245.57,95.87,245.69Z" transform="translate(-0.13)"/><path class="a" d="M114.76,241.74c-.05.13-.08.27-.11.27a2,2,0,0,1-.33-.09c0-.08.05-.21.1-.22A1,1,0,0,1,114.76,241.74Z" transform="translate(-0.13)"/><path class="a" d="M112.59,244a1.47,1.47,0,0,1-.15-.31.47.47,0,0,1,.19-.12,1.78,1.78,0,0,1,.21.27Z" transform="translate(-0.13)"/><path class="a" d="M91.94,245.63l-.16.27a1.16,1.16,0,0,1-.26-.23s.1-.21.12-.21A1.78,1.78,0,0,1,91.94,245.63Z" transform="translate(-0.13)"/><path class="a" d="M114.53,245.35c.11.14.24.24.24.33a.34.34,0,0,1-.25.23c-.08,0-.22-.15-.23-.24S114.42,245.48,114.53,245.35Z" transform="translate(-0.13)"/><path class="a" d="M118.59,245.73a2.1,2.1,0,0,1-.3.15s-.14-.17-.12-.2a1.38,1.38,0,0,1,.26-.22Z" transform="translate(-0.13)"/><path class="a" d="M93.86,247.69l-.29.1a2,2,0,0,1-.09-.35.42.42,0,0,1,.22-.08A2,2,0,0,1,93.86,247.69Z" transform="translate(-0.13)"/><path class="a" d="M108.72,247.35c.13.05.27.08.27.11a1.07,1.07,0,0,1-.09.34c-.07,0-.21-.05-.22-.09A1.17,1.17,0,0,1,108.72,247.35Z" transform="translate(-0.13)"/><path class="a" d="M112.65,247.89c-.1-.13-.23-.23-.22-.32s.15-.17.24-.26c.08.09.22.17.22.25S112.76,247.75,112.65,247.89Z" transform="translate(-0.13)"/><path class="a" d="M116.53,247.8c-.12-.05-.27-.08-.26-.1a1.43,1.43,0,0,1,.09-.34c.07,0,.21,0,.21.09A1.08,1.08,0,0,1,116.53,247.8Z" transform="translate(-0.13)"/><path class="a" d="M120.57,247.56c-.13.11-.22.25-.31.25a.35.35,0,0,1-.22-.24.36.36,0,0,1,.23-.25C120.34,247.31,120.44,247.45,120.57,247.56Z" transform="translate(-0.13)"/><path class="a" d="M114.61,249.21a2.1,2.1,0,0,1,.15.3s-.17.14-.19.12a1.12,1.12,0,0,1-.22-.26Z" transform="translate(-0.13)"/><path class="a" d="M122.13,249.64l-.17-.19.29-.19c0,.08.11.17.09.23S122.21,249.58,122.13,249.64Z" transform="translate(-0.13)"/><path class="a" d="M97.38,251.61a2.2,2.2,0,0,1-.15-.31s.18-.14.2-.12a1.18,1.18,0,0,1,.22.27Z" transform="translate(-0.13)"/><path class="a" d="M105.28,251.26c-.06.13-.09.28-.12.28a2.37,2.37,0,0,1-.36-.09c0-.08.06-.22.1-.23A1.3,1.3,0,0,1,105.28,251.26Z" transform="translate(-0.13)"/><path class="a" d="M112.89,251.29a1.53,1.53,0,0,1-.1.26,1.91,1.91,0,0,1-.34-.1c0-.08,0-.22.09-.22A1.12,1.12,0,0,1,112.89,251.29Z" transform="translate(-0.13)"/><path class="a" d="M84,253.51a1.26,1.26,0,0,1,0-.38s.14-.06.22-.09a1.61,1.61,0,0,1,.1.36A1.38,1.38,0,0,1,84,253.51Z" transform="translate(-0.13)"/><path class="a" d="M99.53,253.38l-.29.1a2,2,0,0,1-.1-.35s.2-.09.22-.07A2.4,2.4,0,0,1,99.53,253.38Z" transform="translate(-0.13)"/><path class="a" d="M103.45,253.37a1.15,1.15,0,0,1-.4.11s-.16-.16-.14-.19a1.48,1.48,0,0,1,.25-.25Z" transform="translate(-0.13)"/><path class="a" d="M106.93,252.93c.11.15.25.25.24.35s-.15.17-.24.25c-.08-.08-.23-.17-.23-.26S106.83,253.08,106.93,252.93Z" transform="translate(-0.13)"/><path class="a" d="M111,253.23l-.17.26a1.43,1.43,0,0,1-.26-.23s.11-.2.13-.2A1.28,1.28,0,0,1,111,253.23Z" transform="translate(-0.13)"/><path class="a" d="M94,255.19l-.32.25a1.05,1.05,0,0,1-.17-.29s.11-.18.14-.17A1.39,1.39,0,0,1,94,255.19Z" transform="translate(-0.13)"/><path class="a" d="M97.9,255.19l-.54.25a1.13,1.13,0,0,1-.13-.33s.13-.14.2-.13A2,2,0,0,1,97.9,255.19Z" transform="translate(-0.13)"/><path class="a" d="M101.47,255.25l-.3.18c0-.08-.15-.19-.13-.22a1.25,1.25,0,0,1,.27-.24Z" transform="translate(-0.13)"/><path class="a" d="M109,255.3l-.25.13c-.05-.1-.14-.21-.14-.31s.17-.1.26-.15Z" transform="translate(-0.13)"/><path class="a" d="M120.21,254.94a1.46,1.46,0,0,1,.27.11,2.47,2.47,0,0,1-.11.36c-.08,0-.22-.06-.22-.1A1.24,1.24,0,0,1,120.21,254.94Z" transform="translate(-0.13)"/><path class="a" d="M88.23,257.09c-.13.1-.23.24-.31.23a.38.38,0,0,1-.24-.25c0-.07.15-.23.23-.23S88.1,257,88.23,257.09Z" transform="translate(-0.13)"/><path class="a" d="M92,257.13a1.3,1.3,0,0,1-.31.16s-.14-.18-.12-.21a1.24,1.24,0,0,1,.28-.22Z" transform="translate(-0.13)"/><path class="a" d="M95.88,257.08c-.15.1-.26.23-.33.21s-.16-.17-.24-.26c.08-.07.17-.2.25-.2S95.74,257,95.88,257.08Z" transform="translate(-0.13)"/><path class="a" d="M99.2,256.84a1.25,1.25,0,0,1,.26.11,1.62,1.62,0,0,1-.1.34c-.08,0-.22-.05-.22-.09A1.23,1.23,0,0,1,99.2,256.84Z" transform="translate(-0.13)"/><path class="a" d="M103.1,257.39c-.08-.18-.19-.32-.15-.39s.19-.12.31-.14.13.15.11.2S103.23,257.24,103.1,257.39Z" transform="translate(-0.13)"/><path class="a" d="M114.86,257.07c-.14.11-.24.26-.32.25a.38.38,0,0,1-.24-.25.33.33,0,0,1,.23-.23C114.62,256.83,114.72,257,114.86,257.07Z" transform="translate(-0.13)"/><path class="a" d="M118.68,257.07a1.94,1.94,0,0,1-.38.21s-.12-.13-.13-.2.1-.22.12-.21A2.06,2.06,0,0,1,118.68,257.07Z" transform="translate(-0.13)"/><path class="a" d="M129.79,256.75c.11.14.24.24.23.32s-.15.18-.24.27c-.08-.09-.22-.17-.23-.26S129.68,256.9,129.79,256.75Z" transform="translate(-0.13)"/><path class="a" d="M97.47,258.74a1.28,1.28,0,0,1,.14.29s-.16.14-.18.13a1.83,1.83,0,0,1-.21-.26Z" transform="translate(-0.13)"/><path class="a" d="M105.24,258.86a2.55,2.55,0,0,1-.09.27,2.07,2.07,0,0,1-.33-.1c0-.08.05-.21.08-.22A1.4,1.4,0,0,1,105.24,258.86Z" transform="translate(-0.13)"/><path class="a" d="M112.91,259.08a1.8,1.8,0,0,1-.37.05s-.07-.15-.1-.23a2.25,2.25,0,0,1,.35-.09S112.86,259,112.91,259.08Z" transform="translate(-0.13)"/><path class="a" d="M130,261a1.48,1.48,0,0,1-.35.05s-.06-.15-.08-.22a1.39,1.39,0,0,1,.33-.1A1.83,1.83,0,0,1,130,261Z" transform="translate(-0.13)"/><path class="a" d="M89.8,263.14c-.1-.17-.23-.29-.21-.38s.18-.14.29-.17.16.14.15.18A1.5,1.5,0,0,1,89.8,263.14Z" transform="translate(-0.13)"/><path class="a" d="M94,262.79a2,2,0,0,1-.4.21.38.38,0,0,1-.12-.21c0-.08.1-.22.12-.21A2,2,0,0,1,94,262.79Z" transform="translate(-0.13)"/><path class="a" d="M101.47,262.75l-.17.26a1.71,1.71,0,0,1-.25-.22s.1-.2.13-.19A2,2,0,0,1,101.47,262.75Z" transform="translate(-0.13)"/><path class="a" d="M105.06,263.13c-.11-.14-.25-.24-.24-.33s.15-.18.23-.26c.09.08.24.17.25.26S105.17,263,105.06,263.13Z" transform="translate(-0.13)"/><path class="a" d="M109.05,262.83a2,2,0,0,1-.29.15s-.14-.17-.12-.2a1.32,1.32,0,0,1,.25-.21Z" transform="translate(-0.13)"/><path class="a" d="M113.2,262.75l-.63.27a1.46,1.46,0,0,1-.12-.33s.14-.13.21-.12A2.65,2.65,0,0,1,113.2,262.75Z" transform="translate(-0.13)"/><path class="a" d="M116.72,262.76l-.3.27a1,1,0,0,1-.18-.28c0-.05.1-.2.13-.19A2,2,0,0,1,116.72,262.76Z" transform="translate(-0.13)"/><path class="a" d="M123.71,263.21a1.12,1.12,0,0,1,.09-.38,1.44,1.44,0,0,1,.37-.26s.09.08.08.09a1.16,1.16,0,0,1-.2.4.89.89,0,0,1-.38.11Z" transform="translate(-0.13)"/><path class="a" d="M127.79,262.56a1.18,1.18,0,0,1,.27.11,1.54,1.54,0,0,1-.1.35c-.07,0-.21-.06-.21-.1A1.17,1.17,0,0,1,127.79,262.56Z" transform="translate(-0.13)"/><path class="a" d="M91.93,264.8l-.25.14c-.05-.11-.15-.22-.14-.32s.17-.11.27-.16Z" transform="translate(-0.13)"/><path class="a" d="M103.42,264.65l-.18.26a1.16,1.16,0,0,1-.26-.23s.11-.22.12-.21A1.72,1.72,0,0,1,103.42,264.65Z" transform="translate(-0.13)"/><path class="a" d="M106.66,264.74l.17-.28a1.51,1.51,0,0,1,.26.24s-.08.15-.12.23Z" transform="translate(-0.13)"/><path class="a" d="M110.65,264.44c.12.05.28.09.27.12a1.61,1.61,0,0,1-.1.36c-.08,0-.22-.06-.23-.09A2.85,2.85,0,0,1,110.65,264.44Z" transform="translate(-0.13)"/><path class="a" d="M126.25,264.66l-.29.28a1,1,0,0,1-.19-.28c0-.05.11-.2.14-.19A2.58,2.58,0,0,1,126.25,264.66Z" transform="translate(-0.13)"/><path class="a" d="M129.8,264.34c.11.15.24.26.23.35s-.16.19-.25.28c-.08-.09-.23-.18-.23-.28S129.68,264.49,129.8,264.34Z" transform="translate(-0.13)"/><path class="a" d="M97.48,266.8l-.26-.18a1.94,1.94,0,0,1,.23-.26s.2.11.19.13A1.53,1.53,0,0,1,97.48,266.8Z" transform="translate(-0.13)"/><path class="a" d="M105,266.79a1.41,1.41,0,0,1-.14-.31s.17-.14.19-.12a1.33,1.33,0,0,1,.21.26Z" transform="translate(-0.13)"/><path class="a" d="M112.59,266.77a1.2,1.2,0,0,1-.15-.3s.17-.13.19-.11a1.09,1.09,0,0,1,.21.26Z" transform="translate(-0.13)"/><path class="a" d="M95.45,268.23l.32.24a1.29,1.29,0,0,1-.24.23s-.2-.07-.2-.11A1.24,1.24,0,0,1,95.45,268.23Z" transform="translate(-0.13)"/><path class="a" d="M107,268.72l-.26-.16a1.05,1.05,0,0,1,.23-.24s.19.09.19.11A1,1,0,0,1,107,268.72Z" transform="translate(-0.13)"/><path class="a" d="M114.76,268.61a1.17,1.17,0,0,1-.36,0s-.06-.15-.09-.23a2.33,2.33,0,0,1,.36-.08A1.28,1.28,0,0,1,114.76,268.61Z" transform="translate(-0.13)"/><path class="a" d="M129.74,268.73a1.47,1.47,0,0,1-.15-.31s.17-.13.2-.11a1.12,1.12,0,0,1,.22.26Z" transform="translate(-0.13)"/><path class="a" d="M93.89,270.44a1.59,1.59,0,0,1-.32.16s-.15-.18-.13-.21a1.51,1.51,0,0,1,.28-.22Z" transform="translate(-0.13)"/><path class="a" d="M101.13,270.16c.13,0,.27.08.27.11a1.46,1.46,0,0,1-.1.34c-.07,0-.21-.05-.21-.09A1.17,1.17,0,0,1,101.13,270.16Z" transform="translate(-0.13)"/><path class="a" d="M113,270.31c-.13.15-.2.26-.3.31a.3.3,0,0,1-.22-.1,1.4,1.4,0,0,1,.1-.35Z" transform="translate(-0.13)"/><path class="a" d="M117.21,270.59c-.33,0-.78.31-1-.48l1,.48Z" transform="translate(-0.13)"/><path class="a" d="M91.94,272.35a1.46,1.46,0,0,1-.3.16s-.15-.17-.13-.2a1.22,1.22,0,0,1,.27-.23Z" transform="translate(-0.13)"/><path class="a" d="M99.19,272.06c.13.05.27.08.27.11a1.37,1.37,0,0,1-.08.35c-.08,0-.22,0-.23-.1A1.17,1.17,0,0,1,99.19,272.06Z" transform="translate(-0.13)"/><path class="a" d="M103.07,272.55a1.2,1.2,0,0,1,0-.37s.14-.06.22-.09a2.25,2.25,0,0,1,.09.35S103.19,272.5,103.07,272.55Z" transform="translate(-0.13)"/><path class="a" d="M107,272.54c-.13-.05-.27-.08-.27-.11a1.32,1.32,0,0,1,.08-.33c.08,0,.22,0,.22.08A1.54,1.54,0,0,1,107,272.54Z" transform="translate(-0.13)"/><path class="a" d="M110.67,272.07c.12,0,.27.08.26.1a1.68,1.68,0,0,1-.09.32c-.08,0-.21-.05-.22-.08A1.4,1.4,0,0,1,110.67,272.07Z" transform="translate(-0.13)"/><path class="a" d="M101.35,274.42c-.12-.05-.27-.09-.26-.11a1.31,1.31,0,0,1,.09-.34c.08,0,.21,0,.22.09A1.63,1.63,0,0,1,101.35,274.42Z" transform="translate(-0.13)"/><path class="a" d="M116.79,274.21c-.17.09-.3.21-.36.18s-.14-.18-.17-.29.14-.16.18-.14A1.45,1.45,0,0,1,116.79,274.21Z" transform="translate(-0.13)"/><path class="a" d="M95.77,276c0,.13-.09.28-.12.28a1.46,1.46,0,0,1-.34-.1c0-.08,0-.22.09-.22A1.2,1.2,0,0,1,95.77,276Z" transform="translate(-0.13)"/><path class="a" d="M107.12,279.86l-.17.26a1.1,1.1,0,0,1-.25-.23s.1-.2.12-.19A1.24,1.24,0,0,1,107.12,279.86Z" transform="translate(-0.13)"/><path class="a" d="M110.65,280.14a1.14,1.14,0,0,1,0-.36s.14-.06.22-.09a1.3,1.3,0,0,1,.08.34S110.78,280.09,110.65,280.14Z" transform="translate(-0.13)"/><path class="a" d="M114.55,279.59c.1.14.23.24.22.33s-.15.16-.24.25c-.08-.09-.22-.17-.22-.26S114.44,279.72,114.55,279.59Z" transform="translate(-0.13)"/><path class="a" d="M118.59,280a1.3,1.3,0,0,1-.31.16s-.13-.17-.11-.2a1.47,1.47,0,0,1,.26-.23Z" transform="translate(-0.13)"/><path class="a" d="M108.94,282a1.46,1.46,0,0,1-.27-.11,1.39,1.39,0,0,1,.1-.33c.07,0,.21.05.22.08A1.63,1.63,0,0,1,108.94,282Z" transform="translate(-0.13)"/><path class="a" d="M113,281.77c-.14.12-.23.26-.32.26s-.17-.16-.25-.24c.08-.09.16-.22.26-.24S112.84,281.67,113,281.77Z" transform="translate(-0.13)"/><path class="a" d="M116.54,282a1.46,1.46,0,0,1-.27-.11,1.19,1.19,0,0,1,.09-.36c.08,0,.22.05.22.1A1.26,1.26,0,0,1,116.54,282Z" transform="translate(-0.13)"/><path class="a" d="M114.57,283.91l-.25-.16a1.94,1.94,0,0,1,.23-.26s.19.1.18.13A1.4,1.4,0,0,1,114.57,283.91Z" transform="translate(-0.13)"/><path class="a" d="M112.42,285.72c0-.13.08-.27.11-.27a1,1,0,0,1,.34.09c0,.07-.05.21-.09.22A1.17,1.17,0,0,1,112.42,285.72Z" transform="translate(-0.13)"/><path class="a" d="M108.8,289.75c-.07-.2-.15-.32-.13-.41s.17-.11.27-.16.12.16.11.22A2,2,0,0,1,108.8,289.75Z" transform="translate(-0.13)"/><path class="a" d="M116.66,289.48a1.82,1.82,0,0,1-.31.16s-.14-.18-.12-.22a1.55,1.55,0,0,1,.27-.23Z" transform="translate(-0.13)"/><path class="a" d="M110.66,245.92a1.63,1.63,0,0,1,0-.36s.14-.06.22-.09a2.14,2.14,0,0,1,.09.34S110.78,245.87,110.66,245.92Z" transform="translate(-0.13)"/><path class="a" d="M25.85,147.66c3.68,2.39,7.21,1,10.79-.29-.54,1.07-2.84,2.14-4.82,2.31a11.77,11.77,0,0,1-5.4-.69,3.3,3.3,0,0,0-.2,2.52c.5,3.14,3.2,5.51,6.39,4.66a16.13,16.13,0,0,0,2.89-1.36c.28-.14.55-.3.93-.51a1.54,1.54,0,0,1-.7,1.73,6.32,6.32,0,0,1-3.93,1.58,5.68,5.68,0,0,1-5.4-2.86,7.94,7.94,0,0,1-.92-6.34A4,4,0,0,1,25.85,147.66Z" transform="translate(-0.13)"/><path class="a" d="M26.41,136.49a3,3,0,0,1,.69-.76,6.26,6.26,0,0,1,3.51-.7.63.63,0,0,1,.48.36c0,.16-.15.39-.29.54s-.25.12-.38.17a18.39,18.39,0,0,1-3.87.69Z" transform="translate(-0.13)"/><path class="a" d="M55.51,313.14a6.89,6.89,0,0,1-5-1.48,5.25,5.25,0,0,1-2.3-4.67c.08-1.53,1-2.05,2.51-1.49,1.08.4,2.2.71,3.31,1,2,.57,4,0,6-.17a16,16,0,0,1,1.94-.16,1.67,1.67,0,0,1,1.5,2.57A7.51,7.51,0,0,1,55.51,313.14Zm-6.09-6.71a2.27,2.27,0,0,0,0,2.84,6.64,6.64,0,0,0,4.13,2.85,8.56,8.56,0,0,0,4.41,0c1.74-.51,3.42-1.27,4.24-3.1.55-1.22.09-1.89-1.23-1.77-.7.06-1.38.19-2.07.3a13.23,13.23,0,0,1-7.93-.76A6.92,6.92,0,0,0,49.42,306.43Z" transform="translate(-0.13)"/><path class="a" d="M90.46,129.72a.86.86,0,0,1,1.23.08,12,12,0,0,1,3.66,5.48,3.87,3.87,0,0,1,.11,2.36c-.67,0-.82-.47-.94-.87a16.47,16.47,0,0,0-3.61-6.38,3.8,3.8,0,0,1-.42-.71Z" transform="translate(-0.13)"/><path class="a" d="M80.06,256.37c2.16,2.25,4.75,10.45,3.83,12.53a11,11,0,0,1-.76-1.56c-.45-1.52-.77-3.08-1.25-4.58-.53-1.69-1.2-3.33-1.8-5C79.92,257.32,79.54,256.85,80.06,256.37Z" transform="translate(-0.13)"/><path class="a" d="M77.94,257.87c1.2,2.36,1.37,4.79,2.06,7.05a3,3,0,0,1-.27,2.32c-.18-.25-.41-.44-.46-.67-.58-2.72-1.14-5.43-1.7-8.15C77.56,258.33,77.72,258.2,77.94,257.87Z" transform="translate(-0.13)"/><path class="a" d="M74.36,281.83l.17-.24a2.52,2.52,0,0,1,.25.21.38.38,0,0,1-.13.18A1,1,0,0,1,74.36,281.83Z" transform="translate(-0.13)"/><path class="a" d="M80.53,287.44a1.38,1.38,0,0,1-.11.28,1.54,1.54,0,0,1-.35-.1c0-.08.06-.22.1-.23A1.63,1.63,0,0,1,80.53,287.44Z" transform="translate(-0.13)"/><path class="a" d="M95.55,287.21c.1.14.23.23.23.32s-.16.23-.24.22a.31.31,0,0,1-.24-.23C95.3,287.44,95.44,287.34,95.55,287.21Z" transform="translate(-0.13)"/><path class="a" d="M97.72,289.37l-.25.31-.31-.3c.08-.09.17-.23.26-.24S97.6,289.27,97.72,289.37Z" transform="translate(-0.13)"/><path class="a" d="M99.36,287.18c.09.14.21.24.2.33s-.15.17-.23.25c-.08-.08-.22-.17-.22-.25S99.24,287.32,99.36,287.18Z" transform="translate(-0.13)"/><path class="a" d="M101.68,289.47c-.22.09-.34.19-.44.17s-.15-.17-.18-.28.11-.2.13-.19A4.19,4.19,0,0,1,101.68,289.47Z" transform="translate(-0.13)"/><path class="a" d="M99.33,291.66c-.1-.15-.21-.25-.21-.35s.14-.16.22-.24c.08.08.21.17.22.26S99.44,291.52,99.33,291.66Z" transform="translate(-0.13)"/><path class="a" d="M103.66,291.26l-.59.28a1.38,1.38,0,0,1-.12-.34s.14-.13.2-.13A3.61,3.61,0,0,1,103.66,291.26Z" transform="translate(-0.13)"/><path class="a" d="M105.11,293.44l-.26-.17a1.14,1.14,0,0,1,.24-.25s.2.1.19.12A1.78,1.78,0,0,1,105.11,293.44Z" transform="translate(-0.13)"/><path class="a" d="M87.35,228.73l5.63-.34" transform="translate(-0.13)"/></svg>