<svg xmlns="http://www.w3.org/2000/svg" viewBox="0 0 537 537"><defs><style>.a{fill:#040000;}.b{fill:none;}</style></defs><path class="a" d="M7124.92-7194.57a13.76,13.76,0,0,0,19.45-.1l55.73-56.13,55.72,56.11a13.79,13.79,0,0,0,19.48-.15,13.78,13.78,0,0,0,.11-19.2l-65.52-66.23a13.76,13.76,0,0,0-19.46-.13h0l-.12.12-65.5,66.23A13.77,13.77,0,0,0,7124.92-7194.57Z" transform="translate(-6931.5 7468.5)"/><path class="a" d="M7124.92-7127.52a13.76,13.76,0,0,0,19.45-.1l55.73-56.12,55.72,56.1a13.77,13.77,0,0,0,19.48-.15,13.78,13.78,0,0,0,.11-19.2l-65.52-66.23a13.77,13.77,0,0,0-19.46-.12h0l-.12.12-65.5,66.23A13.77,13.77,0,0,0,7124.92-7127.52Z" transform="translate(-6931.5 7468.5)"/><rect class="b" width="537" height="537"/></svg>