<svg xmlns="http://www.w3.org/2000/svg" viewBox="0 0 537 537"><defs><style>.a{fill:none;}</style></defs><rect class="a" width="537" height="537"/><path d="M7334.18-7327v-.25c0-.09.06-.37.08-.55s0-.23,0-.35v-1.63a3.86,3.86,0,0,0-.11-.68v-.16c-.06-.24-.12-.49-.19-.73a.75.75,0,0,0-.08-.24c0-.08-.13-.35-.2-.52l-.11-.28c-.07-.16-.15-.31-.23-.47l-.15-.28-.12-.22a2.43,2.43,0,0,0-.14-.2,2.29,2.29,0,0,0-.18-.29l-.29-.39c-.07-.08-.13-.17-.21-.25a5,5,0,0,0-.34-.38,1.73,1.73,0,0,0-.21-.23,6.82,6.82,0,0,0-.51-.47c-.17-.15-.2-.16-.3-.24a3.79,3.79,0,0,0-.4-.3,3.53,3.53,0,0,0-.32-.21,4,4,0,0,0-.37-.22c-.14-.07-.22-.13-.34-.18a3.42,3.42,0,0,0-.43-.21l-.3-.13-.62-.22-.14-.05h0c-.26-.08-.53-.15-.77-.2l-.27-.05-.54-.08h-2l-.55.09-.25.05c-.25.05-.5.11-.77.19h-.06l-277.41,83.78a9,9,0,0,0-6.34,7.88,9,9,0,0,0,5,8.77l127.81,61.69,61.69,127.82a9,9,0,0,0,8.07,5.07h.7a9,9,0,0,0,7.88-6.35l83.8-277.48h0C7334.05-7326.46,7334.12-7326.73,7334.18-7327Zm-40.35,17.14-117.12,117.12L7072.52-7243Zm-54.2,234-50.22-104.19,117.11-117.12Z" transform="translate(-6931.5 7468.5)"/></svg>