<svg xmlns="http://www.w3.org/2000/svg" viewBox="0 0 366.56 533.33"><defs><style>.a{fill:#040000;}</style></defs><path class="a" d="M317.13,169.88V287.1L270.53,240a15.3,15.3,0,0,0-21.76,21.51l72.78,73.58a15.29,15.29,0,0,0,21.75,0l72.77-73.58A15.29,15.29,0,0,0,394.32,240l-46.6,47.11V169.88a15.3,15.3,0,1,0-30.59,0Z" transform="translate(-114.86 -154.58)"/><path class="a" d="M476.86,372.17a20.23,20.23,0,0,0-15.65-7.42H197.75l-9-30.81v0a39.42,39.42,0,0,0-29.5-27.24l-32.2-6.9a10.1,10.1,0,0,0-4.24,19.75l32.21,6.9a19.24,19.24,0,0,1,14.38,13.28l58.85,202.18c-1.32.62-2.61,1.3-3.85,2a40.91,40.91,0,0,0-14.85,15.29,42.09,42.09,0,0,0-5.15,19.44h0v1.05h0a41.82,41.82,0,0,0,41.82,40.8h189.3a10.1,10.1,0,0,0,0-20.2H246.25a21.35,21.35,0,0,1-8.42-1.7,21.64,21.64,0,0,1-9.53-7.85,20.56,20.56,0,0,1,.94-24.7,20.77,20.77,0,0,1,5.56-4.78,25.58,25.58,0,0,1,7.83-3l190.28-31a30.31,30.31,0,0,0,24.83-23.87L481,389h0a21,21,0,0,0,.4-4A20.24,20.24,0,0,0,476.86,372.17ZM437.94,499.38a10.11,10.11,0,0,1-8.28,8L247.87,536.94,203.63,385H461.22Z" transform="translate(-114.86 -154.58)"/><path class="a" d="M269.63,636.93A27.91,27.91,0,1,0,281.9,660a27.53,27.53,0,0,0-2.19-10.85A28,28,0,0,0,269.63,636.93Zm-5.24,27.49a11.28,11.28,0,0,1-4.07,4.94,11.27,11.27,0,0,1-10.66,1,11.39,11.39,0,0,1-4.95-4.08,11.28,11.28,0,0,1-1-10.65,11.28,11.28,0,0,1,4.08-4.95A11.12,11.12,0,0,1,254,648.8a11.45,11.45,0,0,1,4.38.88,11.26,11.26,0,0,1,4.94,4.09,11.09,11.09,0,0,1,1.92,6.27A11.3,11.3,0,0,1,264.39,664.42Z" transform="translate(-114.86 -154.58)"/><path class="a" d="M422.49,636.93a27.83,27.83,0,1,0,10.09,12.26A27.86,27.86,0,0,0,422.49,636.93Zm-5.24,27.49a11.24,11.24,0,0,1-4.08,4.94,11.23,11.23,0,0,1-10.64,1,11.36,11.36,0,0,1-5-4.08,11.36,11.36,0,0,1-1-10.65,11.28,11.28,0,0,1,4.08-4.95,11.15,11.15,0,0,1,6.28-1.92,11.44,11.44,0,0,1,4.37.88,11.29,11.29,0,0,1,5,4.09,11.28,11.28,0,0,1,1,10.65Z" transform="translate(-114.86 -154.58)"/></svg>