<svg xmlns="http://www.w3.org/2000/svg" viewBox="0 0 537 537"><defs><style>.a{fill:#FC0;}.b{fill:none;}</style></defs><path class="a" d="M7123-7360.53h117.19l-47.1,46.6a15.3,15.3,0,0,0,.16,21.64h0a15.31,15.31,0,0,0,21.34.12l73.58-72.78a15.3,15.3,0,0,0,.12-21.62l-.12-.13-73.58-72.77a15.31,15.31,0,0,0-21.63.12,15.3,15.3,0,0,0,.11,21.63h0l47.11,46.6H7123a15.31,15.31,0,0,0-15.69,14.91,15.29,15.29,0,0,0,14.89,15.68h.83Z" transform="translate(-6931.5 7468.39)"/><path class="a" d="M7368.75-7250.6a20.23,20.23,0,0,0-15.65-7.42H7089.62l-9-30.81h0a39.43,39.43,0,0,0-29.5-27.24l-32.2-6.9a10.11,10.11,0,0,0-12,7.75h0a10.1,10.1,0,0,0,7.75,12h0l32.21,6.9a19.27,19.27,0,0,1,14.38,13.28l58.85,202.18c-1.32.62-2.61,1.3-3.85,2a40.81,40.81,0,0,0-14.85,15.29,42,42,0,0,0-5.15,19.44h0v1.05h0a41.82,41.82,0,0,0,41.82,40.8h189.3a10.1,10.1,0,0,0,10.1-10.1h0a10.1,10.1,0,0,0-10.1-10.1H7138.14a21.37,21.37,0,0,1-8.42-1.7,21.67,21.67,0,0,1-9.53-7.85,20.55,20.55,0,0,1,.94-24.7,20.71,20.71,0,0,1,5.56-4.78,25.36,25.36,0,0,1,7.83-3l190.28-31a30.33,30.33,0,0,0,24.83-23.87l23.26-114.39h0a21.53,21.53,0,0,0,.4-4A20.27,20.27,0,0,0,7368.75-7250.6Zm-38.92,127.21a10.13,10.13,0,0,1-8.28,8l-181.79,29.56-44.24-151.94h257.59Z" transform="translate(-6931.5 7468.39)"/><path class="a" d="M7161.52-6985.84a27.93,27.93,0,0,0-38.76,7.47,27.91,27.91,0,0,0,7.48,38.76h0a27.89,27.89,0,0,0,38.74-7.47h0a27.81,27.81,0,0,0,4.8-15.68,27.72,27.72,0,0,0-2.19-10.85A28,28,0,0,0,7161.52-6985.84Zm-5.24,27.49a11.28,11.28,0,0,1-4.07,4.94,11.27,11.27,0,0,1-10.66,1,11.33,11.33,0,0,1-5-4.08,11.25,11.25,0,0,1-1-10.65,11.26,11.26,0,0,1,4.08-5,11.09,11.09,0,0,1,6.21-1.88,11.38,11.38,0,0,1,4.38.88,11.21,11.21,0,0,1,4.94,4.09,11.22,11.22,0,0,1,1.92,6.27,11.37,11.37,0,0,1-.8,4.43Z" transform="translate(-6931.5 7468.39)"/><path class="a" d="M7314.38-6985.84a27.82,27.82,0,0,0-38.62,7.52h0a27.82,27.82,0,0,0,7.53,38.63,27.84,27.84,0,0,0,38.63-7.53,27.84,27.84,0,0,0,2.56-26.37A28,28,0,0,0,7314.38-6985.84Zm-5.24,27.49a11.24,11.24,0,0,1-4.08,4.94,11.23,11.23,0,0,1-10.64,1,11.26,11.26,0,0,1-5-4.08,11.34,11.34,0,0,1-1-10.65,11.26,11.26,0,0,1,4.08-5,11.07,11.07,0,0,1,6.28-1.92,11.29,11.29,0,0,1,4.37.88,11.3,11.3,0,0,1,5,4.09,11.28,11.28,0,0,1,1,10.65Z" transform="translate(-6931.5 7468.39)"/><rect class="b" width="537" height="537"/></svg>