<svg xmlns="http://www.w3.org/2000/svg" viewBox="0 0 200 200">
    <path fill="#FFFFFF" d="M44,-77.3C57.5,-68.5,69.2,-57.6,76.7,-44.4C84.2,-31.1,87.6,-15.6,87.5,-0.1C87.4,15.5,83.9,30.9,76.3,44C68.7,57.2,57.1,67.9,43.7,76.1C30.3,84.2,15.2,89.7,-0.4,90.4C-16,91.2,-32,87.2,-46.3,79.6C-60.6,72,-73.1,60.7,-79.9,46.8C-86.7,33,-87.7,16.5,-86.7,0.5C-85.8,-15.4,-83,-30.9,-76.4,-45C-69.8,-59.2,-59.5,-72.1,-46.1,-81C-32.7,-89.8,-16.4,-94.6,-0.5,-93.6C15.3,-92.7,30.6,-86.1,44,-77.3Z" transform="translate(100 100)">
        <animate attributeType="XML" attributeName="d" dur="8s" repeatCount="indefinite" values="M44,-77.3C57.5,-68.5,69.2,-57.6,76.7,-44.4C84.2,-31.1,87.6,-15.6,87.5,-0.1C87.4,15.5,83.9,30.9,76.3,44C68.7,57.2,57.1,67.9,43.7,76.1C30.3,84.2,15.2,89.7,-0.4,90.4C-16,91.2,-32,87.2,-46.3,79.6C-60.6,72,-73.1,60.7,-79.9,46.8C-86.7,33,-87.7,16.5,-86.7,0.5C-85.8,-15.4,-83,-30.9,-76.4,-45C-69.8,-59.2,-59.5,-72.1,-46.1,-81C-32.7,-89.8,-16.4,-94.6,-0.5,-93.6C15.3,-92.7,30.6,-86.1,44,-77.3Z;
        M46,-79.8C59.8,-71.7,71.3,-59.7,78.5,-45.8C85.6,-31.9,88.4,-15.9,88.3,-0.1C88.2,15.8,85.1,31.6,77.6,45C70.2,58.5,58.4,69.7,44.8,76.5C31.1,83.4,15.6,86,0.1,85.8C-15.3,85.6,-30.7,82.7,-44.8,76.1C-59,69.5,-71.9,59.2,-79.3,45.9C-86.7,32.7,-88.6,16.3,-87.3,0.7C-86.1,-14.9,-81.8,-29.8,-74.2,-42.7C-66.6,-55.7,-55.7,-66.7,-42.8,-75.3C-29.9,-84,-15,-90.3,0.6,-91.3C16.1,-92.3,32.2,-87.9,46,-79.8Z;
        M44.6,-77.4C57.9,-69.7,68.6,-57.8,76.8,-44.2C84.9,-30.6,90.5,-15.3,91.2,0.4C92,16.2,88,32.4,79.8,45.8C71.5,59.2,59,69.9,45,77.6C31,85.3,15.5,90,0.3,89.5C-14.9,88.9,-29.8,83.2,-43.5,75.3C-57.3,67.5,-69.9,57.5,-78,44.7C-86.1,31.8,-89.7,15.9,-90,-0.2C-90.3,-16.2,-87.3,-32.5,-80,-46.7C-72.6,-60.9,-61,-73.1,-46.9,-80.4C-32.9,-87.7,-16.4,-90,-0.4,-89.3C15.7,-88.7,31.4,-85.1,44.6,-77.4Z;
        M43.5,-76.5C56.6,-67.7,67.6,-56.6,74.7,-43.4C81.8,-30.3,84.8,-15.1,85.1,0.1C85.4,15.4,82.8,30.9,76.2,44.9C69.7,59,59.2,71.7,45.8,78.7C32.5,85.6,16.2,86.9,0.4,86.2C-15.4,85.5,-30.8,82.8,-44,75.7C-57.2,68.6,-68.3,57.2,-76.6,43.9C-84.9,30.5,-90.5,15.3,-90.5,0C-90.4,-15.2,-84.7,-30.4,-76.7,-44.3C-68.7,-58.2,-58.5,-70.8,-45.3,-79.6C-32.1,-88.3,-16.1,-93.1,-0.4,-92.4C15.2,-91.6,30.4,-85.2,43.5,-76.5Z;
        M44,-77.3C57.5,-68.5,69.2,-57.6,76.7,-44.4C84.2,-31.1,87.6,-15.6,87.5,-0.1C87.4,15.5,83.9,30.9,76.3,44C68.7,57.2,57.1,67.9,43.7,76.1C30.3,84.2,15.2,89.7,-0.4,90.4C-16,91.2,-32,87.2,-46.3,79.6C-60.6,72,-73.1,60.7,-79.9,46.8C-86.7,33,-87.7,16.5,-86.7,0.5C-85.8,-15.4,-83,-30.9,-76.4,-45C-69.8,-59.2,-59.5,-72.1,-46.1,-81C-32.7,-89.8,-16.4,-94.6,-0.5,-93.6C15.3,-92.7,30.6,-86.1,44,-77.3Z"/>
    </path>
</svg>