<svg xmlns="http://www.w3.org/2000/svg" viewBox="0 0 107.8 106.15"><defs><style>.a{fill:#595757;}</style></defs><path class="a" d="M272.74,423.58a14.29,14.29,0,0,0-.81,3.53c-.08.33.18.75.32,1.11a19.87,19.87,0,0,1,.65,12,17.67,17.67,0,0,1-2.38,5.09,2,2,0,0,1-.4.43,9.8,9.8,0,0,1-6.74,2.51c-3.36-.21-6.72-.41-10.07-.68-1.94-.16-3.86-.45-5.79-.67-.13,0-.25-.06-.38-.09-1.93-.39-2-.52-2.35-2.54-1.08-.77-2.45-.62-3.67-1a4.53,4.53,0,0,0-4.51.83,10.81,10.81,0,0,1-2.6,1.26,6.49,6.49,0,0,1-4.73.21,4.77,4.77,0,0,1-3.61-4.28,10.17,10.17,0,0,1,.73-4.95,11.59,11.59,0,0,0,.78-6.1,10.46,10.46,0,0,1,.19-4.24,8.57,8.57,0,0,1,.64-1.61,2.38,2.38,0,0,1,2.19-1.38c1.13,0,2.1-.54,3.28-.58a2.19,2.19,0,0,0-.07-.82,8.43,8.43,0,0,1-1-5.26,5.42,5.42,0,0,0,0-.57c-.19-.22-.35-.43-.53-.6a6.76,6.76,0,0,1-.5-8.89c.43-.57.89-1.12,1.37-1.72-1.14-5.81.89-10.68,4.74-15.09-.09-1.73-.22-3.54-.26-5.34-.06-2.27-.07-4.55,0-6.82a2.68,2.68,0,0,1,1.52-2.3c3.53-2,7-4.13,10.55-6.21,4.85-2.86,9.68-5.75,14.53-8.59,2.74-1.6,5.53-3.12,8.27-4.71,3.47-2,6.92-4.06,10.38-6.09.22-.13.44-.28.67-.4a2.42,2.42,0,0,1,2.55.06c4.11,2.34,8.26,4.62,12.4,6.9,5.34,2.93,10.69,5.82,16,8.74,3.55,1.95,7.06,4,10.66,5.86,2,1.06,4,2.3,6.08,3.28a2.08,2.08,0,0,1,1.21,1.86c0,.78,0,1.56,0,2.33-.14,3.88-.23,7.76-.44,11.64-.44,7.93-.93,15.86-1.41,23.8q-.17,2.91-.35,5.82a3.93,3.93,0,0,0,.63,2.56,19.34,19.34,0,0,1,2.9,10.53,21.4,21.4,0,0,1-.16,3.1,12.35,12.35,0,0,1-1.67,4.92c-1.18,1.86-2.15,3.84-3.47,5.62a24.57,24.57,0,0,1-5.75,5.76,15.17,15.17,0,0,1-10.23,3,12.14,12.14,0,0,1-5.68-1.83c-2.31-1.6-4.95-2.2-7.56-3l-1.21-.34c-.41.18-.88.36-1.35.58a11.84,11.84,0,0,1-4.83,1.36c-3.57.1-6.8-1.17-8.29-4.83a14.7,14.7,0,0,1-.71-7.66,29.31,29.31,0,0,1,5.79-13.42,5.78,5.78,0,0,0,.33-.48s0-.12-.05-.31c-2.67,0-5.34.53-8.05.16a41.74,41.74,0,0,1-7.79-1.52M305.4,419c-.73-.06-1.5-.17-2.27-.18a15.37,15.37,0,0,0-10,3.63,26.13,26.13,0,0,0-7.7,10.79,22.52,22.52,0,0,0-1.84,7.89,13.8,13.8,0,0,0,.63,4.78,6.69,6.69,0,0,0,6.73,4.55,11.78,11.78,0,0,0,5.21-1.37,3.17,3.17,0,0,1,2.23-.41c1.2.23,2.39.54,3.58.82a11.91,11.91,0,0,1,3.86,1.71c4.4,2.87,9.05,3.33,13.8.94a20.61,20.61,0,0,0,6.38-5.3,42.76,42.76,0,0,0,4.84-7.7,12.35,12.35,0,0,0,1.36-5.78c0-.52,0-1,0-1.55a18.21,18.21,0,0,0-2.29-8.55c-2.64-4.45-6.46-6.75-11.75-6.25a6.11,6.11,0,0,1-1-.06,7.44,7.44,0,0,1-2.7,2.7A10.49,10.49,0,0,1,310.6,421c-2,.22-3.9,0-5.2-1.94M264.73,385a37.58,37.58,0,0,0,2.15,5.86,15.24,15.24,0,0,0,2.61,4.52,3,3,0,0,1,.72,1.94q.53,9.71,1.17,19.41a18.77,18.77,0,0,0,.5,3.06c.55,2.34.83,2.61,3.08,3.2a33.92,33.92,0,0,0,12.33.82,8.38,8.38,0,0,0,4.74-2,16.23,16.23,0,0,1,3.92-2.5c.34-.17.66-.38,1-.56a10.42,10.42,0,0,0-.41-4.28,12.4,12.4,0,0,1-1.06-5.1c0-1.1.05-2.2,0-3.3a4.15,4.15,0,0,0-.23-1.7,9.14,9.14,0,0,1-1-4.16,3.69,3.69,0,0,1-1.62-3.28,4,4,0,0,1-1.86-4.57,7.27,7.27,0,0,1,.32-1.32,1.72,1.72,0,0,0-.26-1.82,8.06,8.06,0,0,0-5.31-3.29,12.32,12.32,0,0,0-6.5.5,6.18,6.18,0,0,0-3.62,3.81,3.05,3.05,0,0,0-.13,1.53,8.94,8.94,0,0,0,1.92,4.19c1.92,2.24,4.48,2.71,7.22,2.47a8.59,8.59,0,0,0,4-1.4,1.48,1.48,0,0,1,1.7-.21,3.75,3.75,0,0,1-.62.75,6.15,6.15,0,0,0-2,2.28,6.23,6.23,0,0,1-1.21,1.5,3.26,3.26,0,0,1-5.3-.64,15.3,15.3,0,0,1-.73-1.4,8.39,8.39,0,0,1-6-6.76,5.68,5.68,0,0,0-.51-1.45,9.15,9.15,0,0,1-1-5.46,2.43,2.43,0,0,0-.09-1.32,9.17,9.17,0,0,0-1.68-2.63L264.73,385m-18.59,60.11c.15.13.23.25.34.29a8.77,8.77,0,0,0,1.12.29A117.35,117.35,0,0,0,264,447a6.59,6.59,0,0,0,6.24-3.53,16.59,16.59,0,0,0,2.05-8.79,18.4,18.4,0,0,0-3.7-10.47A17.48,17.48,0,0,0,256.87,417a5.59,5.59,0,0,0-2.9,0c-.17.57-.31,1.13-.51,1.68-.48,1.33-1,2.68-1.52,4a5.6,5.6,0,0,1-1.86,2.45,2.07,2.07,0,0,1-3.2-.5,8.77,8.77,0,0,1-1.2-2.41,37,37,0,0,1-.86-3.78c-.23-1.08-.6-1.34-1.63-1a14.19,14.19,0,0,0-6.17,3.89,2.56,2.56,0,0,0-.37.74c.61.83,1.2,1.52,1.68,2.28a14.47,14.47,0,0,1,1.87,6.45c.15,1.41.3,2.82.44,4.19,1.61,1.17,3.15,2,5.09,1.34a2.25,2.25,0,0,1,.78,0q4.55.25,9.11.55a7.17,7.17,0,0,1,1.71.32c.26.08.46.38.78.67-.33.19-.54.4-.75.41a8.91,8.91,0,0,1-1.55-.11,63.19,63.19,0,0,0-8.69-.66c-.44,0-.88.06-1.4.1-.06,2.63.24,5.12.42,7.57M244,414.63l-2.63-.23a4,4,0,0,1-2.84-1.5,9.9,9.9,0,0,1-1.88-3.37c-.75-2.27-.62-4.6-.65-6.93a9.64,9.64,0,0,1,2.31-6,10.19,10.19,0,0,1,3-2.76,3.42,3.42,0,0,0,1.61-1.84,3,3,0,0,1,.71-.88.34.34,0,0,1,.35,0c.12.11.29.32.26.44-.18.68-.41,1.36-.63,2a2.58,2.58,0,0,0,.61,2.69,7.18,7.18,0,0,0,5.88,2.44,11.67,11.67,0,0,1,4.16.67,4.9,4.9,0,0,1,2.24,1.49,7.27,7.27,0,0,0,2.08,2c.2.09.33.39.45.61a4.44,4.44,0,0,1,.44,3.37,8.52,8.52,0,0,1-3,4.67c-1,.75-2,1.39-3.13,2.16a2.26,2.26,0,0,0,.28,2A20.35,20.35,0,0,1,267,420.43c.18-.25.36-.38.39-.55a3.26,3.26,0,0,0-.51-2.78,3,3,0,0,1-.51-2.69,8.78,8.78,0,0,0-2.31-7.72,10.79,10.79,0,0,1-.68-.87c.1-.33.17-.57.26-.81a13.55,13.55,0,0,0,.32-8.6c-1.71-5.79-5.44-9.62-11.34-11.14a9.77,9.77,0,0,0-4.24-.27,16.55,16.55,0,0,0-9.22,4.59A18,18,0,0,0,234.8,396a13.86,13.86,0,0,0-.89,7.61,2.76,2.76,0,0,1-.71,2.5,9.46,9.46,0,0,0-1.54,2.45,5.06,5.06,0,0,0,.88,5.61c.17.2.37.36.55.55a1.94,1.94,0,0,1,.59,1.94,6,6,0,0,0,.28,3.25,2.83,2.83,0,0,0,1.35,1.67,12.36,12.36,0,0,1,4-3.65A15.64,15.64,0,0,1,244.2,416c.07-.26.15-.39.13-.5s-.18-.48-.32-.84M310.59,380A9.42,9.42,0,0,0,309,379a13.13,13.13,0,0,0-5.17-.71,13.29,13.29,0,0,0-7.83,3.49.89.89,0,0,1-.93.34c-.09-.16-.22-.37-.33-.59-1.69-3.25-4.51-4.71-8-4.94a12.56,12.56,0,0,0-6.92,1.55A10.3,10.3,0,0,0,274,386a4.37,4.37,0,0,0,.45,2.93c.34-.39.6-.66.83-1a6.21,6.21,0,0,1,2.72-2.4c.48-.18.59-.64.66-1.11.16-1.22.32-2.44.51-3.65a2.06,2.06,0,0,1,.32-.69.37.37,0,0,1,.32-.11c.11,0,.27.15.27.24a7.39,7.39,0,0,1,0,1.33,9.25,9.25,0,0,0-.12,3.06l3.75-.24a7.82,7.82,0,0,0,.52-2.67,8.5,8.5,0,0,1,.35-1.29c0-.06.21-.12.31-.11s.28.13.28.22a16.57,16.57,0,0,1,.06,1.73c0,.69-.1,1.38-.16,2.08l3.31,1.06a6.47,6.47,0,0,0,.51-2.45,11.18,11.18,0,0,1,.2-1.73c.07-.32.32-.55.83-.41a14.77,14.77,0,0,1-.37,5.45c.46.37.89.66,1.27,1s.77.82,1.24,1.33c1-1.34,2.37-2.12,2.75-3.78a5.16,5.16,0,0,1,1.16-1.77,9.91,9.91,0,0,1,4.24-3,10.58,10.58,0,0,1,10.24.82l1.65-.39a11.59,11.59,0,0,1,7.24.57,7.16,7.16,0,0,1,4.49,8.49,5.81,5.81,0,0,0,.18,3.38,8.16,8.16,0,0,1-3.13,9.48,3.2,3.2,0,0,1-.69-.18,1.93,1.93,0,0,0-2,.16l-.67.39a5.48,5.48,0,0,1-5.56-.08c-.5-.28-1-.61-1.48-.92-.26,1-.49,1.94-.74,2.87a3.39,3.39,0,0,1-1.49,2,1.8,1.8,0,0,1-2.48-.14,3.9,3.9,0,0,1-1.27-1.92c-.27-.86-.49-1.73-.73-2.64a2.57,2.57,0,0,0-2.61-.26,17.08,17.08,0,0,1-.43,1.85,3.07,3.07,0,0,1-3.36,2.32h-.62a18.19,18.19,0,0,0,.19,5.8,13,13,0,0,0,.59,2.05,3.29,3.29,0,0,0,1.69,1.79,5.16,5.16,0,0,0,2.6.66l2.72-.11c.44,0,.88,0,1.39,0l1.1,3.08a5.51,5.51,0,0,0,4.56.49,7.23,7.23,0,0,0,4.82-3.69c-.39-1.67-.78-3.24-1.11-4.82a5,5,0,0,1-.05-1.34,1,1,0,0,1,.82-1c.31-.1.64-.09,1-.16a5.61,5.61,0,0,0,2.58-1.25,4.26,4.26,0,0,0,1.58-4.12c3.55-1.71,5.45-6.67,3.21-12.17.07-.2.16-.43.24-.68A8.21,8.21,0,0,0,319.19,380a13.67,13.67,0,0,0-8.6-.06m-68.64,15a7.45,7.45,0,0,0-2.9,2.75c-.81,1.25-1.71,2.47-1.73,4.06,0,1.36-.16,2.72-.08,4.07a11.34,11.34,0,0,0,1.54,5.36,3.94,3.94,0,0,0,3.84,2.14c.76,0,1.53.06,2.19.09a3.41,3.41,0,0,1,.8,2.1c.27,1.72.57,3.45.87,5.17a7.91,7.91,0,0,0,1.39,3.17,1.05,1.05,0,0,0,1.68.13,7.59,7.59,0,0,0,1.16-1.54,19.25,19.25,0,0,0,1.74-4.72,2.83,2.83,0,0,0-.1-1.88,3.91,3.91,0,0,1,0-3.23c.24-.12.46-.24.7-.34a9,9,0,0,0,4.84-4.52,4.24,4.24,0,0,0,.47-2.82c-.39-1.81-1.23-2.15-2.75-1.1-.5.35-.86.93-1.56,1.07-.25-.78.26-1.16.63-1.57s.8-.78,1.28-1.23a6.16,6.16,0,0,0-1.18-1.17,7.55,7.55,0,0,0-4-1.14,10.12,10.12,0,0,1-1.74,0c-3-.34-5.45-1.57-6.7-4.54,0-.11-.17-.19-.3-.32M244.37,438c-1.06-.37-2.06-.65-3-1.06a3.17,3.17,0,0,1-2.06-2.61c-.06-.58-.13-1.15-.2-1.73-.15-1.28-.24-2.58-.45-3.85a10.37,10.37,0,0,0-1.53-4.16,6.54,6.54,0,0,0-1.47-1.5c-.33-.25-.94-.41-1.22.1-.4.74-1,.64-1.67.63-.81,0-1,.19-1.19,1a4.65,4.65,0,0,0-.07,1.34,46.66,46.66,0,0,1,.07,7.57,33.65,33.65,0,0,0,0,3.48,3.47,3.47,0,0,0,2.05,3.07,14.13,14.13,0,0,0,4.6,1.46c1.47.22,2.93.5,4.4.73a4.18,4.18,0,0,0,1.95.17,24.93,24.93,0,0,0-.19-4.61m19.28-63.6a9.42,9.42,0,0,0-.32,1.12,9,9,0,0,0,0,1.16c0,.44.16,1-.46,1.11s-.61-.36-.76-.72c-.07-.18-.11-.41-.25-.51a2.27,2.27,0,0,0-.85-.39,1.5,1.5,0,0,0-.63.15c-.2,1,.54,1.66.75,2.35-.38,1.18-1.61.31-2.18,1.14a3.91,3.91,0,0,0,.59.69c.35.28.76.47,1.13.73a.7.7,0,0,1,0,1c-.24.31-.95.29-.66,1.07l4.79.19,3.28-1.65c.29-.15.58-.3.87-.42a1.2,1.2,0,0,0,.77-1.23c0-1.1.05-2.2.06-3.3,0-.24,0-.53-.49-.55a12.92,12.92,0,0,0-1.12,2.79c-.16.47-.5.75-1,.5-2-4.17-2.14-4.42-3.52-5.25m-33.36,49.78a2.47,2.47,0,0,0-1.7,2.12,11.77,11.77,0,0,0-.18,3.08,15,15,0,0,1-1,7.81,3.31,3.31,0,0,0-.17.56,2.52,2.52,0,0,0,1.52,3.16,3.13,3.13,0,0,0,3.39,0,6.18,6.18,0,0,1-2-4.66c0-.71.1-1.42.12-2.13a57.64,57.64,0,0,0,.07-6,23.6,23.6,0,0,1-.08-3.9m69.53-22.43a8.34,8.34,0,0,0-1.4-4.64c-.72-1-1.31-1-2-.07a6.9,6.9,0,0,0,0,7.15,1.21,1.21,0,0,0,1.34.53,2.15,2.15,0,0,0,1.87-1.72c.09-.44.11-.89.16-1.25m5.32-.82a8.26,8.26,0,0,0,.7,3.73,1.52,1.52,0,0,0,1.51,1c.58,0,.87-.48,1.09-1a7.32,7.32,0,0,0,0-5.82,4.14,4.14,0,0,0-.72-1.14,1,1,0,0,0-1.65.09,4.85,4.85,0,0,0-1,3.11m-68.53,41.8-3-1a16.18,16.18,0,0,1-2.38.71,8.68,8.68,0,0,1-2.09-.13c-.72-.1-1.31-.67-2.19-.75a4,4,0,0,0,.28,1,4.51,4.51,0,0,0,3.85,2.21,8.25,8.25,0,0,0,5.54-2.07M305,396.88c-.54-.51-1.09-1-1.59-1.47l-3.35,1.8c.61,1,.5,2.2,1.07,3h2.68c.38-1.07.78-2.19,1.19-3.37m-23,2.91c.61.95,1.24,1.52,2.15,1.35a2.45,2.45,0,0,0,2-1.79l-4.17.44" transform="translate(-225.62 -348.76)"/></svg>