<svg xmlns="http://www.w3.org/2000/svg" viewBox="0 0 537 537"><defs><style>.a{fill:none;}</style></defs><rect class="a" width="537" height="537"/><path d="M458.56,98.49,261.8,295.25a14.5,14.5,0,0,1-20.5-20.51h0l172-172H338.94a14.5,14.5,0,0,1,0-29H448.31a14.5,14.5,0,0,1,10.25,24.75Z" transform="translate(0 0)"/><path d="M404.19,426.89h-277a15,15,0,0,1-15-15v-277a15,15,0,0,1,15-15h123.5a15,15,0,1,1,0,30H142.19v247h247V288.39a15,15,0,0,1,30,0v123.5A15,15,0,0,1,404.19,426.89Z" transform="translate(0 0)"/></svg>