<svg xmlns="http://www.w3.org/2000/svg" viewBox="0 0 537 537"><defs><style>.a{fill:#FFCC00;}.b{fill:none;}</style></defs><path class="a" d="M7269.33-7213.83H7163.85l42.4-41.95a13.78,13.78,0,0,0-.15-19.48h0a13.78,13.78,0,0,0-19.2-.11l-66.23,65.52a13.76,13.76,0,0,0-.12,19.46l.12.12,66.23,65.5a13.77,13.77,0,0,0,19.47-.11,13.76,13.76,0,0,0-.1-19.45h0l-42.42-41.95h105.52a13.79,13.79,0,0,0,14.13-13.42,13.77,13.77,0,0,0-13.4-14.11h-.75Z" transform="translate(-6931.5 7468.5)"/><rect class="b" width="537" height="537"/></svg>