<svg xmlns="http://www.w3.org/2000/svg" viewBox="0 0 417.24 440.03"><defs><style>.a{fill:none;stroke:#fff;stroke-miterlimit:10;stroke-width:20px;}.b{fill:#595857;}.c{fill:#fff;}.d{fill:#f9f3a7;}.e{fill:#f3c921;}</style></defs><path class="a" d="M288.65,218.29h0Z" transform="translate(-70.89 -143.55)"/><path class="b" d="M147.07,554.08a2.54,2.54,0,0,0-3.1.15,1.83,1.83,0,0,1-.95.23c-1.82,0-3.64-.06-5.46-.09-.87,0-3.63-.09-5.28-.13V549c2.68,0,8.09.14,9.38.11,1.13,0,2.26,0,3.39-.05a3.28,3.28,0,0,0,1.18-.31c.77-.36.88-1.11.89-1.92q.07-10.59.17-21.2a4.2,4.2,0,0,0-.06-1.07,2.78,2.78,0,0,0-.48-.71,5.78,5.78,0,0,0-1.19-.26H132.28v-3.25c3.18,0,8.26,0,10.94,0a6.57,6.57,0,0,0,1.21-.22,5.63,5.63,0,0,0,3.27-5.92,2.73,2.73,0,0,0-2.63-2.55,3.23,3.23,0,0,0-1.9.6l-10.89,0v-7c.95-.19,2.2-.33,2.45-.43a10.74,10.74,0,0,0,1.82-.84c2.29-1.5,4.62-3,6.81-4.61a5.21,5.21,0,0,1,3.91-1.29,3.56,3.56,0,0,0,2.38-.69,2,2,0,0,0,.21-3.23q-3-2.6-6.05-5.16c-2-1.69-4-3.38-6-5.06-.79-.66-1.57-.71-2.17-.05a3.44,3.44,0,0,0-1,3.54c.26.76.53,1.5.82,2.32-2.65,2.86-5.92,4.67-9.24,6.45a33.43,33.43,0,0,1-10.61,3.53,36.07,36.07,0,0,1-11,.28,4.38,4.38,0,0,0,1.37,5.13,10.65,10.65,0,0,0,5.88,2.18l2.3.26,4.59.09h2.32v4.74c-2.33,0-7.49,0-9.47.05a5.07,5.07,0,0,1-3.62-.79,2,2,0,0,0-.84-.3c-1-.17-1.33,0-1.89,1.1l-.12.32c0,.43,0,.86.05,1.29,0,.1,0,.19.08.29a8.34,8.34,0,0,0,2,4.67,3.36,3.36,0,0,0,2.48,1c1.55.19,5.47.24,5.88.25,1.21,0,3.78,0,5.47,0v3.25H109a5.64,5.64,0,0,0-1.19.26h0a2.34,2.34,0,0,0-1.16,2.21v2.06h0v15.11c0,1,0,2.09,0,3.13a2.44,2.44,0,0,0,1.19,2.47,7.89,7.89,0,0,0,1.33.23c3.35,0,8.36,0,12,0v5.11l-11.73-.12-.26-.12c-.32-.2-.64-.43-1-.61a1.76,1.76,0,0,0-2.13.23,3.54,3.54,0,0,0-1.33,2.51,8.52,8.52,0,0,0,2.09,5.76,6.89,6.89,0,0,0,1.33.24c3.69,0,9.06,0,13,0v6.74a17,17,0,0,1-3.38.4,39.81,39.81,0,0,1-8-.05c-1.58-.17-2.71,0-3.34,2a6.92,6.92,0,0,0-.3,1.57c-.08,1-.14,2.07-.14,3.1,0,1.49,0,3,.12,4.45a1.51,1.51,0,0,0,1,1.54l3.53.24c.76,0,1.52,0,2.28.11l.07,0,1.5-.06h0l1.77,0,3-.39a1.06,1.06,0,0,1,.19-.06l.41-.06a3.58,3.58,0,0,1,.65-.14,5.78,5.78,0,0,1,.57-.12h0a3.2,3.2,0,0,1,.54-.08l3.5-.74.76-.28,1.31-.22.21,0,.77-.28,6.63-2.43a22,22,0,0,0,9.63-6.64,8,8,0,0,0,.78-1.48c0-.1,0-.21.08-.31a14.07,14.07,0,0,0,0-2.25c-.14-.87-.39-.91-1.22-1-1-.1-1.74.57-2.63.77-2,.44-4.07.8-6.11,1.19a28,28,0,0,1-3,.36v-5.83c3.64,0,9.3,0,12.49,0a6.45,6.45,0,0,0,1.21-.23c.15-.08.35-.11.44-.24a9.77,9.77,0,0,0,1.77-4.13,3.39,3.39,0,0,0-1.12-3.39m-14.79-22.64h8v3h-8Zm0,7.06h8v3.42h-8Zm-11.21,3.42h-7.69V538.5h7.69Zm0-7.51h-7.69v-3.15h7.69Z" transform="translate(-70.89 -143.55)"/><path class="b" d="M174.7,513.84a6.15,6.15,0,0,0-1.81.87,8.08,8.08,0,0,0-1,.77h-5.07l-3.86.16c-2.46,0-4.92,0-7.37.07a2.64,2.64,0,0,1-2.56-1,2.45,2.45,0,0,0-1-.75,1.73,1.73,0,0,0-2.11.38,4.8,4.8,0,0,0-1.11,2.64,29,29,0,0,0-.05,3.1A4,4,0,0,0,151,523.9a6.92,6.92,0,0,0,1.19.22,14.26,14.26,0,0,0,3.55-1.09v46.58l-.15,0a1.79,1.79,0,0,1-.47-.1,10.21,10.21,0,0,0-4.9-.93,3.38,3.38,0,0,0-3.39,2.15,1.27,1.27,0,0,0,.52,1.83l4.66,3a2.85,2.85,0,0,1,1.27,1.58c1.22,3.71,3.87,6.45,8,6.43,3.52-.35,6.26-1.36,8.08-3.46,1.65-1.9,1-6.65,1-6.65V546.85c0-.55,0-1.1,0-1.65,0-.13,0-.26,0-.39V523.15a21,21,0,0,0,3.69.73c1.25.15,1.81-.78,2.33-1.7a5.08,5.08,0,0,0,.52-1.64,11.4,11.4,0,0,0,0-4.9c-.32-1.22-1.11-2-2.27-1.8" transform="translate(-70.89 -143.55)"/><path class="b" d="M100.9,575a4.8,4.8,0,0,1-.43-1.64q-.06-20.39-.06-40.78a2.18,2.18,0,0,1,.61-1.7,20.94,20.94,0,0,0,3.88-5.45,4.25,4.25,0,0,0-.73-5.49c-1.78-1.59-3.41-3.38-5.09-5.09a1.19,1.19,0,0,0-1.61-.24c-1,.54-1.38,1.41-1.15,3a3.29,3.29,0,0,1-.49,2.28A49.38,49.38,0,0,1,87.47,530a47.6,47.6,0,0,1-13.8,9.74,1.71,1.71,0,0,0-.84,2.81,25.88,25.88,0,0,0,2.5,3,2.78,2.78,0,0,0,3.14.85c1.69-.58,3.35-1.22,5-1.9,1.13-.46,2.21-1,3.46-1.6,0,.57.09,1,.09,1.52q0,4.54,0,9.08,0,9.9,0,19.79a2.12,2.12,0,0,1-.25,1.13c-.67,1-1.49,2-2.11,3a11.81,11.81,0,0,0-1,2.25,1.76,1.76,0,0,0-.1.3,2.79,2.79,0,0,0,0,1.18,1.44,1.44,0,0,0,1.4,1.3h16.19a1.47,1.47,0,0,0,1.42-1.51v-.62a10.91,10.91,0,0,0-.28-1.93c-.39-1.19-.94-2.32-1.38-3.49" transform="translate(-70.89 -143.55)"/><path class="b" d="M76.94,527.32c.14.09.39,0,.58-.06a21.71,21.71,0,0,0,6.08-2.58,46.82,46.82,0,0,0,11.81-10.15A36.63,36.63,0,0,0,102,503.85a25.26,25.26,0,0,0,.82-3.12,6.37,6.37,0,0,0-1.37-3.26L100,496.08c-1.27-1.26-2.53-2.53-3.82-3.76-.77-.73-1.53-.69-2,.19a4.14,4.14,0,0,0-.62,2.11,5.14,5.14,0,0,1-.52,2.45c-.36.82-.75,1.62-1.14,2.42a57.71,57.71,0,0,1-8.29,11.76,61.29,61.29,0,0,1-10.3,9.82c-1.62,1.18-1.7,2-.39,3.52,1.11,1.32,2.63,1.91,4,2.73" transform="translate(-70.89 -143.55)"/><path class="b" d="M149.87,503.27c-.16,2.47,1.17,4.08,2.92,5.4.19.08.38.24.57.24l7.32,0h11.43l2-.24a7.14,7.14,0,0,0,2-6.46c-.24-1.74-1.75-3.06-3.52-1.65a2.5,2.5,0,0,0-.47.34c-2,0-17.55-.07-17.65-.13s-.55-.44-.73-.56c-1.35-.91-2.51-.67-3.27.8a6.17,6.17,0,0,0-.64,2.27" transform="translate(-70.89 -143.55)"/><path class="b" d="M204.17,536.24c-.14.13-3.06,1.6-3.21,1.75a4.15,4.15,0,0,0-.45.49,1.89,1.89,0,0,0,.8,3,9.6,9.6,0,0,0,4.1.77,65.71,65.71,0,0,0,7-.29,22.3,22.3,0,0,0,4.39-1.24,2.89,2.89,0,0,0,1.76-1.71c.41-1,.19-2-.71-2.34-1.23-.43-3.37-1.21-3.16-2.15l13.91,0a5.28,5.28,0,0,0,1-.21,5,5,0,0,0,2.69-3.17l.07-.25a9.29,9.29,0,0,0,.17-1.38,1.86,1.86,0,0,0-1.3-2l-2,0a2.54,2.54,0,0,0-.73.3,3.7,3.7,0,0,1-2.75.78c-2.62-.05-5.23,0-7.85,0-.39,0-2.93,0-3.32,0v-1.76c.36,0,2.86-.06,3.23-.06,3.48,0,7,.07,10.46.08a8.5,8.5,0,0,0,1.56-.27,1.4,1.4,0,0,0,1.1-1.56c0-1,0-2.08,0-3.12q.11-7,.22-14c0-.64-.89-1.6-2.51-1.56h-5.34c-1.76,0-3.53,0-5.29,0-.44,0-3,0-3.44,0,0-.42,0-1.12,0-1.54,4.39,0,10.92,0,15.31,0a9.06,9.06,0,0,0,1.53-.26,4.2,4.2,0,0,0,2-3.58c.09-1.74-.23-2.45-1.69-3.18a1.82,1.82,0,0,0-2,0L228,498.75c-3.14,0-6.27,0-9.4-.05-.42,0-3-.15-3.41-.22,1.45-.78,4.82-1.76,5.51-3.24.43-.91.54-1.38,0-2l-.33-.23H208.22c-1.68,0-3.36,0-5.05,0-1.17,0-2.35,0-3.52,0-.81,0-1.15.37-1.16,1.11a3.41,3.41,0,0,0,.19,1,4.32,4.32,0,0,0,1.71,2.39c1.07.9,3.84.92,4.11,1.18l-13.33,0c-.43-.37-.85-.76-1.31-1.1a3.07,3.07,0,0,0-3.92.83c-1.16,1.94-.24,5.5,2.12,6a2.28,2.28,0,0,0,1.88.24l3.42.05c2.8,0,8.34,0,11.13,0,0,.51,0,1,0,1.53-4.08,0-10.9,0-15,0a7.5,7.5,0,0,0-1.4.26c-.73.27-.79.82-.79,1.47q0,8.34,0,16.68a2.19,2.19,0,0,0,.77,1.84,10,10,0,0,0,1.42.23c4.08,0,10.91,0,15,0v1.81h-4.16c-2.91,0-5.82,0-8.72,0a4.7,4.7,0,0,1-2.7-.6,2.52,2.52,0,0,0-3.86,1.63,4.48,4.48,0,0,0,1.93,4.65,10.55,10.55,0,0,0,1.56.25c4.28,0,11.31,0,15.6.05Zm10.51-24.8h7.54l0,2.59-5.44,0h-2.14c0-.85,0-1.7,0-2.55m0,7.28c.71,0,6.48-.06,7.59-.05v2.84l0,0h-7.57v-2.8m-10.16,3-7.88,0V519c.45-.07,6.62,0,7.89,0,0,.93,0,1.86,0,2.8m0-7.74c-.07.07-6,0-7.89,0v-2.35h7.89Z" transform="translate(-70.89 -143.55)"/><path class="b" d="M282.06,533.53c0-.51-.37-.69-.73-.82-.86-.3-1.75-.54-2.62-.81-2.7-.83-5.41-1.62-8.09-2.51-1.69-.56-3.33-1.27-5.17-2l1.29-1.15a56.89,56.89,0,0,0,7.69-8.22,1.68,1.68,0,0,0,.4-1.26c-.19-.53,0-1.38-1-1.51a9.94,9.94,0,0,0-1.3-.19q-17.16,0-34.32,0a9.82,9.82,0,0,0-1.31.18c-1.37.46-1.51.67-1.34,2a4.73,4.73,0,0,0,1.14,2.73c1.54,1.64,3,3.33,4.65,4.9,1.14,1.11,2.45,2,3.75,3.12a46.13,46.13,0,0,1-10.37,3.22,5,5,0,0,0-1.87.92c-.24.18-.24.66-.35,1a12.49,12.49,0,0,1,4.87,4.77c.23.42.57.78.81,1.2a1.8,1.8,0,0,0,1.94.91,28.08,28.08,0,0,0,3.29-.63,55.51,55.51,0,0,0,10.92-4.6,2.75,2.75,0,0,1,2.68-.13c2,.93,4,1.84,6.05,2.67s3.86,1.47,5.79,2.2a4,4,0,0,0,3.06,0,15.18,15.18,0,0,0,2.81-1.25,34.16,34.16,0,0,1,6.6-3.84c.39-.17.68-.36.69-.85m-27.6-10.1c-1.38-.59-7.5-3.88-7.5-3.88.39-.08,14.56,0,15,0-1,.78-5.86,2.92-7.5,3.84" transform="translate(-70.89 -143.55)"/><path class="b" d="M236.7,513c.16.07.32.22.48.21,2.12-.06,4.24-.14,6.35-.22a31.22,31.22,0,0,0,3.67-1.3,6.75,6.75,0,0,0,3.73-5.12c.21-1.15.52-2.29.79-3.44l4.12,0,1.38.11c0,.94-.06,1.84,0,2.73.17,2,.56,4,2.58,5.13a14.39,14.39,0,0,0,6.08,2,3,3,0,0,0,.75.21c2.29,0,4.59,0,6.88,0a3.7,3.7,0,0,0,.88-.23h0a5.91,5.91,0,0,0,3.27-1.71,9,9,0,0,0,2.22-3.38,21.39,21.39,0,0,0,.77-3.35c.19-1.39.09-1.44-1.24-2.07-1.13-.54-2.27-1.06-3.39-1.62a5.21,5.21,0,0,0-3-.6l-.3.24c-.05.6-.07,1.2-.16,1.8a5.75,5.75,0,0,1-.38,1.48,1.17,1.17,0,0,1-1.45.66,1.37,1.37,0,0,1-1.24-1.19,6.91,6.91,0,0,1,0-.91c0-1.86,0-3.72,0-5.58,0-1.62-.39-2.11-1.87-2.53a4.16,4.16,0,0,0-.9-.2c-3,0-6,0-8.95,0-1.4,0-2.8,0-4.2,0a9.7,9.7,0,0,0-1.3.19c-2.77,0-5.54,0-8.31,0-1.89,0-3.14,1.11-3.12,2.87a33.05,33.05,0,0,1-.57,6.66c-.42,2.21-1.25,4.15-3.61,5.12-.45.19-.93.33-1.39.5-1,.38-1.27,1.1-.67,2A3.58,3.58,0,0,0,236.7,513" transform="translate(-70.89 -143.55)"/><path class="b" d="M270.34,559a2.61,2.61,0,0,0,2.53-.68,6.14,6.14,0,0,0,1.22-5.1c-.22-1.09-1-1.47-2.15-1.55-.4,0-1.36,1.49-1.6,1.49H241.67c0-1.1,0-2.62,0-3.29,1.14,0,5.77-.15,7.06-.23l.12,0H249l4.39-.23c1.18-.1,6.51-.33,7.6-.34l3-.19,0,0,2.23-.23a.24.24,0,0,0,.21-.1l.21-.21.06-.06a2.14,2.14,0,0,1,.13-.19l.16-.26.09-.25a5.1,5.1,0,0,0,0-1.75,9.88,9.88,0,0,0-3.3-4.73l-.53-.28a1.15,1.15,0,0,0-1.46,0l-1.3.06-.82,0-1.39.21c-.63,0-1.27,0-1.9.1l-10.08,1-1.68.18-7.6.59-1.14.16-8.42.62-1.12.16-1.6.12-2.22.21-.51,0-2.49.23-4.33.3-2.23.2-.5,0-2.25.2-4.57.33-2.23.21-.51,0-2.24.21-4.57.32-2,.18a1.33,1.33,0,0,0-1.53,1c-.16.65.3,1,.76,1.39a1.93,1.93,0,0,0,.75.51c1.66.3,8.81,1,10.46,1.07.53,0,3.47.15,4.39.22s9.56.28,12.55.29l.79,0v2.23H190.78a1,1,0,0,0-1.07,1V558a1,1,0,0,0,1.07,1h31.47v1.68H194.72l-3.09,0c-.63.07-.67.44-.73,1a6.65,6.65,0,0,0,.37,3.48l.84,1.48a2.69,2.69,0,0,1,.29.16h29.85v3.32l-.82,0-4.18.19H213.3c-2,0-4,0-6,0a1.83,1.83,0,0,0-1.19.38A1.51,1.51,0,0,0,207,573a10.45,10.45,0,0,0,1.43.39,21,21,0,0,1,10.36,5.41,16.46,16.46,0,0,0,8.68,4.51l.22,0h.7a5,5,0,0,0,.71.14c3.82.37,8.19-1.22,10.35-4.21a10.57,10.57,0,0,0,1.65-4.11,18.12,18.12,0,0,0,.39-4.4,2.51,2.51,0,0,0,0-.27v-3.8h30.49s1.19-2.6,1.69-3.65l.1-.3a4.34,4.34,0,0,0,0-1.25c-.56-1.7-2.14-2-3.81-.9H241.4V559Z" transform="translate(-70.89 -143.55)"/><path class="b" d="M291.61,525.41c-5.22,3.36-4.34,21.27.1,21.6,9.52-3.82,64.71-5.54,80-.7,5.41,1.34,3.54-4.65,3.91-10.17-.57-27.94-9.64,5.15-84-10.73" transform="translate(-70.89 -143.55)"/><path class="b" d="M454.89,490.12c-3.19-1.05-4.8,1.89-6.81,3.94,0,0-14.68,2.2-19.59,2.2s-19.55-2.2-19.55-2.2c-18.19-5.42-10.81-5.56-12,33.23v.12h0a1.33,1.33,0,0,0,.07.43c.34,2.64,3.6,4.72,7.61,4.72,3,0,5.63-1.19,6.88-2.9,4.85.23,10.66.43,16.47.43,6.34,0,13-.21,18.59-.46,1,2.05,3.86,3.54,7.25,3.54,4.24,0,7.68-2.31,7.68-5.16,0,0,0-.1,0-.16s0,0,0,0c-.47-7.81,0-15.33-.32-23.18,5.7-4.76-1.09-11.85-6.26-14.52m-26.4,30.69a119.85,119.85,0,0,1-18-1.36V503.56c.3,0,9.58,1.25,18.42,1.31a143.59,143.59,0,0,0,17.54-1.1v15.68h-1.39a141.21,141.21,0,0,1-16.59,1.36" transform="translate(-70.89 -143.55)"/><path class="b" d="M423.17,547.41c1.5-3.14,3.15-4.79,2.57-7.67-.92-4.6-6.13-3.18-8.39-1.23,0,0-3.05,1.5-13.39,1.56-10.54,0-12.57-1.56-12.57-1.56-2.26-1.83-8.55-6-8.41-2.56.47,11.62.86,20.56.32,34-.65,4-2.21,8,1.69,8.89,31-7.44,39.41,7.49,40.09-6.23.07-1.58-.9-3.32-1.91-5.6ZM396.43,568V548.85a32.11,32.11,0,0,0,7.53.63,35.74,35.74,0,0,0,7.1-.53v19c-.93-.08-3.42-.27-7.1-.28a71.38,71.38,0,0,0-7.53.32" transform="translate(-70.89 -143.55)"/><path class="b" d="M474.41,547.41c1.5-3.14,3.14-4.79,2.57-7.67-.92-4.6-6.13-3.18-8.39-1.23,0,0-3,1.5-13.39,1.56-10.54,0-12.57-1.56-12.57-1.56-2.26-1.83-8.55-6-8.41-2.56.47,11.62.86,20.56.32,34-.65,4-2.21,8,1.69,8.89,31-7.44,39.41,7.49,40.08-6.23.08-1.58-.89-3.32-1.9-5.6ZM447.67,568V548.85a32,32,0,0,0,7.53.63,35.74,35.74,0,0,0,7.1-.53v19c-.93-.08-3.42-.27-7.1-.28a71.38,71.38,0,0,0-7.53.32" transform="translate(-70.89 -143.55)"/><path class="c" d="M285.37,483.65l1.71-.22c.68-.09,1.17-.15,1.49-.17,1.1-.07,2.2-.11,3.3-.15,2.41-.1,4.9-.19,7.54-.52a161.5,161.5,0,0,0,32.35-7.37,156.43,156.43,0,0,0,37.4-18.81,16.61,16.61,0,0,0,2.6-2.17l6.42-4.83.78-.59c.6-.43,1.21-.88,1.86-1.43a128.66,128.66,0,0,0,25.46-29.22,22.73,22.73,0,0,0,18.63-6.82,49.62,49.62,0,0,0,11.63-19l.38-1.1a74,74,0,0,1,3.73-9.51c4.5-8.75,10.58-16.65,17-25a42.06,42.06,0,0,0,5.61-11l.12-.33a54.55,54.55,0,0,0,2.14-7.73l.39-1.76c.33-1.41.68-2.82,1-4.23,1-4.08,2-8.3,2.72-12.73.51-3.33.68-6.52.85-9.6.13-2.23.24-4.34.48-6.34.74-6.27,1.66-14.07-1.82-22.36-1.21-2.87-2.3-5.82-3.46-8.93a155.16,155.16,0,0,0-6.27-15.24,5.54,5.54,0,0,1,0-5.49,125.46,125.46,0,0,1,18.29-29.43c2.24-2.71,4.22-5.47,6.13-8.14l1.15-1.59a16.86,16.86,0,0,0,2.75-13.32,11.56,11.56,0,0,0-6.05-7.78,12.75,12.75,0,0,0-7.48-1.34,115.53,115.53,0,0,0-16.05-11,110,110,0,0,0-19-8.9c-1.2-4-4.09-7.64-8.26-8.88-5.81-1.74-11.93,1.42-14.74,5.28a40.33,40.33,0,0,0-4.7,8.95c-2,5-4,10.1-5.84,15l-1.4,3.65c-.51,1.34-1,2.67-1.55,4-1.42,3.61-2.88,7.35-4.15,11.23-2.94,9-5.87,15.53-11.39,20.44a64.17,64.17,0,0,0-10.27,11.94v0c-24.8-19.65-54.19-30.67-87.54-32.82l-17.54,0-.54,0c-33.11,1.78-62.83,13-88.53,33.53A52.45,52.45,0,0,0,172,228.91a33.83,33.83,0,0,1-10.1-16.09c-1.93-6.25-4.23-12.21-6.61-18.28s-4.89-12.16-7.31-18c-1.05-2.54-2.09-5.09-3.13-7.63a14.71,14.71,0,0,0-8.36-8.23A13.08,13.08,0,0,0,119,170a135.08,135.08,0,0,0-16,8,130.24,130.24,0,0,0-17,11.53,13.8,13.8,0,0,0-2-.3,12.37,12.37,0,0,0-9.58,3.69c-4.1,4.21-4.27,11-2.33,15.53a33,33,0,0,0,5.2,7.91l.25.3c7.33,8.94,15.57,19.8,21.13,32.53,1.57,3.58,1.5,4.76,1.19,5.5-.43,1-.82,2.07-1.22,3.1-.24.65-.49,1.29-.74,1.93q-1.32,3.3-2.66,6.58c-2.14,5.26-4.35,10.7-6.37,16.18a32.65,32.65,0,0,0-2.23,12.3c.16,4.71.65,9.3,1.13,13.74q.26,2.3.48,4.59a146.45,146.45,0,0,0,6.84,31.28l.3.93a24.48,24.48,0,0,0,3,6.92c1.74,2.59,3.56,5.07,5.32,7.48s3.51,4.81,5.11,7.2L111,370a87.81,87.81,0,0,1,7.43,12.19c1,2.29,2,4.74,3,7.34a93.9,93.9,0,0,0,5.71,13c5.22,9.32,15.68,16.94,26.43,15.44a139.76,139.76,0,0,0,25.43,29c.33.29.66.55,1,.79l-.48.62,8.68,6c26.91,18.64,54.35,28.13,83.77,29Zm75.56-211.8a39.61,39.61,0,0,1,3.32-8.64c.72-1.52,1.45-3.09,2.16-4.77v0q3.4,2.81,6.67,5.86l3.16,3c0,.08.05.16.07.24l-.1.23.28.32a23.59,23.59,0,0,0,3.87,7,33.12,33.12,0,0,1,2.6,4.26c.49.87,1,1.72,1.43,2.51l5.83,9.8c-7.76,2.53-14.47,3.09-20.49,1.72-1.64-.38-4.17-1.52-7.09-7.12C360.39,281.84,359.84,277.29,360.93,271.85Zm-16.69-28.2-.55.78c-2.17,3.14-4.29,6.21-6.4,9.29-2.34,3.39-5.89,5.2-11.87,6a42.75,42.75,0,0,1-9.26.51c-8.11-.62-13.92-4.13-17.77-10.73-3.23-5.55-4.82-12.17-5-20.84A136.58,136.58,0,0,1,344.24,243.65ZM265.9,228.74c.15,5.53-1.22,10.93-2.73,15.94s-4,8.64-7.9,11.37a22.74,22.74,0,0,1-12.55,4.29c-6.55.23-11.28-.54-15.35-2.47-2.48-1.18-4.6-3.19-6.85-6.53-1.51-2.22-3-4.5-4.51-6.92l-.39-.61A130.32,130.32,0,0,1,265.9,228.74Zm-92.67,54.82,1.33-2.1c.57-.9,1.12-1.82,1.66-2.74.71-1.2,1.4-2.36,2.07-3.32l3.61-4.16-.37-.77c.22-.47.42-1,.59-1.43l3.62-3.4q3.76-3.54,7.64-6.75c1.1,2.37,2.16,4.64,3.19,6.93,3.37,7.5,3.56,13.77.57,19.72a20.3,20.3,0,0,1-4.19,5.9A10.36,10.36,0,0,1,187.2,294c-4.19.55-8.59-.08-13.15-.74-.16,0-.6-.17-.92-.28-.65-.2-1.46-.45-2.4-.67l-2.69-.61ZM153.37,360a23.54,23.54,0,0,0,6.69-9.64c.16-.42.29-.83.44-1.25l1.1-1.63-.2-1.23a44.27,44.27,0,0,0,1.44-17.54,107.74,107.74,0,0,0-1.92-10.87,26.28,26.28,0,0,1,2.62,1,74.56,74.56,0,0,1,12.13,6.39c1.79,1.23,3.64,3.32,3.84,9.47.1,3,.12,5.5-.53,7.56a17.67,17.67,0,0,1-6.65,8.88C166.67,355.31,160,358,153.37,360Zm14.93,43.9a18.42,18.42,0,0,0-2.23-3l-2.44-5.16c-1.28-2.71-2.54-5.47-3.73-8.29a34.69,34.69,0,0,1,10.51.1c4.25.65,11.81,3.08,14.72,12a36.1,36.1,0,0,1-.77,25A112.15,112.15,0,0,1,168.3,403.85Zm41.59,40.69a56.23,56.23,0,0,1,8.45-4.85c5.43-2.57,10-4.3,14.84-4.35,10.54-.14,17.95,4.24,23.94,14.16a53.43,53.43,0,0,1,5.49,13.2C244.47,460.69,227.06,454.69,209.89,444.54ZM291.4,431a67.64,67.64,0,0,0-11.67,19.77,66.77,66.77,0,0,0-5.49-11.56c-9.55-15.81-23.21-23.83-40.62-23.83h-.68c-8.93.1-16.41,3.08-23.15,6.27-1.52.72-3,1.46-4.37,2.22a55.68,55.68,0,0,0-1.27-30.49,37.05,37.05,0,0,0-23.38-23.81q1.81-1.17,3.57-2.49a37.44,37.44,0,0,0,13.73-18.88c1.58-5,1.57-9.76,1.43-14.18-.27-8.48-2.69-15.38-7.21-20.6a29.9,29.9,0,0,0,14-7.07A39.66,39.66,0,0,0,215,294.5a38.84,38.84,0,0,0,4.23-18.35c9.07,4.18,18.1,4.39,24.15,4.18a42.8,42.8,0,0,0,23.3-7.87,38.64,38.64,0,0,0,13.05-15.33c.43.84.88,1.66,1.35,2.47,7.19,12.35,18.78,19.48,33.52,20.62a63.86,63.86,0,0,0,13.58-.65,44.65,44.65,0,0,0,12.2-3.39,39.62,39.62,0,0,0,4.51,19.25c5,9.58,11.85,15.42,20.37,17.36.72.17,1.45.32,2.18.45-4.6,5.36-8.14,13.19-8,24.56.14,11.18,5.57,21.42,15.3,28.82,1.29,1,2.61,1.91,4,2.81A37,37,0,0,0,362.23,381a42.12,42.12,0,0,0-9.71,24.28,67.14,67.14,0,0,0,.85,17c.1.52.21,1,.33,1.55-5.8-3.17-12.79-6.45-21.18-7.75C316.06,413.51,301.84,418.65,291.4,431Zm33.89,25.35a142,142,0,0,1-28.35,6.44l-.12,0a48.74,48.74,0,0,1,9.82-18.87c4.86-5.72,10.59-8.47,17.77-8.47a32,32,0,0,1,5,.41c4.59.71,9.23,2.51,15.54,6a51,51,0,0,1,4.92,3.09A135,135,0,0,1,325.29,456.3Zm71.54-61.13a16.59,16.59,0,0,0-1.16,4.51,14.25,14.25,0,0,0-4.11,4.36,121.93,121.93,0,0,1-16.38,21.36,37.52,37.52,0,0,1-2.15-6.8,47.62,47.62,0,0,1-.56-11.93,22.49,22.49,0,0,1,5.2-13,17.91,17.91,0,0,1,11.16-6.33,21.63,21.63,0,0,1,4-.34,55.24,55.24,0,0,1,7,.56Q398.34,391.31,396.83,395.17Zm-9.94-44.47c-4.86-3.7-7.35-8.12-7.41-13.15-.12-9.08,3.21-12.19,6.82-14.2a67.17,67.17,0,0,1,11.35-5.18,64.43,64.43,0,0,0-1.93,20.42,31.27,31.27,0,0,0,.82,5.11l0,.18.11.16a37.12,37.12,0,0,0,9,15.86A56.91,56.91,0,0,1,386.89,350.7Z" transform="translate(-70.89 -143.55)"/><path class="d" d="M410.79,362.62c7.23,13.86-7.46,24.3-16.64,35.07-7,8.21-15.13,16.07-18.23,26.47-1.55,5.16-1.17,10.23-4.94,14-.14.14,7.74,9.5,7.53,9.88-1.4,2.44-5.27,4.05-5.27,4.05s-11-9.27-11.56-9c-4.46,2.28-5.95,4.1-10.41,6.38-3.94,2-7.95,4-12.29,4.85s-8.58.41-12.68,1.59c-3,.85-5.69,2.5-8.69,3.29-5,1.32-10.47.16-15.35,1.91-4.08,1.45-7.27,4.78-11.22,6.59-2.22,1-5.6-.09-5.6-.09l-2.86,18.8-6.94,0s-1.15-19.13-1.66-19.2c-11.29-1.39-21.65-3-32.22-7.25-3.47-1.41-7.72-2.82-10.65-.46-1,.77-1.63,1.87-2.64,2.58-6,4.16-26.74-12.21-31.49-15.89-1.06-.83,1.46-1.23.42-2.1-.25-.21-12.52,8.07-12.52,8.07l-5.17-4.41s9.59-8.93,9.4-9.12c-5.91-5.72-12.48-12.51-16.9-19.49A111.05,111.05,0,0,1,158,385c-1.37-5.84-7.57-4.45-8.21-10.27-.9-8.23,9.91-17.39,15.51-20.51,2.37-1.33,2.82-3.86,4.7-5.48,1.46-1.25,3.25-1.39,4.95-2.24,3.61-1.82,7.16-4.25,7.38-8.76.38-7.62-5.63-14.95-9.69-20.76-3.58-5.13-18.5-6.87-18.55-13.81,0-6.07,10.86-9.44,15.46-12.46s6.85-6.79,10-11.79c5.44-8.79,8.94-19.21,16.26-26.5,27.68-27.55,53.64-35.73,97.58-26.46,40.58,8.56,45.75,4.65,74.94,25.18,4.75,3.35-2.4,18.4,6.68,28.06,3.26,3.46,7.23,4.34,11,6.79,7,4.51,17.55,10.18,15.9,18.92-2.11,11.16-14.92,25.43-15.52,36.45a11.52,11.52,0,0,0,1,6.13c1.84,3.35,7.17,3.58,10.1,5.64,2.7,1.9,12.17,7.27,13.3,9.45" transform="translate(-70.89 -143.55)"/><path class="e" d="M477.2,199.66c-2.33-1.16-3.7.69-5.16,2a11.84,11.84,0,0,0-1.54,1.71c-6.15,8.45-12.63,16.69-18.31,25.45-4,6.1-7,12.83-10.07,19.46-1.29,2.78-1.9,5.86-.46,9.13,3.16,7.18,5.71,14.63,9,21.74a38.62,38.62,0,0,1,4,17.41c-.08,3.61-.33,7.22-.55,10.83a67.07,67.07,0,0,1-.65,7.65c-1.44,8-2.95,16-4.64,24a18.16,18.16,0,0,1-2.58,6.5c-4.82,6.9-10.15,13.46-14.82,20.46a79.81,79.81,0,0,0-6.84,13.37c-2.48,5.88-3.75,12.31-7.92,17.38-2.16,2.65-4.07,5.81-8.29,5.6-2.85-.14-3.26-.86-2.21-3.55q5.07-13,9.92-26c1.13-3.06,1.89-6.25,2.92-9.35a2.41,2.41,0,0,1,1.38-1.33c3.89-1.14,5.79-4.13,6.57-7.67,1.06-4.84,1.55-9.8,2.39-14.7,1.11-6.53,2.12-13.09,3.54-19.56,1.27-5.82,3.31-11.49,4.45-17.34.51-2.6-.29-5.49-.67-8.22-.07-.51-1.08-1.35-1.47-1.26a2.5,2.5,0,0,0-1.68,1.47c-1,5.2-2.53,10.22-3.89,15.3-1.95,7.32-4.64,14.52-5.1,22.27a127.16,127.16,0,0,1-2.83,18.67c-1.06,5.05-2.52,5.92-7.41,3.22a3.19,3.19,0,0,1-.68-.53c-4.32-4.48-7.42-9.65-7.89-15.94-.55-7.31.7-14.42,2.79-21.47,1-3.24,1.89-7.13,1-10.16-2.14-7.07-5.46-13.79-8.17-20.7-.87-2.23-2-4.65-1.82-6.92.32-5.55,1.32-11.06,2-16.59a8.44,8.44,0,0,0-.51-2.5,11.34,11.34,0,0,0-2.9.85,3.26,3.26,0,0,0-1,1.87c-1.4,4.91-2.73,9.83-4,14.45a70.75,70.75,0,0,0-4.73-7.81c-2.54-3.26-3.71-6.45-1.6-10.33,1.75-3.21,3.06-6.73,5.22-9.63,3.44-4.64,7.35-9,11.2-13.28,7.19-8.06,9.72-18.45,14-28,3.24-7.22,5.83-14.75,8.64-22.16a121.78,121.78,0,0,0,4-11.76c.27-1-.84-3.31-1.74-3.58s-3.06.59-3.8,1.59a31.6,31.6,0,0,0-3.5,6.79c-2.47,6.14-4.8,12.34-7.17,18.52-1.87,4.91-3.9,9.78-5.54,14.77-3,9.28-6.67,18.07-14.26,24.8a55.39,55.39,0,0,0-8.64,10.12c-2.15,3.13-3.5,6.81-5.18,10.21-25.64-24-56.29-36.43-91.27-38.68H271.76c-35.81,1.93-66.66,15.42-92.87,40.07a44,44,0,0,0-13.5-21.91,43.64,43.64,0,0,1-13.09-20.67c-1.83-6-4.08-11.78-6.36-17.57-3.36-8.56-6.92-17-10.39-25.57-.89-2.18-3.26-3.49-5.1-2.57-2.15,1.07-2,2.9-1.22,4.87q2.49,6.28,4.87,12.63c2.54,6.76,5,13.56,7.57,20.3,1.54,4,3.31,7.93,5,11.86,3.36,7.63,7.27,15,13.4,20.76s10.54,12.39,12.66,20.59a7.26,7.26,0,0,1-1.55,7.11,76.89,76.89,0,0,0-5.11,7.95c-.63,1-1.27,2-2,3.18,0-3,.39-5.61-.09-8.05A80.34,80.34,0,0,0,160.75,260c-.22-.63-1.76-.81-2.68-1.2a7,7,0,0,0-.85,2.47c.44,5.76,1.18,11.5,1.48,17.27a16.63,16.63,0,0,1-1.09,6.61c-2,5.25-4.32,10.39-6.58,15.54-1.82,4.14-2.85,8.19-1.52,12.84a107.06,107.06,0,0,1,3.41,16.32,35.34,35.34,0,0,1-2.21,16.9,14.59,14.59,0,0,1-6.82,7.68c-2.81,1.63-5.1,1.42-5.83-.47a22,22,0,0,1-1.11-4.63c-.68-4.53-1.07-9.12-1.94-13.62-1.1-5.73-2.52-11.41-3.9-17.09q-3-12.15-6.07-24.28c-.15-.59-.82-1.49-1.22-1.48a2.27,2.27,0,0,0-1.71,1.16c-1.12,3.11-2,6.21-.86,9.63a140,140,0,0,1,4.06,14c1.39,6.34,2.36,12.78,3.49,19.18.79,4.45,1.77,8.89,2.25,13.38.85,7.89,3.95,11.32,11.61,11.9,1.31,13.34,6.18,25.65,11.93,37.81a18.12,18.12,0,0,1-3.84,1.92c-1.15.26-2.87.3-3.64-.37-4.62-4.05-8.33-8.83-10.24-14.78-2.62-8.18-5.63-16.17-10.77-23.17-4.3-5.85-8.62-11.67-12.82-17.59a18.47,18.47,0,0,1-2.9-5.49c-1.35-4.87-2.48-9.82-3.43-14.79s-1.7-9.74-2.23-14.65c-.89-8.21-1.8-16.46.46-24.59a56,56,0,0,1,2.91-7.23c2.53-5.84,5.23-11.61,7.62-17.5,1.87-4.59,3.28-9.37.67-14.19-4.84-8.91-9.32-18.05-14.78-26.57-4.58-7.15-10.33-13.55-15.55-20.3-1.29-1.67-3.33-2-4.47-.83-.84.87-.86,3.28-.3,4.6a25.73,25.73,0,0,0,4,5.82c8.83,10.78,17,22,22.56,34.86,1.85,4.22,3.21,8.68,1.26,13.36-.67,1.62-1.26,3.27-1.91,4.9-3,7.5-6.14,14.94-8.94,22.51a23.14,23.14,0,0,0-1.6,8.5c.19,5.91,1,11.79,1.56,17.68a136.52,136.52,0,0,0,6.4,29.15,21.56,21.56,0,0,0,2.12,5.37c3.36,5,7.11,9.71,10.45,14.71,3.65,5.44,7.61,10.8,10.33,16.7,3,6.43,4.8,13.33,8.32,19.61,3.68,6.57,11.82,12.84,19,9.63,2.61-1.16,3.61-.33,4.88,1.78a127.32,127.32,0,0,0,25.79,30.36c1.67,1.46,2.71,1.49,3.59-.73s1.77-4.1,2.72-6.12c5.47-11.68,6.88-23.58,2.81-36.09C191,385.28,182,379.16,171.93,377.61a43.58,43.58,0,0,0-18,.82,2.7,2.7,0,0,1-2.38-1.12,51.81,51.81,0,0,1-1-6.19c10.24-2.69,19.68-6,27.8-12.07a27.67,27.67,0,0,0,10.2-13.88c1.12-3.58,1.09-7.15,1-10.87-.22-7.11-2.24-13.31-8.16-17.39a83.41,83.41,0,0,0-13.76-7.3c-3.57-1.57-7.47-2.39-11.29-3.56,1-2.43,1.77-4.5,2.43-6.18,3.52.77,6.65,1.44,9.77,2.16,1.36.31,2.67.88,4,1.08,5.29.77,10.52,1.5,16,.77a20.18,20.18,0,0,0,11.13-5,30,30,0,0,0,6.44-8.85c4.72-9.41,3.82-18.93-.39-28.3-1.81-4-3.72-8-5.7-12.29l5.41-3c2.38,3.68,4.54,7.16,6.84,10.55,2.81,4.16,6.13,7.71,10.83,9.95,6.39,3,13.06,3.68,20,3.44A32.78,32.78,0,0,0,261,264.25a29.84,29.84,0,0,0,11.76-16.69c1.92-6.38,3.35-12.63,3.14-19.25,0-1.32,0-2.63,0-4h7.5c0,1.6,0,3,0,4.46.19,9.07,1.79,17.89,6.37,25.77,5.64,9.69,14.51,14.82,25.65,15.68a53.25,53.25,0,0,0,11.41-.58c7.48-1.06,14.2-3.72,18.71-10.29l8.89-12.87,5.37,3.08c-1,1.83-1.91,3.35-2.6,5-2.11,5-4.94,9.74-6.05,15.31-1.49,7.42-.79,14.31,2.66,20.91,3,5.78,7.18,10.75,13.72,12.24,9,2,17.9.72,26.55-2.2,4.29-1.44,6.91-.29,7.85,4.11a2.49,2.49,0,0,1-1.33,2.07,67.85,67.85,0,0,0-19.14,7.59c-9.24,5.13-12.08,13.57-12,23.07.1,8.64,4.52,15.78,11.35,21,8.33,6.33,17.86,10.23,28.71,12.53-.87,2.43-1.78,4.94-2.62,7.26-7-.87-13.38-2.15-19.95-.9a27.89,27.89,0,0,0-17,9.79A32.41,32.41,0,0,0,362.49,406a57.36,57.36,0,0,0,.71,14.46c.83,4.46,2.7,8.75,4.46,13a75.85,75.85,0,0,0,4.5,8c.93-.7,1.62-1.18,2.27-1.72,10.35-8.61,18.6-19,25.64-30.4,1-1.59,1.91-2,3.68-1.59,5.19,1.13,10,.67,14.05-3.4a39.11,39.11,0,0,0,9.28-15.18,90.72,90.72,0,0,1,4.68-11.92c4.91-9.56,11.45-18,18-26.54,2-2.55,3.14-5.77,4.3-8.83a62.88,62.88,0,0,0,2.14-8.2c1.26-5.4,2.76-10.76,3.6-16.22.79-5.14.68-10.41,1.29-15.59.69-5.87,1.3-11.59-1.11-17.31-3.29-7.82-5.73-16-9.47-23.61a15.42,15.42,0,0,1-.24-14A135.06,135.06,0,0,1,470,215.16c2.44-2.94,4.63-6.09,6.86-9.19C478.39,203.86,478.6,200.36,477.2,199.66Z" transform="translate(-70.89 -143.55)"/><path class="e" d="M349.85,433.11c-6-3.35-12.07-6.11-18.87-7.16-12.74-2-23.53,1.54-32,11.47A58.58,58.58,0,0,0,287,461c-1.07,4.15-1.82,8.39-2.76,12.76,1.75-.21,2.75-.38,3.76-.44,3.41-.21,6.84-.19,10.23-.61a150.91,150.91,0,0,0,30.34-6.91,145.75,145.75,0,0,0,35-17.61c1.85-1.26,2.46-2.23.53-4.2A60.81,60.81,0,0,0,349.85,433.11Z" transform="translate(-70.89 -143.55)"/><path class="e" d="M265.68,444.33c-7.44-12.32-17.89-19.17-32.62-19-6.87.08-13,2.47-19,5.31-7.72,3.66-14.72,8.36-20.23,15.46,24.38,16.88,50.85,26.95,80.89,27.34a16.78,16.78,0,0,0,0-2.59C273,461.59,270.64,452.54,265.68,444.33Z" transform="translate(-70.89 -143.55)"/><path class="b" d="M199.14,161.7l.41.8c.36.72.75,1.41,1.16,2.07s.84,1.29,1.27,1.9l-1.66,1.2a4.47,4.47,0,0,0-2.75-2.2,5.36,5.36,0,0,0-3.69.66,4.7,4.7,0,0,0-2.09,1.85,2.13,2.13,0,0,0-.06,2.1c.48.95,2.15,1,5,.27l.46-.13a11.71,11.71,0,0,1,5.67-.45,4.87,4.87,0,0,1,3.16,2.7,6.41,6.41,0,0,1,0,6,11.53,11.53,0,0,1-5.43,5.07,19.1,19.1,0,0,1-3.33,1.33,13.84,13.84,0,0,1-3.23.55c0-.12-.1-.24-.16-.36l-.28-.56c-.4-.78-.84-1.55-1.33-2.31s-1-1.49-1.58-2.2l1.77-1.31a6.91,6.91,0,0,0,3.44,2.68,5.41,5.41,0,0,0,4-.61,5.11,5.11,0,0,0,2.24-1.92,2.09,2.09,0,0,0,.11-2.14c-.53-1-2.07-1.26-4.62-.64l-1.14.26a11.88,11.88,0,0,1-5.59.29,4.89,4.89,0,0,1-3-2.66,6.11,6.11,0,0,1,0-5.67,10.71,10.71,0,0,1,5.06-4.79,18.8,18.8,0,0,1,3.16-1.27,13,13,0,0,1,3.06-.5" transform="translate(-70.89 -143.55)"/><path class="b" d="M204.18,158.4l3.09-.85c.77-.22,1.38-.41,1.85-.57.66-.23,1.41-.51,2.26-.86s1.84-.76,3-1.25l.57,1.63-.34.11c-.82.29-1.31.67-1.46,1.14a6.29,6.29,0,0,0,.6,3.11l.12.34.82,2.36,1.86-.55c.62-.19,1.27-.4,1.94-.64,1.1-.38,2.25-.81,3.44-1.3l.57-.22.11,0-1.07-3.07a5.31,5.31,0,0,0-1.33-2.47,2.13,2.13,0,0,0-1.84,0l-.31.1-.56-1.63c1.19-.31,2.22-.59,3.09-.85s1.63-.49,2.28-.72q.72-.24,1.86-.72c.77-.31,1.74-.73,2.93-1.24l.57,1.63L228,152l-.33.11a1.56,1.56,0,0,0-1.2,1.33,14.08,14.08,0,0,0,1.07,4.3l.39,1.12.35,1,.56,1.62c.13.4.31.92.53,1.59s.38,1.12.47,1.38a23.37,23.37,0,0,0,.91,2.34,3.31,3.31,0,0,0,.68,1,1.19,1.19,0,0,0,.8.3,3.21,3.21,0,0,0,1.16-.21l.24-.1.25-.1.57,1.64c-1.31.35-2.38.64-3.2.88s-1.48.45-2,.62q-.94.32-2.22.84c-.86.34-1.9.78-3.13,1.32l-.58-1.65.25-.06.37-.12a2,2,0,0,0,1.38-1.1,6.31,6.31,0,0,0-.58-3l-.18-.52,0-.08-.94-2.7c-.68.19-1.35.4-2,.62l-2,.67c-.77.27-1.79.65-3.07,1.14l-.82.31,1,2.79.18.52a6.14,6.14,0,0,0,1.41,2.72,2,2,0,0,0,1.78,0l.38-.13.22-.07.57,1.64c-1.3.34-2.4.64-3.28.91s-1.65.5-2.27.72c-.46.16-1.07.39-1.83.7s-1.81.75-3.11,1.32l-.57-1.65.4-.14a3.53,3.53,0,0,0,1.11-.56,1.1,1.1,0,0,0,.39-.69q.12-.88-1.49-5.63c-.14-.41-.25-.71-.32-.93l-.56-1.62c-.19-.53-.42-1.21-.68-2l-.56-1.68A6.59,6.59,0,0,0,207,160a1.73,1.73,0,0,0-1.74-.15l-.33.12-.21.1Z" transform="translate(-70.89 -143.55)"/><path class="b" d="M233.82,159.14a9.81,9.81,0,0,1,2.05-8.18,12.83,12.83,0,0,1,8.08-4.6,11.84,11.84,0,0,1,8.78,1.47,10.11,10.11,0,0,1,4.6,7,9.69,9.69,0,0,1-2,8.09,12.59,12.59,0,0,1-8,4.5,12.38,12.38,0,0,1-9-1.32,9.93,9.93,0,0,1-4.58-7m10.44-9.84a4.74,4.74,0,0,0-3.65,2.65,9.22,9.22,0,0,0-.42,5.71,10.11,10.11,0,0,0,2.45,5.5,4.79,4.79,0,0,0,4.47,1.22,4.49,4.49,0,0,0,3.49-2.58,9.44,9.44,0,0,0,.35-5.63,10.46,10.46,0,0,0-2.44-5.54,4.49,4.49,0,0,0-4.25-1.33" transform="translate(-70.89 -143.55)"/><path class="b" d="M270.71,144l.06,1.77h-.56a2.12,2.12,0,0,0-1.76.68,5.45,5.45,0,0,0-.36,2.82c0,1,.07,2.11.12,3.28s.07,1.81.08,1.94c.08,2.47.55,4.23,1.41,5.3a4.68,4.68,0,0,0,4.06,1.51,6,6,0,0,0,2.94-.77,3.62,3.62,0,0,0,1.64-2,7.52,7.52,0,0,0,.35-2.27c.05-1,0-2.91-.06-5.66l-.08-2.43a3.45,3.45,0,0,0-.53-2.11,2.22,2.22,0,0,0-1.77-.49h-.47l-.06-1.77c.95.07,1.76.12,2.43.14s1.25,0,1.73,0,1.17-.06,1.86-.13,1.49-.16,2.39-.29l.06,1.77h-.56q-2,.08-1.83,5c0,.41,0,.73,0,.94s0,.63,0,1.12q.15,5.58-.57,7.46a7,7,0,0,1-3.14,3.54,11.39,11.39,0,0,1-5.43,1.44,15.21,15.21,0,0,1-4.33-.41,7.88,7.88,0,0,1-3.13-1.56,7.07,7.07,0,0,1-2-2.66,12.59,12.59,0,0,1-.71-4.24c0-.68,0-1.75-.06-3.18s0-2.52-.07-3.26a6.06,6.06,0,0,0-.52-2.89,1.94,1.94,0,0,0-1.64-.53l-.26,0-.26,0-.06-1.77q1.56.1,2.91.12c.91,0,1.72,0,2.44,0s1.35-.07,2.26-.14,2.06-.18,3.45-.33" transform="translate(-70.89 -143.55)"/><path class="b" d="M308.53,146.64c-.11,1-.18,2-.21,3a28.59,28.59,0,0,0,.06,2.93l-2,.15a5.06,5.06,0,0,0-1.52-3.39,6.12,6.12,0,0,0-3.64-1.54,6.7,6.7,0,0,0-5.38,1.3,7.92,7.92,0,0,0-2.38,5.36,8.8,8.8,0,0,0,1,5.88,5.61,5.61,0,0,0,4.34,2.62,7.22,7.22,0,0,0,1.32,0,10.29,10.29,0,0,0,1.49-.25l.25-2.23a5.22,5.22,0,0,0-.12-2.7,1.94,1.94,0,0,0-1.56-.75l-1-.08.2-1.79c1.18.24,2.14.43,2.87.55s1.39.22,2,.29c.73.08,1.52.15,2.35.22s2,.12,3.43.19l-.2,1.75-.39,0a1.81,1.81,0,0,0-1.53.31,4.26,4.26,0,0,0-.62,2.19l-.09.72-.1,1.18c-.07.56-.12,1.09-.17,1.61s-.08,1-.1,1.47c-1.91.21-3.65.33-5.22.37a29.94,29.94,0,0,1-4-.12,13,13,0,0,1-8.37-3.82,9.48,9.48,0,0,1-2.41-7.86,9.85,9.85,0,0,1,4.46-7.53q3.9-2.58,9.84-1.9a27.5,27.5,0,0,1,3.74.69,26.81,26.81,0,0,1,3.57,1.21" transform="translate(-70.89 -143.55)"/><path class="b" d="M315.35,147.31c1.49.48,2.93.92,4.3,1.32s2.61.74,3.74,1c1.36.34,2.82.7,4.37,1.05s3.31.74,5.28,1.15c-.22.87-.41,1.76-.56,2.66s-.28,1.82-.38,2.76l-1.71-.15a3.47,3.47,0,0,0-.69-2.7,7.35,7.35,0,0,0-3.42-1.55c-.6-.15-1.19-.3-1.77-.42s-1.14-.25-1.7-.35c-.11.35-.22.73-.33,1.13s-.25,1-.44,1.73l-.39,1.49-.36,1.43.77.2,1.5.4,1.24.32a5,5,0,0,0,2.57.24,1.85,1.85,0,0,0,1-1.36l1.51.59c-.3.87-.53,1.56-.69,2.08s-.29,1-.39,1.36-.22.91-.42,1.82c-.07.31-.12.54-.16.69l-1.62-.22.05-.24a1.87,1.87,0,0,0-.19-1.76,5.9,5.9,0,0,0-2.6-1.1l-1.21-.29-1.44-.36-.48-.12-.38,1.48-.53,2.08c-.1.38-.2.77-.3,1.18s-.2.85-.31,1.31c.67.24,1.29.45,1.87.62s1.11.33,1.6.45c2.14.55,3.64.68,4.5.4a5.31,5.31,0,0,0,2.54-2.29l1.59,1c-.58.92-1.11,1.8-1.58,2.66s-.91,1.7-1.3,2.5q-4.23-1.25-6.68-1.93c-1.63-.46-2.92-.81-3.88-1s-2.07-.5-3.32-.77-2.72-.58-4.39-.9l.43-1.69a1.29,1.29,0,0,1,.29.09l.27.08a3.7,3.7,0,0,0,1.1.14,1.36,1.36,0,0,0,.75-.27,2.33,2.33,0,0,0,.72-1,27.76,27.76,0,0,0,.9-3.06l.2-.78.35-1.39.49-1.91c.17-.65.35-1.33.55-2,0-.16.06-.26.07-.29l.34-1.27.29-1.06A3.83,3.83,0,0,0,317,150a2.3,2.3,0,0,0-1.54-.93l-.27,0-.29-.06Z" transform="translate(-70.89 -143.55)"/><path class="b" d="M338.35,153.33c1,.52,1.93,1,2.74,1.35s1.47.67,2,.88c.79.32,1.62.63,2.51.94s1.8.61,2.77.9l-.65,1.6-.39-.15a2,2,0,0,0-1.84-.07q-.66.42-1.74,3.09l-.09.22-3.26,8a6.56,6.56,0,0,0-.77,3c.12.49.57.88,1.34,1.2l.37.14.25.1-.64,1.56-3.17-1.5c-.75-.34-1.4-.62-1.94-.84s-1.1-.43-1.93-.72-2-.67-3.4-1.14l.65-1.62.27.12a2.63,2.63,0,0,0,.24.12,2.14,2.14,0,0,0,1.84.13,4.19,4.19,0,0,0,1.31-2l.71-1.7c.41-1,.76-1.81,1.07-2.54l.8-1.88.5-1.23c.13-.33.31-.75.53-1.27l.45-1.08a5.28,5.28,0,0,0,.61-2.68q-.18-.74-1.35-1.2l-.42-.17Zm12.57,5.12,2.81,1.38c.61.29,1.12.52,1.54.69s.93.36,1.55.57l2.86.92-.65,1.6-.15-.08a1.26,1.26,0,0,0-.25-.11,3.78,3.78,0,0,0-2-.21,18.12,18.12,0,0,0-3.61,1.16l-5,2L351,174.8c.12.32.27.77.46,1.36.61,1.9,1.35,3,2.22,3.38l.28.1.17.05-.65,1.62q-1.67-.8-2.64-1.23c-.65-.29-1.19-.52-1.64-.7s-.76-.3-1.32-.5-1.46-.52-2.67-.93l.09-.11a.9.9,0,0,0,.1-.2q.38-.93-1.67-6.8-1.07-3-1.68-4.85l6.38-2.77a18.82,18.82,0,0,0,2.29-1.1,1.74,1.74,0,0,0,.7-.68.68.68,0,0,0-.12-.74,2.62,2.62,0,0,0-1-.65Z" transform="translate(-70.89 -143.55)"/><path class="b" d="M363.3,164.07c1.07.69,2,1.29,2.83,1.78s1.53.92,2.17,1.26c.48.26,1.1.57,1.88.94s1.8.85,3.07,1.43l-.82,1.52-.33-.18a3.37,3.37,0,0,0-1.35-.49,1.24,1.24,0,0,0-.9.37,8,8,0,0,0-1.13,1.57q-.75,1.23-2.26,4l-.82,1.51c-.25.46-.57,1-1,1.75l-.81,1.47a21.1,21.1,0,0,0-.94,1.9,3,3,0,0,0-.25,1.05,1.15,1.15,0,0,0,.36.8,5.39,5.39,0,0,0,1.25.87l.34.18-.83,1.53c-1-.64-1.91-1.22-2.79-1.76s-1.67-1-2.35-1.36q-.78-.42-2-1c-.82-.39-1.89-.89-3.21-1.49l.84-1.53.41.22a5.41,5.41,0,0,0,1.41.6,1,1,0,0,0,.82-.14c.47-.33,1.53-2,3.16-4.92.2-.38.36-.66.47-.86l.82-1.51c.22-.4.51-.94.88-1.6s.63-1.11.77-1.37a19.45,19.45,0,0,0,1-2.08,3.29,3.29,0,0,0,.27-1.13,1.2,1.2,0,0,0-.32-.8,4.09,4.09,0,0,0-1.06-.76l-.45-.24Z" transform="translate(-70.89 -143.55)"/><path class="b" d="M225.69,189c1.26-.22,2.36-.43,3.29-.62s1.75-.37,2.45-.55c.52-.13,1.19-.33,2-.58l3.23-1,.43,1.68-.36.09a3.31,3.31,0,0,0-1.33.56,1.24,1.24,0,0,0-.41.88,8.19,8.19,0,0,0,.24,1.91c.19.94.55,2.44,1.07,4.49l.43,1.66q.19.75.48,2c.19.79.32,1.33.4,1.63a18.18,18.18,0,0,0,.6,2,3,3,0,0,0,.54.95,1.17,1.17,0,0,0,.8.34,5.3,5.3,0,0,0,1.51-.22l.37-.09.43,1.69q-1.73.28-3.24.6c-1,.21-1.89.41-2.65.6-.57.15-1.29.35-2.16.62s-2,.63-3.37,1.09L230,207l.45-.12a5.54,5.54,0,0,0,1.45-.52,1,1,0,0,0,.5-.66q.18-.85-1-5.76c-.1-.41-.18-.73-.24-.95l-.42-1.66c-.12-.45-.26-1-.44-1.77l-.37-1.53a20.88,20.88,0,0,0-.66-2.22,3.43,3.43,0,0,0-.58-1,1.19,1.19,0,0,0-.77-.36,4,4,0,0,0-1.3.16l-.49.13Z" transform="translate(-70.89 -143.55)"/><path class="b" d="M246.44,202.88h.28l.45-.06a2,2,0,0,0,1.58-.77,3.39,3.39,0,0,0,.2-2.13l-.57-4.53-.86-6.81a3.34,3.34,0,0,0-.75-2,2.28,2.28,0,0,0-1.84-.33l-.46.06-.22-1.72c1.5-.07,2.54-.13,3.13-.17s1.06-.07,1.4-.12c.84-.1,2-.32,3.5-.64s2.56-.54,3.21-.62a10.63,10.63,0,0,1,6.47.83,5.19,5.19,0,0,1,2.81,4.17,5.67,5.67,0,0,1-1.74,5.1,11,11,0,0,1-6.34,2.56l-1.2.11-1.35.07.3,2.44a5.87,5.87,0,0,0,.82,2.88,2,2,0,0,0,1.82.41l.26,0a2.11,2.11,0,0,1,.28-.05l.21,1.66c-1.5.11-2.69.2-3.54.28s-1.6.15-2.22.23c-.47.06-1.16.17-2.06.33s-2,.37-3.35.64Zm7.38-9.38.89-.05.72-.07a4.5,4.5,0,0,0,3-1.43,3.76,3.76,0,0,0,.75-3,3.33,3.33,0,0,0-1.37-2.46,4,4,0,0,0-2.95-.59,8.19,8.19,0,0,0-1,.16c-.33.07-.66.15-1,.25.1,1,.21,1.95.34,3s.3,2.44.54,4.25" transform="translate(-70.89 -143.55)"/><path class="b" d="M269.23,200.11l.27,0,.46,0a2.08,2.08,0,0,0,1.68-.54,3.44,3.44,0,0,0,.49-2.09l.08-4.56.11-6.87a3.43,3.43,0,0,0-.45-2.12,2.27,2.27,0,0,0-1.78-.59h-.46l0-1.73c1.48.14,2.52.24,3.11.28s1.06.08,1.41.08c.84,0,2,0,3.55-.15s2.62-.16,3.27-.15a10.71,10.71,0,0,1,6.29,1.73,5.24,5.24,0,0,1,2.19,4.53,5.66,5.66,0,0,1-2.44,4.8,11,11,0,0,1-6.64,1.64l-1.21-.06c-.42,0-.87-.07-1.34-.13l-.05,2.47a6,6,0,0,0,.4,3,2,2,0,0,0,1.75.67h.55l0,1.68c-1.51-.11-2.69-.18-3.55-.23s-1.6-.07-2.22-.08-1.18,0-2.09,0l-3.41.16Zm8.63-8.25c.33,0,.63.06.89.08l.72,0a4.49,4.49,0,0,0,3.19-1,3.82,3.82,0,0,0,1.17-2.91,3.34,3.34,0,0,0-1-2.62,4.06,4.06,0,0,0-2.84-1c-.31,0-.63,0-1,0s-.66.06-1,.12c0,1-.07,2-.09,3s0,2.46-.06,4.28" transform="translate(-70.89 -143.55)"/><path class="b" d="M294.54,182.43c1.26.24,2.35.44,3.29.59s1.77.28,2.49.37c.53.06,1.23.12,2.09.17l3.38.18-.2,1.72-.36-.05a3.55,3.55,0,0,0-1.45.05,1.25,1.25,0,0,0-.69.67,8.44,8.44,0,0,0-.46,1.88c-.16,1-.36,2.47-.61,4.57l-.19,1.71c-.06.51-.15,1.17-.25,2s-.17,1.37-.21,1.67a19.57,19.57,0,0,0-.16,2.11,3,3,0,0,0,.16,1.07,1.14,1.14,0,0,0,.63.61,5.11,5.11,0,0,0,1.48.33l.38.05-.2,1.73c-1.14-.23-2.22-.43-3.24-.59s-1.91-.3-2.69-.39c-.58-.07-1.33-.13-2.24-.2s-2.08-.12-3.53-.19l.2-1.73.46.06a5.78,5.78,0,0,0,1.54,0,1.07,1.07,0,0,0,.71-.44c.31-.49.68-2.4,1.1-5.75,0-.42.08-.74.11-1l.2-1.7c.05-.46.13-1.06.22-1.81s.17-1.27.2-1.56a22.33,22.33,0,0,0,.18-2.31,3.42,3.42,0,0,0-.17-1.16,1.27,1.27,0,0,0-.59-.62,4.25,4.25,0,0,0-1.27-.31l-.51-.06Z" transform="translate(-70.89 -143.55)"/><path class="b" d="M310.71,184.18c1.23.41,2.17.72,2.82.92s1.19.35,1.64.46,1.26.29,2,.42,1.56.26,2.43.38a5.05,5.05,0,0,0,.25,1.28,22.32,22.32,0,0,0,1,2.21l5.73,11.43.63-2.5c.2-.79.38-1.53.55-2.23.09-.35.21-.82.35-1.39s.25-1,.31-1.17a6.08,6.08,0,0,0,.26-3,1.89,1.89,0,0,0-1.49-1.06l-.35-.08-.25,0,.41-1.68c.64.26,1.3.49,1.95.7s1.36.4,2.12.59,1.43.32,2.12.44,1.38.22,2.09.29l-.41,1.68a4.89,4.89,0,0,0-1.73-.21,1.27,1.27,0,0,0-.81.58,8.8,8.8,0,0,0-.62,1.64c-.25.83-.7,2.51-1.34,5.06l-.47,1.82c-.36,1.4-.7,2.72-1,3.95l-.78,3.11c0,.14-.07.34-.11.6s-.09.55-.13.88l-4.6-1.12a5.76,5.76,0,0,0-.29-.94c-.14-.35-.38-.86-.73-1.54l-7.06-13.91c-.21.79-.42,1.58-.62,2.36s-.43,1.73-.71,2.84l-.63,2.61a8,8,0,0,0-.39,3.42,1.81,1.81,0,0,0,1.48,1.12l.61.11h.13l-.41,1.7c-1-.34-1.83-.62-2.57-.85s-1.37-.41-1.87-.53-1-.23-1.77-.36-1.6-.27-2.61-.42l.41-1.69.33.09.28.08a3,3,0,0,0,1.34.1,1.52,1.52,0,0,0,.86-.61,26.62,26.62,0,0,0,1.66-5.12c.16-.57.28-1,.36-1.31l.47-1.68c.12-.45.26-1,.41-1.57s.38-1.55.71-2.89a3.42,3.42,0,0,0,0-2.21,2.44,2.44,0,0,0-1.68-1l-.42-.1-.29,0Z" transform="translate(-70.89 -143.55)"/></svg>