<svg id="レイヤー_1" data-name="レイヤー 1" xmlns="http://www.w3.org/2000/svg" viewBox="0 0 375.17 73.67"><defs><style>.cls-1{fill:#fff;}.cls-2{fill:none;stroke:#fff;stroke-miterlimit:10;}</style></defs><path class="cls-1" d="M481.24,282.94a5,5,0,0,1-2.16-1.87,5.13,5.13,0,0,1-.76-2.8v-.72a.34.34,0,0,1,.33-.34h2.51a.37.37,0,0,1,.24.1.36.36,0,0,1,.09.24v.55a2.53,2.53,0,0,0,.84,2,3.26,3.26,0,0,0,2.26.75,2.79,2.79,0,0,0,2-.67,2.31,2.31,0,0,0,.7-1.76,2.14,2.14,0,0,0-.39-1.29,4,4,0,0,0-1.1-1c-.48-.31-1.21-.72-2.19-1.24q-1.69-.9-2.73-1.59a6.19,6.19,0,0,1-1.74-1.79A5.28,5.28,0,0,1,480,265a6.21,6.21,0,0,1,4.22-1.39,7.15,7.15,0,0,1,3.21.68,5,5,0,0,1,2.14,1.94,5.45,5.45,0,0,1,.75,2.86v.59a.33.33,0,0,1-.1.24.32.32,0,0,1-.23.09h-2.51a.31.31,0,0,1-.33-.33v-.53a2.63,2.63,0,0,0-.81-2,3,3,0,0,0-2.17-.78,2.74,2.74,0,0,0-1.9.63,2.24,2.24,0,0,0-.7,1.74,2.22,2.22,0,0,0,.37,1.28,3.74,3.74,0,0,0,1.1,1,24.23,24.23,0,0,0,2.24,1.23c1.34.76,2.32,1.36,2.95,1.78a5.8,5.8,0,0,1,1.61,1.66,4.57,4.57,0,0,1,.65,2.49,5,5,0,0,1-1.64,3.91,6.47,6.47,0,0,1-4.41,1.44A7.48,7.48,0,0,1,481.24,282.94Z" transform="translate(-233.48 -256.35)"/><path class="cls-1" d="M504.34,283.09l-.73-3a.13.13,0,0,0-.14-.11h-5.73a.13.13,0,0,0-.14.11l-.7,3a.37.37,0,0,1-.39.28h-2.65c-.24,0-.33-.12-.28-.36l5.07-18.86a.37.37,0,0,1,.39-.28h3.18a.37.37,0,0,1,.39.28L507.68,283l0,.11c0,.17-.1.25-.31.25h-2.67A.36.36,0,0,1,504.34,283.09Zm-6-5.67a.19.19,0,0,0,.11,0h4.41a.19.19,0,0,0,.11,0,.12.12,0,0,0,0-.12l-2.29-9.14c0-.06-.05-.08-.08-.08s-.07,0-.09.08l-2.23,9.14C498.25,277.35,498.25,277.4,498.29,277.42Z" transform="translate(-233.48 -256.35)"/><path class="cls-1" d="M511.59,283.27a.32.32,0,0,1-.09-.23V264.2a.32.32,0,0,1,.09-.23.33.33,0,0,1,.24-.1h2.56a.3.3,0,0,1,.24.1.29.29,0,0,1,.1.23V283a.29.29,0,0,1-.1.23.3.3,0,0,1-.24.1h-2.56A.33.33,0,0,1,511.59,283.27Z" transform="translate(-233.48 -256.35)"/><path class="cls-1" d="M519.76,283.27a.29.29,0,0,1-.1-.23V264.2a.34.34,0,0,1,.33-.33h2.57a.34.34,0,0,1,.33.33v8a.11.11,0,0,0,.06.11s.07,0,.11-.06l5.71-8.19a.43.43,0,0,1,.39-.22H532a.29.29,0,0,1,.27.12.31.31,0,0,1,0,.3l-5.27,7.83a.31.31,0,0,0,0,.19L532.59,283a.58.58,0,0,1,0,.17c0,.15-.09.22-.28.22h-2.84a.46.46,0,0,1-.42-.25l-4.4-8.3c0-.06,0-.09-.08-.09a.14.14,0,0,0-.11.06L523,276.94a.4.4,0,0,0-.06.16V283a.34.34,0,0,1-.33.33H520A.29.29,0,0,1,519.76,283.27Z" transform="translate(-233.48 -256.35)"/><path class="cls-1" d="M536.45,283.27a.29.29,0,0,1-.1-.23V264.2a.34.34,0,0,1,.33-.33h2.57a.34.34,0,0,1,.33.33V283a.34.34,0,0,1-.33.33h-2.57A.29.29,0,0,1,536.45,283.27Z" transform="translate(-233.48 -256.35)"/><path class="cls-1" d="M554,282.85a5.26,5.26,0,0,1-2.16-2.07,6.1,6.1,0,0,1-.76-3.09V269.5a6,6,0,0,1,.76-3.08,5.21,5.21,0,0,1,2.16-2.05,7.54,7.54,0,0,1,6.41,0,5.16,5.16,0,0,1,2.16,2,5.85,5.85,0,0,1,.76,3v.16a.37.37,0,0,1-.09.25.3.3,0,0,1-.24.11l-2.59.12a.31.31,0,0,1-.34-.34v-.33a2.88,2.88,0,0,0-.79-2.12,2.77,2.77,0,0,0-2.07-.81,2.82,2.82,0,0,0-2.11.81,2.88,2.88,0,0,0-.79,2.12v8.55a2.73,2.73,0,0,0,2.9,2.9,2.8,2.8,0,0,0,2.07-.8,2.84,2.84,0,0,0,.79-2.1v-.36c0-.21.12-.31.34-.31l2.59.11a.37.37,0,0,1,.24.1.34.34,0,0,1,.09.24v.11a6,6,0,0,1-.76,3.05,5.1,5.1,0,0,1-2.16,2,6.88,6.88,0,0,1-3.2.71A6.67,6.67,0,0,1,554,282.85Z" transform="translate(-233.48 -256.35)"/><path class="cls-1" d="M567.81,283.27a.32.32,0,0,1-.09-.23V264.2a.32.32,0,0,1,.09-.23.33.33,0,0,1,.24-.1h2.56a.3.3,0,0,1,.24.1.29.29,0,0,1,.1.23V283a.29.29,0,0,1-.1.23.3.3,0,0,1-.24.1h-2.56A.33.33,0,0,1,567.81,283.27Z" transform="translate(-233.48 -256.35)"/><path class="cls-1" d="M587.51,264a.29.29,0,0,1,.1.23v2.15a.33.33,0,0,1-.1.24.34.34,0,0,1-.24.09H583a.12.12,0,0,0-.14.14V283a.34.34,0,0,1-.34.33h-2.56a.34.34,0,0,1-.34-.33V266.82a.12.12,0,0,0-.14-.14h-4.15a.32.32,0,0,1-.23-.09.33.33,0,0,1-.1-.24V264.2a.34.34,0,0,1,.33-.33h12A.31.31,0,0,1,587.51,264Z" transform="translate(-233.48 -256.35)"/><path class="cls-1" d="M595.7,283.25a.37.37,0,0,1-.1-.24v-7.52l0-.17-4.82-11.06a.37.37,0,0,1,0-.17c0-.15.09-.22.28-.22h2.73a.37.37,0,0,1,.39.25l3,7.52c.05.13.11.13.16,0l3-7.52a.37.37,0,0,1,.39-.25h2.76a.26.26,0,0,1,.25.11.34.34,0,0,1,0,.28l-4.85,11.06,0,.17V283a.37.37,0,0,1-.1.24.34.34,0,0,1-.24.09h-2.53A.34.34,0,0,1,595.7,283.25Z" transform="translate(-233.48 -256.35)"/><path class="cls-1" d="M604.91,285.54l.83-6.24c0-.2.14-.3.37-.3h2.22c.26,0,.37.12.31.36l-1.5,6.27a.38.38,0,0,1-.39.28h-1.54C605,285.91,604.89,285.78,604.91,285.54Z" transform="translate(-233.48 -256.35)"/><path class="cls-1" d="M481.56,307.94a5.24,5.24,0,0,1-2.17-2.13,6.46,6.46,0,0,1-.77-3.19v-7.85a6.44,6.44,0,0,1,.77-3.17,5.24,5.24,0,0,1,2.17-2.13,7.46,7.46,0,0,1,6.52,0,5.35,5.35,0,0,1,2.19,2.13,6.34,6.34,0,0,1,.78,3.17v7.85a6.36,6.36,0,0,1-.78,3.19,5.35,5.35,0,0,1-2.19,2.13,7.46,7.46,0,0,1-6.52,0ZM487,305a3.21,3.21,0,0,0,.82-2.27v-8.08a3.27,3.27,0,0,0-.82-2.3,2.88,2.88,0,0,0-2.19-.87,2.8,2.8,0,0,0-2.15.87,3.26,3.26,0,0,0-.8,2.3v8.08a3.2,3.2,0,0,0,.8,2.27,2.78,2.78,0,0,0,2.15.88A2.85,2.85,0,0,0,487,305Z" transform="translate(-233.48 -256.35)"/><path class="cls-1" d="M495.69,308.35a.33.33,0,0,1-.1-.24V289.28a.3.3,0,0,1,.1-.24.33.33,0,0,1,.23-.1h2.57a.33.33,0,0,1,.23.1.3.3,0,0,1,.1.24v18.83a.33.33,0,0,1-.1.24.32.32,0,0,1-.23.09h-2.57A.32.32,0,0,1,495.69,308.35Z" transform="translate(-233.48 -256.35)"/><path class="cls-1" d="M515.38,289a.3.3,0,0,1,.1.24v2.14a.31.31,0,0,1-.1.24.33.33,0,0,1-.23.1h-4.32a.12.12,0,0,0-.14.14v16.21a.33.33,0,0,1-.1.24.32.32,0,0,1-.23.09h-2.57a.32.32,0,0,1-.23-.09.33.33,0,0,1-.1-.24V291.9a.12.12,0,0,0-.14-.14h-4.15a.34.34,0,0,1-.34-.34v-2.14a.33.33,0,0,1,.1-.24.35.35,0,0,1,.24-.1h12A.33.33,0,0,1,515.38,289Z" transform="translate(-233.48 -256.35)"/><path class="cls-1" d="M527.6,308.17l-.72-3a.14.14,0,0,0-.14-.11H521a.13.13,0,0,0-.14.11l-.7,3a.36.36,0,0,1-.39.27h-2.65q-.36,0-.27-.36l5.07-18.86a.37.37,0,0,1,.39-.28h3.17a.37.37,0,0,1,.39.28l5.07,18.86,0,.11c0,.17-.1.25-.3.25H528A.37.37,0,0,1,527.6,308.17Zm-6.05-5.67a.28.28,0,0,0,.12,0h4.4a.25.25,0,0,0,.11,0,.1.1,0,0,0,0-.13l-2.29-9.14c0-.05,0-.08-.08-.08s-.07,0-.08.08l-2.23,9.14A.12.12,0,0,0,521.55,302.5Z" transform="translate(-233.48 -256.35)"/><path class="cls-1" d="M551.24,289.64a4.88,4.88,0,0,1,1.92,2.05,6.43,6.43,0,0,1,.68,3,6.12,6.12,0,0,1-.68,3,4.85,4.85,0,0,1-1.92,2,5.53,5.53,0,0,1-2.83.71H545a.13.13,0,0,0-.14.14v7.61a.31.31,0,0,1-.33.33H542a.34.34,0,0,1-.24-.09.37.37,0,0,1-.1-.24V289.25a.37.37,0,0,1,.1-.24.35.35,0,0,1,.24-.1h6.43A5.61,5.61,0,0,1,551.24,289.64ZM549.87,297a3.1,3.1,0,0,0,.74-2.18,3.2,3.2,0,0,0-.74-2.23,2.47,2.47,0,0,0-2-.84H545a.13.13,0,0,0-.14.14v5.79a.12.12,0,0,0,.14.14h2.93A2.49,2.49,0,0,0,549.87,297Z" transform="translate(-233.48 -256.35)"/><path class="cls-1" d="M566.69,308.17l-3-8c0-.07-.09-.11-.14-.11h-2.4a.12.12,0,0,0-.14.14v7.91a.31.31,0,0,1-.33.33h-2.56a.32.32,0,0,1-.34-.33V289.28a.3.3,0,0,1,.1-.24.33.33,0,0,1,.24-.1h6.43a5.51,5.51,0,0,1,2.81.71,4.85,4.85,0,0,1,1.9,2,6.31,6.31,0,0,1,.67,3,5.78,5.78,0,0,1-.84,3.14,4.51,4.51,0,0,1-2.28,1.9.13.13,0,0,0-.09.19l3.29,8.19a.4.4,0,0,1,0,.17c0,.15-.09.22-.28.22h-2.67A.36.36,0,0,1,566.69,308.17ZM561,291.87v5.54a.13.13,0,0,0,.14.14h2.93a2.43,2.43,0,0,0,1.89-.79,3,3,0,0,0,.73-2.11,3.06,3.06,0,0,0-.73-2.13,2.43,2.43,0,0,0-1.89-.79h-2.93A.12.12,0,0,0,561,291.87Z" transform="translate(-233.48 -256.35)"/><path class="cls-1" d="M585.48,291.63a.33.33,0,0,1-.24.1H577.5c-.1,0-.14,0-.14.14v5.23c0,.1,0,.14.14.14h5a.35.35,0,0,1,.24.1.33.33,0,0,1,.1.24v2.12a.29.29,0,0,1-.1.23.31.31,0,0,1-.24.1h-5a.12.12,0,0,0-.14.14v5.35a.12.12,0,0,0,.14.14h7.74a.31.31,0,0,1,.33.33v2.12a.31.31,0,0,1-.33.33H574.46a.36.36,0,0,1-.24-.09.37.37,0,0,1-.1-.24V289.28a.33.33,0,0,1,.1-.24.37.37,0,0,1,.24-.1h10.78a.37.37,0,0,1,.24.1.32.32,0,0,1,.09.24v2.11A.32.32,0,0,1,585.48,291.63Z" transform="translate(-233.48 -256.35)"/><path class="cls-1" d="M601.13,291.63a.29.29,0,0,1-.23.1h-7.72a.12.12,0,0,0-.14.14v5.23a.12.12,0,0,0,.14.14h5a.37.37,0,0,1,.24.1.36.36,0,0,1,.09.24v2.12a.32.32,0,0,1-.09.23.33.33,0,0,1-.24.1h-5a.13.13,0,0,0-.14.14v7.94a.33.33,0,0,1-.1.24.32.32,0,0,1-.23.09h-2.57a.32.32,0,0,1-.23-.09.33.33,0,0,1-.1-.24V289.28a.3.3,0,0,1,.1-.24.33.33,0,0,1,.23-.1H600.9a.33.33,0,0,1,.23.1.3.3,0,0,1,.1.24v2.11A.3.3,0,0,1,601.13,291.63Z" transform="translate(-233.48 -256.35)"/><path class="cls-1" d="M478.45,324.6c0-.1-.11-.21-.19-.36s-.19-.28-.29-.41a2.09,2.09,0,0,0-.25-.29,8,8,0,0,0,1.94-1,7.85,7.85,0,0,0,1.58-1.4,7.37,7.37,0,0,0,1.1-1.7,6.19,6.19,0,0,0,.54-1.86H478v-1.12h4.87v-3.26h1.21v3.26H489v1.12h-4.86a5.68,5.68,0,0,0,.56,1.83,7.4,7.4,0,0,0,1.12,1.69,8.52,8.52,0,0,0,1.58,1.41,8,8,0,0,0,1.9,1,2.67,2.67,0,0,0-.26.32l-.3.41a3.6,3.6,0,0,0-.2.35,11.89,11.89,0,0,1-2.08-1.28,9.36,9.36,0,0,1-1.77-1.73,8,8,0,0,1-1.19-2.13,7.2,7.2,0,0,1-1.19,2.15,9.42,9.42,0,0,1-1.78,1.73A11.5,11.5,0,0,1,478.45,324.6Z" transform="translate(-233.48 -256.35)"/><path class="cls-1" d="M491.42,319.38a1.67,1.67,0,0,0-.21-.29l-.31-.35a2.44,2.44,0,0,0-.3-.28,7.65,7.65,0,0,0,1.47-1,10.69,10.69,0,0,0,1.35-1.42,6.71,6.71,0,0,0,.95-1.57l1.1.53a8.14,8.14,0,0,1-1.06,1.72,12,12,0,0,1-1.43,1.51A13.21,13.21,0,0,1,491.42,319.38Zm.81,5.14a2.74,2.74,0,0,0-.15-.3c-.07-.13-.15-.25-.23-.38a1.31,1.31,0,0,0-.24-.3,5.21,5.21,0,0,0,2.64-1.66,4.86,4.86,0,0,0,1-2.66h-2.07v-1.13h6.9q0,.57,0,1.26c0,.45,0,.91-.1,1.36s-.1.87-.16,1.27a8,8,0,0,1-.21,1,1.85,1.85,0,0,1-.73,1.13,2.51,2.51,0,0,1-1.36.31h-1a4.29,4.29,0,0,0-.09-.61,4.07,4.07,0,0,0-.17-.57h1.14a1.45,1.45,0,0,0,.75-.15,1.08,1.08,0,0,0,.38-.62,5.56,5.56,0,0,0,.2-1c.06-.39.1-.8.14-1.22s0-.77,0-1.06h-2.45a6.49,6.49,0,0,1-.57,2.23,5.53,5.53,0,0,1-1.38,1.83A6.5,6.5,0,0,1,492.23,324.52Zm9.73-5.29a12.3,12.3,0,0,1-1.77-1.17,7.93,7.93,0,0,1-1.46-1.55,5.6,5.6,0,0,1-.89-1.88H495.6v-1.09h3.18a4.87,4.87,0,0,0,.72,1.9,6.82,6.82,0,0,0,1.41,1.54,9.44,9.44,0,0,0,1.89,1.18,1.79,1.79,0,0,0-.3.31l-.32.41A3.57,3.57,0,0,0,502,319.23Z" transform="translate(-233.48 -256.35)"/><path class="cls-1" d="M505.49,324.28a1.7,1.7,0,0,0-.22-.28c-.1-.12-.21-.24-.32-.35a2.74,2.74,0,0,0-.26-.25,7,7,0,0,0,1-.59c.36-.25.71-.51,1-.78a5.55,5.55,0,0,0,.77-.76l.87.69a7,7,0,0,1-.82.82c-.33.3-.68.58-1,.85A7.87,7.87,0,0,1,505.49,324.28Zm3.84.34v-3.57h-4.48v-7.12H506v6.15h9.52v1h-5v3.57Zm-2-5.29V313.4h6.53v5.93Zm1.14-4.19h4.24v-.9h-4.24Zm0,1.66h4.24v-.91h-4.24Zm0,1.68h4.24v-.93h-4.24Zm5.84,5.8a8.47,8.47,0,0,1-1-.65,12.56,12.56,0,0,1-1-.85,9,9,0,0,1-.82-.82l.86-.69a8.2,8.2,0,0,0,.78.76c.33.27.67.53,1,.78a8.17,8.17,0,0,0,1,.59,2.63,2.63,0,0,0-.27.25l-.32.35Z" transform="translate(-233.48 -256.35)"/><path class="cls-1" d="M518.86,324.52v-6.41c-.16.26-.33.51-.51.76s-.35.46-.52.66a2.92,2.92,0,0,0-.45-.33,4.44,4.44,0,0,0-.48-.28,8.89,8.89,0,0,0,.93-1.24,17.69,17.69,0,0,0,.86-1.55q.4-.83.69-1.59a8.25,8.25,0,0,0,.4-1.33l1.14.25a12.07,12.07,0,0,1-.42,1.29q-.25.66-.54,1.29v5.87a7.63,7.63,0,0,0,1.9-2.24,11.49,11.49,0,0,0,1.12-2.94H520.7v-1.09h2.48c.06-.36.1-.74.13-1.13s.05-.78.05-1.18h1.17c0,.41,0,.8-.06,1.18s-.07.76-.12,1.12h4.31v1.09h-4.51c-.09.36-.18.7-.28,1a9.4,9.4,0,0,1-.34,1h4.58v1.09h-2.46V323h3v1.06h-7.25V323h3.15v-3.16H523a9.64,9.64,0,0,1-2.22,2.85,1.51,1.51,0,0,0-.23-.26l-.33-.3a2.86,2.86,0,0,0-.29-.21v2.6Z" transform="translate(-233.48 -256.35)"/><path class="cls-1" d="M532.18,324.5v-6.41a10.59,10.59,0,0,1-1.11,1.55,4,4,0,0,0-.42-.34,4,4,0,0,0-.47-.28,10.94,10.94,0,0,0,.91-1.23c.32-.48.62-1,.92-1.56s.54-1.1.76-1.63a10,10,0,0,0,.47-1.4l1.09.29c-.11.38-.26.8-.44,1.25s-.39.89-.6,1.34v8.42Zm2.6-.41v-8.76h2.05c.08-.2.16-.43.24-.68s.16-.51.23-.75l.15-.61,1.29.12c-.06.26-.15.58-.27.94s-.24.7-.36,1h3v8.76Zm1.21-5h3.92v-2.72H536Zm0,3.93h3.92v-2.86H536Z" transform="translate(-233.48 -256.35)"/><path class="cls-1" d="M548.74,324.58v-6.13h-2.49v5h-1.18v-6.12h3.67V316h-5.07v-1.08h5.07V313.2h1.18v1.72H555V316h-5.1v1.35h3.79v4.84a1.11,1.11,0,0,1-.35.91,1.56,1.56,0,0,1-1,.29h-1.1a4.49,4.49,0,0,0-.1-.61,2.88,2.88,0,0,0-.16-.55H552a.62.62,0,0,0,.38-.1.45.45,0,0,0,.11-.34v-3.34h-2.61v6.13Z" transform="translate(-233.48 -256.35)"/><line class="cls-2" x1="150.98" y1="0.35" x2="223.94" y2="73.32"/><line class="cls-2" x1="223.94" y1="0.35" x2="150.98" y2="73.32"/><path class="cls-1" d="M315.3,301.72v-.15h0v.15Z" transform="translate(-233.48 -256.35)"/><path class="cls-1" d="M258.58,296a.84.84,0,0,0-1,0,.68.68,0,0,1-.32.07l-1.83,0-1.76,0v-1.75c.9,0,2.7,0,3.13,0h1.14a1.09,1.09,0,0,0,.39-.11c.26-.12.3-.37.3-.64,0-2.36,0-4.73,0-7.09a.87.87,0,0,0,0-.36.7.7,0,0,0-.15-.23,2.07,2.07,0,0,0-.4-.09h-4.44v-1.09h3.66a3.06,3.06,0,0,0,.4-.07,1.88,1.88,0,0,0,1.09-2,.91.91,0,0,0-.88-.86,1.15,1.15,0,0,0-.63.2h-3.64v-2.33c.32-.06.73-.11.82-.14a3.32,3.32,0,0,0,.6-.29c.77-.5,1.55-1,2.28-1.53a1.75,1.75,0,0,1,1.31-.44,1.13,1.13,0,0,0,.79-.23.65.65,0,0,0,.07-1.08l-2-1.72-2-1.69c-.27-.22-.53-.24-.73,0a1.15,1.15,0,0,0-.34,1.18l.28.78a11.29,11.29,0,0,1-3.09,2.15,11.11,11.11,0,0,1-3.55,1.19,12.29,12.29,0,0,1-3.68.09,1.44,1.44,0,0,0,.46,1.71,3.45,3.45,0,0,0,2,.73l.77.09,1.53,0h.78v1.58l-3.17,0a1.69,1.69,0,0,1-1.21-.27.52.52,0,0,0-.28-.09c-.33-.06-.44,0-.63.36l0,.11,0,.43,0,.1a2.79,2.79,0,0,0,.67,1.56,1.12,1.12,0,0,0,.83.35c.51.06,1.83.08,2,.08h1.83v1.09h-4a2.07,2.07,0,0,0-.4.09h0a.77.77,0,0,0-.38.73c0,.23,0,.46,0,.69h0v6.1a.81.81,0,0,0,.39.83,3.5,3.5,0,0,0,.45.07h4v1.71L246,296l-.09,0a2.8,2.8,0,0,0-.32-.2.6.6,0,0,0-.72.07,1.18,1.18,0,0,0-.44.84,2.87,2.87,0,0,0,.7,1.93,2.41,2.41,0,0,0,.44.08h4.35V301a5.36,5.36,0,0,1-1.13.14,12.64,12.64,0,0,1-2.68,0c-.53-.06-.91,0-1.12.68a3.1,3.1,0,0,0-.1.53c0,.34-.05.69,0,1s0,1,0,1.48a.5.5,0,0,0,.33.52l1.18.08a6.62,6.62,0,0,1,.77,0h0l.5,0h.59l1-.13.07,0,.13,0,.22-.05.19,0h0l.18,0,1.17-.24.26-.1.43-.07.08,0,.25-.09,2.22-.81a7.43,7.43,0,0,0,3.22-2.22,2.62,2.62,0,0,0,.26-.5l0-.1a4.68,4.68,0,0,0,0-.75c-.05-.3-.13-.31-.41-.34s-.58.2-.88.26c-.67.15-1.36.27-2,.4a9.34,9.34,0,0,1-1,.12v-2h4.17a2,2,0,0,0,.41-.08h0s.12,0,.14-.08a3.22,3.22,0,0,0,.6-1.38A1.13,1.13,0,0,0,258.58,296Zm-4.94-7.57h2.68v1h-2.68Zm0,2.36h2.68V292h-2.68ZM249.89,292h-2.57v-1.14h2.57Zm0-2.51h-2.57v-1h2.57Z" transform="translate(-233.48 -256.35)"/><path class="cls-1" d="M278,290.12c0,.05-1,.56-1.09.62a1.22,1.22,0,0,0-.15.17.68.68,0,0,0,.27,1.07,3.19,3.19,0,0,0,1.39.27,19,19,0,0,0,2.38-.11,7.41,7.41,0,0,0,1.49-.43,1,1,0,0,0,.59-.6c.14-.35.07-.72-.24-.83s-1.14-.42-1.07-.76h4.72a2.05,2.05,0,0,0,.34-.07,1.73,1.73,0,0,0,.91-1.12l0-.09a3.93,3.93,0,0,0,.06-.48.66.66,0,0,0-.45-.7h-.66a.64.64,0,0,0-.25.11,1.24,1.24,0,0,1-.93.27c-.89,0-1.77,0-2.66,0h-1.13v-.62c.13,0,1,0,1.1,0l3.55,0a3.15,3.15,0,0,0,.52-.09.49.49,0,0,0,.38-.55c0-.37,0-.73,0-1.1,0-1.64,0-3.29.07-4.93,0-.23-.3-.56-.85-.55h-1.81c-.6,0-1.2,0-1.79,0-.15,0-1,0-1.17,0,0-.14,0-.39,0-.54h5.18a3,3,0,0,0,.52-.1,1.5,1.5,0,0,0,.68-1.26c0-.61-.08-.86-.58-1.12a.62.62,0,0,0-.68,0l-.62.4-3.18,0c-.14,0-1,0-1.15-.08.48-.27,1.63-.62,1.86-1.14.15-.31.18-.48,0-.7l-.11-.08h-4.12l-1.71,0c-.4,0-.8,0-1.19,0s-.39.13-.39.39a.83.83,0,0,0,.06.35,1.47,1.47,0,0,0,.58.84c.36.32,1.3.33,1.39.42h-4.52a5.56,5.56,0,0,0-.44-.39,1,1,0,0,0-1.33.29c-.39.68-.08,1.94.72,2.11a.75.75,0,0,0,.64.08l1.16,0h3.77v.54h-5.07a2.44,2.44,0,0,0-.47.09c-.25.09-.27.29-.27.52V286a.77.77,0,0,0,.26.65,4,4,0,0,0,.48.08h5.08v.64h-1.41l-3,0a1.5,1.5,0,0,1-.91-.22.85.85,0,0,0-1.31.58,1.63,1.63,0,0,0,.65,1.64,3.23,3.23,0,0,0,.53.08c1.45,0,3.84,0,5.29,0Zm3.56-8.73h2.56v.91h-2.57Zm0,2.56c.24,0,2.19,0,2.57,0v1h-2.57ZM278.13,285l-2.67,0v-1c.15,0,2.24,0,2.67,0Zm0-2.72s-2,0-2.67,0v-.82h2.67Z" transform="translate(-233.48 -256.35)"/><path class="cls-1" d="M267.82,282.58a2.08,2.08,0,0,0-.6.29,2.18,2.18,0,0,0-.34.26h-1.69l-1.3.06c-.82,0-1.64,0-2.46,0a.86.86,0,0,1-.85-.34.73.73,0,0,0-.35-.25.59.59,0,0,0-.71.12,1.61,1.61,0,0,0-.37.88,9,9,0,0,0,0,1,1.33,1.33,0,0,0,.75,1.29,2.79,2.79,0,0,0,.4.07,4.42,4.42,0,0,0,1.19-.37v15.58h-.05a.45.45,0,0,1-.16,0,3.46,3.46,0,0,0-1.64-.31,1.14,1.14,0,0,0-1.13.72.42.42,0,0,0,.17.61l1.56,1a1,1,0,0,1,.43.53,2.77,2.77,0,0,0,2.68,2.15,3.9,3.9,0,0,0,2.71-1.16c.55-.63.34-2.22.34-2.22V285.7a7.21,7.21,0,0,0,1.23.24c.42.05.61-.26.78-.57a1.68,1.68,0,0,0,.17-.55,3.78,3.78,0,0,0,0-1.64C268.47,282.78,268.21,282.51,267.82,282.58Z" transform="translate(-233.48 -256.35)"/><path class="cls-1" d="M243.15,303a1.5,1.5,0,0,1-.15-.55q0-6.81,0-13.63a.74.74,0,0,1,.21-.57,6.91,6.91,0,0,0,1.29-1.82,1.43,1.43,0,0,0-.24-1.84c-.6-.53-1.14-1.13-1.7-1.7a.41.41,0,0,0-.54-.08c-.33.18-.46.47-.39,1a1,1,0,0,1-.16.76,16.37,16.37,0,0,1-2.8,3.39,15.91,15.91,0,0,1-4.61,3.26.57.57,0,0,0-.28.94,10,10,0,0,0,.84,1,.94.94,0,0,0,1.05.29c.56-.2,1.12-.41,1.67-.64.38-.15.74-.34,1.16-.54,0,.2,0,.36,0,.52,0,1,0,2,0,3,0,2.2,0,4.41,0,6.61a.67.67,0,0,1-.08.38c-.22.35-.5.66-.7,1a3.61,3.61,0,0,0-.32.76.3.3,0,0,0,0,.1,1.17,1.17,0,0,0,0,.39.49.49,0,0,0,.47.44h5.42a.49.49,0,0,0,.47-.51v-.21a3.29,3.29,0,0,0-.09-.64C243.48,303.8,243.29,303.42,243.15,303Z" transform="translate(-233.48 -256.35)"/><path class="cls-1" d="M304.42,289.17a.3.3,0,0,0-.25-.29c-.29-.11-.59-.19-.89-.29-.91-.29-1.83-.57-2.74-.88-.57-.2-1.13-.45-1.75-.7.17-.16.3-.29.44-.41a19.81,19.81,0,0,0,2.6-2.89.61.61,0,0,0,.14-.45c-.07-.18,0-.48-.33-.52a2.24,2.24,0,0,0-.44-.07H289.57a3.11,3.11,0,0,0-.44.07c-.47.16-.52.23-.46.69a1.73,1.73,0,0,0,.39,1c.52.58,1,1.17,1.57,1.72.39.39.83.72,1.28,1.1a15.4,15.4,0,0,1-3.52,1.14,1.57,1.57,0,0,0-.63.32c-.09.06-.09.23-.12.34a4.43,4.43,0,0,1,1.65,1.68c.08.15.19.28.27.43a.59.59,0,0,0,.66.31,8.35,8.35,0,0,0,1.11-.21,18.58,18.58,0,0,0,3.71-1.63.92.92,0,0,1,.91,0c.67.33,1.35.65,2,.94s1.31.52,2,.77a1.26,1.26,0,0,0,1,0h0a5.89,5.89,0,0,0,.95-.44,11,11,0,0,1,2.23-1.35C304.32,289.41,304.42,289.34,304.42,289.17Zm-9.36-3.56c-.46-.21-2.54-1.37-2.54-1.37s4.94,0,5.08,0C297.27,284.53,295.62,285.29,295.06,285.61Z" transform="translate(-233.48 -256.35)"/><path class="cls-1" d="M289,281.93c.06,0,.11.08.17.08l2.15-.08a9.6,9.6,0,0,0,1.24-.46,2.37,2.37,0,0,0,1.27-1.8c.07-.41.17-.81.27-1.21h1.39l.47,0c0,.33,0,.65,0,1a2.06,2.06,0,0,0,.88,1.8,4.67,4.67,0,0,0,2.06.69.81.81,0,0,0,.25.08h2.33a1.11,1.11,0,0,0,.3-.08h0a2,2,0,0,0,1.11-.6,3.12,3.12,0,0,0,.75-1.19,7.13,7.13,0,0,0,.26-1.18c.07-.49,0-.51-.42-.73l-1.15-.57a1.63,1.63,0,0,0-1-.21l-.1.08c0,.21,0,.42-.06.63a2,2,0,0,1-.13.53.39.39,0,0,1-.49.23.48.48,0,0,1-.42-.42c0-.11,0-.22,0-.32,0-.66,0-1.31,0-2s-.13-.74-.63-.89a1.63,1.63,0,0,0-.3-.07h-3c-.47,0-.95,0-1.42,0a3.32,3.32,0,0,0-.44.06l-2.82,0a1,1,0,0,0-1.06,1,11.59,11.59,0,0,1-.19,2.35,2.14,2.14,0,0,1-1.22,1.8l-.47.18c-.36.13-.43.38-.23.71A1.21,1.21,0,0,0,289,281.93Z" transform="translate(-233.48 -256.35)"/><path class="cls-1" d="M235.13,287.09c.05,0,.14,0,.2,0a7.26,7.26,0,0,0,2-.86,15.8,15.8,0,0,0,3.95-3.4,12.3,12.3,0,0,0,2.19-3.57,8.39,8.39,0,0,0,.27-1,2.11,2.11,0,0,0-.46-1.09l-.46-.47c-.42-.42-.84-.84-1.28-1.25-.25-.25-.51-.23-.67.06a1.31,1.31,0,0,0-.21.71,1.76,1.76,0,0,1-.18.82c-.12.27-.25.54-.38.8a19.14,19.14,0,0,1-2.77,3.94,20.52,20.52,0,0,1-3.44,3.28c-.54.4-.57.66-.13,1.18A4.61,4.61,0,0,0,235.13,287.09Z" transform="translate(-233.48 -256.35)"/><path class="cls-1" d="M259.52,279.05a2,2,0,0,0,1,1.81h0a.62.62,0,0,0,.19.07H267l.67-.08a2.4,2.4,0,0,0,.68-2.16c-.09-.58-.59-1-1.18-.55l-.16.11c-.68,0-5.87,0-5.9,0l-.24-.19a.68.68,0,0,0-1.1.27A2.21,2.21,0,0,0,259.52,279.05Z" transform="translate(-233.48 -256.35)"/><path class="cls-1" d="M286.21,286.51h.65A.54.54,0,0,0,286.21,286.51Z" transform="translate(-233.48 -256.35)"/><path class="cls-1" d="M300.45,298.12a.86.86,0,0,0,.85-.24,2.24,2.24,0,0,0,.42-1.8c-.08-.38-.34-.51-.73-.54-.14,0-.46.52-.54.52h-9.72V294.9c.39,0,2,0,2.39-.08h.09l1.49-.08c.4,0,2.2-.12,2.57-.12l1-.07v0l.75-.08a.09.09,0,0,0,.07,0l.07-.07,0,0,0-.06.06-.09,0-.09a1.83,1.83,0,0,0,0-.62,3.42,3.42,0,0,0-1.12-1.66l-.18-.1h0a.36.36,0,0,0-.49,0l-.44,0h-.28l-.47.07-.65,0-3.41.34-.57.06-2.58.21-.39.06-2.85.22-.38,0-.54,0-.75.08h-.18l-.84.08-1.47.11-.75.07h-.17l-.77.08-1.54.11-.76.08h-.17l-.76.07-1.55.12-.67.06a.45.45,0,0,0-.52.34c-.06.23.1.37.26.49a.69.69,0,0,0,.25.18c.56.11,3,.35,3.55.38l1.49.07c.3,0,3.24.1,4.25.11h.27v.78H273.48a.36.36,0,0,0-.36.35v1.37a.35.35,0,0,0,.36.34h10.67v.59H273.77c-.22,0-.23.16-.25.35a2.38,2.38,0,0,0,.13,1.22l.28.52.1.06h10.12V302h-.28l-1.42.07h-3.37a.57.57,0,0,0-.4.13.54.54,0,0,0,.28.84l.49.14a7,7,0,0,1,3.51,1.9,5.5,5.5,0,0,0,2.94,1.59h.31l.24,0a3.94,3.94,0,0,0,3.51-1.48,4,4,0,0,0,.56-1.45,6.72,6.72,0,0,0,.13-1.55s0-.06,0-.09v-1.34H301l.57-1.29,0-.1a1.6,1.6,0,0,0,0-.44c-.19-.6-.72-.72-1.29-.32h-9.64v-.59Z" transform="translate(-233.48 -256.35)"/><path class="cls-1" d="M308.63,286.27c-1.61,1.19-1.34,7.49,0,7.61,2.94-1.34,20-1.95,24.7-.25,1.67.47,1.09-1.63,1.2-3.58C334.39,280.21,331.59,291.86,308.63,286.27Z" transform="translate(-233.48 -256.35)"/><path class="cls-1" d="M361.91,275c-1.12-.37-1.68.67-2.39,1.39,0,0-5.17.77-6.9.77s-6.88-.77-6.88-.77c-6.41-1.91-3.81-2-4.23,11.7,0,0,0,0,0,0h0a.39.39,0,0,0,0,.15c.12.93,1.27,1.66,2.68,1.66a3,3,0,0,0,2.42-1c1.71.08,3.75.15,5.8.15,2.23,0,4.58-.07,6.54-.16a2.82,2.82,0,0,0,2.56,1.25c1.49,0,2.7-.82,2.7-1.82a.13.13,0,0,0,0-.06s0,0,0,0c-.16-2.74,0-5.39-.11-8.15C366.13,278.4,363.73,275.9,361.91,275Zm-9.29,10.81a42,42,0,0,1-6.33-.48v-5.6c.1,0,3.37.44,6.48.46a50.88,50.88,0,0,0,6.18-.38v5.52h-.49A49.52,49.52,0,0,1,352.62,285.77Z" transform="translate(-233.48 -256.35)"/><path class="cls-1" d="M350.75,295.13c.52-1.1,1.1-1.68.9-2.7-.32-1.62-2.16-1.12-2.95-.43,0,0-1.08.53-4.72.55s-4.42-.55-4.42-.55c-.8-.64-3-2.13-3-.9.16,4.09.3,7.24.11,12-.23,1.39-.78,2.82.6,3.13,10.91-2.62,13.87,2.63,14.11-2.2a5.14,5.14,0,0,0-.67-2Zm-9.42,7.25v-6.74a11.39,11.39,0,0,0,2.65.22,13,13,0,0,0,2.5-.18v6.68c-.32,0-1.2-.09-2.5-.1A24.86,24.86,0,0,0,341.33,302.38Z" transform="translate(-233.48 -256.35)"/><path class="cls-1" d="M368.79,295.13c.52-1.1,1.1-1.68.9-2.7-.32-1.62-2.16-1.12-2.95-.43,0,0-1.08.53-4.72.55s-4.42-.55-4.42-.55c-.8-.64-3-2.13-3-.9.16,4.09.3,7.24.11,12-.23,1.39-.78,2.82.6,3.13,10.91-2.62,13.87,2.63,14.11-2.2a5.14,5.14,0,0,0-.67-2Zm-9.42,7.25v-6.74a11.39,11.39,0,0,0,2.65.22,13,13,0,0,0,2.5-.18v6.68c-.32,0-1.2-.09-2.5-.1A24.86,24.86,0,0,0,359.37,302.38Z" transform="translate(-233.48 -256.35)"/></svg>