<svg xmlns="http://www.w3.org/2000/svg" viewBox="0 0 157.37 184.17"><defs><style>.a{fill:#231815;}</style></defs><path class="a" d="M360.58,347.46a14,14,0,0,0-.84-2.58,10.86,10.86,0,0,0-1.45-2.54q5-.61,7.27-2.74a7.12,7.12,0,0,0,2.27-5.41,5.51,5.51,0,0,0-2.62-4.88,42.44,42.44,0,0,1-3.28,5,34.43,34.43,0,0,1-3.68,4.18c.13.44.28.88.45,1.33s.34.88.53,1.29a12.81,12.81,0,0,0-1.8.66c-.69.3-1.34.61-1.95.92a14.67,14.67,0,0,0-1.5.88c-.11-.21-.21-.43-.3-.65s-.19-.44-.27-.66a16.32,16.32,0,0,1-4.18,1.78,10.06,10.06,0,0,1-4.06.27,4.71,4.71,0,0,1-2.86-1.64,6,6,0,0,1-1.31-4.22,12.29,12.29,0,0,1,1.27-5.55,15,15,0,0,1,3.5-4.57,19.29,19.29,0,0,1,5.1-3.28c0-1.47,0-2.92.12-4.34-1.5.11-2.91.16-4.22.16a27,27,0,0,1-3.27-.16l-.37-5.45a35.62,35.62,0,0,0,3.72.27c1.45,0,3,0,4.59,0,.14-.9.27-1.77.39-2.6s.25-1.64.39-2.4l5.57,1c-.11.58-.22,1.16-.34,1.74s-.23,1.19-.31,1.79q2.91-.33,5.63-.86a28.82,28.82,0,0,0,4.65-1.27l.49,5.24a40.84,40.84,0,0,1-5.08,1.21q-3,.56-6.31.88c0,.52,0,1.05-.08,1.58s-.05,1.07-.08,1.62c.57-.09,1.16-.15,1.76-.21s1.2-.08,1.8-.08a20.64,20.64,0,0,1,2.22.12c.19-.52.37-1,.55-1.56s.35-1,.51-1.59l5.49,1.47a26,26,0,0,1-1.23,3.08,11.28,11.28,0,0,1,4.8,3.89,9.77,9.77,0,0,1,1.72,5.65,12.52,12.52,0,0,1-1.64,6.47,12.26,12.26,0,0,1-4.63,4.49A19.29,19.29,0,0,1,360.58,347.46Zm-12.41-8.64a10.26,10.26,0,0,0,3.77-1.89,52.59,52.59,0,0,1-.86-6.47,10.93,10.93,0,0,0-3.26,3.11,6.61,6.61,0,0,0-1.21,3.73,1.81,1.81,0,0,0,.37,1.36A1.37,1.37,0,0,0,348.17,338.82Zm8.64-6.56a23.55,23.55,0,0,0,1.58-2c.5-.73,1-1.49,1.45-2.28-.6,0-1.18,0-1.74.08s-1.11.14-1.66.25C356.52,329.63,356.65,331,356.81,332.26Z" transform="translate(-218.54 -310.55)"/><path class="a" d="M361,394.53a7.49,7.49,0,0,0-.72-1.9,21,21,0,0,0-1.27-2.16,8.06,8.06,0,0,0-1.45-1.68q5.78-.9,8.56-3.52A8.93,8.93,0,0,0,369,379a9.3,9.3,0,0,0-1-5,10.09,10.09,0,0,0-3.1-3.54,10,10,0,0,0-4.24-1.74,56.67,56.67,0,0,1-1.21,7.52,38.91,38.91,0,0,1-2.43,7.33,21.78,21.78,0,0,1-3.85,5.92,6.76,6.76,0,0,1-3.65,2.36,7,7,0,0,1-3.65-.51,8.42,8.42,0,0,1-3.28-2.48,12,12,0,0,1-2.11-4,14.38,14.38,0,0,1-.59-4.9,17.5,17.5,0,0,1,1.82-7,17.13,17.13,0,0,1,4.33-5.47,18.7,18.7,0,0,1,6.2-3.44,20.29,20.29,0,0,1,7.48-1,17,17,0,0,1,6.19,1.46,16.37,16.37,0,0,1,5,3.5,15.35,15.35,0,0,1,3.29,5.12,14.65,14.65,0,0,1,.95,6.31,14.5,14.5,0,0,1-4.1,9.82A20.11,20.11,0,0,1,361,394.53ZM349,385.07a12.6,12.6,0,0,0,2.56-3.83,32.72,32.72,0,0,0,2-5.7,39.19,39.19,0,0,0,1.11-6.45,12.3,12.3,0,0,0-4.49,2.35,11.83,11.83,0,0,0-3.05,3.87,12.93,12.93,0,0,0-1.27,5,7.12,7.12,0,0,0,.35,2.79,4.94,4.94,0,0,0,1.25,2A1,1,0,0,0,349,385.07Z" transform="translate(-218.54 -310.55)"/><path class="a" d="M343.25,446a17.59,17.59,0,0,0-1.76-.82c-.69-.27-1.35-.52-2-.73a11.47,11.47,0,0,0-1.62-.45,24,24,0,0,0,2.46-7.09,50.71,50.71,0,0,0,.78-9.47V412.77h14v-4.3h6.47v4.3H375.9v5.41H362.75v3.44h11.72v5H362.75v3.65h10V446H348.9V430.31h7.38V418.18H347v9.38a52.57,52.57,0,0,1-1,10.82A26,26,0,0,1,343.25,446ZM354.8,441h12v-5.57h-12Z" transform="translate(-218.54 -310.55)"/><path class="a" d="M361,492.86a7.64,7.64,0,0,0-.72-1.9,19.83,19.83,0,0,0-1.27-2.15,8.06,8.06,0,0,0-1.45-1.68q5.78-.9,8.56-3.53a8.91,8.91,0,0,0,2.95-6.31,9.26,9.26,0,0,0-1-5,10.12,10.12,0,0,0-7.34-5.29,56.67,56.67,0,0,1-1.21,7.52,38.67,38.67,0,0,1-2.43,7.33,21.78,21.78,0,0,1-3.85,5.92,6.7,6.7,0,0,1-3.65,2.36,6.83,6.83,0,0,1-3.65-.51,8.42,8.42,0,0,1-3.28-2.48,11.85,11.85,0,0,1-2.11-4,14.35,14.35,0,0,1-.59-4.89,17.51,17.51,0,0,1,1.82-7,17.24,17.24,0,0,1,4.33-5.47,18.7,18.7,0,0,1,6.2-3.44,20.09,20.09,0,0,1,7.48-1,17,17,0,0,1,6.19,1.45,16.37,16.37,0,0,1,5,3.5,15.45,15.45,0,0,1,3.29,5.12,14.69,14.69,0,0,1,.95,6.32,14.45,14.45,0,0,1-4.1,9.81A20,20,0,0,1,361,492.86ZM349,483.4a12.48,12.48,0,0,0,2.56-3.83,32.72,32.72,0,0,0,2-5.7,38.83,38.83,0,0,0,1.11-6.45,12.32,12.32,0,0,0-4.49,2.36,11.83,11.83,0,0,0-3.05,3.87,12.84,12.84,0,0,0-1.27,5,7.1,7.1,0,0,0,.35,2.78,5,5,0,0,0,1.25,2A1,1,0,0,0,349,483.4Z" transform="translate(-218.54 -310.55)"/><path class="a" d="M300.58,347.46a14,14,0,0,0-.84-2.58,10.86,10.86,0,0,0-1.45-2.54q5-.61,7.27-2.74a7.12,7.12,0,0,0,2.27-5.41,5.51,5.51,0,0,0-2.62-4.88,42.44,42.44,0,0,1-3.28,5,34.43,34.43,0,0,1-3.68,4.18c.13.44.28.88.45,1.33s.34.88.53,1.29a12.81,12.81,0,0,0-1.8.66c-.69.3-1.34.61-1.95.92a14.67,14.67,0,0,0-1.5.88c-.11-.21-.21-.43-.3-.65s-.19-.44-.27-.66a16.32,16.32,0,0,1-4.18,1.78,10.06,10.06,0,0,1-4.06.27,4.71,4.71,0,0,1-2.86-1.64,6,6,0,0,1-1.31-4.22,12.29,12.29,0,0,1,1.27-5.55,15,15,0,0,1,3.5-4.57,19.29,19.29,0,0,1,5.1-3.28c0-1.47,0-2.92.12-4.34-1.5.11-2.91.16-4.22.16a27,27,0,0,1-3.27-.16l-.37-5.45a35.62,35.62,0,0,0,3.72.27c1.45,0,3,0,4.59,0,.14-.9.27-1.77.39-2.6s.25-1.64.39-2.4l5.57,1c-.11.58-.22,1.16-.34,1.74s-.23,1.19-.31,1.79q2.91-.33,5.63-.86a28.82,28.82,0,0,0,4.65-1.27l.49,5.24a40.84,40.84,0,0,1-5.08,1.21q-3,.56-6.31.88c0,.52,0,1.05-.08,1.58s-.05,1.07-.08,1.62c.57-.09,1.16-.15,1.76-.21s1.2-.08,1.8-.08a20.64,20.64,0,0,1,2.22.12c.19-.52.37-1,.55-1.56s.35-1,.51-1.59l5.49,1.47a26,26,0,0,1-1.23,3.08,11.28,11.28,0,0,1,4.8,3.89,9.77,9.77,0,0,1,1.72,5.65,12.52,12.52,0,0,1-1.64,6.47,12.26,12.26,0,0,1-4.63,4.49A19.29,19.29,0,0,1,300.58,347.46Zm-12.41-8.64a10.26,10.26,0,0,0,3.77-1.89,52.59,52.59,0,0,1-.86-6.47,10.93,10.93,0,0,0-3.26,3.11,6.61,6.61,0,0,0-1.21,3.73,1.81,1.81,0,0,0,.37,1.36A1.37,1.37,0,0,0,288.17,338.82Zm8.64-6.56a23.55,23.55,0,0,0,1.58-2c.5-.73,1-1.49,1.45-2.28-.6,0-1.18,0-1.74.08s-1.11.14-1.66.25C296.52,329.63,296.65,331,296.81,332.26Z" transform="translate(-218.54 -310.55)"/><path class="a" d="M301,394.53a7.49,7.49,0,0,0-.72-1.9,21,21,0,0,0-1.27-2.16,8.06,8.06,0,0,0-1.45-1.68q5.78-.9,8.56-3.52A8.93,8.93,0,0,0,309,379a9.3,9.3,0,0,0-1-5,10.09,10.09,0,0,0-3.1-3.54,10,10,0,0,0-4.24-1.74,56.67,56.67,0,0,1-1.21,7.52,38.91,38.91,0,0,1-2.43,7.33,21.78,21.78,0,0,1-3.85,5.92,6.76,6.76,0,0,1-3.65,2.36,7,7,0,0,1-3.65-.51,8.42,8.42,0,0,1-3.28-2.48,12,12,0,0,1-2.11-4,14.38,14.38,0,0,1-.59-4.9,17.5,17.5,0,0,1,1.82-7,17.13,17.13,0,0,1,4.33-5.47,18.7,18.7,0,0,1,6.2-3.44,20.29,20.29,0,0,1,7.48-1,17,17,0,0,1,6.19,1.46,16.37,16.37,0,0,1,5,3.5,15.35,15.35,0,0,1,3.29,5.12,14.65,14.65,0,0,1,.95,6.31,14.5,14.5,0,0,1-4.1,9.82A20.11,20.11,0,0,1,301,394.53ZM289,385.07a12.6,12.6,0,0,0,2.56-3.83,32.72,32.72,0,0,0,2-5.7,39.19,39.19,0,0,0,1.11-6.45,12.3,12.3,0,0,0-4.49,2.35,11.83,11.83,0,0,0-3.05,3.87,12.93,12.93,0,0,0-1.27,5,7.12,7.12,0,0,0,.35,2.79,4.94,4.94,0,0,0,1.25,2A1,1,0,0,0,289,385.07Z" transform="translate(-218.54 -310.55)"/><path class="a" d="M299.39,446.17v-11.8a44.82,44.82,0,0,1-4,3.66c-1.42,1.16-2.83,2.22-4.22,3.16a38.68,38.68,0,0,1-3.85,2.31,13.37,13.37,0,0,0-1-1.58,20.19,20.19,0,0,0-1.39-1.65A8,8,0,0,0,283.5,439a27.35,27.35,0,0,0,3.58-1.85q1.91-1.14,3.85-2.54a44.78,44.78,0,0,0,3.65-2.91,31.17,31.17,0,0,0,2.93-2.95h-5.86V434H279.19v-21h12.46v10.32h7.74v-3.89h-6.55v-5.24h6.55v-5.86h5.86v5.86h8.15v5.24h-8.15v3.89h10.94v5.41h-9.71a26.46,26.46,0,0,0,2.52,2.83c1,1,2,1.88,3.09,2.77s2.16,1.68,3.2,2.39a25.9,25.9,0,0,0,2.83,1.72,13.76,13.76,0,0,0-2.4,2.16,12.94,12.94,0,0,0-1.78,2.35,32.79,32.79,0,0,1-4.43-3.44,41.31,41.31,0,0,1-4.26-4.51v11.11Zm-15-17.58h2.09V418.47H284.4Z" transform="translate(-218.54 -310.55)"/><path class="a" d="M300.83,494.72a27.49,27.49,0,0,1-6.46-.7,10,10,0,0,1-4.52-2.25,5.38,5.38,0,0,1-1.68-4.14,6.31,6.31,0,0,1,1.18-3.73,12.06,12.06,0,0,1,3.3-3,29.8,29.8,0,0,1,4.86-2.52v-.21a2,2,0,0,0-.68-1.64,2.83,2.83,0,0,0-1.66-.65,6.19,6.19,0,0,0-3.09.33,9.53,9.53,0,0,0-3,2.21l-1.4,1.31c-.6.57-1.2,1.15-1.82,1.72l-1.49,1.39L280,478.45a24.85,24.85,0,0,0,5.25-4.4,37.88,37.88,0,0,0,4.38-5.84c-2.89.14-5,.18-6.31.12l-.25-5.74c1,.09,2.25.13,3.88.13s3.36,0,5.22-.13a18.57,18.57,0,0,0,1-4.67l6,.33c-.06.66-.14,1.31-.25,2a18,18,0,0,1-.45,2c1.94-.14,3.73-.32,5.39-.54a30.74,30.74,0,0,0,3.79-.69l.33,5.53c-.77.13-1.77.28-3,.43s-2.57.29-4,.43l-4.53.41a19.43,19.43,0,0,1-.9,1.76q-.5.86-1,1.68a10.33,10.33,0,0,1,2.21-.25,7.88,7.88,0,0,1,4.28,1.17,5.79,5.79,0,0,1,2.4,4.12c1.47-.47,3-.9,4.52-1.29l4.65-1.17,1.72,5.57q-2.94.33-5.67.88c-1.82.37-3.5.78-5.06,1.21v5.25h-6v-3a12.14,12.14,0,0,0-2.58,1.66,2.29,2.29,0,0,0-1,1.58c0,.85.5,1.4,1.48,1.66a21.84,21.84,0,0,0,5,.39c1,0,2.07-.07,3.34-.2s2.52-.31,3.77-.52a28.09,28.09,0,0,0,3.13-.67c-.08.49-.16,1.14-.23,1.94s-.11,1.6-.14,2.38,0,1.4,0,1.86a38.45,38.45,0,0,1-4.61.72A48.29,48.29,0,0,1,300.83,494.72Z" transform="translate(-218.54 -310.55)"/><path class="a" d="M231.65,346.23a13.47,13.47,0,0,1-5.7-.34,7.4,7.4,0,0,1-3.72-2.42,6.15,6.15,0,0,1-1.32-4,9.34,9.34,0,0,1,2.36-5.9,17.38,17.38,0,0,1,6.62-4.8v-5.24c-1.48.11-2.91.18-4.31.22s-2.69,0-3.89,0l-.24-5.77a29.49,29.49,0,0,0,3.7.1c1.49,0,3.07-.12,4.74-.23v-6h5.57v5.37a28.31,28.31,0,0,0,6.35-1.48l.53,5.49a35.92,35.92,0,0,1-6.88,1.64v4.26c.87-.13,1.76-.24,2.66-.33s1.85-.12,2.83-.12a16.84,16.84,0,0,1,7,1.31,10.23,10.23,0,0,1,4.3,3.48,8.44,8.44,0,0,1,1.45,4.8,8.8,8.8,0,0,1-2.44,6.53,10.37,10.37,0,0,1-12.25.82,8.74,8.74,0,0,1-3.17-4.73,26.21,26.21,0,0,0,2.81-1,13.42,13.42,0,0,0,2.64-1.46c.6,1.89,1.65,2.83,3.15,2.83a2.43,2.43,0,0,0,2.17-1,3.85,3.85,0,0,0-.77-5.15c-1-.84-2.6-1.27-4.92-1.27a24,24,0,0,0-2.85.17,20.2,20.2,0,0,0-2.64.49v9.87a3.84,3.84,0,0,1-.84,2.71A4.72,4.72,0,0,1,231.65,346.23Zm-3.48-5.36c1.14.11,1.72-.22,1.72-1v-4.95a8.91,8.91,0,0,0-2.3,2.09,3.68,3.68,0,0,0-.82,2.17,2,2,0,0,0,.31,1.12A1.4,1.4,0,0,0,228.17,340.87Zm24.21-13.81a22.13,22.13,0,0,0-1.95-1.6c-.77-.57-1.61-1.15-2.49-1.72s-1.77-1.1-2.63-1.58a17.82,17.82,0,0,0-2.27-1.08l3.15-4.55a30.7,30.7,0,0,1,3.34,1.58c1.19.64,2.34,1.33,3.44,2.07a21.24,21.24,0,0,1,2.85,2.21,16,16,0,0,0-1.29,1.5c-.48.61-.91,1.21-1.31,1.8A12.22,12.22,0,0,0,252.38,327.06Z" transform="translate(-218.54 -310.55)"/><path class="a" d="M233,397.33a16.89,16.89,0,0,0-.22-1.79c-.13-.69-.26-1.38-.41-2.06a8,8,0,0,0-.51-1.64h2.49a4.63,4.63,0,0,0,2.5-.62,2.57,2.57,0,0,0,1-2.37v-.21a.54.54,0,0,0,0-.2,32.68,32.68,0,0,1-3.63,2.11q-2.07,1-4.36,2c-1.53.65-3.06,1.22-4.57,1.72s-3,.93-4.32,1.25a18.1,18.1,0,0,0-1.05-2.54,11.2,11.2,0,0,0-1.37-2.17,53.9,53.9,0,0,0,6.29-1.72,60.73,60.73,0,0,0,6.43-2.58,33.59,33.59,0,0,0,5.51-3.2,6,6,0,0,0-.2-.65l-.25-.62a28.34,28.34,0,0,1-4.42,2.69,56.1,56.1,0,0,1-5.37,2.33,53.63,53.63,0,0,1-5.25,1.7,12.71,12.71,0,0,0-1-2.48,7.73,7.73,0,0,0-1.42-2,45.62,45.62,0,0,0,5.23-1.42,52.48,52.48,0,0,0,5.47-2.13,31.89,31.89,0,0,0,4.63-2.52,3.27,3.27,0,0,1-.29-.39,2.28,2.28,0,0,0-.29-.34c-1.85.93-3.83,1.79-5.92,2.6a57.06,57.06,0,0,1-6.16,2,10.56,10.56,0,0,0-1-2.36,12.52,12.52,0,0,0-1.45-2.15,39.65,39.65,0,0,0,5.41-1.44,50.36,50.36,0,0,0,5.65-2.25h-3.64v-4.71h22.33v4.71h-9.47l-.76.57-.84.62a18.35,18.35,0,0,1,3.61,4.67,41.61,41.61,0,0,0,4.73-3.09,32.25,32.25,0,0,0,3.71-3.18l3.81,4a42,42,0,0,1-3.95,2.86,44.63,44.63,0,0,1-4.25,2.42,22.12,22.12,0,0,0,3.84,3.05,34.79,34.79,0,0,0,4.38,2.4c1.49.68,2.87,1.24,4.16,1.68a12.72,12.72,0,0,0-1.95,2.32,24.55,24.55,0,0,0-1.62,2.72,34.69,34.69,0,0,1-3.6-1.86,32.32,32.32,0,0,1-3.77-2.58,27.18,27.18,0,0,1-3.36-3.14,4.14,4.14,0,0,1,0,.64v.67q0,4.31-2.13,6.48a8.09,8.09,0,0,1-6,2.17Zm-13.76-25.57V362.5h15.28v-3.11h6.23v3.11H256v9.06h-5.94v-4.14h-25v4.34Z" transform="translate(-218.54 -310.55)"/><path class="a" d="M247.05,445.06a19.66,19.66,0,0,1-7.84-2.56,14.53,14.53,0,0,1-5.27-5.35,15.21,15.21,0,0,1-1.88-7.62,13.43,13.43,0,0,1,1.25-5.63,17.35,17.35,0,0,1,3.54-5.1c-2.1.35-4.16.71-6.16,1.08s-3.81.72-5.41,1.05-2.86.63-3.79.9l-1.31-6.52c.87,0,2.12-.12,3.75-.28s3.47-.39,5.55-.68,4.22-.6,6.45-.94,4.38-.7,6.45-1.07,3.94-.73,5.58-1.08,2.9-.67,3.81-.95l1.63,6.11c-.46,0-1,.09-1.7.18l-2.23.31a12.28,12.28,0,0,0-4.1,1.25,13.69,13.69,0,0,0-3.62,2.66,12.57,12.57,0,0,0-2.56,3.86,12.13,12.13,0,0,0-.94,4.85,7.62,7.62,0,0,0,1.55,5,10.1,10.1,0,0,0,4.3,3,25.32,25.32,0,0,0,6.27,1.47,12.75,12.75,0,0,0-1.45,1.93,18,18,0,0,0-1.21,2.27A10.4,10.4,0,0,0,247.05,445.06Zm3.45-16.23a18.9,18.9,0,0,0-1.95-2.66c-.78-.9-1.48-1.65-2.11-2.25l2.62-2.13a17.82,17.82,0,0,1,1.4,1.39c.54.6,1.07,1.22,1.59,1.84s.93,1.17,1.23,1.6Zm3.93-3.19a20,20,0,0,0-2-2.64,26.73,26.73,0,0,0-2.13-2.24l2.67-2.13a18,18,0,0,1,1.39,1.39c.54.61,1.08,1.22,1.6,1.85a16.2,16.2,0,0,1,1.18,1.6Z" transform="translate(-218.54 -310.55)"/><path class="a" d="M249.59,470.87a6.08,6.08,0,0,1-3.17-.84,6.36,6.36,0,0,1-2.25-2.27,6.09,6.09,0,0,1-.84-3.12,6,6,0,0,1,.86-3.21,6.55,6.55,0,0,1,2.27-2.26,6.27,6.27,0,0,1,6.27,0,6.41,6.41,0,0,1,2.25,2.26,6.15,6.15,0,0,1,.84,3.21,6,6,0,0,1-.84,3.14,6.38,6.38,0,0,1-2.25,2.25A6,6,0,0,1,249.59,470.87Zm0-2.62a3.48,3.48,0,0,0,2.57-1.07,3.57,3.57,0,0,0,1-2.58,3.53,3.53,0,0,0-1-2.54,3.47,3.47,0,0,0-2.57-1.06,3.43,3.43,0,0,0-2.56,1.08,3.62,3.62,0,0,0,0,5.08A3.4,3.4,0,0,0,249.59,468.25Z" transform="translate(-218.54 -310.55)"/></svg>