<svg xmlns="http://www.w3.org/2000/svg" viewBox="0 0 537 537"><defs><style>.a{fill:none;}</style></defs><rect class="a" width="537" height="537"/><path d="M7377.35-7361.66c0-.11,0-.22,0-.33s.08-.47.1-.71,0-.3,0-.45,0-.4,0-.6v-.48c0-.19,0-.39,0-.59l0-.44c0-.3-.08-.59-.14-.88a1.55,1.55,0,0,0,0-.21c-.07-.31-.15-.63-.24-.94,0-.1-.07-.21-.11-.31s-.16-.46-.25-.68l-.15-.36c-.09-.2-.19-.4-.29-.6l-.2-.37-.15-.28c-.05-.09-.12-.17-.18-.26a2.92,2.92,0,0,0-.24-.37l-.37-.51c-.09-.11-.17-.22-.27-.33s-.29-.33-.44-.49-.17-.2-.27-.3-.43-.41-.66-.6-.26-.21-.39-.31a6.41,6.41,0,0,0-.52-.39c-.13-.1-.27-.18-.41-.27s-.32-.2-.49-.29-.28-.16-.43-.23a5.77,5.77,0,0,0-.56-.27l-.39-.17c-.26-.11-.53-.2-.8-.29l-.18-.06h0c-.34-.1-.69-.19-1-.26l-.35-.06-.7-.1-.44,0c-.2,0-.41,0-.62,0h-.46l-.61,0-.44,0-.71.11-.33.06c-.32.07-.65.15-1,.25l-.07,0h0l-359,108.42a11.59,11.59,0,0,0-8.21,10.2,11.6,11.6,0,0,0,6.52,11.35l165.41,79.83,79.83,165.41a11.61,11.61,0,0,0,10.44,6.56c.31,0,.61,0,.91,0a11.59,11.59,0,0,0,10.2-8.21l108.44-359.09v0C7377.19-7360.95,7377.28-7361.3,7377.35-7361.66Zm-52.22,22.18-151.56,151.56L7038.74-7253ZM7255-7036.69,7190-7171.52l151.56-151.56Z" transform="translate(-6931.5 7468.5)"/></svg>