<svg xmlns="http://www.w3.org/2000/svg" viewBox="0 0 537 537"><defs><style>.a{fill:#040000;}.b{fill:none;}</style></defs><path class="a" d="M7275.16-7213.33a13.76,13.76,0,0,0-19.45.1L7200-7157.11l-55.73-56.1a13.77,13.77,0,0,0-19.47.14h0a13.78,13.78,0,0,0-.11,19.2l65.52,66.23a13.76,13.76,0,0,0,19.46.12h0l.12-.12,65.5-66.23a13.77,13.77,0,0,0-.11-19.46Z" transform="translate(-6931.5 7468.5)"/><path class="a" d="M7275.16-7280.39a13.76,13.76,0,0,0-19.45.1L7200-7224.17l-55.73-56.1a13.78,13.78,0,0,0-19.48.15,13.78,13.78,0,0,0-.11,19.2l65.52,66.23a13.76,13.76,0,0,0,19.46.12h0l.12-.12,65.5-66.23a13.77,13.77,0,0,0-.11-19.46Z" transform="translate(-6931.5 7468.5)"/><rect class="b" width="537" height="537"/></svg>